  0
SECTION
  2
HEADER
  9
$ANGBASE
  50
0.0
  9
$ANGDIR
  70
1
  9
$MEASUREMENT
  70
0
  0
ENDSEC
  0
SECTION
  2
TABLES
  0
TABLE
  2
LTYPE
  70
4
  0
LTYPE
  5
40F
  2
CONTINUOUS
  70
0
  3
Solid line
  72
65
  73
0
  40
0.0
  0
LTYPE
  5
410
  2
DASHDOT
 70
0
  3
Dash Dot ____ _ ____ _
 72
65
 73
4
 40
2.0
 49
1.25
 49
-0.25
 49
0.25
 49
-0.25
  0
LTYPE
  5
411
  2
DASHED
 70
0
  3
Dashed __ __ __ __ __
 72
65
 73
2
 40
0.75
 49
0.5
 49
-0.25
  0
LTYPE
  5
43B
  2
DOTTED
 70
0
  3
Dotted .  .  .  .
 72
65
 73
2
 40
0.2
 49
0.0
 49
-0.2
  0
ENDTAB
  0
TABLE
  2
STYLE
  70
4
  0
STYLE
  2
KICAD
  70
0
  40
0
  41
1
  42
1
  50
0
  71
0
  3
isocp.shx
  0
STYLE
  2
KICADB
  70
0
  40
0
  41
1
  42
1
  50
0
  71
0
  3
isocp.shx
  0
STYLE
  2
KICADI
  70
0
  40
0
  41
1
  42
1
  50
15
  71
0
  3
isocp.shx
  0
STYLE
  2
KICADBI
  70
0
  40
0
  41
1
  42
1
  50
15
  71
0
  3
isocp.shx
  0
ENDTAB
  0
TABLE
  2
LAYER
  70
1
  0
LAYER
  2
BLACK
  70
0
  62
7
  6
CONTINUOUS
  0
ENDTAB
  0
ENDSEC
  0
SECTION
  2
ENTITIES
0
LINE
8
BLACK
6
CONTINUOUS
10
5.2419291338582674
20
-5.6608858267716533
11
5.218307086614173
21
-5.6608858267716533
0
LINE
8
BLACK
6
CONTINUOUS
10
5.218307086614173
20
-5.6608858267716533
11
5.218307086614173
21
-5.616003937007874
0
LINE
8
BLACK
6
CONTINUOUS
10
5.218307086614173
20
-5.616003937007874
11
5.2419291338582674
21
-5.616003937007874
0
LINE
8
BLACK
6
CONTINUOUS
10
5.2419291338582674
20
-5.616003937007874
11
5.2419291338582674
21
-5.6608858267716533
0
LINE
8
BLACK
6
CONTINUOUS
10
5.2734251968503933
20
-5.6608858267716533
11
5.2498031496062989
21
-5.6608858267716533
0
LINE
8
BLACK
6
CONTINUOUS
10
5.2498031496062989
20
-5.6608858267716533
11
5.2498031496062989
21
-5.616003937007874
0
LINE
8
BLACK
6
CONTINUOUS
10
5.2498031496062989
20
-5.616003937007874
11
5.2734251968503933
21
-5.616003937007874
0
LINE
8
BLACK
6
CONTINUOUS
10
5.2734251968503933
20
-5.616003937007874
11
5.2734251968503933
21
-5.6608858267716533
0
LINE
8
BLACK
6
CONTINUOUS
10
5.2931102362204721
20
-5.6608858267716533
11
5.2812992125984248
21
-5.6608858267716533
0
LINE
8
BLACK
6
CONTINUOUS
10
5.2812992125984248
20
-5.6608858267716533
11
5.2812992125984248
21
-5.616003937007874
0
LINE
8
BLACK
6
CONTINUOUS
10
5.2812992125984248
20
-5.616003937007874
11
5.2931102362204721
21
-5.616003937007874
0
LINE
8
BLACK
6
CONTINUOUS
10
5.2931102362204721
20
-5.616003937007874
11
5.2931102362204721
21
-5.6608858267716533
0
LINE
8
BLACK
6
CONTINUOUS
10
5.3127952755905508
20
-5.6608858267716533
11
5.3009842519685035
21
-5.6608858267716533
0
LINE
8
BLACK
6
CONTINUOUS
10
5.3009842519685035
20
-5.6608858267716533
11
5.3009842519685035
21
-5.616003937007874
0
LINE
8
BLACK
6
CONTINUOUS
10
5.3009842519685035
20
-5.616003937007874
11
5.3127952755905508
21
-5.616003937007874
0
LINE
8
BLACK
6
CONTINUOUS
10
5.3127952755905508
20
-5.616003937007874
11
5.3127952755905508
21
-5.6608858267716533
0
LINE
8
BLACK
6
CONTINUOUS
10
5.3324803149606295
20
-5.6608858267716533
11
5.3206692913385822
21
-5.6608858267716533
0
LINE
8
BLACK
6
CONTINUOUS
10
5.3206692913385822
20
-5.6608858267716533
11
5.3206692913385822
21
-5.616003937007874
0
LINE
8
BLACK
6
CONTINUOUS
10
5.3206692913385822
20
-5.616003937007874
11
5.3324803149606295
21
-5.616003937007874
0
LINE
8
BLACK
6
CONTINUOUS
10
5.3324803149606295
20
-5.616003937007874
11
5.3324803149606295
21
-5.6608858267716533
0
LINE
8
BLACK
6
CONTINUOUS
10
5.3521653543307082
20
-5.6608858267716533
11
5.3403543307086609
21
-5.6608858267716533
0
LINE
8
BLACK
6
CONTINUOUS
10
5.3403543307086609
20
-5.6608858267716533
11
5.3403543307086609
21
-5.616003937007874
0
LINE
8
BLACK
6
CONTINUOUS
10
5.3403543307086609
20
-5.616003937007874
11
5.3521653543307082
21
-5.616003937007874
0
LINE
8
BLACK
6
CONTINUOUS
10
5.3521653543307082
20
-5.616003937007874
11
5.3521653543307082
21
-5.6608858267716533
0
LINE
8
BLACK
6
CONTINUOUS
10
5.3718503937007869
20
-5.6608858267716533
11
5.3600393700787397
21
-5.6608858267716533
0
LINE
8
BLACK
6
CONTINUOUS
10
5.3600393700787397
20
-5.6608858267716533
11
5.3600393700787397
21
-5.616003937007874
0
LINE
8
BLACK
6
CONTINUOUS
10
5.3600393700787397
20
-5.616003937007874
11
5.3718503937007869
21
-5.616003937007874
0
LINE
8
BLACK
6
CONTINUOUS
10
5.3718503937007869
20
-5.616003937007874
11
5.3718503937007869
21
-5.6608858267716533
0
LINE
8
BLACK
6
CONTINUOUS
10
5.3915354330708656
20
-5.6608858267716533
11
5.3797244094488184
21
-5.6608858267716533
0
LINE
8
BLACK
6
CONTINUOUS
10
5.3797244094488184
20
-5.6608858267716533
11
5.3797244094488184
21
-5.616003937007874
0
LINE
8
BLACK
6
CONTINUOUS
10
5.3797244094488184
20
-5.616003937007874
11
5.3915354330708656
21
-5.616003937007874
0
LINE
8
BLACK
6
CONTINUOUS
10
5.3915354330708656
20
-5.616003937007874
11
5.3915354330708656
21
-5.6608858267716533
0
LINE
8
BLACK
6
CONTINUOUS
10
5.4112204724409452
20
-5.6608858267716533
11
5.3994094488188979
21
-5.6608858267716533
0
LINE
8
BLACK
6
CONTINUOUS
10
5.3994094488188979
20
-5.6608858267716533
11
5.3994094488188979
21
-5.616003937007874
0
LINE
8
BLACK
6
CONTINUOUS
10
5.3994094488188979
20
-5.616003937007874
11
5.4112204724409452
21
-5.616003937007874
0
LINE
8
BLACK
6
CONTINUOUS
10
5.4112204724409452
20
-5.616003937007874
11
5.4112204724409452
21
-5.6608858267716533
0
LINE
8
BLACK
6
CONTINUOUS
10
5.4309055118110239
20
-5.6608858267716533
11
5.4190944881889767
21
-5.6608858267716533
0
LINE
8
BLACK
6
CONTINUOUS
10
5.4190944881889767
20
-5.6608858267716533
11
5.4190944881889767
21
-5.616003937007874
0
LINE
8
BLACK
6
CONTINUOUS
10
5.4190944881889767
20
-5.616003937007874
11
5.4309055118110239
21
-5.616003937007874
0
LINE
8
BLACK
6
CONTINUOUS
10
5.4309055118110239
20
-5.616003937007874
11
5.4309055118110239
21
-5.6608858267716533
0
LINE
8
BLACK
6
CONTINUOUS
10
5.4624015748031498
20
-5.6608858267716533
11
5.4387795275590554
21
-5.6608858267716533
0
LINE
8
BLACK
6
CONTINUOUS
10
5.4387795275590554
20
-5.6608858267716533
11
5.4387795275590554
21
-5.616003937007874
0
LINE
8
BLACK
6
CONTINUOUS
10
5.4387795275590554
20
-5.616003937007874
11
5.4624015748031498
21
-5.616003937007874
0
LINE
8
BLACK
6
CONTINUOUS
10
5.4624015748031498
20
-5.616003937007874
11
5.4624015748031498
21
-5.6608858267716533
0
LINE
8
BLACK
6
CONTINUOUS
10
5.4938976377952757
20
-5.6608858267716533
11
5.4702755905511813
21
-5.6608858267716533
0
LINE
8
BLACK
6
CONTINUOUS
10
5.4702755905511813
20
-5.6608858267716533
11
5.4702755905511813
21
-5.616003937007874
0
LINE
8
BLACK
6
CONTINUOUS
10
5.4702755905511813
20
-5.616003937007874
11
5.4938976377952757
21
-5.616003937007874
0
LINE
8
BLACK
6
CONTINUOUS
10
5.4938976377952757
20
-5.616003937007874
11
5.4938976377952757
21
-5.6608858267716533
0
LINE
8
BLACK
6
CONTINUOUS
10
5.9030708661417322
20
-5.4826771653543309
11
5.844015748031496
21
-5.4826771653543309
0
LINE
8
BLACK
6
CONTINUOUS
10
5.844015748031496
20
-5.4826771653543309
11
5.844015748031496
21
-5.4472440944881892
0
LINE
8
BLACK
6
CONTINUOUS
10
5.844015748031496
20
-5.4472440944881892
11
5.9030708661417322
21
-5.4472440944881892
0
LINE
8
BLACK
6
CONTINUOUS
10
5.9030708661417322
20
-5.4472440944881892
11
5.9030708661417322
21
-5.4826771653543309
0
LINE
8
BLACK
6
CONTINUOUS
10
6.0959842519685035
20
-5.4826771653543309
11
6.0369291338582673
21
-5.4826771653543309
0
LINE
8
BLACK
6
CONTINUOUS
10
6.0369291338582673
20
-5.4826771653543309
11
6.0369291338582673
21
-5.4472440944881892
0
LINE
8
BLACK
6
CONTINUOUS
10
6.0369291338582673
20
-5.4472440944881892
11
6.0959842519685035
21
-5.4472440944881892
0
LINE
8
BLACK
6
CONTINUOUS
10
6.0959842519685035
20
-5.4472440944881892
11
6.0959842519685035
21
-5.4826771653543309
0
LINE
8
BLACK
6
CONTINUOUS
10
5.533070866141732
20
-5.4726771653543302
11
5.4740157480314959
21
-5.4726771653543302
0
LINE
8
BLACK
6
CONTINUOUS
10
5.4740157480314959
20
-5.4726771653543302
11
5.4740157480314959
21
-5.4372440944881886
0
LINE
8
BLACK
6
CONTINUOUS
10
5.4740157480314959
20
-5.4372440944881886
11
5.533070866141732
21
-5.4372440944881886
0
LINE
8
BLACK
6
CONTINUOUS
10
5.533070866141732
20
-5.4372440944881886
11
5.533070866141732
21
-5.4726771653543302
0
LINE
8
BLACK
6
CONTINUOUS
10
5.7259842519685042
20
-5.4726771653543302
11
5.6669291338582672
21
-5.4726771653543302
0
LINE
8
BLACK
6
CONTINUOUS
10
5.6669291338582672
20
-5.4726771653543302
11
5.6669291338582672
21
-5.4372440944881886
0
LINE
8
BLACK
6
CONTINUOUS
10
5.6669291338582672
20
-5.4372440944881886
11
5.7259842519685042
21
-5.4372440944881886
0
LINE
8
BLACK
6
CONTINUOUS
10
5.7259842519685042
20
-5.4372440944881886
11
5.7259842519685042
21
-5.4726771653543302
0
LINE
8
BLACK
6
CONTINUOUS
10
4.7280708661417323
20
-5.4676771653543303
11
4.6690157480314962
21
-5.4676771653543303
0
LINE
8
BLACK
6
CONTINUOUS
10
4.6690157480314962
20
-5.4676771653543303
11
4.6690157480314962
21
-5.4322440944881887
0
LINE
8
BLACK
6
CONTINUOUS
10
4.6690157480314962
20
-5.4322440944881887
11
4.7280708661417323
21
-5.4322440944881887
0
LINE
8
BLACK
6
CONTINUOUS
10
4.7280708661417323
20
-5.4322440944881887
11
4.7280708661417323
21
-5.4676771653543303
0
LINE
8
BLACK
6
CONTINUOUS
10
4.9209842519685036
20
-5.4676771653543303
11
4.8619291338582675
21
-5.4676771653543303
0
LINE
8
BLACK
6
CONTINUOUS
10
4.8619291338582675
20
-5.4676771653543303
11
4.8619291338582675
21
-5.4322440944881887
0
LINE
8
BLACK
6
CONTINUOUS
10
4.8619291338582675
20
-5.4322440944881887
11
4.9209842519685036
21
-5.4322440944881887
0
LINE
8
BLACK
6
CONTINUOUS
10
4.9209842519685036
20
-5.4322440944881887
11
4.9209842519685036
21
-5.4676771653543303
0
LINE
8
BLACK
6
CONTINUOUS
10
4.3230708661417321
20
-5.4626771653543305
11
4.264015748031496
21
-5.4626771653543305
0
LINE
8
BLACK
6
CONTINUOUS
10
4.264015748031496
20
-5.4626771653543305
11
4.264015748031496
21
-5.4272440944881888
0
LINE
8
BLACK
6
CONTINUOUS
10
4.264015748031496
20
-5.4272440944881888
11
4.3230708661417321
21
-5.4272440944881888
0
LINE
8
BLACK
6
CONTINUOUS
10
4.3230708661417321
20
-5.4272440944881888
11
4.3230708661417321
21
-5.4626771653543305
0
LINE
8
BLACK
6
CONTINUOUS
10
4.5159842519685034
20
-5.4626771653543305
11
4.4569291338582673
21
-5.4626771653543305
0
LINE
8
BLACK
6
CONTINUOUS
10
4.4569291338582673
20
-5.4626771653543305
11
4.4569291338582673
21
-5.4272440944881888
0
LINE
8
BLACK
6
CONTINUOUS
10
4.4569291338582673
20
-5.4272440944881888
11
4.5159842519685034
21
-5.4272440944881888
0
LINE
8
BLACK
6
CONTINUOUS
10
4.5159842519685034
20
-5.4272440944881888
11
4.5159842519685034
21
-5.4626771653543305
0
LINE
8
BLACK
6
CONTINUOUS
10
6.2580708661417326
20
-5.4626771653543305
11
6.1990157480314956
21
-5.4626771653543305
0
LINE
8
BLACK
6
CONTINUOUS
10
6.1990157480314956
20
-5.4626771653543305
11
6.1990157480314956
21
-5.4272440944881888
0
LINE
8
BLACK
6
CONTINUOUS
10
6.1990157480314956
20
-5.4272440944881888
11
6.2580708661417326
21
-5.4272440944881888
0
LINE
8
BLACK
6
CONTINUOUS
10
6.2580708661417326
20
-5.4272440944881888
11
6.2580708661417326
21
-5.4626771653543305
0
LINE
8
BLACK
6
CONTINUOUS
10
6.4509842519685039
20
-5.4626771653543305
11
6.3919291338582678
21
-5.4626771653543305
0
LINE
8
BLACK
6
CONTINUOUS
10
6.3919291338582678
20
-5.4626771653543305
11
6.3919291338582678
21
-5.4272440944881888
0
LINE
8
BLACK
6
CONTINUOUS
10
6.3919291338582678
20
-5.4272440944881888
11
6.4509842519685039
21
-5.4272440944881888
0
LINE
8
BLACK
6
CONTINUOUS
10
6.4509842519685039
20
-5.4272440944881888
11
6.4509842519685039
21
-5.4626771653543305
0
LINE
8
BLACK
6
CONTINUOUS
10
5.1245275590551183
20
-5.4626377952755902
11
5.0654724409448821
21
-5.4626377952755902
0
LINE
8
BLACK
6
CONTINUOUS
10
5.0654724409448821
20
-5.4626377952755902
11
5.0654724409448821
21
-5.4272047244094486
0
LINE
8
BLACK
6
CONTINUOUS
10
5.0654724409448821
20
-5.4272047244094486
11
5.1245275590551183
21
-5.4272047244094486
0
LINE
8
BLACK
6
CONTINUOUS
10
5.1245275590551183
20
-5.4272047244094486
11
5.1245275590551183
21
-5.4626377952755902
0
LINE
8
BLACK
6
CONTINUOUS
10
5.3174409448818896
20
-5.4626377952755902
11
5.2583858267716534
21
-5.4626377952755902
0
LINE
8
BLACK
6
CONTINUOUS
10
5.2583858267716534
20
-5.4626377952755902
11
5.2583858267716534
21
-5.4272047244094486
0
LINE
8
BLACK
6
CONTINUOUS
10
5.2583858267716534
20
-5.4272047244094486
11
5.3174409448818896
21
-5.4272047244094486
0
LINE
8
BLACK
6
CONTINUOUS
10
5.3174409448818896
20
-5.4272047244094486
11
5.3174409448818896
21
-5.4626377952755902
0
LINE
8
BLACK
6
CONTINUOUS
10
5.9030708661417322
20
-5.3527559055118106
11
5.844015748031496
21
-5.3527559055118106
0
LINE
8
BLACK
6
CONTINUOUS
10
5.844015748031496
20
-5.3527559055118106
11
5.844015748031496
21
-5.3173228346456689
0
LINE
8
BLACK
6
CONTINUOUS
10
5.844015748031496
20
-5.3173228346456689
11
5.9030708661417322
21
-5.3173228346456689
0
LINE
8
BLACK
6
CONTINUOUS
10
5.9030708661417322
20
-5.3173228346456689
11
5.9030708661417322
21
-5.3527559055118106
0
LINE
8
BLACK
6
CONTINUOUS
10
6.0959842519685035
20
-5.3527559055118106
11
6.0369291338582673
21
-5.3527559055118106
0
LINE
8
BLACK
6
CONTINUOUS
10
6.0369291338582673
20
-5.3527559055118106
11
6.0369291338582673
21
-5.3173228346456689
0
LINE
8
BLACK
6
CONTINUOUS
10
6.0369291338582673
20
-5.3173228346456689
11
6.0959842519685035
21
-5.3173228346456689
0
LINE
8
BLACK
6
CONTINUOUS
10
6.0959842519685035
20
-5.3173228346456689
11
6.0959842519685035
21
-5.3527559055118106
0
LINE
8
BLACK
6
CONTINUOUS
10
5.533070866141732
20
-5.3427559055118108
11
5.4740157480314959
21
-5.3427559055118108
0
LINE
8
BLACK
6
CONTINUOUS
10
5.4740157480314959
20
-5.3427559055118108
11
5.4740157480314959
21
-5.3073228346456691
0
LINE
8
BLACK
6
CONTINUOUS
10
5.4740157480314959
20
-5.3073228346456691
11
5.533070866141732
21
-5.3073228346456691
0
LINE
8
BLACK
6
CONTINUOUS
10
5.533070866141732
20
-5.3073228346456691
11
5.533070866141732
21
-5.3427559055118108
0
LINE
8
BLACK
6
CONTINUOUS
10
5.7259842519685042
20
-5.3427559055118108
11
5.6669291338582672
21
-5.3427559055118108
0
LINE
8
BLACK
6
CONTINUOUS
10
5.6669291338582672
20
-5.3427559055118108
11
5.6669291338582672
21
-5.3073228346456691
0
LINE
8
BLACK
6
CONTINUOUS
10
5.6669291338582672
20
-5.3073228346456691
11
5.7259842519685042
21
-5.3073228346456691
0
LINE
8
BLACK
6
CONTINUOUS
10
5.7259842519685042
20
-5.3073228346456691
11
5.7259842519685042
21
-5.3427559055118108
0
LINE
8
BLACK
6
CONTINUOUS
10
4.7280708661417323
20
-5.3377559055118109
11
4.6690157480314962
21
-5.3377559055118109
0
LINE
8
BLACK
6
CONTINUOUS
10
4.6690157480314962
20
-5.3377559055118109
11
4.6690157480314962
21
-5.3023228346456692
0
LINE
8
BLACK
6
CONTINUOUS
10
4.6690157480314962
20
-5.3023228346456692
11
4.7280708661417323
21
-5.3023228346456692
0
LINE
8
BLACK
6
CONTINUOUS
10
4.7280708661417323
20
-5.3023228346456692
11
4.7280708661417323
21
-5.3377559055118109
0
LINE
8
BLACK
6
CONTINUOUS
10
4.9209842519685036
20
-5.3377559055118109
11
4.8619291338582675
21
-5.3377559055118109
0
LINE
8
BLACK
6
CONTINUOUS
10
4.8619291338582675
20
-5.3377559055118109
11
4.8619291338582675
21
-5.3023228346456692
0
LINE
8
BLACK
6
CONTINUOUS
10
4.8619291338582675
20
-5.3023228346456692
11
4.9209842519685036
21
-5.3023228346456692
0
LINE
8
BLACK
6
CONTINUOUS
10
4.9209842519685036
20
-5.3023228346456692
11
4.9209842519685036
21
-5.3377559055118109
0
LINE
8
BLACK
6
CONTINUOUS
10
4.3230708661417321
20
-5.332755905511811
11
4.264015748031496
21
-5.332755905511811
0
LINE
8
BLACK
6
CONTINUOUS
10
4.264015748031496
20
-5.332755905511811
11
4.264015748031496
21
-5.2973228346456693
0
LINE
8
BLACK
6
CONTINUOUS
10
4.264015748031496
20
-5.2973228346456693
11
4.3230708661417321
21
-5.2973228346456693
0
LINE
8
BLACK
6
CONTINUOUS
10
4.3230708661417321
20
-5.2973228346456693
11
4.3230708661417321
21
-5.332755905511811
0
LINE
8
BLACK
6
CONTINUOUS
10
4.5159842519685034
20
-5.332755905511811
11
4.4569291338582673
21
-5.332755905511811
0
LINE
8
BLACK
6
CONTINUOUS
10
4.4569291338582673
20
-5.332755905511811
11
4.4569291338582673
21
-5.2973228346456693
0
LINE
8
BLACK
6
CONTINUOUS
10
4.4569291338582673
20
-5.2973228346456693
11
4.5159842519685034
21
-5.2973228346456693
0
LINE
8
BLACK
6
CONTINUOUS
10
4.5159842519685034
20
-5.2973228346456693
11
4.5159842519685034
21
-5.332755905511811
0
LINE
8
BLACK
6
CONTINUOUS
10
6.2580708661417326
20
-5.332755905511811
11
6.1990157480314956
21
-5.332755905511811
0
LINE
8
BLACK
6
CONTINUOUS
10
6.1990157480314956
20
-5.332755905511811
11
6.1990157480314956
21
-5.2973228346456693
0
LINE
8
BLACK
6
CONTINUOUS
10
6.1990157480314956
20
-5.2973228346456693
11
6.2580708661417326
21
-5.2973228346456693
0
LINE
8
BLACK
6
CONTINUOUS
10
6.2580708661417326
20
-5.2973228346456693
11
6.2580708661417326
21
-5.332755905511811
0
LINE
8
BLACK
6
CONTINUOUS
10
6.4509842519685039
20
-5.332755905511811
11
6.3919291338582678
21
-5.332755905511811
0
LINE
8
BLACK
6
CONTINUOUS
10
6.3919291338582678
20
-5.332755905511811
11
6.3919291338582678
21
-5.2973228346456693
0
LINE
8
BLACK
6
CONTINUOUS
10
6.3919291338582678
20
-5.2973228346456693
11
6.4509842519685039
21
-5.2973228346456693
0
LINE
8
BLACK
6
CONTINUOUS
10
6.4509842519685039
20
-5.2973228346456693
11
6.4509842519685039
21
-5.332755905511811
0
LINE
8
BLACK
6
CONTINUOUS
10
5.1245275590551183
20
-5.3327165354330708
11
5.0654724409448821
21
-5.3327165354330708
0
LINE
8
BLACK
6
CONTINUOUS
10
5.0654724409448821
20
-5.3327165354330708
11
5.0654724409448821
21
-5.2972834645669291
0
LINE
8
BLACK
6
CONTINUOUS
10
5.0654724409448821
20
-5.2972834645669291
11
5.1245275590551183
21
-5.2972834645669291
0
LINE
8
BLACK
6
CONTINUOUS
10
5.1245275590551183
20
-5.2972834645669291
11
5.1245275590551183
21
-5.3327165354330708
0
LINE
8
BLACK
6
CONTINUOUS
10
5.3174409448818896
20
-5.3327165354330708
11
5.2583858267716534
21
-5.3327165354330708
0
LINE
8
BLACK
6
CONTINUOUS
10
5.2583858267716534
20
-5.3327165354330708
11
5.2583858267716534
21
-5.2972834645669291
0
LINE
8
BLACK
6
CONTINUOUS
10
5.2583858267716534
20
-5.2972834645669291
11
5.3174409448818896
21
-5.2972834645669291
0
LINE
8
BLACK
6
CONTINUOUS
10
5.3174409448818896
20
-5.2972834645669291
11
5.3174409448818896
21
-5.3327165354330708
0
LINE
8
BLACK
6
CONTINUOUS
10
4.3180708661417322
20
-5.1676771653543305
11
4.2590157480314961
21
-5.1676771653543305
0
LINE
8
BLACK
6
CONTINUOUS
10
4.2590157480314961
20
-5.1676771653543305
11
4.2590157480314961
21
-5.1322440944881889
0
LINE
8
BLACK
6
CONTINUOUS
10
4.2590157480314961
20
-5.1322440944881889
11
4.3180708661417322
21
-5.1322440944881889
0
LINE
8
BLACK
6
CONTINUOUS
10
4.3180708661417322
20
-5.1322440944881889
11
4.3180708661417322
21
-5.1676771653543305
0
LINE
8
BLACK
6
CONTINUOUS
10
4.5109842519685035
20
-5.1676771653543305
11
4.4519291338582674
21
-5.1676771653543305
0
LINE
8
BLACK
6
CONTINUOUS
10
4.4519291338582674
20
-5.1676771653543305
11
4.4519291338582674
21
-5.1322440944881889
0
LINE
8
BLACK
6
CONTINUOUS
10
4.4519291338582674
20
-5.1322440944881889
11
4.5109842519685035
21
-5.1322440944881889
0
LINE
8
BLACK
6
CONTINUOUS
10
4.5109842519685035
20
-5.1322440944881889
11
4.5109842519685035
21
-5.1676771653543305
0
LINE
8
BLACK
6
CONTINUOUS
10
4.7395275590551176
20
-5.1627165354330709
11
4.6804724409448815
21
-5.1627165354330709
0
LINE
8
BLACK
6
CONTINUOUS
10
4.6804724409448815
20
-5.1627165354330709
11
4.6804724409448815
21
-5.1272834645669292
0
LINE
8
BLACK
6
CONTINUOUS
10
4.6804724409448815
20
-5.1272834645669292
11
4.7395275590551176
21
-5.1272834645669292
0
LINE
8
BLACK
6
CONTINUOUS
10
4.7395275590551176
20
-5.1272834645669292
11
4.7395275590551176
21
-5.1627165354330709
0
LINE
8
BLACK
6
CONTINUOUS
10
4.9324409448818898
20
-5.1627165354330709
11
4.8733858267716537
21
-5.1627165354330709
0
LINE
8
BLACK
6
CONTINUOUS
10
4.8733858267716537
20
-5.1627165354330709
11
4.8733858267716537
21
-5.1272834645669292
0
LINE
8
BLACK
6
CONTINUOUS
10
4.8733858267716537
20
-5.1272834645669292
11
4.9324409448818898
21
-5.1272834645669292
0
LINE
8
BLACK
6
CONTINUOUS
10
4.9324409448818898
20
-5.1272834645669292
11
4.9324409448818898
21
-5.1627165354330709
0
LINE
8
BLACK
6
CONTINUOUS
10
5.9280708661417325
20
-5.1626771653543306
11
5.8690157480314955
21
-5.1626771653543306
0
LINE
8
BLACK
6
CONTINUOUS
10
5.8690157480314955
20
-5.1626771653543306
11
5.8690157480314955
21
-5.127244094488189
0
LINE
8
BLACK
6
CONTINUOUS
10
5.8690157480314955
20
-5.127244094488189
11
5.9280708661417325
21
-5.127244094488189
0
LINE
8
BLACK
6
CONTINUOUS
10
5.9280708661417325
20
-5.127244094488189
11
5.9280708661417325
21
-5.1626771653543306
0
LINE
8
BLACK
6
CONTINUOUS
10
6.1209842519685038
20
-5.1626771653543306
11
6.0619291338582677
21
-5.1626771653543306
0
LINE
8
BLACK
6
CONTINUOUS
10
6.0619291338582677
20
-5.1626771653543306
11
6.0619291338582677
21
-5.127244094488189
0
LINE
8
BLACK
6
CONTINUOUS
10
6.0619291338582677
20
-5.127244094488189
11
6.1209842519685038
21
-5.127244094488189
0
LINE
8
BLACK
6
CONTINUOUS
10
6.1209842519685038
20
-5.127244094488189
11
6.1209842519685038
21
-5.1626771653543306
0
LINE
8
BLACK
6
CONTINUOUS
10
3.9380708661417323
20
-5.1576771653543307
11
3.8790157480314962
21
-5.1576771653543307
0
LINE
8
BLACK
6
CONTINUOUS
10
3.8790157480314962
20
-5.1576771653543307
11
3.8790157480314962
21
-5.1222440944881891
0
LINE
8
BLACK
6
CONTINUOUS
10
3.8790157480314962
20
-5.1222440944881891
11
3.9380708661417323
21
-5.1222440944881891
0
LINE
8
BLACK
6
CONTINUOUS
10
3.9380708661417323
20
-5.1222440944881891
11
3.9380708661417323
21
-5.1576771653543307
0
LINE
8
BLACK
6
CONTINUOUS
10
4.1309842519685036
20
-5.1576771653543307
11
4.0719291338582675
21
-5.1576771653543307
0
LINE
8
BLACK
6
CONTINUOUS
10
4.0719291338582675
20
-5.1576771653543307
11
4.0719291338582675
21
-5.1222440944881891
0
LINE
8
BLACK
6
CONTINUOUS
10
4.0719291338582675
20
-5.1222440944881891
11
4.1309842519685036
21
-5.1222440944881891
0
LINE
8
BLACK
6
CONTINUOUS
10
4.1309842519685036
20
-5.1222440944881891
11
4.1309842519685036
21
-5.1576771653543307
0
LINE
8
BLACK
6
CONTINUOUS
10
5.1380708661417325
20
-5.1576771653543307
11
5.0790157480314964
21
-5.1576771653543307
0
LINE
8
BLACK
6
CONTINUOUS
10
5.0790157480314964
20
-5.1576771653543307
11
5.0790157480314964
21
-5.1222440944881891
0
LINE
8
BLACK
6
CONTINUOUS
10
5.0790157480314964
20
-5.1222440944881891
11
5.1380708661417325
21
-5.1222440944881891
0
LINE
8
BLACK
6
CONTINUOUS
10
5.1380708661417325
20
-5.1222440944881891
11
5.1380708661417325
21
-5.1576771653543307
0
LINE
8
BLACK
6
CONTINUOUS
10
5.3309842519685038
20
-5.1576771653543307
11
5.2719291338582677
21
-5.1576771653543307
0
LINE
8
BLACK
6
CONTINUOUS
10
5.2719291338582677
20
-5.1576771653543307
11
5.2719291338582677
21
-5.1222440944881891
0
LINE
8
BLACK
6
CONTINUOUS
10
5.2719291338582677
20
-5.1222440944881891
11
5.3309842519685038
21
-5.1222440944881891
0
LINE
8
BLACK
6
CONTINUOUS
10
5.3309842519685038
20
-5.1222440944881891
11
5.3309842519685038
21
-5.1576771653543307
0
LINE
8
BLACK
6
CONTINUOUS
10
5.5580708661417324
20
-5.1576771653543307
11
5.4990157480314963
21
-5.1576771653543307
0
LINE
8
BLACK
6
CONTINUOUS
10
5.4990157480314963
20
-5.1576771653543307
11
5.4990157480314963
21
-5.1222440944881891
0
LINE
8
BLACK
6
CONTINUOUS
10
5.4990157480314963
20
-5.1222440944881891
11
5.5580708661417324
21
-5.1222440944881891
0
LINE
8
BLACK
6
CONTINUOUS
10
5.5580708661417324
20
-5.1222440944881891
11
5.5580708661417324
21
-5.1576771653543307
0
LINE
8
BLACK
6
CONTINUOUS
10
5.7509842519685037
20
-5.1576771653543307
11
5.6919291338582676
21
-5.1576771653543307
0
LINE
8
BLACK
6
CONTINUOUS
10
5.6919291338582676
20
-5.1576771653543307
11
5.6919291338582676
21
-5.1222440944881891
0
LINE
8
BLACK
6
CONTINUOUS
10
5.6919291338582676
20
-5.1222440944881891
11
5.7509842519685037
21
-5.1222440944881891
0
LINE
8
BLACK
6
CONTINUOUS
10
5.7509842519685037
20
-5.1222440944881891
11
5.7509842519685037
21
-5.1576771653543307
0
LINE
8
BLACK
6
CONTINUOUS
10
6.2880708661417319
20
-5.1576771653543307
11
6.2290157480314958
21
-5.1576771653543307
0
LINE
8
BLACK
6
CONTINUOUS
10
6.2290157480314958
20
-5.1576771653543307
11
6.2290157480314958
21
-5.1222440944881891
0
LINE
8
BLACK
6
CONTINUOUS
10
6.2290157480314958
20
-5.1222440944881891
11
6.2880708661417319
21
-5.1222440944881891
0
LINE
8
BLACK
6
CONTINUOUS
10
6.2880708661417319
20
-5.1222440944881891
11
6.2880708661417319
21
-5.1576771653543307
0
LINE
8
BLACK
6
CONTINUOUS
10
6.4809842519685041
20
-5.1576771653543307
11
6.4219291338582671
21
-5.1576771653543307
0
LINE
8
BLACK
6
CONTINUOUS
10
6.4219291338582671
20
-5.1576771653543307
11
6.4219291338582671
21
-5.1222440944881891
0
LINE
8
BLACK
6
CONTINUOUS
10
6.4219291338582671
20
-5.1222440944881891
11
6.4809842519685041
21
-5.1222440944881891
0
LINE
8
BLACK
6
CONTINUOUS
10
6.4809842519685041
20
-5.1222440944881891
11
6.4809842519685041
21
-5.1576771653543307
0
LINE
8
BLACK
6
CONTINUOUS
10
4.3180708661417322
20
-5.0377559055118111
11
4.2590157480314961
21
-5.0377559055118111
0
LINE
8
BLACK
6
CONTINUOUS
10
4.2590157480314961
20
-5.0377559055118111
11
4.2590157480314961
21
-5.0023228346456694
0
LINE
8
BLACK
6
CONTINUOUS
10
4.2590157480314961
20
-5.0023228346456694
11
4.3180708661417322
21
-5.0023228346456694
0
LINE
8
BLACK
6
CONTINUOUS
10
4.3180708661417322
20
-5.0023228346456694
11
4.3180708661417322
21
-5.0377559055118111
0
LINE
8
BLACK
6
CONTINUOUS
10
4.5109842519685035
20
-5.0377559055118111
11
4.4519291338582674
21
-5.0377559055118111
0
LINE
8
BLACK
6
CONTINUOUS
10
4.4519291338582674
20
-5.0377559055118111
11
4.4519291338582674
21
-5.0023228346456694
0
LINE
8
BLACK
6
CONTINUOUS
10
4.4519291338582674
20
-5.0023228346456694
11
4.5109842519685035
21
-5.0023228346456694
0
LINE
8
BLACK
6
CONTINUOUS
10
4.5109842519685035
20
-5.0023228346456694
11
4.5109842519685035
21
-5.0377559055118111
0
LINE
8
BLACK
6
CONTINUOUS
10
4.7395275590551176
20
-5.0327952755905514
11
4.6804724409448815
21
-5.0327952755905514
0
LINE
8
BLACK
6
CONTINUOUS
10
4.6804724409448815
20
-5.0327952755905514
11
4.6804724409448815
21
-4.9973622047244097
0
LINE
8
BLACK
6
CONTINUOUS
10
4.6804724409448815
20
-4.9973622047244097
11
4.7395275590551176
21
-4.9973622047244097
0
LINE
8
BLACK
6
CONTINUOUS
10
4.7395275590551176
20
-4.9973622047244097
11
4.7395275590551176
21
-5.0327952755905514
0
LINE
8
BLACK
6
CONTINUOUS
10
4.9324409448818898
20
-5.0327952755905514
11
4.8733858267716537
21
-5.0327952755905514
0
LINE
8
BLACK
6
CONTINUOUS
10
4.8733858267716537
20
-5.0327952755905514
11
4.8733858267716537
21
-4.9973622047244097
0
LINE
8
BLACK
6
CONTINUOUS
10
4.8733858267716537
20
-4.9973622047244097
11
4.9324409448818898
21
-4.9973622047244097
0
LINE
8
BLACK
6
CONTINUOUS
10
4.9324409448818898
20
-4.9973622047244097
11
4.9324409448818898
21
-5.0327952755905514
0
LINE
8
BLACK
6
CONTINUOUS
10
5.9280708661417325
20
-5.0327559055118112
11
5.8690157480314955
21
-5.0327559055118112
0
LINE
8
BLACK
6
CONTINUOUS
10
5.8690157480314955
20
-5.0327559055118112
11
5.8690157480314955
21
-4.9973228346456695
0
LINE
8
BLACK
6
CONTINUOUS
10
5.8690157480314955
20
-4.9973228346456695
11
5.9280708661417325
21
-4.9973228346456695
0
LINE
8
BLACK
6
CONTINUOUS
10
5.9280708661417325
20
-4.9973228346456695
11
5.9280708661417325
21
-5.0327559055118112
0
LINE
8
BLACK
6
CONTINUOUS
10
6.1209842519685038
20
-5.0327559055118112
11
6.0619291338582677
21
-5.0327559055118112
0
LINE
8
BLACK
6
CONTINUOUS
10
6.0619291338582677
20
-5.0327559055118112
11
6.0619291338582677
21
-4.9973228346456695
0
LINE
8
BLACK
6
CONTINUOUS
10
6.0619291338582677
20
-4.9973228346456695
11
6.1209842519685038
21
-4.9973228346456695
0
LINE
8
BLACK
6
CONTINUOUS
10
6.1209842519685038
20
-4.9973228346456695
11
6.1209842519685038
21
-5.0327559055118112
0
LINE
8
BLACK
6
CONTINUOUS
10
3.9380708661417323
20
-5.0277559055118113
11
3.8790157480314962
21
-5.0277559055118113
0
LINE
8
BLACK
6
CONTINUOUS
10
3.8790157480314962
20
-5.0277559055118113
11
3.8790157480314962
21
-4.9923228346456696
0
LINE
8
BLACK
6
CONTINUOUS
10
3.8790157480314962
20
-4.9923228346456696
11
3.9380708661417323
21
-4.9923228346456696
0
LINE
8
BLACK
6
CONTINUOUS
10
3.9380708661417323
20
-4.9923228346456696
11
3.9380708661417323
21
-5.0277559055118113
0
LINE
8
BLACK
6
CONTINUOUS
10
4.1309842519685036
20
-5.0277559055118113
11
4.0719291338582675
21
-5.0277559055118113
0
LINE
8
BLACK
6
CONTINUOUS
10
4.0719291338582675
20
-5.0277559055118113
11
4.0719291338582675
21
-4.9923228346456696
0
LINE
8
BLACK
6
CONTINUOUS
10
4.0719291338582675
20
-4.9923228346456696
11
4.1309842519685036
21
-4.9923228346456696
0
LINE
8
BLACK
6
CONTINUOUS
10
4.1309842519685036
20
-4.9923228346456696
11
4.1309842519685036
21
-5.0277559055118113
0
LINE
8
BLACK
6
CONTINUOUS
10
5.1380708661417325
20
-5.0277559055118113
11
5.0790157480314964
21
-5.0277559055118113
0
LINE
8
BLACK
6
CONTINUOUS
10
5.0790157480314964
20
-5.0277559055118113
11
5.0790157480314964
21
-4.9923228346456696
0
LINE
8
BLACK
6
CONTINUOUS
10
5.0790157480314964
20
-4.9923228346456696
11
5.1380708661417325
21
-4.9923228346456696
0
LINE
8
BLACK
6
CONTINUOUS
10
5.1380708661417325
20
-4.9923228346456696
11
5.1380708661417325
21
-5.0277559055118113
0
LINE
8
BLACK
6
CONTINUOUS
10
5.3309842519685038
20
-5.0277559055118113
11
5.2719291338582677
21
-5.0277559055118113
0
LINE
8
BLACK
6
CONTINUOUS
10
5.2719291338582677
20
-5.0277559055118113
11
5.2719291338582677
21
-4.9923228346456696
0
LINE
8
BLACK
6
CONTINUOUS
10
5.2719291338582677
20
-4.9923228346456696
11
5.3309842519685038
21
-4.9923228346456696
0
LINE
8
BLACK
6
CONTINUOUS
10
5.3309842519685038
20
-4.9923228346456696
11
5.3309842519685038
21
-5.0277559055118113
0
LINE
8
BLACK
6
CONTINUOUS
10
5.5580708661417324
20
-5.0277559055118113
11
5.4990157480314963
21
-5.0277559055118113
0
LINE
8
BLACK
6
CONTINUOUS
10
5.4990157480314963
20
-5.0277559055118113
11
5.4990157480314963
21
-4.9923228346456696
0
LINE
8
BLACK
6
CONTINUOUS
10
5.4990157480314963
20
-4.9923228346456696
11
5.5580708661417324
21
-4.9923228346456696
0
LINE
8
BLACK
6
CONTINUOUS
10
5.5580708661417324
20
-4.9923228346456696
11
5.5580708661417324
21
-5.0277559055118113
0
LINE
8
BLACK
6
CONTINUOUS
10
5.7509842519685037
20
-5.0277559055118113
11
5.6919291338582676
21
-5.0277559055118113
0
LINE
8
BLACK
6
CONTINUOUS
10
5.6919291338582676
20
-5.0277559055118113
11
5.6919291338582676
21
-4.9923228346456696
0
LINE
8
BLACK
6
CONTINUOUS
10
5.6919291338582676
20
-4.9923228346456696
11
5.7509842519685037
21
-4.9923228346456696
0
LINE
8
BLACK
6
CONTINUOUS
10
5.7509842519685037
20
-4.9923228346456696
11
5.7509842519685037
21
-5.0277559055118113
0
LINE
8
BLACK
6
CONTINUOUS
10
6.2880708661417319
20
-5.0277559055118113
11
6.2290157480314958
21
-5.0277559055118113
0
LINE
8
BLACK
6
CONTINUOUS
10
6.2290157480314958
20
-5.0277559055118113
11
6.2290157480314958
21
-4.9923228346456696
0
LINE
8
BLACK
6
CONTINUOUS
10
6.2290157480314958
20
-4.9923228346456696
11
6.2880708661417319
21
-4.9923228346456696
0
LINE
8
BLACK
6
CONTINUOUS
10
6.2880708661417319
20
-4.9923228346456696
11
6.2880708661417319
21
-5.0277559055118113
0
LINE
8
BLACK
6
CONTINUOUS
10
6.4809842519685041
20
-5.0277559055118113
11
6.4219291338582671
21
-5.0277559055118113
0
LINE
8
BLACK
6
CONTINUOUS
10
6.4219291338582671
20
-5.0277559055118113
11
6.4219291338582671
21
-4.9923228346456696
0
LINE
8
BLACK
6
CONTINUOUS
10
6.4219291338582671
20
-4.9923228346456696
11
6.4809842519685041
21
-4.9923228346456696
0
LINE
8
BLACK
6
CONTINUOUS
10
6.4809842519685041
20
-4.9923228346456696
11
6.4809842519685041
21
-5.0277559055118113
0
LINE
8
BLACK
6
CONTINUOUS
10
4.6930708661417322
20
-4.8576771653543309
11
4.6340157480314961
21
-4.8576771653543309
0
LINE
8
BLACK
6
CONTINUOUS
10
4.6340157480314961
20
-4.8576771653543309
11
4.6340157480314961
21
-4.8222440944881892
0
LINE
8
BLACK
6
CONTINUOUS
10
4.6340157480314961
20
-4.8222440944881892
11
4.6930708661417322
21
-4.8222440944881892
0
LINE
8
BLACK
6
CONTINUOUS
10
4.6930708661417322
20
-4.8222440944881892
11
4.6930708661417322
21
-4.8576771653543309
0
LINE
8
BLACK
6
CONTINUOUS
10
4.8859842519685035
20
-4.8576771653543309
11
4.8269291338582674
21
-4.8576771653543309
0
LINE
8
BLACK
6
CONTINUOUS
10
4.8269291338582674
20
-4.8576771653543309
11
4.8269291338582674
21
-4.8222440944881892
0
LINE
8
BLACK
6
CONTINUOUS
10
4.8269291338582674
20
-4.8222440944881892
11
4.8859842519685035
21
-4.8222440944881892
0
LINE
8
BLACK
6
CONTINUOUS
10
4.8859842519685035
20
-4.8222440944881892
11
4.8859842519685035
21
-4.8576771653543309
0
LINE
8
BLACK
6
CONTINUOUS
10
3.723070866141732
20
-4.8326771653543306
11
3.6640157480314959
21
-4.8326771653543306
0
LINE
8
BLACK
6
CONTINUOUS
10
3.6640157480314959
20
-4.8326771653543306
11
3.6640157480314959
21
-4.7972440944881889
0
LINE
8
BLACK
6
CONTINUOUS
10
3.6640157480314959
20
-4.7972440944881889
11
3.723070866141732
21
-4.7972440944881889
0
LINE
8
BLACK
6
CONTINUOUS
10
3.723070866141732
20
-4.7972440944881889
11
3.723070866141732
21
-4.8326771653543306
0
LINE
8
BLACK
6
CONTINUOUS
10
3.9159842519685037
20
-4.8326771653543306
11
3.8569291338582676
21
-4.8326771653543306
0
LINE
8
BLACK
6
CONTINUOUS
10
3.8569291338582676
20
-4.8326771653543306
11
3.8569291338582676
21
-4.7972440944881889
0
LINE
8
BLACK
6
CONTINUOUS
10
3.8569291338582676
20
-4.7972440944881889
11
3.9159842519685037
21
-4.7972440944881889
0
LINE
8
BLACK
6
CONTINUOUS
10
3.9159842519685037
20
-4.7972440944881889
11
3.9159842519685037
21
-4.8326771653543306
0
LINE
8
BLACK
6
CONTINUOUS
10
6.6230708661417319
20
-4.8026771653543303
11
6.5640157480314958
21
-4.8026771653543303
0
LINE
8
BLACK
6
CONTINUOUS
10
6.5640157480314958
20
-4.8026771653543303
11
6.5640157480314958
21
-4.7672440944881886
0
LINE
8
BLACK
6
CONTINUOUS
10
6.5640157480314958
20
-4.7672440944881886
11
6.6230708661417319
21
-4.7672440944881886
0
LINE
8
BLACK
6
CONTINUOUS
10
6.6230708661417319
20
-4.7672440944881886
11
6.6230708661417319
21
-4.8026771653543303
0
LINE
8
BLACK
6
CONTINUOUS
10
6.8159842519685041
20
-4.8026771653543303
11
6.756929133858268
21
-4.8026771653543303
0
LINE
8
BLACK
6
CONTINUOUS
10
6.756929133858268
20
-4.8026771653543303
11
6.756929133858268
21
-4.7672440944881886
0
LINE
8
BLACK
6
CONTINUOUS
10
6.756929133858268
20
-4.7672440944881886
11
6.8159842519685041
21
-4.7672440944881886
0
LINE
8
BLACK
6
CONTINUOUS
10
6.8159842519685041
20
-4.7672440944881886
11
6.8159842519685041
21
-4.8026771653543303
0
LINE
8
BLACK
6
CONTINUOUS
10
5.6980708661417321
20
-4.7926771653543305
11
5.639015748031496
21
-4.7926771653543305
0
LINE
8
BLACK
6
CONTINUOUS
10
5.639015748031496
20
-4.7926771653543305
11
5.639015748031496
21
-4.7572440944881889
0
LINE
8
BLACK
6
CONTINUOUS
10
5.639015748031496
20
-4.7572440944881889
11
5.6980708661417321
21
-4.7572440944881889
0
LINE
8
BLACK
6
CONTINUOUS
10
5.6980708661417321
20
-4.7572440944881889
11
5.6980708661417321
21
-4.7926771653543305
0
LINE
8
BLACK
6
CONTINUOUS
10
5.8909842519685034
20
-4.7926771653543305
11
5.8319291338582673
21
-4.7926771653543305
0
LINE
8
BLACK
6
CONTINUOUS
10
5.8319291338582673
20
-4.7926771653543305
11
5.8319291338582673
21
-4.7572440944881889
0
LINE
8
BLACK
6
CONTINUOUS
10
5.8319291338582673
20
-4.7572440944881889
11
5.8909842519685034
21
-4.7572440944881889
0
LINE
8
BLACK
6
CONTINUOUS
10
5.8909842519685034
20
-4.7572440944881889
11
5.8909842519685034
21
-4.7926771653543305
0
LINE
8
BLACK
6
CONTINUOUS
10
4.6930708661417322
20
-4.7277559055118106
11
4.6340157480314961
21
-4.7277559055118106
0
LINE
8
BLACK
6
CONTINUOUS
10
4.6340157480314961
20
-4.7277559055118106
11
4.6340157480314961
21
-4.6923228346456689
0
LINE
8
BLACK
6
CONTINUOUS
10
4.6340157480314961
20
-4.6923228346456689
11
4.6930708661417322
21
-4.6923228346456689
0
LINE
8
BLACK
6
CONTINUOUS
10
4.6930708661417322
20
-4.6923228346456689
11
4.6930708661417322
21
-4.7277559055118106
0
LINE
8
BLACK
6
CONTINUOUS
10
4.8859842519685035
20
-4.7277559055118106
11
4.8269291338582674
21
-4.7277559055118106
0
LINE
8
BLACK
6
CONTINUOUS
10
4.8269291338582674
20
-4.7277559055118106
11
4.8269291338582674
21
-4.6923228346456689
0
LINE
8
BLACK
6
CONTINUOUS
10
4.8269291338582674
20
-4.6923228346456689
11
4.8859842519685035
21
-4.6923228346456689
0
LINE
8
BLACK
6
CONTINUOUS
10
4.8859842519685035
20
-4.6923228346456689
11
4.8859842519685035
21
-4.7277559055118106
0
LINE
8
BLACK
6
CONTINUOUS
10
3.723070866141732
20
-4.7027559055118111
11
3.6640157480314959
21
-4.7027559055118111
0
LINE
8
BLACK
6
CONTINUOUS
10
3.6640157480314959
20
-4.7027559055118111
11
3.6640157480314959
21
-4.6673228346456694
0
LINE
8
BLACK
6
CONTINUOUS
10
3.6640157480314959
20
-4.6673228346456694
11
3.723070866141732
21
-4.6673228346456694
0
LINE
8
BLACK
6
CONTINUOUS
10
3.723070866141732
20
-4.6673228346456694
11
3.723070866141732
21
-4.7027559055118111
0
LINE
8
BLACK
6
CONTINUOUS
10
3.9159842519685037
20
-4.7027559055118111
11
3.8569291338582676
21
-4.7027559055118111
0
LINE
8
BLACK
6
CONTINUOUS
10
3.8569291338582676
20
-4.7027559055118111
11
3.8569291338582676
21
-4.6673228346456694
0
LINE
8
BLACK
6
CONTINUOUS
10
3.8569291338582676
20
-4.6673228346456694
11
3.9159842519685037
21
-4.6673228346456694
0
LINE
8
BLACK
6
CONTINUOUS
10
3.9159842519685037
20
-4.6673228346456694
11
3.9159842519685037
21
-4.7027559055118111
0
LINE
8
BLACK
6
CONTINUOUS
10
6.033070866141732
20
-4.7026771653543307
11
5.9740157480314959
21
-4.7026771653543307
0
LINE
8
BLACK
6
CONTINUOUS
10
5.9740157480314959
20
-4.7026771653543307
11
5.9740157480314959
21
-4.667244094488189
0
LINE
8
BLACK
6
CONTINUOUS
10
5.9740157480314959
20
-4.667244094488189
11
6.033070866141732
21
-4.667244094488189
0
LINE
8
BLACK
6
CONTINUOUS
10
6.033070866141732
20
-4.667244094488189
11
6.033070866141732
21
-4.7026771653543307
0
LINE
8
BLACK
6
CONTINUOUS
10
6.2259842519685034
20
-4.7026771653543307
11
6.1669291338582672
21
-4.7026771653543307
0
LINE
8
BLACK
6
CONTINUOUS
10
6.1669291338582672
20
-4.7026771653543307
11
6.1669291338582672
21
-4.667244094488189
0
LINE
8
BLACK
6
CONTINUOUS
10
6.1669291338582672
20
-4.667244094488189
11
6.2259842519685034
21
-4.667244094488189
0
LINE
8
BLACK
6
CONTINUOUS
10
6.2259842519685034
20
-4.667244094488189
11
6.2259842519685034
21
-4.7026771653543307
0
LINE
8
BLACK
6
CONTINUOUS
10
4.0877559055118109
20
-4.6859842519685042
11
4.0523228346456692
21
-4.6859842519685042
0
LINE
8
BLACK
6
CONTINUOUS
10
4.0523228346456692
20
-4.6859842519685042
11
4.0523228346456692
21
-4.6269291338582672
0
LINE
8
BLACK
6
CONTINUOUS
10
4.0523228346456692
20
-4.6269291338582672
11
4.0877559055118109
21
-4.6269291338582672
0
LINE
8
BLACK
6
CONTINUOUS
10
4.0877559055118109
20
-4.6269291338582672
11
4.0877559055118109
21
-4.6859842519685042
0
LINE
8
BLACK
6
CONTINUOUS
10
4.2176771653543303
20
-4.6859842519685042
11
4.1822440944881887
21
-4.6859842519685042
0
LINE
8
BLACK
6
CONTINUOUS
10
4.1822440944881887
20
-4.6859842519685042
11
4.1822440944881887
21
-4.6269291338582672
0
LINE
8
BLACK
6
CONTINUOUS
10
4.1822440944881887
20
-4.6269291338582672
11
4.2176771653543303
21
-4.6269291338582672
0
LINE
8
BLACK
6
CONTINUOUS
10
4.2176771653543303
20
-4.6269291338582672
11
4.2176771653543303
21
-4.6859842519685042
0
LINE
8
BLACK
6
CONTINUOUS
10
4.3677559055118111
20
-4.6859842519685042
11
4.3323228346456695
21
-4.6859842519685042
0
LINE
8
BLACK
6
CONTINUOUS
10
4.3323228346456695
20
-4.6859842519685042
11
4.3323228346456695
21
-4.6269291338582672
0
LINE
8
BLACK
6
CONTINUOUS
10
4.3323228346456695
20
-4.6269291338582672
11
4.3677559055118111
21
-4.6269291338582672
0
LINE
8
BLACK
6
CONTINUOUS
10
4.3677559055118111
20
-4.6269291338582672
11
4.3677559055118111
21
-4.6859842519685042
0
LINE
8
BLACK
6
CONTINUOUS
10
4.4976771653543306
20
-4.6859842519685042
11
4.4622440944881889
21
-4.6859842519685042
0
LINE
8
BLACK
6
CONTINUOUS
10
4.4622440944881889
20
-4.6859842519685042
11
4.4622440944881889
21
-4.6269291338582672
0
LINE
8
BLACK
6
CONTINUOUS
10
4.4622440944881889
20
-4.6269291338582672
11
4.4976771653543306
21
-4.6269291338582672
0
LINE
8
BLACK
6
CONTINUOUS
10
4.4976771653543306
20
-4.6269291338582672
11
4.4976771653543306
21
-4.6859842519685042
0
LINE
8
BLACK
6
CONTINUOUS
10
5.0677559055118113
20
-4.6859842519685042
11
5.0323228346456688
21
-4.6859842519685042
0
LINE
8
BLACK
6
CONTINUOUS
10
5.0323228346456688
20
-4.6859842519685042
11
5.0323228346456688
21
-4.6269291338582672
0
LINE
8
BLACK
6
CONTINUOUS
10
5.0323228346456688
20
-4.6269291338582672
11
5.0677559055118113
21
-4.6269291338582672
0
LINE
8
BLACK
6
CONTINUOUS
10
5.0677559055118113
20
-4.6269291338582672
11
5.0677559055118113
21
-4.6859842519685042
0
LINE
8
BLACK
6
CONTINUOUS
10
5.1976771653543308
20
-4.6859842519685042
11
5.1622440944881891
21
-4.6859842519685042
0
LINE
8
BLACK
6
CONTINUOUS
10
5.1622440944881891
20
-4.6859842519685042
11
5.1622440944881891
21
-4.6269291338582672
0
LINE
8
BLACK
6
CONTINUOUS
10
5.1622440944881891
20
-4.6269291338582672
11
5.1976771653543308
21
-4.6269291338582672
0
LINE
8
BLACK
6
CONTINUOUS
10
5.1976771653543308
20
-4.6269291338582672
11
5.1976771653543308
21
-4.6859842519685042
0
LINE
8
BLACK
6
CONTINUOUS
10
5.3477559055118107
20
-4.6859842519685042
11
5.312322834645669
21
-4.6859842519685042
0
LINE
8
BLACK
6
CONTINUOUS
10
5.312322834645669
20
-4.6859842519685042
11
5.312322834645669
21
-4.6269291338582672
0
LINE
8
BLACK
6
CONTINUOUS
10
5.312322834645669
20
-4.6269291338582672
11
5.3477559055118107
21
-4.6269291338582672
0
LINE
8
BLACK
6
CONTINUOUS
10
5.3477559055118107
20
-4.6269291338582672
11
5.3477559055118107
21
-4.6859842519685042
0
LINE
8
BLACK
6
CONTINUOUS
10
5.477677165354331
20
-4.6859842519685042
11
5.4422440944881885
21
-4.6859842519685042
0
LINE
8
BLACK
6
CONTINUOUS
10
5.4422440944881885
20
-4.6859842519685042
11
5.4422440944881885
21
-4.6269291338582672
0
LINE
8
BLACK
6
CONTINUOUS
10
5.4422440944881885
20
-4.6269291338582672
11
5.477677165354331
21
-4.6269291338582672
0
LINE
8
BLACK
6
CONTINUOUS
10
5.477677165354331
20
-4.6269291338582672
11
5.477677165354331
21
-4.6859842519685042
0
LINE
8
BLACK
6
CONTINUOUS
10
6.6230708661417319
20
-4.6727559055118109
11
6.5640157480314958
21
-4.6727559055118109
0
LINE
8
BLACK
6
CONTINUOUS
10
6.5640157480314958
20
-4.6727559055118109
11
6.5640157480314958
21
-4.6373228346456692
0
LINE
8
BLACK
6
CONTINUOUS
10
6.5640157480314958
20
-4.6373228346456692
11
6.6230708661417319
21
-4.6373228346456692
0
LINE
8
BLACK
6
CONTINUOUS
10
6.6230708661417319
20
-4.6373228346456692
11
6.6230708661417319
21
-4.6727559055118109
0
LINE
8
BLACK
6
CONTINUOUS
10
6.8159842519685041
20
-4.6727559055118109
11
6.756929133858268
21
-4.6727559055118109
0
LINE
8
BLACK
6
CONTINUOUS
10
6.756929133858268
20
-4.6727559055118109
11
6.756929133858268
21
-4.6373228346456692
0
LINE
8
BLACK
6
CONTINUOUS
10
6.756929133858268
20
-4.6373228346456692
11
6.8159842519685041
21
-4.6373228346456692
0
LINE
8
BLACK
6
CONTINUOUS
10
6.8159842519685041
20
-4.6373228346456692
11
6.8159842519685041
21
-4.6727559055118109
0
LINE
8
BLACK
6
CONTINUOUS
10
5.6980708661417321
20
-4.6627559055118111
11
5.639015748031496
21
-4.6627559055118111
0
LINE
8
BLACK
6
CONTINUOUS
10
5.639015748031496
20
-4.6627559055118111
11
5.639015748031496
21
-4.6273228346456694
0
LINE
8
BLACK
6
CONTINUOUS
10
5.639015748031496
20
-4.6273228346456694
11
5.6980708661417321
21
-4.6273228346456694
0
LINE
8
BLACK
6
CONTINUOUS
10
5.6980708661417321
20
-4.6273228346456694
11
5.6980708661417321
21
-4.6627559055118111
0
LINE
8
BLACK
6
CONTINUOUS
10
5.8909842519685034
20
-4.6627559055118111
11
5.8319291338582673
21
-4.6627559055118111
0
LINE
8
BLACK
6
CONTINUOUS
10
5.8319291338582673
20
-4.6627559055118111
11
5.8319291338582673
21
-4.6273228346456694
0
LINE
8
BLACK
6
CONTINUOUS
10
5.8319291338582673
20
-4.6273228346456694
11
5.8909842519685034
21
-4.6273228346456694
0
LINE
8
BLACK
6
CONTINUOUS
10
5.8909842519685034
20
-4.6273228346456694
11
5.8909842519685034
21
-4.6627559055118111
0
LINE
8
BLACK
6
CONTINUOUS
10
6.033070866141732
20
-4.5727559055118112
11
5.9740157480314959
21
-4.5727559055118112
0
LINE
8
BLACK
6
CONTINUOUS
10
5.9740157480314959
20
-4.5727559055118112
11
5.9740157480314959
21
-4.5373228346456695
0
LINE
8
BLACK
6
CONTINUOUS
10
5.9740157480314959
20
-4.5373228346456695
11
6.033070866141732
21
-4.5373228346456695
0
LINE
8
BLACK
6
CONTINUOUS
10
6.033070866141732
20
-4.5373228346456695
11
6.033070866141732
21
-4.5727559055118112
0
LINE
8
BLACK
6
CONTINUOUS
10
6.2259842519685034
20
-4.5727559055118112
11
6.1669291338582672
21
-4.5727559055118112
0
LINE
8
BLACK
6
CONTINUOUS
10
6.1669291338582672
20
-4.5727559055118112
11
6.1669291338582672
21
-4.5373228346456695
0
LINE
8
BLACK
6
CONTINUOUS
10
6.1669291338582672
20
-4.5373228346456695
11
6.2259842519685034
21
-4.5373228346456695
0
LINE
8
BLACK
6
CONTINUOUS
10
6.2259842519685034
20
-4.5373228346456695
11
6.2259842519685034
21
-4.5727559055118112
0
LINE
8
BLACK
6
CONTINUOUS
10
6.4580708661417319
20
-4.5676771653543309
11
6.3990157480314958
21
-4.5676771653543309
0
LINE
8
BLACK
6
CONTINUOUS
10
6.3990157480314958
20
-4.5676771653543309
11
6.3990157480314958
21
-4.5322440944881892
0
LINE
8
BLACK
6
CONTINUOUS
10
6.3990157480314958
20
-4.5322440944881892
11
6.4580708661417319
21
-4.5322440944881892
0
LINE
8
BLACK
6
CONTINUOUS
10
6.4580708661417319
20
-4.5322440944881892
11
6.4580708661417319
21
-4.5676771653543309
0
LINE
8
BLACK
6
CONTINUOUS
10
6.6509842519685041
20
-4.5676771653543309
11
6.591929133858268
21
-4.5676771653543309
0
LINE
8
BLACK
6
CONTINUOUS
10
6.591929133858268
20
-4.5676771653543309
11
6.591929133858268
21
-4.5322440944881892
0
LINE
8
BLACK
6
CONTINUOUS
10
6.591929133858268
20
-4.5322440944881892
11
6.6509842519685041
21
-4.5322440944881892
0
LINE
8
BLACK
6
CONTINUOUS
10
6.6509842519685041
20
-4.5322440944881892
11
6.6509842519685041
21
-4.5676771653543309
0
LINE
8
BLACK
6
CONTINUOUS
10
4.703070866141732
20
-4.5426771653543305
11
4.6440157480314959
21
-4.5426771653543305
0
LINE
8
BLACK
6
CONTINUOUS
10
4.6440157480314959
20
-4.5426771653543305
11
4.6440157480314959
21
-4.5072440944881889
0
LINE
8
BLACK
6
CONTINUOUS
10
4.6440157480314959
20
-4.5072440944881889
11
4.703070866141732
21
-4.5072440944881889
0
LINE
8
BLACK
6
CONTINUOUS
10
4.703070866141732
20
-4.5072440944881889
11
4.703070866141732
21
-4.5426771653543305
0
LINE
8
BLACK
6
CONTINUOUS
10
4.8959842519685042
20
-4.5426771653543305
11
4.8369291338582672
21
-4.5426771653543305
0
LINE
8
BLACK
6
CONTINUOUS
10
4.8369291338582672
20
-4.5426771653543305
11
4.8369291338582672
21
-4.5072440944881889
0
LINE
8
BLACK
6
CONTINUOUS
10
4.8369291338582672
20
-4.5072440944881889
11
4.8959842519685042
21
-4.5072440944881889
0
LINE
8
BLACK
6
CONTINUOUS
10
4.8959842519685042
20
-4.5072440944881889
11
4.8959842519685042
21
-4.5426771653543305
0
LINE
8
BLACK
6
CONTINUOUS
10
4.0877559055118109
20
-4.493070866141732
11
4.0523228346456692
21
-4.493070866141732
0
LINE
8
BLACK
6
CONTINUOUS
10
4.0523228346456692
20
-4.493070866141732
11
4.0523228346456692
21
-4.4340157480314959
0
LINE
8
BLACK
6
CONTINUOUS
10
4.0523228346456692
20
-4.4340157480314959
11
4.0877559055118109
21
-4.4340157480314959
0
LINE
8
BLACK
6
CONTINUOUS
10
4.0877559055118109
20
-4.4340157480314959
11
4.0877559055118109
21
-4.493070866141732
0
LINE
8
BLACK
6
CONTINUOUS
10
4.2176771653543303
20
-4.493070866141732
11
4.1822440944881887
21
-4.493070866141732
0
LINE
8
BLACK
6
CONTINUOUS
10
4.1822440944881887
20
-4.493070866141732
11
4.1822440944881887
21
-4.4340157480314959
0
LINE
8
BLACK
6
CONTINUOUS
10
4.1822440944881887
20
-4.4340157480314959
11
4.2176771653543303
21
-4.4340157480314959
0
LINE
8
BLACK
6
CONTINUOUS
10
4.2176771653543303
20
-4.4340157480314959
11
4.2176771653543303
21
-4.493070866141732
0
LINE
8
BLACK
6
CONTINUOUS
10
4.3677559055118111
20
-4.493070866141732
11
4.3323228346456695
21
-4.493070866141732
0
LINE
8
BLACK
6
CONTINUOUS
10
4.3323228346456695
20
-4.493070866141732
11
4.3323228346456695
21
-4.4340157480314959
0
LINE
8
BLACK
6
CONTINUOUS
10
4.3323228346456695
20
-4.4340157480314959
11
4.3677559055118111
21
-4.4340157480314959
0
LINE
8
BLACK
6
CONTINUOUS
10
4.3677559055118111
20
-4.4340157480314959
11
4.3677559055118111
21
-4.493070866141732
0
LINE
8
BLACK
6
CONTINUOUS
10
4.4976771653543306
20
-4.493070866141732
11
4.4622440944881889
21
-4.493070866141732
0
LINE
8
BLACK
6
CONTINUOUS
10
4.4622440944881889
20
-4.493070866141732
11
4.4622440944881889
21
-4.4340157480314959
0
LINE
8
BLACK
6
CONTINUOUS
10
4.4622440944881889
20
-4.4340157480314959
11
4.4976771653543306
21
-4.4340157480314959
0
LINE
8
BLACK
6
CONTINUOUS
10
4.4976771653543306
20
-4.4340157480314959
11
4.4976771653543306
21
-4.493070866141732
0
LINE
8
BLACK
6
CONTINUOUS
10
5.0677559055118113
20
-4.493070866141732
11
5.0323228346456688
21
-4.493070866141732
0
LINE
8
BLACK
6
CONTINUOUS
10
5.0323228346456688
20
-4.493070866141732
11
5.0323228346456688
21
-4.4340157480314959
0
LINE
8
BLACK
6
CONTINUOUS
10
5.0323228346456688
20
-4.4340157480314959
11
5.0677559055118113
21
-4.4340157480314959
0
LINE
8
BLACK
6
CONTINUOUS
10
5.0677559055118113
20
-4.4340157480314959
11
5.0677559055118113
21
-4.493070866141732
0
LINE
8
BLACK
6
CONTINUOUS
10
5.1976771653543308
20
-4.493070866141732
11
5.1622440944881891
21
-4.493070866141732
0
LINE
8
BLACK
6
CONTINUOUS
10
5.1622440944881891
20
-4.493070866141732
11
5.1622440944881891
21
-4.4340157480314959
0
LINE
8
BLACK
6
CONTINUOUS
10
5.1622440944881891
20
-4.4340157480314959
11
5.1976771653543308
21
-4.4340157480314959
0
LINE
8
BLACK
6
CONTINUOUS
10
5.1976771653543308
20
-4.4340157480314959
11
5.1976771653543308
21
-4.493070866141732
0
LINE
8
BLACK
6
CONTINUOUS
10
5.3477559055118107
20
-4.493070866141732
11
5.312322834645669
21
-4.493070866141732
0
LINE
8
BLACK
6
CONTINUOUS
10
5.312322834645669
20
-4.493070866141732
11
5.312322834645669
21
-4.4340157480314959
0
LINE
8
BLACK
6
CONTINUOUS
10
5.312322834645669
20
-4.4340157480314959
11
5.3477559055118107
21
-4.4340157480314959
0
LINE
8
BLACK
6
CONTINUOUS
10
5.3477559055118107
20
-4.4340157480314959
11
5.3477559055118107
21
-4.493070866141732
0
LINE
8
BLACK
6
CONTINUOUS
10
5.477677165354331
20
-4.493070866141732
11
5.4422440944881885
21
-4.493070866141732
0
LINE
8
BLACK
6
CONTINUOUS
10
5.4422440944881885
20
-4.493070866141732
11
5.4422440944881885
21
-4.4340157480314959
0
LINE
8
BLACK
6
CONTINUOUS
10
5.4422440944881885
20
-4.4340157480314959
11
5.477677165354331
21
-4.4340157480314959
0
LINE
8
BLACK
6
CONTINUOUS
10
5.477677165354331
20
-4.4340157480314959
11
5.477677165354331
21
-4.493070866141732
0
LINE
8
BLACK
6
CONTINUOUS
10
3.5830708661417323
20
-4.4926771653543307
11
3.5240157480314962
21
-4.4926771653543307
0
LINE
8
BLACK
6
CONTINUOUS
10
3.5240157480314962
20
-4.4926771653543307
11
3.5240157480314962
21
-4.457244094488189
0
LINE
8
BLACK
6
CONTINUOUS
10
3.5240157480314962
20
-4.457244094488189
11
3.5830708661417323
21
-4.457244094488189
0
LINE
8
BLACK
6
CONTINUOUS
10
3.5830708661417323
20
-4.457244094488189
11
3.5830708661417323
21
-4.4926771653543307
0
LINE
8
BLACK
6
CONTINUOUS
10
3.7759842519685041
20
-4.4926771653543307
11
3.7169291338582675
21
-4.4926771653543307
0
LINE
8
BLACK
6
CONTINUOUS
10
3.7169291338582675
20
-4.4926771653543307
11
3.7169291338582675
21
-4.457244094488189
0
LINE
8
BLACK
6
CONTINUOUS
10
3.7169291338582675
20
-4.457244094488189
11
3.7759842519685041
21
-4.457244094488189
0
LINE
8
BLACK
6
CONTINUOUS
10
3.7759842519685041
20
-4.457244094488189
11
3.7759842519685041
21
-4.4926771653543307
0
LINE
8
BLACK
6
CONTINUOUS
10
6.4580708661417319
20
-4.4377559055118105
11
6.3990157480314958
21
-4.4377559055118105
0
LINE
8
BLACK
6
CONTINUOUS
10
6.3990157480314958
20
-4.4377559055118105
11
6.3990157480314958
21
-4.4023228346456689
0
LINE
8
BLACK
6
CONTINUOUS
10
6.3990157480314958
20
-4.4023228346456689
11
6.4580708661417319
21
-4.4023228346456689
0
LINE
8
BLACK
6
CONTINUOUS
10
6.4580708661417319
20
-4.4023228346456689
11
6.4580708661417319
21
-4.4377559055118105
0
LINE
8
BLACK
6
CONTINUOUS
10
6.6509842519685041
20
-4.4377559055118105
11
6.591929133858268
21
-4.4377559055118105
0
LINE
8
BLACK
6
CONTINUOUS
10
6.591929133858268
20
-4.4377559055118105
11
6.591929133858268
21
-4.4023228346456689
0
LINE
8
BLACK
6
CONTINUOUS
10
6.591929133858268
20
-4.4023228346456689
11
6.6509842519685041
21
-4.4023228346456689
0
LINE
8
BLACK
6
CONTINUOUS
10
6.6509842519685041
20
-4.4023228346456689
11
6.6509842519685041
21
-4.4377559055118105
0
LINE
8
BLACK
6
CONTINUOUS
10
5.7330708661417322
20
-4.4276771653543303
11
5.6740157480314961
21
-4.4276771653543303
0
LINE
8
BLACK
6
CONTINUOUS
10
5.6740157480314961
20
-4.4276771653543303
11
5.6740157480314961
21
-4.3922440944881886
0
LINE
8
BLACK
6
CONTINUOUS
10
5.6740157480314961
20
-4.3922440944881886
11
5.7330708661417322
21
-4.3922440944881886
0
LINE
8
BLACK
6
CONTINUOUS
10
5.7330708661417322
20
-4.3922440944881886
11
5.7330708661417322
21
-4.4276771653543303
0
LINE
8
BLACK
6
CONTINUOUS
10
5.9259842519685035
20
-4.4276771653543303
11
5.8669291338582674
21
-4.4276771653543303
0
LINE
8
BLACK
6
CONTINUOUS
10
5.8669291338582674
20
-4.4276771653543303
11
5.8669291338582674
21
-4.3922440944881886
0
LINE
8
BLACK
6
CONTINUOUS
10
5.8669291338582674
20
-4.3922440944881886
11
5.9259842519685035
21
-4.3922440944881886
0
LINE
8
BLACK
6
CONTINUOUS
10
5.9259842519685035
20
-4.3922440944881886
11
5.9259842519685035
21
-4.4276771653543303
0
LINE
8
BLACK
6
CONTINUOUS
10
4.703070866141732
20
-4.4127559055118111
11
4.6440157480314959
21
-4.4127559055118111
0
LINE
8
BLACK
6
CONTINUOUS
10
4.6440157480314959
20
-4.4127559055118111
11
4.6440157480314959
21
-4.3773228346456694
0
LINE
8
BLACK
6
CONTINUOUS
10
4.6440157480314959
20
-4.3773228346456694
11
4.703070866141732
21
-4.3773228346456694
0
LINE
8
BLACK
6
CONTINUOUS
10
4.703070866141732
20
-4.3773228346456694
11
4.703070866141732
21
-4.4127559055118111
0
LINE
8
BLACK
6
CONTINUOUS
10
4.8959842519685042
20
-4.4127559055118111
11
4.8369291338582672
21
-4.4127559055118111
0
LINE
8
BLACK
6
CONTINUOUS
10
4.8369291338582672
20
-4.4127559055118111
11
4.8369291338582672
21
-4.3773228346456694
0
LINE
8
BLACK
6
CONTINUOUS
10
4.8369291338582672
20
-4.3773228346456694
11
4.8959842519685042
21
-4.3773228346456694
0
LINE
8
BLACK
6
CONTINUOUS
10
4.8959842519685042
20
-4.3773228346456694
11
4.8959842519685042
21
-4.4127559055118111
0
LINE
8
BLACK
6
CONTINUOUS
10
4.0177559055118106
20
-4.3909842519685034
11
3.9823228346456694
21
-4.3909842519685034
0
LINE
8
BLACK
6
CONTINUOUS
10
3.9823228346456694
20
-4.3909842519685034
11
3.9823228346456694
21
-4.3319291338582673
0
LINE
8
BLACK
6
CONTINUOUS
10
3.9823228346456694
20
-4.3319291338582673
11
4.0177559055118106
21
-4.3319291338582673
0
LINE
8
BLACK
6
CONTINUOUS
10
4.0177559055118106
20
-4.3319291338582673
11
4.0177559055118106
21
-4.3909842519685034
0
LINE
8
BLACK
6
CONTINUOUS
10
4.147677165354331
20
-4.3909842519685034
11
4.1122440944881893
21
-4.3909842519685034
0
LINE
8
BLACK
6
CONTINUOUS
10
4.1122440944881893
20
-4.3909842519685034
11
4.1122440944881893
21
-4.3319291338582673
0
LINE
8
BLACK
6
CONTINUOUS
10
4.1122440944881893
20
-4.3319291338582673
11
4.147677165354331
21
-4.3319291338582673
0
LINE
8
BLACK
6
CONTINUOUS
10
4.147677165354331
20
-4.3319291338582673
11
4.147677165354331
21
-4.3909842519685034
0
LINE
8
BLACK
6
CONTINUOUS
10
4.4327559055118106
20
-4.3909842519685034
11
4.397322834645669
21
-4.3909842519685034
0
LINE
8
BLACK
6
CONTINUOUS
10
4.397322834645669
20
-4.3909842519685034
11
4.397322834645669
21
-4.3319291338582673
0
LINE
8
BLACK
6
CONTINUOUS
10
4.397322834645669
20
-4.3319291338582673
11
4.4327559055118106
21
-4.3319291338582673
0
LINE
8
BLACK
6
CONTINUOUS
10
4.4327559055118106
20
-4.3319291338582673
11
4.4327559055118106
21
-4.3909842519685034
0
LINE
8
BLACK
6
CONTINUOUS
10
4.562677165354331
20
-4.3909842519685034
11
4.5272440944881884
21
-4.3909842519685034
0
LINE
8
BLACK
6
CONTINUOUS
10
4.5272440944881884
20
-4.3909842519685034
11
4.5272440944881884
21
-4.3319291338582673
0
LINE
8
BLACK
6
CONTINUOUS
10
4.5272440944881884
20
-4.3319291338582673
11
4.562677165354331
21
-4.3319291338582673
0
LINE
8
BLACK
6
CONTINUOUS
10
4.562677165354331
20
-4.3319291338582673
11
4.562677165354331
21
-4.3909842519685034
0
LINE
8
BLACK
6
CONTINUOUS
10
5.0027559055118109
20
-4.3909842519685034
11
4.9673228346456693
21
-4.3909842519685034
0
LINE
8
BLACK
6
CONTINUOUS
10
4.9673228346456693
20
-4.3909842519685034
11
4.9673228346456693
21
-4.3319291338582673
0
LINE
8
BLACK
6
CONTINUOUS
10
4.9673228346456693
20
-4.3319291338582673
11
5.0027559055118109
21
-4.3319291338582673
0
LINE
8
BLACK
6
CONTINUOUS
10
5.0027559055118109
20
-4.3319291338582673
11
5.0027559055118109
21
-4.3909842519685034
0
LINE
8
BLACK
6
CONTINUOUS
10
5.1326771653543304
20
-4.3909842519685034
11
5.0972440944881887
21
-4.3909842519685034
0
LINE
8
BLACK
6
CONTINUOUS
10
5.0972440944881887
20
-4.3909842519685034
11
5.0972440944881887
21
-4.3319291338582673
0
LINE
8
BLACK
6
CONTINUOUS
10
5.0972440944881887
20
-4.3319291338582673
11
5.1326771653543304
21
-4.3319291338582673
0
LINE
8
BLACK
6
CONTINUOUS
10
5.1326771653543304
20
-4.3319291338582673
11
5.1326771653543304
21
-4.3909842519685034
0
LINE
8
BLACK
6
CONTINUOUS
10
5.4227559055118109
20
-4.3909842519685034
11
5.3873228346456692
21
-4.3909842519685034
0
LINE
8
BLACK
6
CONTINUOUS
10
5.3873228346456692
20
-4.3909842519685034
11
5.3873228346456692
21
-4.3319291338582673
0
LINE
8
BLACK
6
CONTINUOUS
10
5.3873228346456692
20
-4.3319291338582673
11
5.4227559055118109
21
-4.3319291338582673
0
LINE
8
BLACK
6
CONTINUOUS
10
5.4227559055118109
20
-4.3319291338582673
11
5.4227559055118109
21
-4.3909842519685034
0
LINE
8
BLACK
6
CONTINUOUS
10
5.5526771653543303
20
-4.3909842519685034
11
5.5172440944881886
21
-4.3909842519685034
0
LINE
8
BLACK
6
CONTINUOUS
10
5.5172440944881886
20
-4.3909842519685034
11
5.5172440944881886
21
-4.3319291338582673
0
LINE
8
BLACK
6
CONTINUOUS
10
5.5172440944881886
20
-4.3319291338582673
11
5.5526771653543303
21
-4.3319291338582673
0
LINE
8
BLACK
6
CONTINUOUS
10
5.5526771653543303
20
-4.3319291338582673
11
5.5526771653543303
21
-4.3909842519685034
0
LINE
8
BLACK
6
CONTINUOUS
10
7.0280708661417322
20
-4.3676771653543307
11
6.969015748031496
21
-4.3676771653543307
0
LINE
8
BLACK
6
CONTINUOUS
10
6.969015748031496
20
-4.3676771653543307
11
6.969015748031496
21
-4.332244094488189
0
LINE
8
BLACK
6
CONTINUOUS
10
6.969015748031496
20
-4.332244094488189
11
7.0280708661417322
21
-4.332244094488189
0
LINE
8
BLACK
6
CONTINUOUS
10
7.0280708661417322
20
-4.332244094488189
11
7.0280708661417322
21
-4.3676771653543307
0
LINE
8
BLACK
6
CONTINUOUS
10
7.2209842519685035
20
-4.3676771653543307
11
7.1619291338582673
21
-4.3676771653543307
0
LINE
8
BLACK
6
CONTINUOUS
10
7.1619291338582673
20
-4.3676771653543307
11
7.1619291338582673
21
-4.332244094488189
0
LINE
8
BLACK
6
CONTINUOUS
10
7.1619291338582673
20
-4.332244094488189
11
7.2209842519685035
21
-4.332244094488189
0
LINE
8
BLACK
6
CONTINUOUS
10
7.2209842519685035
20
-4.332244094488189
11
7.2209842519685035
21
-4.3676771653543307
0
LINE
8
BLACK
6
CONTINUOUS
10
3.5830708661417323
20
-4.3627559055118112
11
3.5240157480314962
21
-4.3627559055118112
0
LINE
8
BLACK
6
CONTINUOUS
10
3.5240157480314962
20
-4.3627559055118112
11
3.5240157480314962
21
-4.3273228346456696
0
LINE
8
BLACK
6
CONTINUOUS
10
3.5240157480314962
20
-4.3273228346456696
11
3.5830708661417323
21
-4.3273228346456696
0
LINE
8
BLACK
6
CONTINUOUS
10
3.5830708661417323
20
-4.3273228346456696
11
3.5830708661417323
21
-4.3627559055118112
0
LINE
8
BLACK
6
CONTINUOUS
10
3.7759842519685041
20
-4.3627559055118112
11
3.7169291338582675
21
-4.3627559055118112
0
LINE
8
BLACK
6
CONTINUOUS
10
3.7169291338582675
20
-4.3627559055118112
11
3.7169291338582675
21
-4.3273228346456696
0
LINE
8
BLACK
6
CONTINUOUS
10
3.7169291338582675
20
-4.3273228346456696
11
3.7759842519685041
21
-4.3273228346456696
0
LINE
8
BLACK
6
CONTINUOUS
10
3.7759842519685041
20
-4.3273228346456696
11
3.7759842519685041
21
-4.3627559055118112
0
LINE
8
BLACK
6
CONTINUOUS
10
6.3030708661417325
20
-4.3376771653543305
11
6.2440157480314955
21
-4.3376771653543305
0
LINE
8
BLACK
6
CONTINUOUS
10
6.2440157480314955
20
-4.3376771653543305
11
6.2440157480314955
21
-4.3022440944881888
0
LINE
8
BLACK
6
CONTINUOUS
10
6.2440157480314955
20
-4.3022440944881888
11
6.3030708661417325
21
-4.3022440944881888
0
LINE
8
BLACK
6
CONTINUOUS
10
6.3030708661417325
20
-4.3022440944881888
11
6.3030708661417325
21
-4.3376771653543305
0
LINE
8
BLACK
6
CONTINUOUS
10
6.4959842519685038
20
-4.3376771653543305
11
6.4369291338582677
21
-4.3376771653543305
0
LINE
8
BLACK
6
CONTINUOUS
10
6.4369291338582677
20
-4.3376771653543305
11
6.4369291338582677
21
-4.3022440944881888
0
LINE
8
BLACK
6
CONTINUOUS
10
6.4369291338582677
20
-4.3022440944881888
11
6.4959842519685038
21
-4.3022440944881888
0
LINE
8
BLACK
6
CONTINUOUS
10
6.4959842519685038
20
-4.3022440944881888
11
6.4959842519685038
21
-4.3376771653543305
0
LINE
8
BLACK
6
CONTINUOUS
10
6.7180708661417325
20
-4.3226771653543308
11
6.6590157480314955
21
-4.3226771653543308
0
LINE
8
BLACK
6
CONTINUOUS
10
6.6590157480314955
20
-4.3226771653543308
11
6.6590157480314955
21
-4.2872440944881891
0
LINE
8
BLACK
6
CONTINUOUS
10
6.6590157480314955
20
-4.2872440944881891
11
6.7180708661417325
21
-4.2872440944881891
0
LINE
8
BLACK
6
CONTINUOUS
10
6.7180708661417325
20
-4.2872440944881891
11
6.7180708661417325
21
-4.3226771653543308
0
LINE
8
BLACK
6
CONTINUOUS
10
6.9109842519685039
20
-4.3226771653543308
11
6.8519291338582677
21
-4.3226771653543308
0
LINE
8
BLACK
6
CONTINUOUS
10
6.8519291338582677
20
-4.3226771653543308
11
6.8519291338582677
21
-4.2872440944881891
0
LINE
8
BLACK
6
CONTINUOUS
10
6.8519291338582677
20
-4.2872440944881891
11
6.9109842519685039
21
-4.2872440944881891
0
LINE
8
BLACK
6
CONTINUOUS
10
6.9109842519685039
20
-4.2872440944881891
11
6.9109842519685039
21
-4.3226771653543308
0
LINE
8
BLACK
6
CONTINUOUS
10
5.7330708661417322
20
-4.2977559055118109
11
5.6740157480314961
21
-4.2977559055118109
0
LINE
8
BLACK
6
CONTINUOUS
10
5.6740157480314961
20
-4.2977559055118109
11
5.6740157480314961
21
-4.2623228346456692
0
LINE
8
BLACK
6
CONTINUOUS
10
5.6740157480314961
20
-4.2623228346456692
11
5.7330708661417322
21
-4.2623228346456692
0
LINE
8
BLACK
6
CONTINUOUS
10
5.7330708661417322
20
-4.2623228346456692
11
5.7330708661417322
21
-4.2977559055118109
0
LINE
8
BLACK
6
CONTINUOUS
10
5.9259842519685035
20
-4.2977559055118109
11
5.8669291338582674
21
-4.2977559055118109
0
LINE
8
BLACK
6
CONTINUOUS
10
5.8669291338582674
20
-4.2977559055118109
11
5.8669291338582674
21
-4.2623228346456692
0
LINE
8
BLACK
6
CONTINUOUS
10
5.8669291338582674
20
-4.2623228346456692
11
5.9259842519685035
21
-4.2623228346456692
0
LINE
8
BLACK
6
CONTINUOUS
10
5.9259842519685035
20
-4.2623228346456692
11
5.9259842519685035
21
-4.2977559055118109
0
LINE
8
BLACK
6
CONTINUOUS
10
7.0280708661417322
20
-4.2377559055118112
11
6.969015748031496
21
-4.2377559055118112
0
LINE
8
BLACK
6
CONTINUOUS
10
6.969015748031496
20
-4.2377559055118112
11
6.969015748031496
21
-4.2023228346456696
0
LINE
8
BLACK
6
CONTINUOUS
10
6.969015748031496
20
-4.2023228346456696
11
7.0280708661417322
21
-4.2023228346456696
0
LINE
8
BLACK
6
CONTINUOUS
10
7.0280708661417322
20
-4.2023228346456696
11
7.0280708661417322
21
-4.2377559055118112
0
LINE
8
BLACK
6
CONTINUOUS
10
7.2209842519685035
20
-4.2377559055118112
11
7.1619291338582673
21
-4.2377559055118112
0
LINE
8
BLACK
6
CONTINUOUS
10
7.1619291338582673
20
-4.2377559055118112
11
7.1619291338582673
21
-4.2023228346456696
0
LINE
8
BLACK
6
CONTINUOUS
10
7.1619291338582673
20
-4.2023228346456696
11
7.2209842519685035
21
-4.2023228346456696
0
LINE
8
BLACK
6
CONTINUOUS
10
7.2209842519685035
20
-4.2023228346456696
11
7.2209842519685035
21
-4.2377559055118112
0
LINE
8
BLACK
6
CONTINUOUS
10
6.3030708661417325
20
-4.207755905511811
11
6.2440157480314955
21
-4.207755905511811
0
LINE
8
BLACK
6
CONTINUOUS
10
6.2440157480314955
20
-4.207755905511811
11
6.2440157480314955
21
-4.1723228346456693
0
LINE
8
BLACK
6
CONTINUOUS
10
6.2440157480314955
20
-4.1723228346456693
11
6.3030708661417325
21
-4.1723228346456693
0
LINE
8
BLACK
6
CONTINUOUS
10
6.3030708661417325
20
-4.1723228346456693
11
6.3030708661417325
21
-4.207755905511811
0
LINE
8
BLACK
6
CONTINUOUS
10
6.4959842519685038
20
-4.207755905511811
11
6.4369291338582677
21
-4.207755905511811
0
LINE
8
BLACK
6
CONTINUOUS
10
6.4369291338582677
20
-4.207755905511811
11
6.4369291338582677
21
-4.1723228346456693
0
LINE
8
BLACK
6
CONTINUOUS
10
6.4369291338582677
20
-4.1723228346456693
11
6.4959842519685038
21
-4.1723228346456693
0
LINE
8
BLACK
6
CONTINUOUS
10
6.4959842519685038
20
-4.1723228346456693
11
6.4959842519685038
21
-4.207755905511811
0
LINE
8
BLACK
6
CONTINUOUS
10
4.0177559055118106
20
-4.1980708661417321
11
3.9823228346456694
21
-4.1980708661417321
0
LINE
8
BLACK
6
CONTINUOUS
10
3.9823228346456694
20
-4.1980708661417321
11
3.9823228346456694
21
-4.139015748031496
0
LINE
8
BLACK
6
CONTINUOUS
10
3.9823228346456694
20
-4.139015748031496
11
4.0177559055118106
21
-4.139015748031496
0
LINE
8
BLACK
6
CONTINUOUS
10
4.0177559055118106
20
-4.139015748031496
11
4.0177559055118106
21
-4.1980708661417321
0
LINE
8
BLACK
6
CONTINUOUS
10
4.147677165354331
20
-4.1980708661417321
11
4.1122440944881893
21
-4.1980708661417321
0
LINE
8
BLACK
6
CONTINUOUS
10
4.1122440944881893
20
-4.1980708661417321
11
4.1122440944881893
21
-4.139015748031496
0
LINE
8
BLACK
6
CONTINUOUS
10
4.1122440944881893
20
-4.139015748031496
11
4.147677165354331
21
-4.139015748031496
0
LINE
8
BLACK
6
CONTINUOUS
10
4.147677165354331
20
-4.139015748031496
11
4.147677165354331
21
-4.1980708661417321
0
LINE
8
BLACK
6
CONTINUOUS
10
4.4327559055118106
20
-4.1980708661417321
11
4.397322834645669
21
-4.1980708661417321
0
LINE
8
BLACK
6
CONTINUOUS
10
4.397322834645669
20
-4.1980708661417321
11
4.397322834645669
21
-4.139015748031496
0
LINE
8
BLACK
6
CONTINUOUS
10
4.397322834645669
20
-4.139015748031496
11
4.4327559055118106
21
-4.139015748031496
0
LINE
8
BLACK
6
CONTINUOUS
10
4.4327559055118106
20
-4.139015748031496
11
4.4327559055118106
21
-4.1980708661417321
0
LINE
8
BLACK
6
CONTINUOUS
10
4.562677165354331
20
-4.1980708661417321
11
4.5272440944881884
21
-4.1980708661417321
0
LINE
8
BLACK
6
CONTINUOUS
10
4.5272440944881884
20
-4.1980708661417321
11
4.5272440944881884
21
-4.139015748031496
0
LINE
8
BLACK
6
CONTINUOUS
10
4.5272440944881884
20
-4.139015748031496
11
4.562677165354331
21
-4.139015748031496
0
LINE
8
BLACK
6
CONTINUOUS
10
4.562677165354331
20
-4.139015748031496
11
4.562677165354331
21
-4.1980708661417321
0
LINE
8
BLACK
6
CONTINUOUS
10
5.0027559055118109
20
-4.1980708661417321
11
4.9673228346456693
21
-4.1980708661417321
0
LINE
8
BLACK
6
CONTINUOUS
10
4.9673228346456693
20
-4.1980708661417321
11
4.9673228346456693
21
-4.139015748031496
0
LINE
8
BLACK
6
CONTINUOUS
10
4.9673228346456693
20
-4.139015748031496
11
5.0027559055118109
21
-4.139015748031496
0
LINE
8
BLACK
6
CONTINUOUS
10
5.0027559055118109
20
-4.139015748031496
11
5.0027559055118109
21
-4.1980708661417321
0
LINE
8
BLACK
6
CONTINUOUS
10
5.1326771653543304
20
-4.1980708661417321
11
5.0972440944881887
21
-4.1980708661417321
0
LINE
8
BLACK
6
CONTINUOUS
10
5.0972440944881887
20
-4.1980708661417321
11
5.0972440944881887
21
-4.139015748031496
0
LINE
8
BLACK
6
CONTINUOUS
10
5.0972440944881887
20
-4.139015748031496
11
5.1326771653543304
21
-4.139015748031496
0
LINE
8
BLACK
6
CONTINUOUS
10
5.1326771653543304
20
-4.139015748031496
11
5.1326771653543304
21
-4.1980708661417321
0
LINE
8
BLACK
6
CONTINUOUS
10
5.4227559055118109
20
-4.1980708661417321
11
5.3873228346456692
21
-4.1980708661417321
0
LINE
8
BLACK
6
CONTINUOUS
10
5.3873228346456692
20
-4.1980708661417321
11
5.3873228346456692
21
-4.139015748031496
0
LINE
8
BLACK
6
CONTINUOUS
10
5.3873228346456692
20
-4.139015748031496
11
5.4227559055118109
21
-4.139015748031496
0
LINE
8
BLACK
6
CONTINUOUS
10
5.4227559055118109
20
-4.139015748031496
11
5.4227559055118109
21
-4.1980708661417321
0
LINE
8
BLACK
6
CONTINUOUS
10
5.5526771653543303
20
-4.1980708661417321
11
5.5172440944881886
21
-4.1980708661417321
0
LINE
8
BLACK
6
CONTINUOUS
10
5.5172440944881886
20
-4.1980708661417321
11
5.5172440944881886
21
-4.139015748031496
0
LINE
8
BLACK
6
CONTINUOUS
10
5.5172440944881886
20
-4.139015748031496
11
5.5526771653543303
21
-4.139015748031496
0
LINE
8
BLACK
6
CONTINUOUS
10
5.5526771653543303
20
-4.139015748031496
11
5.5526771653543303
21
-4.1980708661417321
0
LINE
8
BLACK
6
CONTINUOUS
10
6.7180708661417325
20
-4.1927559055118113
11
6.6590157480314955
21
-4.1927559055118113
0
LINE
8
BLACK
6
CONTINUOUS
10
6.6590157480314955
20
-4.1927559055118113
11
6.6590157480314955
21
-4.1573228346456688
0
LINE
8
BLACK
6
CONTINUOUS
10
6.6590157480314955
20
-4.1573228346456688
11
6.7180708661417325
21
-4.1573228346456688
0
LINE
8
BLACK
6
CONTINUOUS
10
6.7180708661417325
20
-4.1573228346456688
11
6.7180708661417325
21
-4.1927559055118113
0
LINE
8
BLACK
6
CONTINUOUS
10
6.9109842519685039
20
-4.1927559055118113
11
6.8519291338582677
21
-4.1927559055118113
0
LINE
8
BLACK
6
CONTINUOUS
10
6.8519291338582677
20
-4.1927559055118113
11
6.8519291338582677
21
-4.1573228346456688
0
LINE
8
BLACK
6
CONTINUOUS
10
6.8519291338582677
20
-4.1573228346456688
11
6.9109842519685039
21
-4.1573228346456688
0
LINE
8
BLACK
6
CONTINUOUS
10
6.9109842519685039
20
-4.1573228346456688
11
6.9109842519685039
21
-4.1927559055118113
0
LINE
8
BLACK
6
CONTINUOUS
10
3.5045275590551181
20
-4.1476377952755907
11
3.445472440944882
21
-4.1476377952755907
0
LINE
8
BLACK
6
CONTINUOUS
10
3.445472440944882
20
-4.1476377952755907
11
3.445472440944882
21
-4.1122047244094491
0
LINE
8
BLACK
6
CONTINUOUS
10
3.445472440944882
20
-4.1122047244094491
11
3.5045275590551181
21
-4.1122047244094491
0
LINE
8
BLACK
6
CONTINUOUS
10
3.5045275590551181
20
-4.1122047244094491
11
3.5045275590551181
21
-4.1476377952755907
0
LINE
8
BLACK
6
CONTINUOUS
10
3.6974409448818899
20
-4.1476377952755907
11
3.6383858267716533
21
-4.1476377952755907
0
LINE
8
BLACK
6
CONTINUOUS
10
3.6383858267716533
20
-4.1476377952755907
11
3.6383858267716533
21
-4.1122047244094491
0
LINE
8
BLACK
6
CONTINUOUS
10
3.6383858267716533
20
-4.1122047244094491
11
3.6974409448818899
21
-4.1122047244094491
0
LINE
8
BLACK
6
CONTINUOUS
10
3.6974409448818899
20
-4.1122047244094491
11
3.6974409448818899
21
-4.1476377952755907
0
LINE
8
BLACK
6
CONTINUOUS
10
5.9230708661417317
20
-4.102677165354331
11
5.8640157480314956
21
-4.102677165354331
0
LINE
8
BLACK
6
CONTINUOUS
10
5.8640157480314956
20
-4.102677165354331
11
5.8640157480314956
21
-4.0672440944881885
0
LINE
8
BLACK
6
CONTINUOUS
10
5.8640157480314956
20
-4.0672440944881885
11
5.9230708661417317
21
-4.0672440944881885
0
LINE
8
BLACK
6
CONTINUOUS
10
5.9230708661417317
20
-4.0672440944881885
11
5.9230708661417317
21
-4.102677165354331
0
LINE
8
BLACK
6
CONTINUOUS
10
6.1159842519685039
20
-4.102677165354331
11
6.0569291338582678
21
-4.102677165354331
0
LINE
8
BLACK
6
CONTINUOUS
10
6.0569291338582678
20
-4.102677165354331
11
6.0569291338582678
21
-4.0672440944881885
0
LINE
8
BLACK
6
CONTINUOUS
10
6.0569291338582678
20
-4.0672440944881885
11
6.1159842519685039
21
-4.0672440944881885
0
LINE
8
BLACK
6
CONTINUOUS
10
6.1159842519685039
20
-4.0672440944881885
11
6.1159842519685039
21
-4.102677165354331
0
LINE
8
BLACK
6
CONTINUOUS
10
6.2380708661417321
20
-4.102677165354331
11
6.179015748031496
21
-4.102677165354331
0
LINE
8
BLACK
6
CONTINUOUS
10
6.179015748031496
20
-4.102677165354331
11
6.179015748031496
21
-4.0672440944881885
0
LINE
8
BLACK
6
CONTINUOUS
10
6.179015748031496
20
-4.0672440944881885
11
6.2380708661417321
21
-4.0672440944881885
0
LINE
8
BLACK
6
CONTINUOUS
10
6.2380708661417321
20
-4.0672440944881885
11
6.2380708661417321
21
-4.102677165354331
0
LINE
8
BLACK
6
CONTINUOUS
10
6.4309842519685034
20
-4.102677165354331
11
6.3719291338582673
21
-4.102677165354331
0
LINE
8
BLACK
6
CONTINUOUS
10
6.3719291338582673
20
-4.102677165354331
11
6.3719291338582673
21
-4.0672440944881885
0
LINE
8
BLACK
6
CONTINUOUS
10
6.3719291338582673
20
-4.0672440944881885
11
6.4309842519685034
21
-4.0672440944881885
0
LINE
8
BLACK
6
CONTINUOUS
10
6.4309842519685034
20
-4.0672440944881885
11
6.4309842519685034
21
-4.102677165354331
0
LINE
8
BLACK
6
CONTINUOUS
10
3.9327559055118111
20
-4.0959842519685035
11
3.8973228346456694
21
-4.0959842519685035
0
LINE
8
BLACK
6
CONTINUOUS
10
3.8973228346456694
20
-4.0959842519685035
11
3.8973228346456694
21
-4.0369291338582673
0
LINE
8
BLACK
6
CONTINUOUS
10
3.8973228346456694
20
-4.0369291338582673
11
3.9327559055118111
21
-4.0369291338582673
0
LINE
8
BLACK
6
CONTINUOUS
10
3.9327559055118111
20
-4.0369291338582673
11
3.9327559055118111
21
-4.0959842519685035
0
LINE
8
BLACK
6
CONTINUOUS
10
4.062677165354331
20
-4.0959842519685035
11
4.0272440944881893
21
-4.0959842519685035
0
LINE
8
BLACK
6
CONTINUOUS
10
4.0272440944881893
20
-4.0959842519685035
11
4.0272440944881893
21
-4.0369291338582673
0
LINE
8
BLACK
6
CONTINUOUS
10
4.0272440944881893
20
-4.0369291338582673
11
4.062677165354331
21
-4.0369291338582673
0
LINE
8
BLACK
6
CONTINUOUS
10
4.062677165354331
20
-4.0369291338582673
11
4.062677165354331
21
-4.0959842519685035
0
LINE
8
BLACK
6
CONTINUOUS
10
4.497755905511811
20
-4.0959842519685035
11
4.4623228346456694
21
-4.0959842519685035
0
LINE
8
BLACK
6
CONTINUOUS
10
4.4623228346456694
20
-4.0959842519685035
11
4.4623228346456694
21
-4.0369291338582673
0
LINE
8
BLACK
6
CONTINUOUS
10
4.4623228346456694
20
-4.0369291338582673
11
4.497755905511811
21
-4.0369291338582673
0
LINE
8
BLACK
6
CONTINUOUS
10
4.497755905511811
20
-4.0369291338582673
11
4.497755905511811
21
-4.0959842519685035
0
LINE
8
BLACK
6
CONTINUOUS
10
4.6276771653543305
20
-4.0959842519685035
11
4.5922440944881888
21
-4.0959842519685035
0
LINE
8
BLACK
6
CONTINUOUS
10
4.5922440944881888
20
-4.0959842519685035
11
4.5922440944881888
21
-4.0369291338582673
0
LINE
8
BLACK
6
CONTINUOUS
10
4.5922440944881888
20
-4.0369291338582673
11
4.6276771653543305
21
-4.0369291338582673
0
LINE
8
BLACK
6
CONTINUOUS
10
4.6276771653543305
20
-4.0369291338582673
11
4.6276771653543305
21
-4.0959842519685035
0
LINE
8
BLACK
6
CONTINUOUS
10
5.4727559055118107
20
-4.0959842519685035
11
5.437322834645669
21
-4.0959842519685035
0
LINE
8
BLACK
6
CONTINUOUS
10
5.437322834645669
20
-4.0959842519685035
11
5.437322834645669
21
-4.0369291338582673
0
LINE
8
BLACK
6
CONTINUOUS
10
5.437322834645669
20
-4.0369291338582673
11
5.4727559055118107
21
-4.0369291338582673
0
LINE
8
BLACK
6
CONTINUOUS
10
5.4727559055118107
20
-4.0369291338582673
11
5.4727559055118107
21
-4.0959842519685035
0
LINE
8
BLACK
6
CONTINUOUS
10
5.602677165354331
20
-4.0959842519685035
11
5.5672440944881885
21
-4.0959842519685035
0
LINE
8
BLACK
6
CONTINUOUS
10
5.5672440944881885
20
-4.0959842519685035
11
5.5672440944881885
21
-4.0369291338582673
0
LINE
8
BLACK
6
CONTINUOUS
10
5.5672440944881885
20
-4.0369291338582673
11
5.602677165354331
21
-4.0369291338582673
0
LINE
8
BLACK
6
CONTINUOUS
10
5.602677165354331
20
-4.0369291338582673
11
5.602677165354331
21
-4.0959842519685035
0
LINE
8
BLACK
6
CONTINUOUS
10
4.9477559055118112
20
-4.0909842519685036
11
4.9123228346456695
21
-4.0909842519685036
0
LINE
8
BLACK
6
CONTINUOUS
10
4.9123228346456695
20
-4.0909842519685036
11
4.9123228346456695
21
-4.0319291338582675
0
LINE
8
BLACK
6
CONTINUOUS
10
4.9123228346456695
20
-4.0319291338582675
11
4.9477559055118112
21
-4.0319291338582675
0
LINE
8
BLACK
6
CONTINUOUS
10
4.9477559055118112
20
-4.0319291338582675
11
4.9477559055118112
21
-4.0909842519685036
0
LINE
8
BLACK
6
CONTINUOUS
10
5.0776771653543307
20
-4.0909842519685036
11
5.042244094488189
21
-4.0909842519685036
0
LINE
8
BLACK
6
CONTINUOUS
10
5.042244094488189
20
-4.0909842519685036
11
5.042244094488189
21
-4.0319291338582675
0
LINE
8
BLACK
6
CONTINUOUS
10
5.042244094488189
20
-4.0319291338582675
11
5.0776771653543307
21
-4.0319291338582675
0
LINE
8
BLACK
6
CONTINUOUS
10
5.0776771653543307
20
-4.0319291338582675
11
5.0776771653543307
21
-4.0909842519685036
0
LINE
8
BLACK
6
CONTINUOUS
10
7.033070866141732
20
-4.0776771653543307
11
6.9740157480314959
21
-4.0776771653543307
0
LINE
8
BLACK
6
CONTINUOUS
10
6.9740157480314959
20
-4.0776771653543307
11
6.9740157480314959
21
-4.042244094488189
0
LINE
8
BLACK
6
CONTINUOUS
10
6.9740157480314959
20
-4.042244094488189
11
7.033070866141732
21
-4.042244094488189
0
LINE
8
BLACK
6
CONTINUOUS
10
7.033070866141732
20
-4.042244094488189
11
7.033070866141732
21
-4.0776771653543307
0
LINE
8
BLACK
6
CONTINUOUS
10
7.2259842519685034
20
-4.0776771653543307
11
7.1669291338582672
21
-4.0776771653543307
0
LINE
8
BLACK
6
CONTINUOUS
10
7.1669291338582672
20
-4.0776771653543307
11
7.1669291338582672
21
-4.042244094488189
0
LINE
8
BLACK
6
CONTINUOUS
10
7.1669291338582672
20
-4.042244094488189
11
7.2259842519685034
21
-4.042244094488189
0
LINE
8
BLACK
6
CONTINUOUS
10
7.2259842519685034
20
-4.042244094488189
11
7.2259842519685034
21
-4.0776771653543307
0
LINE
8
BLACK
6
CONTINUOUS
10
3.5045275590551181
20
-4.0177165354330704
11
3.445472440944882
21
-4.0177165354330704
0
LINE
8
BLACK
6
CONTINUOUS
10
3.445472440944882
20
-4.0177165354330704
11
3.445472440944882
21
-3.9822834645669292
0
LINE
8
BLACK
6
CONTINUOUS
10
3.445472440944882
20
-3.9822834645669292
11
3.5045275590551181
21
-3.9822834645669292
0
LINE
8
BLACK
6
CONTINUOUS
10
3.5045275590551181
20
-3.9822834645669292
11
3.5045275590551181
21
-4.0177165354330704
0
LINE
8
BLACK
6
CONTINUOUS
10
3.6974409448818899
20
-4.0177165354330704
11
3.6383858267716533
21
-4.0177165354330704
0
LINE
8
BLACK
6
CONTINUOUS
10
3.6383858267716533
20
-4.0177165354330704
11
3.6383858267716533
21
-3.9822834645669292
0
LINE
8
BLACK
6
CONTINUOUS
10
3.6383858267716533
20
-3.9822834645669292
11
3.6974409448818899
21
-3.9822834645669292
0
LINE
8
BLACK
6
CONTINUOUS
10
3.6974409448818899
20
-3.9822834645669292
11
3.6974409448818899
21
-4.0177165354330704
0
LINE
8
BLACK
6
CONTINUOUS
10
5.9230708661417317
20
-3.9727559055118111
11
5.8640157480314956
21
-3.9727559055118111
0
LINE
8
BLACK
6
CONTINUOUS
10
5.8640157480314956
20
-3.9727559055118111
11
5.8640157480314956
21
-3.937322834645669
0
LINE
8
BLACK
6
CONTINUOUS
10
5.8640157480314956
20
-3.937322834645669
11
5.9230708661417317
21
-3.937322834645669
0
LINE
8
BLACK
6
CONTINUOUS
10
5.9230708661417317
20
-3.937322834645669
11
5.9230708661417317
21
-3.9727559055118111
0
LINE
8
BLACK
6
CONTINUOUS
10
6.1159842519685039
20
-3.9727559055118111
11
6.0569291338582678
21
-3.9727559055118111
0
LINE
8
BLACK
6
CONTINUOUS
10
6.0569291338582678
20
-3.9727559055118111
11
6.0569291338582678
21
-3.937322834645669
0
LINE
8
BLACK
6
CONTINUOUS
10
6.0569291338582678
20
-3.937322834645669
11
6.1159842519685039
21
-3.937322834645669
0
LINE
8
BLACK
6
CONTINUOUS
10
6.1159842519685039
20
-3.937322834645669
11
6.1159842519685039
21
-3.9727559055118111
0
LINE
8
BLACK
6
CONTINUOUS
10
6.2380708661417321
20
-3.9727559055118111
11
6.179015748031496
21
-3.9727559055118111
0
LINE
8
BLACK
6
CONTINUOUS
10
6.179015748031496
20
-3.9727559055118111
11
6.179015748031496
21
-3.937322834645669
0
LINE
8
BLACK
6
CONTINUOUS
10
6.179015748031496
20
-3.937322834645669
11
6.2380708661417321
21
-3.937322834645669
0
LINE
8
BLACK
6
CONTINUOUS
10
6.2380708661417321
20
-3.937322834645669
11
6.2380708661417321
21
-3.9727559055118111
0
LINE
8
BLACK
6
CONTINUOUS
10
6.4309842519685034
20
-3.9727559055118111
11
6.3719291338582673
21
-3.9727559055118111
0
LINE
8
BLACK
6
CONTINUOUS
10
6.3719291338582673
20
-3.9727559055118111
11
6.3719291338582673
21
-3.937322834645669
0
LINE
8
BLACK
6
CONTINUOUS
10
6.3719291338582673
20
-3.937322834645669
11
6.4309842519685034
21
-3.937322834645669
0
LINE
8
BLACK
6
CONTINUOUS
10
6.4309842519685034
20
-3.937322834645669
11
6.4309842519685034
21
-3.9727559055118111
0
LINE
8
BLACK
6
CONTINUOUS
10
6.5530708661417325
20
-3.9576771653543306
11
6.4940157480314955
21
-3.9576771653543306
0
LINE
8
BLACK
6
CONTINUOUS
10
6.4940157480314955
20
-3.9576771653543306
11
6.4940157480314955
21
-3.9222440944881889
0
LINE
8
BLACK
6
CONTINUOUS
10
6.4940157480314955
20
-3.9222440944881889
11
6.5530708661417325
21
-3.9222440944881889
0
LINE
8
BLACK
6
CONTINUOUS
10
6.5530708661417325
20
-3.9222440944881889
11
6.5530708661417325
21
-3.9576771653543306
0
LINE
8
BLACK
6
CONTINUOUS
10
6.7459842519685038
20
-3.9576771653543306
11
6.6869291338582677
21
-3.9576771653543306
0
LINE
8
BLACK
6
CONTINUOUS
10
6.6869291338582677
20
-3.9576771653543306
11
6.6869291338582677
21
-3.9222440944881889
0
LINE
8
BLACK
6
CONTINUOUS
10
6.6869291338582677
20
-3.9222440944881889
11
6.7459842519685038
21
-3.9222440944881889
0
LINE
8
BLACK
6
CONTINUOUS
10
6.7459842519685038
20
-3.9222440944881889
11
6.7459842519685038
21
-3.9576771653543306
0
LINE
8
BLACK
6
CONTINUOUS
10
7.033070866141732
20
-3.9477559055118108
11
6.9740157480314959
21
-3.9477559055118108
0
LINE
8
BLACK
6
CONTINUOUS
10
6.9740157480314959
20
-3.9477559055118108
11
6.9740157480314959
21
-3.9123228346456691
0
LINE
8
BLACK
6
CONTINUOUS
10
6.9740157480314959
20
-3.9123228346456691
11
7.033070866141732
21
-3.9123228346456691
0
LINE
8
BLACK
6
CONTINUOUS
10
7.033070866141732
20
-3.9123228346456691
11
7.033070866141732
21
-3.9477559055118108
0
LINE
8
BLACK
6
CONTINUOUS
10
7.2259842519685034
20
-3.9477559055118108
11
7.1669291338582672
21
-3.9477559055118108
0
LINE
8
BLACK
6
CONTINUOUS
10
7.1669291338582672
20
-3.9477559055118108
11
7.1669291338582672
21
-3.9123228346456691
0
LINE
8
BLACK
6
CONTINUOUS
10
7.1669291338582672
20
-3.9123228346456691
11
7.2259842519685034
21
-3.9123228346456691
0
LINE
8
BLACK
6
CONTINUOUS
10
7.2259842519685034
20
-3.9123228346456691
11
7.2259842519685034
21
-3.9477559055118108
0
LINE
8
BLACK
6
CONTINUOUS
10
3.9327559055118111
20
-3.9030708661417322
11
3.8973228346456694
21
-3.9030708661417322
0
LINE
8
BLACK
6
CONTINUOUS
10
3.8973228346456694
20
-3.9030708661417322
11
3.8973228346456694
21
-3.844015748031496
0
LINE
8
BLACK
6
CONTINUOUS
10
3.8973228346456694
20
-3.844015748031496
11
3.9327559055118111
21
-3.844015748031496
0
LINE
8
BLACK
6
CONTINUOUS
10
3.9327559055118111
20
-3.844015748031496
11
3.9327559055118111
21
-3.9030708661417322
0
LINE
8
BLACK
6
CONTINUOUS
10
4.062677165354331
20
-3.9030708661417322
11
4.0272440944881893
21
-3.9030708661417322
0
LINE
8
BLACK
6
CONTINUOUS
10
4.0272440944881893
20
-3.9030708661417322
11
4.0272440944881893
21
-3.844015748031496
0
LINE
8
BLACK
6
CONTINUOUS
10
4.0272440944881893
20
-3.844015748031496
11
4.062677165354331
21
-3.844015748031496
0
LINE
8
BLACK
6
CONTINUOUS
10
4.062677165354331
20
-3.844015748031496
11
4.062677165354331
21
-3.9030708661417322
0
LINE
8
BLACK
6
CONTINUOUS
10
4.497755905511811
20
-3.9030708661417322
11
4.4623228346456694
21
-3.9030708661417322
0
LINE
8
BLACK
6
CONTINUOUS
10
4.4623228346456694
20
-3.9030708661417322
11
4.4623228346456694
21
-3.844015748031496
0
LINE
8
BLACK
6
CONTINUOUS
10
4.4623228346456694
20
-3.844015748031496
11
4.497755905511811
21
-3.844015748031496
0
LINE
8
BLACK
6
CONTINUOUS
10
4.497755905511811
20
-3.844015748031496
11
4.497755905511811
21
-3.9030708661417322
0
LINE
8
BLACK
6
CONTINUOUS
10
4.6276771653543305
20
-3.9030708661417322
11
4.5922440944881888
21
-3.9030708661417322
0
LINE
8
BLACK
6
CONTINUOUS
10
4.5922440944881888
20
-3.9030708661417322
11
4.5922440944881888
21
-3.844015748031496
0
LINE
8
BLACK
6
CONTINUOUS
10
4.5922440944881888
20
-3.844015748031496
11
4.6276771653543305
21
-3.844015748031496
0
LINE
8
BLACK
6
CONTINUOUS
10
4.6276771653543305
20
-3.844015748031496
11
4.6276771653543305
21
-3.9030708661417322
0
LINE
8
BLACK
6
CONTINUOUS
10
5.4727559055118107
20
-3.9030708661417322
11
5.437322834645669
21
-3.9030708661417322
0
LINE
8
BLACK
6
CONTINUOUS
10
5.437322834645669
20
-3.9030708661417322
11
5.437322834645669
21
-3.844015748031496
0
LINE
8
BLACK
6
CONTINUOUS
10
5.437322834645669
20
-3.844015748031496
11
5.4727559055118107
21
-3.844015748031496
0
LINE
8
BLACK
6
CONTINUOUS
10
5.4727559055118107
20
-3.844015748031496
11
5.4727559055118107
21
-3.9030708661417322
0
LINE
8
BLACK
6
CONTINUOUS
10
5.602677165354331
20
-3.9030708661417322
11
5.5672440944881885
21
-3.9030708661417322
0
LINE
8
BLACK
6
CONTINUOUS
10
5.5672440944881885
20
-3.9030708661417322
11
5.5672440944881885
21
-3.844015748031496
0
LINE
8
BLACK
6
CONTINUOUS
10
5.5672440944881885
20
-3.844015748031496
11
5.602677165354331
21
-3.844015748031496
0
LINE
8
BLACK
6
CONTINUOUS
10
5.602677165354331
20
-3.844015748031496
11
5.602677165354331
21
-3.9030708661417322
0
LINE
8
BLACK
6
CONTINUOUS
10
4.9477559055118112
20
-3.8980708661417323
11
4.9123228346456695
21
-3.8980708661417323
0
LINE
8
BLACK
6
CONTINUOUS
10
4.9123228346456695
20
-3.8980708661417323
11
4.9123228346456695
21
-3.8390157480314961
0
LINE
8
BLACK
6
CONTINUOUS
10
4.9123228346456695
20
-3.8390157480314961
11
4.9477559055118112
21
-3.8390157480314961
0
LINE
8
BLACK
6
CONTINUOUS
10
4.9477559055118112
20
-3.8390157480314961
11
4.9477559055118112
21
-3.8980708661417323
0
LINE
8
BLACK
6
CONTINUOUS
10
5.0776771653543307
20
-3.8980708661417323
11
5.042244094488189
21
-3.8980708661417323
0
LINE
8
BLACK
6
CONTINUOUS
10
5.042244094488189
20
-3.8980708661417323
11
5.042244094488189
21
-3.8390157480314961
0
LINE
8
BLACK
6
CONTINUOUS
10
5.042244094488189
20
-3.8390157480314961
11
5.0776771653543307
21
-3.8390157480314961
0
LINE
8
BLACK
6
CONTINUOUS
10
5.0776771653543307
20
-3.8390157480314961
11
5.0776771653543307
21
-3.8980708661417323
0
LINE
8
BLACK
6
CONTINUOUS
10
6.5530708661417325
20
-3.8277559055118111
11
6.4940157480314955
21
-3.8277559055118111
0
LINE
8
BLACK
6
CONTINUOUS
10
6.4940157480314955
20
-3.8277559055118111
11
6.4940157480314955
21
-3.792322834645669
0
LINE
8
BLACK
6
CONTINUOUS
10
6.4940157480314955
20
-3.792322834645669
11
6.5530708661417325
21
-3.792322834645669
0
LINE
8
BLACK
6
CONTINUOUS
10
6.5530708661417325
20
-3.792322834645669
11
6.5530708661417325
21
-3.8277559055118111
0
LINE
8
BLACK
6
CONTINUOUS
10
6.7459842519685038
20
-3.8277559055118111
11
6.6869291338582677
21
-3.8277559055118111
0
LINE
8
BLACK
6
CONTINUOUS
10
6.6869291338582677
20
-3.8277559055118111
11
6.6869291338582677
21
-3.792322834645669
0
LINE
8
BLACK
6
CONTINUOUS
10
6.6869291338582677
20
-3.792322834645669
11
6.7459842519685038
21
-3.792322834645669
0
LINE
8
BLACK
6
CONTINUOUS
10
6.7459842519685038
20
-3.792322834645669
11
6.7459842519685038
21
-3.8277559055118111
0
LINE
8
BLACK
6
CONTINUOUS
10
4.5527559055118108
20
-3.800984251968504
11
4.5173228346456691
21
-3.800984251968504
0
LINE
8
BLACK
6
CONTINUOUS
10
4.5173228346456691
20
-3.800984251968504
11
4.5173228346456691
21
-3.7419291338582674
0
LINE
8
BLACK
6
CONTINUOUS
10
4.5173228346456691
20
-3.7419291338582674
11
4.5527559055118108
21
-3.7419291338582674
0
LINE
8
BLACK
6
CONTINUOUS
10
4.5527559055118108
20
-3.7419291338582674
11
4.5527559055118108
21
-3.800984251968504
0
LINE
8
BLACK
6
CONTINUOUS
10
4.6826771653543302
20
-3.800984251968504
11
4.6472440944881885
21
-3.800984251968504
0
LINE
8
BLACK
6
CONTINUOUS
10
4.6472440944881885
20
-3.800984251968504
11
4.6472440944881885
21
-3.7419291338582674
0
LINE
8
BLACK
6
CONTINUOUS
10
4.6472440944881885
20
-3.7419291338582674
11
4.6826771653543302
21
-3.7419291338582674
0
LINE
8
BLACK
6
CONTINUOUS
10
4.6826771653543302
20
-3.7419291338582674
11
4.6826771653543302
21
-3.800984251968504
0
LINE
8
BLACK
6
CONTINUOUS
10
5.5527559055118108
20
-3.800984251968504
11
5.5173228346456691
21
-3.800984251968504
0
LINE
8
BLACK
6
CONTINUOUS
10
5.5173228346456691
20
-3.800984251968504
11
5.5173228346456691
21
-3.7419291338582674
0
LINE
8
BLACK
6
CONTINUOUS
10
5.5173228346456691
20
-3.7419291338582674
11
5.5527559055118108
21
-3.7419291338582674
0
LINE
8
BLACK
6
CONTINUOUS
10
5.5527559055118108
20
-3.7419291338582674
11
5.5527559055118108
21
-3.800984251968504
0
LINE
8
BLACK
6
CONTINUOUS
10
5.6826771653543302
20
-3.800984251968504
11
5.6472440944881885
21
-3.800984251968504
0
LINE
8
BLACK
6
CONTINUOUS
10
5.6472440944881885
20
-3.800984251968504
11
5.6472440944881885
21
-3.7419291338582674
0
LINE
8
BLACK
6
CONTINUOUS
10
5.6472440944881885
20
-3.7419291338582674
11
5.6826771653543302
21
-3.7419291338582674
0
LINE
8
BLACK
6
CONTINUOUS
10
5.6826771653543302
20
-3.7419291338582674
11
5.6826771653543302
21
-3.800984251968504
0
LINE
8
BLACK
6
CONTINUOUS
10
4.8877559055118107
20
-3.7959842519685036
11
4.852322834645669
21
-3.7959842519685036
0
LINE
8
BLACK
6
CONTINUOUS
10
4.852322834645669
20
-3.7959842519685036
11
4.852322834645669
21
-3.7369291338582675
0
LINE
8
BLACK
6
CONTINUOUS
10
4.852322834645669
20
-3.7369291338582675
11
4.8877559055118107
21
-3.7369291338582675
0
LINE
8
BLACK
6
CONTINUOUS
10
4.8877559055118107
20
-3.7369291338582675
11
4.8877559055118107
21
-3.7959842519685036
0
LINE
8
BLACK
6
CONTINUOUS
10
5.0176771653543302
20
-3.7959842519685036
11
4.9822440944881885
21
-3.7959842519685036
0
LINE
8
BLACK
6
CONTINUOUS
10
4.9822440944881885
20
-3.7959842519685036
11
4.9822440944881885
21
-3.7369291338582675
0
LINE
8
BLACK
6
CONTINUOUS
10
4.9822440944881885
20
-3.7369291338582675
11
5.0176771653543302
21
-3.7369291338582675
0
LINE
8
BLACK
6
CONTINUOUS
10
5.0176771653543302
20
-3.7369291338582675
11
5.0176771653543302
21
-3.7959842519685036
0
LINE
8
BLACK
6
CONTINUOUS
10
3.872755905511811
20
-3.780984251968504
11
3.8373228346456694
21
-3.780984251968504
0
LINE
8
BLACK
6
CONTINUOUS
10
3.8373228346456694
20
-3.780984251968504
11
3.8373228346456694
21
-3.7219291338582678
0
LINE
8
BLACK
6
CONTINUOUS
10
3.8373228346456694
20
-3.7219291338582678
11
3.872755905511811
21
-3.7219291338582678
0
LINE
8
BLACK
6
CONTINUOUS
10
3.872755905511811
20
-3.7219291338582678
11
3.872755905511811
21
-3.780984251968504
0
LINE
8
BLACK
6
CONTINUOUS
10
4.0026771653543305
20
-3.780984251968504
11
3.9672440944881888
21
-3.780984251968504
0
LINE
8
BLACK
6
CONTINUOUS
10
3.9672440944881888
20
-3.780984251968504
11
3.9672440944881888
21
-3.7219291338582678
0
LINE
8
BLACK
6
CONTINUOUS
10
3.9672440944881888
20
-3.7219291338582678
11
4.0026771653543305
21
-3.7219291338582678
0
LINE
8
BLACK
6
CONTINUOUS
10
4.0026771653543305
20
-3.7219291338582678
11
4.0026771653543305
21
-3.780984251968504
0
LINE
8
BLACK
6
CONTINUOUS
10
3.4966141732283464
20
-3.7426771653543307
11
3.4375590551181103
21
-3.7426771653543307
0
LINE
8
BLACK
6
CONTINUOUS
10
3.4375590551181103
20
-3.7426771653543307
11
3.4375590551181103
21
-3.707244094488189
0
LINE
8
BLACK
6
CONTINUOUS
10
3.4375590551181103
20
-3.707244094488189
11
3.4966141732283464
21
-3.707244094488189
0
LINE
8
BLACK
6
CONTINUOUS
10
3.4966141732283464
20
-3.707244094488189
11
3.4966141732283464
21
-3.7426771653543307
0
LINE
8
BLACK
6
CONTINUOUS
10
3.6895275590551182
20
-3.7426771653543307
11
3.6304724409448816
21
-3.7426771653543307
0
LINE
8
BLACK
6
CONTINUOUS
10
3.6304724409448816
20
-3.7426771653543307
11
3.6304724409448816
21
-3.707244094488189
0
LINE
8
BLACK
6
CONTINUOUS
10
3.6304724409448816
20
-3.707244094488189
11
3.6895275590551182
21
-3.707244094488189
0
LINE
8
BLACK
6
CONTINUOUS
10
3.6895275590551182
20
-3.707244094488189
11
3.6895275590551182
21
-3.7426771653543307
0
LINE
8
BLACK
6
CONTINUOUS
10
6.0530708661417325
20
-3.7376771653543308
11
5.9940157480314955
21
-3.7376771653543308
0
LINE
8
BLACK
6
CONTINUOUS
10
5.9940157480314955
20
-3.7376771653543308
11
5.9940157480314955
21
-3.7022440944881887
0
LINE
8
BLACK
6
CONTINUOUS
10
5.9940157480314955
20
-3.7022440944881887
11
6.0530708661417325
21
-3.7022440944881887
0
LINE
8
BLACK
6
CONTINUOUS
10
6.0530708661417325
20
-3.7022440944881887
11
6.0530708661417325
21
-3.7376771653543308
0
LINE
8
BLACK
6
CONTINUOUS
10
6.2459842519685038
20
-3.7376771653543308
11
6.1869291338582677
21
-3.7376771653543308
0
LINE
8
BLACK
6
CONTINUOUS
10
6.1869291338582677
20
-3.7376771653543308
11
6.1869291338582677
21
-3.7022440944881887
0
LINE
8
BLACK
6
CONTINUOUS
10
6.1869291338582677
20
-3.7022440944881887
11
6.2459842519685038
21
-3.7022440944881887
0
LINE
8
BLACK
6
CONTINUOUS
10
6.2459842519685038
20
-3.7022440944881887
11
6.2459842519685038
21
-3.7376771653543308
0
LINE
8
BLACK
6
CONTINUOUS
10
7.0430708661417318
20
-3.7326771653543305
11
6.9840157480314957
21
-3.7326771653543305
0
LINE
8
BLACK
6
CONTINUOUS
10
6.9840157480314957
20
-3.7326771653543305
11
6.9840157480314957
21
-3.6972440944881888
0
LINE
8
BLACK
6
CONTINUOUS
10
6.9840157480314957
20
-3.6972440944881888
11
7.0430708661417318
21
-3.6972440944881888
0
LINE
8
BLACK
6
CONTINUOUS
10
7.0430708661417318
20
-3.6972440944881888
11
7.0430708661417318
21
-3.7326771653543305
0
LINE
8
BLACK
6
CONTINUOUS
10
7.235984251968504
20
-3.7326771653543305
11
7.1769291338582679
21
-3.7326771653543305
0
LINE
8
BLACK
6
CONTINUOUS
10
7.1769291338582679
20
-3.7326771653543305
11
7.1769291338582679
21
-3.6972440944881888
0
LINE
8
BLACK
6
CONTINUOUS
10
7.1769291338582679
20
-3.6972440944881888
11
7.235984251968504
21
-3.6972440944881888
0
LINE
8
BLACK
6
CONTINUOUS
10
7.235984251968504
20
-3.6972440944881888
11
7.235984251968504
21
-3.7326771653543305
0
LINE
8
BLACK
6
CONTINUOUS
10
6.6230708661417319
20
-3.7176771653543308
11
6.5640157480314958
21
-3.7176771653543308
0
LINE
8
BLACK
6
CONTINUOUS
10
6.5640157480314958
20
-3.7176771653543308
11
6.5640157480314958
21
-3.6822440944881887
0
LINE
8
BLACK
6
CONTINUOUS
10
6.5640157480314958
20
-3.6822440944881887
11
6.6230708661417319
21
-3.6822440944881887
0
LINE
8
BLACK
6
CONTINUOUS
10
6.6230708661417319
20
-3.6822440944881887
11
6.6230708661417319
21
-3.7176771653543308
0
LINE
8
BLACK
6
CONTINUOUS
10
6.8159842519685041
20
-3.7176771653543308
11
6.756929133858268
21
-3.7176771653543308
0
LINE
8
BLACK
6
CONTINUOUS
10
6.756929133858268
20
-3.7176771653543308
11
6.756929133858268
21
-3.6822440944881887
0
LINE
8
BLACK
6
CONTINUOUS
10
6.756929133858268
20
-3.6822440944881887
11
6.8159842519685041
21
-3.6822440944881887
0
LINE
8
BLACK
6
CONTINUOUS
10
6.8159842519685041
20
-3.6822440944881887
11
6.8159842519685041
21
-3.7176771653543308
0
LINE
8
BLACK
6
CONTINUOUS
10
3.4966141732283464
20
-3.6127559055118108
11
3.4375590551181103
21
-3.6127559055118108
0
LINE
8
BLACK
6
CONTINUOUS
10
3.4375590551181103
20
-3.6127559055118108
11
3.4375590551181103
21
-3.5773228346456691
0
LINE
8
BLACK
6
CONTINUOUS
10
3.4375590551181103
20
-3.5773228346456691
11
3.4966141732283464
21
-3.5773228346456691
0
LINE
8
BLACK
6
CONTINUOUS
10
3.4966141732283464
20
-3.5773228346456691
11
3.4966141732283464
21
-3.6127559055118108
0
LINE
8
BLACK
6
CONTINUOUS
10
3.6895275590551182
20
-3.6127559055118108
11
3.6304724409448816
21
-3.6127559055118108
0
LINE
8
BLACK
6
CONTINUOUS
10
3.6304724409448816
20
-3.6127559055118108
11
3.6304724409448816
21
-3.5773228346456691
0
LINE
8
BLACK
6
CONTINUOUS
10
3.6304724409448816
20
-3.5773228346456691
11
3.6895275590551182
21
-3.5773228346456691
0
LINE
8
BLACK
6
CONTINUOUS
10
3.6895275590551182
20
-3.5773228346456691
11
3.6895275590551182
21
-3.6127559055118108
0
LINE
8
BLACK
6
CONTINUOUS
10
4.5527559055118108
20
-3.6080708661417322
11
4.5173228346456691
21
-3.6080708661417322
0
LINE
8
BLACK
6
CONTINUOUS
10
4.5173228346456691
20
-3.6080708661417322
11
4.5173228346456691
21
-3.5490157480314961
0
LINE
8
BLACK
6
CONTINUOUS
10
4.5173228346456691
20
-3.5490157480314961
11
4.5527559055118108
21
-3.5490157480314961
0
LINE
8
BLACK
6
CONTINUOUS
10
4.5527559055118108
20
-3.5490157480314961
11
4.5527559055118108
21
-3.6080708661417322
0
LINE
8
BLACK
6
CONTINUOUS
10
4.6826771653543302
20
-3.6080708661417322
11
4.6472440944881885
21
-3.6080708661417322
0
LINE
8
BLACK
6
CONTINUOUS
10
4.6472440944881885
20
-3.6080708661417322
11
4.6472440944881885
21
-3.5490157480314961
0
LINE
8
BLACK
6
CONTINUOUS
10
4.6472440944881885
20
-3.5490157480314961
11
4.6826771653543302
21
-3.5490157480314961
0
LINE
8
BLACK
6
CONTINUOUS
10
4.6826771653543302
20
-3.5490157480314961
11
4.6826771653543302
21
-3.6080708661417322
0
LINE
8
BLACK
6
CONTINUOUS
10
5.5527559055118108
20
-3.6080708661417322
11
5.5173228346456691
21
-3.6080708661417322
0
LINE
8
BLACK
6
CONTINUOUS
10
5.5173228346456691
20
-3.6080708661417322
11
5.5173228346456691
21
-3.5490157480314961
0
LINE
8
BLACK
6
CONTINUOUS
10
5.5173228346456691
20
-3.5490157480314961
11
5.5527559055118108
21
-3.5490157480314961
0
LINE
8
BLACK
6
CONTINUOUS
10
5.5527559055118108
20
-3.5490157480314961
11
5.5527559055118108
21
-3.6080708661417322
0
LINE
8
BLACK
6
CONTINUOUS
10
5.6826771653543302
20
-3.6080708661417322
11
5.6472440944881885
21
-3.6080708661417322
0
LINE
8
BLACK
6
CONTINUOUS
10
5.6472440944881885
20
-3.6080708661417322
11
5.6472440944881885
21
-3.5490157480314961
0
LINE
8
BLACK
6
CONTINUOUS
10
5.6472440944881885
20
-3.5490157480314961
11
5.6826771653543302
21
-3.5490157480314961
0
LINE
8
BLACK
6
CONTINUOUS
10
5.6826771653543302
20
-3.5490157480314961
11
5.6826771653543302
21
-3.6080708661417322
0
LINE
8
BLACK
6
CONTINUOUS
10
6.0530708661417325
20
-3.6077559055118109
11
5.9940157480314955
21
-3.6077559055118109
0
LINE
8
BLACK
6
CONTINUOUS
10
5.9940157480314955
20
-3.6077559055118109
11
5.9940157480314955
21
-3.5723228346456692
0
LINE
8
BLACK
6
CONTINUOUS
10
5.9940157480314955
20
-3.5723228346456692
11
6.0530708661417325
21
-3.5723228346456692
0
LINE
8
BLACK
6
CONTINUOUS
10
6.0530708661417325
20
-3.5723228346456692
11
6.0530708661417325
21
-3.6077559055118109
0
LINE
8
BLACK
6
CONTINUOUS
10
6.2459842519685038
20
-3.6077559055118109
11
6.1869291338582677
21
-3.6077559055118109
0
LINE
8
BLACK
6
CONTINUOUS
10
6.1869291338582677
20
-3.6077559055118109
11
6.1869291338582677
21
-3.5723228346456692
0
LINE
8
BLACK
6
CONTINUOUS
10
6.1869291338582677
20
-3.5723228346456692
11
6.2459842519685038
21
-3.5723228346456692
0
LINE
8
BLACK
6
CONTINUOUS
10
6.2459842519685038
20
-3.5723228346456692
11
6.2459842519685038
21
-3.6077559055118109
0
LINE
8
BLACK
6
CONTINUOUS
10
4.8877559055118107
20
-3.6030708661417323
11
4.852322834645669
21
-3.6030708661417323
0
LINE
8
BLACK
6
CONTINUOUS
10
4.852322834645669
20
-3.6030708661417323
11
4.852322834645669
21
-3.5440157480314958
0
LINE
8
BLACK
6
CONTINUOUS
10
4.852322834645669
20
-3.5440157480314958
11
4.8877559055118107
21
-3.5440157480314958
0
LINE
8
BLACK
6
CONTINUOUS
10
4.8877559055118107
20
-3.5440157480314958
11
4.8877559055118107
21
-3.6030708661417323
0
LINE
8
BLACK
6
CONTINUOUS
10
5.0176771653543302
20
-3.6030708661417323
11
4.9822440944881885
21
-3.6030708661417323
0
LINE
8
BLACK
6
CONTINUOUS
10
4.9822440944881885
20
-3.6030708661417323
11
4.9822440944881885
21
-3.5440157480314958
0
LINE
8
BLACK
6
CONTINUOUS
10
4.9822440944881885
20
-3.5440157480314958
11
5.0176771653543302
21
-3.5440157480314958
0
LINE
8
BLACK
6
CONTINUOUS
10
5.0176771653543302
20
-3.5440157480314958
11
5.0176771653543302
21
-3.6030708661417323
0
LINE
8
BLACK
6
CONTINUOUS
10
7.0430708661417318
20
-3.602755905511811
11
6.9840157480314957
21
-3.602755905511811
0
LINE
8
BLACK
6
CONTINUOUS
10
6.9840157480314957
20
-3.602755905511811
11
6.9840157480314957
21
-3.5673228346456693
0
LINE
8
BLACK
6
CONTINUOUS
10
6.9840157480314957
20
-3.5673228346456693
11
7.0430708661417318
21
-3.5673228346456693
0
LINE
8
BLACK
6
CONTINUOUS
10
7.0430708661417318
20
-3.5673228346456693
11
7.0430708661417318
21
-3.602755905511811
0
LINE
8
BLACK
6
CONTINUOUS
10
7.235984251968504
20
-3.602755905511811
11
7.1769291338582679
21
-3.602755905511811
0
LINE
8
BLACK
6
CONTINUOUS
10
7.1769291338582679
20
-3.602755905511811
11
7.1769291338582679
21
-3.5673228346456693
0
LINE
8
BLACK
6
CONTINUOUS
10
7.1769291338582679
20
-3.5673228346456693
11
7.235984251968504
21
-3.5673228346456693
0
LINE
8
BLACK
6
CONTINUOUS
10
7.235984251968504
20
-3.5673228346456693
11
7.235984251968504
21
-3.602755905511811
0
LINE
8
BLACK
6
CONTINUOUS
10
5.1880708661417323
20
-3.5976771653543307
11
5.1290157480314962
21
-3.5976771653543307
0
LINE
8
BLACK
6
CONTINUOUS
10
5.1290157480314962
20
-3.5976771653543307
11
5.1290157480314962
21
-3.562244094488189
0
LINE
8
BLACK
6
CONTINUOUS
10
5.1290157480314962
20
-3.562244094488189
11
5.1880708661417323
21
-3.562244094488189
0
LINE
8
BLACK
6
CONTINUOUS
10
5.1880708661417323
20
-3.562244094488189
11
5.1880708661417323
21
-3.5976771653543307
0
LINE
8
BLACK
6
CONTINUOUS
10
5.3809842519685036
20
-3.5976771653543307
11
5.3219291338582675
21
-3.5976771653543307
0
LINE
8
BLACK
6
CONTINUOUS
10
5.3219291338582675
20
-3.5976771653543307
11
5.3219291338582675
21
-3.562244094488189
0
LINE
8
BLACK
6
CONTINUOUS
10
5.3219291338582675
20
-3.562244094488189
11
5.3809842519685036
21
-3.562244094488189
0
LINE
8
BLACK
6
CONTINUOUS
10
5.3809842519685036
20
-3.562244094488189
11
5.3809842519685036
21
-3.5976771653543307
0
LINE
8
BLACK
6
CONTINUOUS
10
3.872755905511811
20
-3.5880708661417322
11
3.8373228346456694
21
-3.5880708661417322
0
LINE
8
BLACK
6
CONTINUOUS
10
3.8373228346456694
20
-3.5880708661417322
11
3.8373228346456694
21
-3.5290157480314961
0
LINE
8
BLACK
6
CONTINUOUS
10
3.8373228346456694
20
-3.5290157480314961
11
3.872755905511811
21
-3.5290157480314961
0
LINE
8
BLACK
6
CONTINUOUS
10
3.872755905511811
20
-3.5290157480314961
11
3.872755905511811
21
-3.5880708661417322
0
LINE
8
BLACK
6
CONTINUOUS
10
4.0026771653543305
20
-3.5880708661417322
11
3.9672440944881888
21
-3.5880708661417322
0
LINE
8
BLACK
6
CONTINUOUS
10
3.9672440944881888
20
-3.5880708661417322
11
3.9672440944881888
21
-3.5290157480314961
0
LINE
8
BLACK
6
CONTINUOUS
10
3.9672440944881888
20
-3.5290157480314961
11
4.0026771653543305
21
-3.5290157480314961
0
LINE
8
BLACK
6
CONTINUOUS
10
4.0026771653543305
20
-3.5290157480314961
11
4.0026771653543305
21
-3.5880708661417322
0
LINE
8
BLACK
6
CONTINUOUS
10
6.6230708661417319
20
-3.5877559055118109
11
6.5640157480314958
21
-3.5877559055118109
0
LINE
8
BLACK
6
CONTINUOUS
10
6.5640157480314958
20
-3.5877559055118109
11
6.5640157480314958
21
-3.5523228346456692
0
LINE
8
BLACK
6
CONTINUOUS
10
6.5640157480314958
20
-3.5523228346456692
11
6.6230708661417319
21
-3.5523228346456692
0
LINE
8
BLACK
6
CONTINUOUS
10
6.6230708661417319
20
-3.5523228346456692
11
6.6230708661417319
21
-3.5877559055118109
0
LINE
8
BLACK
6
CONTINUOUS
10
6.8159842519685041
20
-3.5877559055118109
11
6.756929133858268
21
-3.5877559055118109
0
LINE
8
BLACK
6
CONTINUOUS
10
6.756929133858268
20
-3.5877559055118109
11
6.756929133858268
21
-3.5523228346456692
0
LINE
8
BLACK
6
CONTINUOUS
10
6.756929133858268
20
-3.5523228346456692
11
6.8159842519685041
21
-3.5523228346456692
0
LINE
8
BLACK
6
CONTINUOUS
10
6.8159842519685041
20
-3.5523228346456692
11
6.8159842519685041
21
-3.5877559055118109
0
LINE
8
BLACK
6
CONTINUOUS
10
4.2180708661417325
20
-3.5676771653543304
11
4.1590157480314955
21
-3.5676771653543304
0
LINE
8
BLACK
6
CONTINUOUS
10
4.1590157480314955
20
-3.5676771653543304
11
4.1590157480314955
21
-3.5322440944881888
0
LINE
8
BLACK
6
CONTINUOUS
10
4.1590157480314955
20
-3.5322440944881888
11
4.2180708661417325
21
-3.5322440944881888
0
LINE
8
BLACK
6
CONTINUOUS
10
4.2180708661417325
20
-3.5322440944881888
11
4.2180708661417325
21
-3.5676771653543304
0
LINE
8
BLACK
6
CONTINUOUS
10
4.4109842519685039
20
-3.5676771653543304
11
4.3519291338582677
21
-3.5676771653543304
0
LINE
8
BLACK
6
CONTINUOUS
10
4.3519291338582677
20
-3.5676771653543304
11
4.3519291338582677
21
-3.5322440944881888
0
LINE
8
BLACK
6
CONTINUOUS
10
4.3519291338582677
20
-3.5322440944881888
11
4.4109842519685039
21
-3.5322440944881888
0
LINE
8
BLACK
6
CONTINUOUS
10
4.4109842519685039
20
-3.5322440944881888
11
4.4109842519685039
21
-3.5676771653543304
0
LINE
8
BLACK
6
CONTINUOUS
10
4.6077559055118114
20
-3.5009842519685037
11
4.5723228346456688
21
-3.5009842519685037
0
LINE
8
BLACK
6
CONTINUOUS
10
4.5723228346456688
20
-3.5009842519685037
11
4.5723228346456688
21
-3.4419291338582676
0
LINE
8
BLACK
6
CONTINUOUS
10
4.5723228346456688
20
-3.4419291338582676
11
4.6077559055118114
21
-3.4419291338582676
0
LINE
8
BLACK
6
CONTINUOUS
10
4.6077559055118114
20
-3.4419291338582676
11
4.6077559055118114
21
-3.5009842519685037
0
LINE
8
BLACK
6
CONTINUOUS
10
4.7376771653543308
20
-3.5009842519685037
11
4.7022440944881891
21
-3.5009842519685037
0
LINE
8
BLACK
6
CONTINUOUS
10
4.7022440944881891
20
-3.5009842519685037
11
4.7022440944881891
21
-3.4419291338582676
0
LINE
8
BLACK
6
CONTINUOUS
10
4.7022440944881891
20
-3.4419291338582676
11
4.7376771653543308
21
-3.4419291338582676
0
LINE
8
BLACK
6
CONTINUOUS
10
4.7376771653543308
20
-3.4419291338582676
11
4.7376771653543308
21
-3.5009842519685037
0
LINE
8
BLACK
6
CONTINUOUS
10
4.8427559055118108
20
-3.5009842519685037
11
4.8073228346456691
21
-3.5009842519685037
0
LINE
8
BLACK
6
CONTINUOUS
10
4.8073228346456691
20
-3.5009842519685037
11
4.8073228346456691
21
-3.4419291338582676
0
LINE
8
BLACK
6
CONTINUOUS
10
4.8073228346456691
20
-3.4419291338582676
11
4.8427559055118108
21
-3.4419291338582676
0
LINE
8
BLACK
6
CONTINUOUS
10
4.8427559055118108
20
-3.4419291338582676
11
4.8427559055118108
21
-3.5009842519685037
0
LINE
8
BLACK
6
CONTINUOUS
10
4.9726771653543302
20
-3.5009842519685037
11
4.9372440944881886
21
-3.5009842519685037
0
LINE
8
BLACK
6
CONTINUOUS
10
4.9372440944881886
20
-3.5009842519685037
11
4.9372440944881886
21
-3.4419291338582676
0
LINE
8
BLACK
6
CONTINUOUS
10
4.9372440944881886
20
-3.4419291338582676
11
4.9726771653543302
21
-3.4419291338582676
0
LINE
8
BLACK
6
CONTINUOUS
10
4.9726771653543302
20
-3.4419291338582676
11
4.9726771653543302
21
-3.5009842519685037
0
LINE
8
BLACK
6
CONTINUOUS
10
5.6077559055118105
20
-3.5009842519685037
11
5.5723228346456688
21
-3.5009842519685037
0
LINE
8
BLACK
6
CONTINUOUS
10
5.5723228346456688
20
-3.5009842519685037
11
5.5723228346456688
21
-3.4419291338582676
0
LINE
8
BLACK
6
CONTINUOUS
10
5.5723228346456688
20
-3.4419291338582676
11
5.6077559055118105
21
-3.4419291338582676
0
LINE
8
BLACK
6
CONTINUOUS
10
5.6077559055118105
20
-3.4419291338582676
11
5.6077559055118105
21
-3.5009842519685037
0
LINE
8
BLACK
6
CONTINUOUS
10
5.7376771653543308
20
-3.5009842519685037
11
5.7022440944881891
21
-3.5009842519685037
0
LINE
8
BLACK
6
CONTINUOUS
10
5.7022440944881891
20
-3.5009842519685037
11
5.7022440944881891
21
-3.4419291338582676
0
LINE
8
BLACK
6
CONTINUOUS
10
5.7022440944881891
20
-3.4419291338582676
11
5.7376771653543308
21
-3.4419291338582676
0
LINE
8
BLACK
6
CONTINUOUS
10
5.7376771653543308
20
-3.4419291338582676
11
5.7376771653543308
21
-3.5009842519685037
0
LINE
8
BLACK
6
CONTINUOUS
10
3.792755905511811
20
-3.4759842519685038
11
3.7573228346456693
21
-3.4759842519685038
0
LINE
8
BLACK
6
CONTINUOUS
10
3.7573228346456693
20
-3.4759842519685038
11
3.7573228346456693
21
-3.4169291338582677
0
LINE
8
BLACK
6
CONTINUOUS
10
3.7573228346456693
20
-3.4169291338582677
11
3.792755905511811
21
-3.4169291338582677
0
LINE
8
BLACK
6
CONTINUOUS
10
3.792755905511811
20
-3.4169291338582677
11
3.792755905511811
21
-3.4759842519685038
0
LINE
8
BLACK
6
CONTINUOUS
10
3.9226771653543304
20
-3.4759842519685038
11
3.8872440944881888
21
-3.4759842519685038
0
LINE
8
BLACK
6
CONTINUOUS
10
3.8872440944881888
20
-3.4759842519685038
11
3.8872440944881888
21
-3.4169291338582677
0
LINE
8
BLACK
6
CONTINUOUS
10
3.8872440944881888
20
-3.4169291338582677
11
3.9226771653543304
21
-3.4169291338582677
0
LINE
8
BLACK
6
CONTINUOUS
10
3.9226771653543304
20
-3.4169291338582677
11
3.9226771653543304
21
-3.4759842519685038
0
LINE
8
BLACK
6
CONTINUOUS
10
5.1880708661417323
20
-3.4677559055118108
11
5.1290157480314962
21
-3.4677559055118108
0
LINE
8
BLACK
6
CONTINUOUS
10
5.1290157480314962
20
-3.4677559055118108
11
5.1290157480314962
21
-3.4323228346456691
0
LINE
8
BLACK
6
CONTINUOUS
10
5.1290157480314962
20
-3.4323228346456691
11
5.1880708661417323
21
-3.4323228346456691
0
LINE
8
BLACK
6
CONTINUOUS
10
5.1880708661417323
20
-3.4323228346456691
11
5.1880708661417323
21
-3.4677559055118108
0
LINE
8
BLACK
6
CONTINUOUS
10
5.3809842519685036
20
-3.4677559055118108
11
5.3219291338582675
21
-3.4677559055118108
0
LINE
8
BLACK
6
CONTINUOUS
10
5.3219291338582675
20
-3.4677559055118108
11
5.3219291338582675
21
-3.4323228346456691
0
LINE
8
BLACK
6
CONTINUOUS
10
5.3219291338582675
20
-3.4323228346456691
11
5.3809842519685036
21
-3.4323228346456691
0
LINE
8
BLACK
6
CONTINUOUS
10
5.3809842519685036
20
-3.4323228346456691
11
5.3809842519685036
21
-3.4677559055118108
0
LINE
8
BLACK
6
CONTINUOUS
10
6.4680708661417325
20
-3.4626771653543305
11
6.4090157480314955
21
-3.4626771653543305
0
LINE
8
BLACK
6
CONTINUOUS
10
6.4090157480314955
20
-3.4626771653543305
11
6.4090157480314955
21
-3.4272440944881888
0
LINE
8
BLACK
6
CONTINUOUS
10
6.4090157480314955
20
-3.4272440944881888
11
6.4680708661417325
21
-3.4272440944881888
0
LINE
8
BLACK
6
CONTINUOUS
10
6.4680708661417325
20
-3.4272440944881888
11
6.4680708661417325
21
-3.4626771653543305
0
LINE
8
BLACK
6
CONTINUOUS
10
6.6609842519685039
20
-3.4626771653543305
11
6.6019291338582677
21
-3.4626771653543305
0
LINE
8
BLACK
6
CONTINUOUS
10
6.6019291338582677
20
-3.4626771653543305
11
6.6019291338582677
21
-3.4272440944881888
0
LINE
8
BLACK
6
CONTINUOUS
10
6.6019291338582677
20
-3.4272440944881888
11
6.6609842519685039
21
-3.4272440944881888
0
LINE
8
BLACK
6
CONTINUOUS
10
6.6609842519685039
20
-3.4272440944881888
11
6.6609842519685039
21
-3.4626771653543305
0
LINE
8
BLACK
6
CONTINUOUS
10
4.2180708661417325
20
-3.437755905511811
11
4.1590157480314955
21
-3.437755905511811
0
LINE
8
BLACK
6
CONTINUOUS
10
4.1590157480314955
20
-3.437755905511811
11
4.1590157480314955
21
-3.4023228346456693
0
LINE
8
BLACK
6
CONTINUOUS
10
4.1590157480314955
20
-3.4023228346456693
11
4.2180708661417325
21
-3.4023228346456693
0
LINE
8
BLACK
6
CONTINUOUS
10
4.2180708661417325
20
-3.4023228346456693
11
4.2180708661417325
21
-3.437755905511811
0
LINE
8
BLACK
6
CONTINUOUS
10
4.4109842519685039
20
-3.437755905511811
11
4.3519291338582677
21
-3.437755905511811
0
LINE
8
BLACK
6
CONTINUOUS
10
4.3519291338582677
20
-3.437755905511811
11
4.3519291338582677
21
-3.4023228346456693
0
LINE
8
BLACK
6
CONTINUOUS
10
4.3519291338582677
20
-3.4023228346456693
11
4.4109842519685039
21
-3.4023228346456693
0
LINE
8
BLACK
6
CONTINUOUS
10
4.4109842519685039
20
-3.4023228346456693
11
4.4109842519685039
21
-3.437755905511811
0
LINE
8
BLACK
6
CONTINUOUS
10
6.1680708661417318
20
-3.4126771653543306
11
6.1090157480314957
21
-3.4126771653543306
0
LINE
8
BLACK
6
CONTINUOUS
10
6.1090157480314957
20
-3.4126771653543306
11
6.1090157480314957
21
-3.377244094488189
0
LINE
8
BLACK
6
CONTINUOUS
10
6.1090157480314957
20
-3.377244094488189
11
6.1680708661417318
21
-3.377244094488189
0
LINE
8
BLACK
6
CONTINUOUS
10
6.1680708661417318
20
-3.377244094488189
11
6.1680708661417318
21
-3.4126771653543306
0
LINE
8
BLACK
6
CONTINUOUS
10
6.360984251968504
20
-3.4126771653543306
11
6.3019291338582679
21
-3.4126771653543306
0
LINE
8
BLACK
6
CONTINUOUS
10
6.3019291338582679
20
-3.4126771653543306
11
6.3019291338582679
21
-3.377244094488189
0
LINE
8
BLACK
6
CONTINUOUS
10
6.3019291338582679
20
-3.377244094488189
11
6.360984251968504
21
-3.377244094488189
0
LINE
8
BLACK
6
CONTINUOUS
10
6.360984251968504
20
-3.377244094488189
11
6.360984251968504
21
-3.4126771653543306
0
LINE
8
BLACK
6
CONTINUOUS
10
6.4680708661417325
20
-3.332755905511811
11
6.4090157480314955
21
-3.332755905511811
0
LINE
8
BLACK
6
CONTINUOUS
10
6.4090157480314955
20
-3.332755905511811
11
6.4090157480314955
21
-3.2973228346456693
0
LINE
8
BLACK
6
CONTINUOUS
10
6.4090157480314955
20
-3.2973228346456693
11
6.4680708661417325
21
-3.2973228346456693
0
LINE
8
BLACK
6
CONTINUOUS
10
6.4680708661417325
20
-3.2973228346456693
11
6.4680708661417325
21
-3.332755905511811
0
LINE
8
BLACK
6
CONTINUOUS
10
6.6609842519685039
20
-3.332755905511811
11
6.6019291338582677
21
-3.332755905511811
0
LINE
8
BLACK
6
CONTINUOUS
10
6.6019291338582677
20
-3.332755905511811
11
6.6019291338582677
21
-3.2973228346456693
0
LINE
8
BLACK
6
CONTINUOUS
10
6.6019291338582677
20
-3.2973228346456693
11
6.6609842519685039
21
-3.2973228346456693
0
LINE
8
BLACK
6
CONTINUOUS
10
6.6609842519685039
20
-3.2973228346456693
11
6.6609842519685039
21
-3.332755905511811
0
LINE
8
BLACK
6
CONTINUOUS
10
6.8880708661417325
20
-3.3126771653543305
11
6.8290157480314955
21
-3.3126771653543305
0
LINE
8
BLACK
6
CONTINUOUS
10
6.8290157480314955
20
-3.3126771653543305
11
6.8290157480314955
21
-3.2772440944881889
0
LINE
8
BLACK
6
CONTINUOUS
10
6.8290157480314955
20
-3.2772440944881889
11
6.8880708661417325
21
-3.2772440944881889
0
LINE
8
BLACK
6
CONTINUOUS
10
6.8880708661417325
20
-3.2772440944881889
11
6.8880708661417325
21
-3.3126771653543305
0
LINE
8
BLACK
6
CONTINUOUS
10
7.0809842519685038
20
-3.3126771653543305
11
7.0219291338582677
21
-3.3126771653543305
0
LINE
8
BLACK
6
CONTINUOUS
10
7.0219291338582677
20
-3.3126771653543305
11
7.0219291338582677
21
-3.2772440944881889
0
LINE
8
BLACK
6
CONTINUOUS
10
7.0219291338582677
20
-3.2772440944881889
11
7.0809842519685038
21
-3.2772440944881889
0
LINE
8
BLACK
6
CONTINUOUS
10
7.0809842519685038
20
-3.2772440944881889
11
7.0809842519685038
21
-3.3126771653543305
0
LINE
8
BLACK
6
CONTINUOUS
10
4.6077559055118114
20
-3.3080708661417324
11
4.5723228346456688
21
-3.3080708661417324
0
LINE
8
BLACK
6
CONTINUOUS
10
4.5723228346456688
20
-3.3080708661417324
11
4.5723228346456688
21
-3.2490157480314958
0
LINE
8
BLACK
6
CONTINUOUS
10
4.5723228346456688
20
-3.2490157480314958
11
4.6077559055118114
21
-3.2490157480314958
0
LINE
8
BLACK
6
CONTINUOUS
10
4.6077559055118114
20
-3.2490157480314958
11
4.6077559055118114
21
-3.3080708661417324
0
LINE
8
BLACK
6
CONTINUOUS
10
4.7376771653543308
20
-3.3080708661417324
11
4.7022440944881891
21
-3.3080708661417324
0
LINE
8
BLACK
6
CONTINUOUS
10
4.7022440944881891
20
-3.3080708661417324
11
4.7022440944881891
21
-3.2490157480314958
0
LINE
8
BLACK
6
CONTINUOUS
10
4.7022440944881891
20
-3.2490157480314958
11
4.7376771653543308
21
-3.2490157480314958
0
LINE
8
BLACK
6
CONTINUOUS
10
4.7376771653543308
20
-3.2490157480314958
11
4.7376771653543308
21
-3.3080708661417324
0
LINE
8
BLACK
6
CONTINUOUS
10
4.8427559055118108
20
-3.3080708661417324
11
4.8073228346456691
21
-3.3080708661417324
0
LINE
8
BLACK
6
CONTINUOUS
10
4.8073228346456691
20
-3.3080708661417324
11
4.8073228346456691
21
-3.2490157480314958
0
LINE
8
BLACK
6
CONTINUOUS
10
4.8073228346456691
20
-3.2490157480314958
11
4.8427559055118108
21
-3.2490157480314958
0
LINE
8
BLACK
6
CONTINUOUS
10
4.8427559055118108
20
-3.2490157480314958
11
4.8427559055118108
21
-3.3080708661417324
0
LINE
8
BLACK
6
CONTINUOUS
10
4.9726771653543302
20
-3.3080708661417324
11
4.9372440944881886
21
-3.3080708661417324
0
LINE
8
BLACK
6
CONTINUOUS
10
4.9372440944881886
20
-3.3080708661417324
11
4.9372440944881886
21
-3.2490157480314958
0
LINE
8
BLACK
6
CONTINUOUS
10
4.9372440944881886
20
-3.2490157480314958
11
4.9726771653543302
21
-3.2490157480314958
0
LINE
8
BLACK
6
CONTINUOUS
10
4.9726771653543302
20
-3.2490157480314958
11
4.9726771653543302
21
-3.3080708661417324
0
LINE
8
BLACK
6
CONTINUOUS
10
5.6077559055118105
20
-3.3080708661417324
11
5.5723228346456688
21
-3.3080708661417324
0
LINE
8
BLACK
6
CONTINUOUS
10
5.5723228346456688
20
-3.3080708661417324
11
5.5723228346456688
21
-3.2490157480314958
0
LINE
8
BLACK
6
CONTINUOUS
10
5.5723228346456688
20
-3.2490157480314958
11
5.6077559055118105
21
-3.2490157480314958
0
LINE
8
BLACK
6
CONTINUOUS
10
5.6077559055118105
20
-3.2490157480314958
11
5.6077559055118105
21
-3.3080708661417324
0
LINE
8
BLACK
6
CONTINUOUS
10
5.7376771653543308
20
-3.3080708661417324
11
5.7022440944881891
21
-3.3080708661417324
0
LINE
8
BLACK
6
CONTINUOUS
10
5.7022440944881891
20
-3.3080708661417324
11
5.7022440944881891
21
-3.2490157480314958
0
LINE
8
BLACK
6
CONTINUOUS
10
5.7022440944881891
20
-3.2490157480314958
11
5.7376771653543308
21
-3.2490157480314958
0
LINE
8
BLACK
6
CONTINUOUS
10
5.7376771653543308
20
-3.2490157480314958
11
5.7376771653543308
21
-3.3080708661417324
0
LINE
8
BLACK
6
CONTINUOUS
10
3.792755905511811
20
-3.283070866141732
11
3.7573228346456693
21
-3.283070866141732
0
LINE
8
BLACK
6
CONTINUOUS
10
3.7573228346456693
20
-3.283070866141732
11
3.7573228346456693
21
-3.2240157480314959
0
LINE
8
BLACK
6
CONTINUOUS
10
3.7573228346456693
20
-3.2240157480314959
11
3.792755905511811
21
-3.2240157480314959
0
LINE
8
BLACK
6
CONTINUOUS
10
3.792755905511811
20
-3.2240157480314959
11
3.792755905511811
21
-3.283070866141732
0
LINE
8
BLACK
6
CONTINUOUS
10
3.9226771653543304
20
-3.283070866141732
11
3.8872440944881888
21
-3.283070866141732
0
LINE
8
BLACK
6
CONTINUOUS
10
3.8872440944881888
20
-3.283070866141732
11
3.8872440944881888
21
-3.2240157480314959
0
LINE
8
BLACK
6
CONTINUOUS
10
3.8872440944881888
20
-3.2240157480314959
11
3.9226771653543304
21
-3.2240157480314959
0
LINE
8
BLACK
6
CONTINUOUS
10
3.9226771653543304
20
-3.2240157480314959
11
3.9226771653543304
21
-3.283070866141732
0
LINE
8
BLACK
6
CONTINUOUS
10
6.1680708661417318
20
-3.2827559055118107
11
6.1090157480314957
21
-3.2827559055118107
0
LINE
8
BLACK
6
CONTINUOUS
10
6.1090157480314957
20
-3.2827559055118107
11
6.1090157480314957
21
-3.2473228346456691
0
LINE
8
BLACK
6
CONTINUOUS
10
6.1090157480314957
20
-3.2473228346456691
11
6.1680708661417318
21
-3.2473228346456691
0
LINE
8
BLACK
6
CONTINUOUS
10
6.1680708661417318
20
-3.2473228346456691
11
6.1680708661417318
21
-3.2827559055118107
0
LINE
8
BLACK
6
CONTINUOUS
10
6.360984251968504
20
-3.2827559055118107
11
6.3019291338582679
21
-3.2827559055118107
0
LINE
8
BLACK
6
CONTINUOUS
10
6.3019291338582679
20
-3.2827559055118107
11
6.3019291338582679
21
-3.2473228346456691
0
LINE
8
BLACK
6
CONTINUOUS
10
6.3019291338582679
20
-3.2473228346456691
11
6.360984251968504
21
-3.2473228346456691
0
LINE
8
BLACK
6
CONTINUOUS
10
6.360984251968504
20
-3.2473228346456691
11
6.360984251968504
21
-3.2827559055118107
0
LINE
8
BLACK
6
CONTINUOUS
10
5.1780708661417325
20
-3.2676771653543306
11
5.1190157480314955
21
-3.2676771653543306
0
LINE
8
BLACK
6
CONTINUOUS
10
5.1190157480314955
20
-3.2676771653543306
11
5.1190157480314955
21
-3.2322440944881889
0
LINE
8
BLACK
6
CONTINUOUS
10
5.1190157480314955
20
-3.2322440944881889
11
5.1780708661417325
21
-3.2322440944881889
0
LINE
8
BLACK
6
CONTINUOUS
10
5.1780708661417325
20
-3.2322440944881889
11
5.1780708661417325
21
-3.2676771653543306
0
LINE
8
BLACK
6
CONTINUOUS
10
5.3709842519685038
20
-3.2676771653543306
11
5.3119291338582677
21
-3.2676771653543306
0
LINE
8
BLACK
6
CONTINUOUS
10
5.3119291338582677
20
-3.2676771653543306
11
5.3119291338582677
21
-3.2322440944881889
0
LINE
8
BLACK
6
CONTINUOUS
10
5.3119291338582677
20
-3.2322440944881889
11
5.3709842519685038
21
-3.2322440944881889
0
LINE
8
BLACK
6
CONTINUOUS
10
5.3709842519685038
20
-3.2322440944881889
11
5.3709842519685038
21
-3.2676771653543306
0
LINE
8
BLACK
6
CONTINUOUS
10
4.1895275590551178
20
-3.2377165354330706
11
4.1304724409448816
21
-3.2377165354330706
0
LINE
8
BLACK
6
CONTINUOUS
10
4.1304724409448816
20
-3.2377165354330706
11
4.1304724409448816
21
-3.2022834645669289
0
LINE
8
BLACK
6
CONTINUOUS
10
4.1304724409448816
20
-3.2022834645669289
11
4.1895275590551178
21
-3.2022834645669289
0
LINE
8
BLACK
6
CONTINUOUS
10
4.1895275590551178
20
-3.2022834645669289
11
4.1895275590551178
21
-3.2377165354330706
0
LINE
8
BLACK
6
CONTINUOUS
10
4.38244094488189
20
-3.2377165354330706
11
4.3233858267716538
21
-3.2377165354330706
0
LINE
8
BLACK
6
CONTINUOUS
10
4.3233858267716538
20
-3.2377165354330706
11
4.3233858267716538
21
-3.2022834645669289
0
LINE
8
BLACK
6
CONTINUOUS
10
4.3233858267716538
20
-3.2022834645669289
11
4.38244094488189
21
-3.2022834645669289
0
LINE
8
BLACK
6
CONTINUOUS
10
4.38244094488189
20
-3.2022834645669289
11
4.38244094488189
21
-3.2377165354330706
0
LINE
8
BLACK
6
CONTINUOUS
10
6.8880708661417325
20
-3.1827559055118111
11
6.8290157480314955
21
-3.1827559055118111
0
LINE
8
BLACK
6
CONTINUOUS
10
6.8290157480314955
20
-3.1827559055118111
11
6.8290157480314955
21
-3.1473228346456694
0
LINE
8
BLACK
6
CONTINUOUS
10
6.8290157480314955
20
-3.1473228346456694
11
6.8880708661417325
21
-3.1473228346456694
0
LINE
8
BLACK
6
CONTINUOUS
10
6.8880708661417325
20
-3.1473228346456694
11
6.8880708661417325
21
-3.1827559055118111
0
LINE
8
BLACK
6
CONTINUOUS
10
7.0809842519685038
20
-3.1827559055118111
11
7.0219291338582677
21
-3.1827559055118111
0
LINE
8
BLACK
6
CONTINUOUS
10
7.0219291338582677
20
-3.1827559055118111
11
7.0219291338582677
21
-3.1473228346456694
0
LINE
8
BLACK
6
CONTINUOUS
10
7.0219291338582677
20
-3.1473228346456694
11
7.0809842519685038
21
-3.1473228346456694
0
LINE
8
BLACK
6
CONTINUOUS
10
7.0809842519685038
20
-3.1473228346456694
11
7.0809842519685038
21
-3.1827559055118111
0
LINE
8
BLACK
6
CONTINUOUS
10
5.1780708661417325
20
-3.1377559055118112
11
5.1190157480314955
21
-3.1377559055118112
0
LINE
8
BLACK
6
CONTINUOUS
10
5.1190157480314955
20
-3.1377559055118112
11
5.1190157480314955
21
-3.102322834645669
0
LINE
8
BLACK
6
CONTINUOUS
10
5.1190157480314955
20
-3.102322834645669
11
5.1780708661417325
21
-3.102322834645669
0
LINE
8
BLACK
6
CONTINUOUS
10
5.1780708661417325
20
-3.102322834645669
11
5.1780708661417325
21
-3.1377559055118112
0
LINE
8
BLACK
6
CONTINUOUS
10
5.3709842519685038
20
-3.1377559055118112
11
5.3119291338582677
21
-3.1377559055118112
0
LINE
8
BLACK
6
CONTINUOUS
10
5.3119291338582677
20
-3.1377559055118112
11
5.3119291338582677
21
-3.102322834645669
0
LINE
8
BLACK
6
CONTINUOUS
10
5.3119291338582677
20
-3.102322834645669
11
5.3709842519685038
21
-3.102322834645669
0
LINE
8
BLACK
6
CONTINUOUS
10
5.3709842519685038
20
-3.102322834645669
11
5.3709842519685038
21
-3.1377559055118112
0
LINE
8
BLACK
6
CONTINUOUS
10
4.1895275590551178
20
-3.1077952755905511
11
4.1304724409448816
21
-3.1077952755905511
0
LINE
8
BLACK
6
CONTINUOUS
10
4.1304724409448816
20
-3.1077952755905511
11
4.1304724409448816
21
-3.0723622047244095
0
LINE
8
BLACK
6
CONTINUOUS
10
4.1304724409448816
20
-3.0723622047244095
11
4.1895275590551178
21
-3.0723622047244095
0
LINE
8
BLACK
6
CONTINUOUS
10
4.1895275590551178
20
-3.0723622047244095
11
4.1895275590551178
21
-3.1077952755905511
0
LINE
8
BLACK
6
CONTINUOUS
10
4.38244094488189
20
-3.1077952755905511
11
4.3233858267716538
21
-3.1077952755905511
0
LINE
8
BLACK
6
CONTINUOUS
10
4.3233858267716538
20
-3.1077952755905511
11
4.3233858267716538
21
-3.0723622047244095
0
LINE
8
BLACK
6
CONTINUOUS
10
4.3233858267716538
20
-3.0723622047244095
11
4.38244094488189
21
-3.0723622047244095
0
LINE
8
BLACK
6
CONTINUOUS
10
4.38244094488189
20
-3.0723622047244095
11
4.38244094488189
21
-3.1077952755905511
0
LINE
8
BLACK
6
CONTINUOUS
10
6.533070866141732
20
-2.9976771653543306
11
6.4740157480314959
21
-2.9976771653543306
0
LINE
8
BLACK
6
CONTINUOUS
10
6.4740157480314959
20
-2.9976771653543306
11
6.4740157480314959
21
-2.9622440944881889
0
LINE
8
BLACK
6
CONTINUOUS
10
6.4740157480314959
20
-2.9622440944881889
11
6.533070866141732
21
-2.9622440944881889
0
LINE
8
BLACK
6
CONTINUOUS
10
6.533070866141732
20
-2.9622440944881889
11
6.533070866141732
21
-2.9976771653543306
0
LINE
8
BLACK
6
CONTINUOUS
10
6.7259842519685034
20
-2.9976771653543306
11
6.6669291338582672
21
-2.9976771653543306
0
LINE
8
BLACK
6
CONTINUOUS
10
6.6669291338582672
20
-2.9976771653543306
11
6.6669291338582672
21
-2.9622440944881889
0
LINE
8
BLACK
6
CONTINUOUS
10
6.6669291338582672
20
-2.9622440944881889
11
6.7259842519685034
21
-2.9622440944881889
0
LINE
8
BLACK
6
CONTINUOUS
10
6.7259842519685034
20
-2.9622440944881889
11
6.7259842519685034
21
-2.9976771653543306
0
LINE
8
BLACK
6
CONTINUOUS
10
6.1130708661417321
20
-2.9726771653543307
11
6.054015748031496
21
-2.9726771653543307
0
LINE
8
BLACK
6
CONTINUOUS
10
6.054015748031496
20
-2.9726771653543307
11
6.054015748031496
21
-2.937244094488189
0
LINE
8
BLACK
6
CONTINUOUS
10
6.054015748031496
20
-2.937244094488189
11
6.1130708661417321
21
-2.937244094488189
0
LINE
8
BLACK
6
CONTINUOUS
10
6.1130708661417321
20
-2.937244094488189
11
6.1130708661417321
21
-2.9726771653543307
0
LINE
8
BLACK
6
CONTINUOUS
10
6.3059842519685034
20
-2.9726771653543307
11
6.2469291338582673
21
-2.9726771653543307
0
LINE
8
BLACK
6
CONTINUOUS
10
6.2469291338582673
20
-2.9726771653543307
11
6.2469291338582673
21
-2.937244094488189
0
LINE
8
BLACK
6
CONTINUOUS
10
6.2469291338582673
20
-2.937244094488189
11
6.3059842519685034
21
-2.937244094488189
0
LINE
8
BLACK
6
CONTINUOUS
10
6.3059842519685034
20
-2.937244094488189
11
6.3059842519685034
21
-2.9726771653543307
0
LINE
8
BLACK
6
CONTINUOUS
10
5.6430708661417324
20
-2.9526771653543307
11
5.5840157480314963
21
-2.9526771653543307
0
LINE
8
BLACK
6
CONTINUOUS
10
5.5840157480314963
20
-2.9526771653543307
11
5.5840157480314963
21
-2.917244094488189
0
LINE
8
BLACK
6
CONTINUOUS
10
5.5840157480314963
20
-2.917244094488189
11
5.6430708661417324
21
-2.917244094488189
0
LINE
8
BLACK
6
CONTINUOUS
10
5.6430708661417324
20
-2.917244094488189
11
5.6430708661417324
21
-2.9526771653543307
0
LINE
8
BLACK
6
CONTINUOUS
10
5.8359842519685037
20
-2.9526771653543307
11
5.7769291338582676
21
-2.9526771653543307
0
LINE
8
BLACK
6
CONTINUOUS
10
5.7769291338582676
20
-2.9526771653543307
11
5.7769291338582676
21
-2.917244094488189
0
LINE
8
BLACK
6
CONTINUOUS
10
5.7769291338582676
20
-2.917244094488189
11
5.8359842519685037
21
-2.917244094488189
0
LINE
8
BLACK
6
CONTINUOUS
10
5.8359842519685037
20
-2.917244094488189
11
5.8359842519685037
21
-2.9526771653543307
0
LINE
8
BLACK
6
CONTINUOUS
10
5.2530708661417318
20
-2.9376771653543305
11
5.1940157480314957
21
-2.9376771653543305
0
LINE
8
BLACK
6
CONTINUOUS
10
5.1940157480314957
20
-2.9376771653543305
11
5.1940157480314957
21
-2.9022440944881889
0
LINE
8
BLACK
6
CONTINUOUS
10
5.1940157480314957
20
-2.9022440944881889
11
5.2530708661417318
21
-2.9022440944881889
0
LINE
8
BLACK
6
CONTINUOUS
10
5.2530708661417318
20
-2.9022440944881889
11
5.2530708661417318
21
-2.9376771653543305
0
LINE
8
BLACK
6
CONTINUOUS
10
5.445984251968504
20
-2.9376771653543305
11
5.3869291338582679
21
-2.9376771653543305
0
LINE
8
BLACK
6
CONTINUOUS
10
5.3869291338582679
20
-2.9376771653543305
11
5.3869291338582679
21
-2.9022440944881889
0
LINE
8
BLACK
6
CONTINUOUS
10
5.3869291338582679
20
-2.9022440944881889
11
5.445984251968504
21
-2.9022440944881889
0
LINE
8
BLACK
6
CONTINUOUS
10
5.445984251968504
20
-2.9022440944881889
11
5.445984251968504
21
-2.9376771653543305
0
LINE
8
BLACK
6
CONTINUOUS
10
4.8230708661417321
20
-2.9276771653543308
11
4.764015748031496
21
-2.9276771653543308
0
LINE
8
BLACK
6
CONTINUOUS
10
4.764015748031496
20
-2.9276771653543308
11
4.764015748031496
21
-2.8922440944881891
0
LINE
8
BLACK
6
CONTINUOUS
10
4.764015748031496
20
-2.8922440944881891
11
4.8230708661417321
21
-2.8922440944881891
0
LINE
8
BLACK
6
CONTINUOUS
10
4.8230708661417321
20
-2.8922440944881891
11
4.8230708661417321
21
-2.9276771653543308
0
LINE
8
BLACK
6
CONTINUOUS
10
5.0159842519685034
20
-2.9276771653543308
11
4.9569291338582673
21
-2.9276771653543308
0
LINE
8
BLACK
6
CONTINUOUS
10
4.9569291338582673
20
-2.9276771653543308
11
4.9569291338582673
21
-2.8922440944881891
0
LINE
8
BLACK
6
CONTINUOUS
10
4.9569291338582673
20
-2.8922440944881891
11
5.0159842519685034
21
-2.8922440944881891
0
LINE
8
BLACK
6
CONTINUOUS
10
5.0159842519685034
20
-2.8922440944881891
11
5.0159842519685034
21
-2.9276771653543308
0
LINE
8
BLACK
6
CONTINUOUS
10
4.3880708661417325
20
-2.9126771653543306
11
4.3290157480314964
21
-2.9126771653543306
0
LINE
8
BLACK
6
CONTINUOUS
10
4.3290157480314964
20
-2.9126771653543306
11
4.3290157480314964
21
-2.877244094488189
0
LINE
8
BLACK
6
CONTINUOUS
10
4.3290157480314964
20
-2.877244094488189
11
4.3880708661417325
21
-2.877244094488189
0
LINE
8
BLACK
6
CONTINUOUS
10
4.3880708661417325
20
-2.877244094488189
11
4.3880708661417325
21
-2.9126771653543306
0
LINE
8
BLACK
6
CONTINUOUS
10
4.5809842519685038
20
-2.9126771653543306
11
4.5219291338582677
21
-2.9126771653543306
0
LINE
8
BLACK
6
CONTINUOUS
10
4.5219291338582677
20
-2.9126771653543306
11
4.5219291338582677
21
-2.877244094488189
0
LINE
8
BLACK
6
CONTINUOUS
10
4.5219291338582677
20
-2.877244094488189
11
4.5809842519685038
21
-2.877244094488189
0
LINE
8
BLACK
6
CONTINUOUS
10
4.5809842519685038
20
-2.877244094488189
11
4.5809842519685038
21
-2.9126771653543306
0
LINE
8
BLACK
6
CONTINUOUS
10
3.953070866141732
20
-2.8976771653543305
11
3.8940157480314959
21
-2.8976771653543305
0
LINE
8
BLACK
6
CONTINUOUS
10
3.8940157480314959
20
-2.8976771653543305
11
3.8940157480314959
21
-2.8622440944881888
0
LINE
8
BLACK
6
CONTINUOUS
10
3.8940157480314959
20
-2.8622440944881888
11
3.953070866141732
21
-2.8622440944881888
0
LINE
8
BLACK
6
CONTINUOUS
10
3.953070866141732
20
-2.8622440944881888
11
3.953070866141732
21
-2.8976771653543305
0
LINE
8
BLACK
6
CONTINUOUS
10
4.1459842519685042
20
-2.8976771653543305
11
4.0869291338582681
21
-2.8976771653543305
0
LINE
8
BLACK
6
CONTINUOUS
10
4.0869291338582681
20
-2.8976771653543305
11
4.0869291338582681
21
-2.8622440944881888
0
LINE
8
BLACK
6
CONTINUOUS
10
4.0869291338582681
20
-2.8622440944881888
11
4.1459842519685042
21
-2.8622440944881888
0
LINE
8
BLACK
6
CONTINUOUS
10
4.1459842519685042
20
-2.8622440944881888
11
4.1459842519685042
21
-2.8976771653543305
0
LINE
8
BLACK
6
CONTINUOUS
10
6.533070866141732
20
-2.8677559055118111
11
6.4740157480314959
21
-2.8677559055118111
0
LINE
8
BLACK
6
CONTINUOUS
10
6.4740157480314959
20
-2.8677559055118111
11
6.4740157480314959
21
-2.832322834645669
0
LINE
8
BLACK
6
CONTINUOUS
10
6.4740157480314959
20
-2.832322834645669
11
6.533070866141732
21
-2.832322834645669
0
LINE
8
BLACK
6
CONTINUOUS
10
6.533070866141732
20
-2.832322834645669
11
6.533070866141732
21
-2.8677559055118111
0
LINE
8
BLACK
6
CONTINUOUS
10
6.7259842519685034
20
-2.8677559055118111
11
6.6669291338582672
21
-2.8677559055118111
0
LINE
8
BLACK
6
CONTINUOUS
10
6.6669291338582672
20
-2.8677559055118111
11
6.6669291338582672
21
-2.832322834645669
0
LINE
8
BLACK
6
CONTINUOUS
10
6.6669291338582672
20
-2.832322834645669
11
6.7259842519685034
21
-2.832322834645669
0
LINE
8
BLACK
6
CONTINUOUS
10
6.7259842519685034
20
-2.832322834645669
11
6.7259842519685034
21
-2.8677559055118111
0
LINE
8
BLACK
6
CONTINUOUS
10
6.1130708661417321
20
-2.8427559055118108
11
6.054015748031496
21
-2.8427559055118108
0
LINE
8
BLACK
6
CONTINUOUS
10
6.054015748031496
20
-2.8427559055118108
11
6.054015748031496
21
-2.8073228346456691
0
LINE
8
BLACK
6
CONTINUOUS
10
6.054015748031496
20
-2.8073228346456691
11
6.1130708661417321
21
-2.8073228346456691
0
LINE
8
BLACK
6
CONTINUOUS
10
6.1130708661417321
20
-2.8073228346456691
11
6.1130708661417321
21
-2.8427559055118108
0
LINE
8
BLACK
6
CONTINUOUS
10
6.3059842519685034
20
-2.8427559055118108
11
6.2469291338582673
21
-2.8427559055118108
0
LINE
8
BLACK
6
CONTINUOUS
10
6.2469291338582673
20
-2.8427559055118108
11
6.2469291338582673
21
-2.8073228346456691
0
LINE
8
BLACK
6
CONTINUOUS
10
6.2469291338582673
20
-2.8073228346456691
11
6.3059842519685034
21
-2.8073228346456691
0
LINE
8
BLACK
6
CONTINUOUS
10
6.3059842519685034
20
-2.8073228346456691
11
6.3059842519685034
21
-2.8427559055118108
0
LINE
8
BLACK
6
CONTINUOUS
10
5.6430708661417324
20
-2.8227559055118108
11
5.5840157480314963
21
-2.8227559055118108
0
LINE
8
BLACK
6
CONTINUOUS
10
5.5840157480314963
20
-2.8227559055118108
11
5.5840157480314963
21
-2.7873228346456691
0
LINE
8
BLACK
6
CONTINUOUS
10
5.5840157480314963
20
-2.7873228346456691
11
5.6430708661417324
21
-2.7873228346456691
0
LINE
8
BLACK
6
CONTINUOUS
10
5.6430708661417324
20
-2.7873228346456691
11
5.6430708661417324
21
-2.8227559055118108
0
LINE
8
BLACK
6
CONTINUOUS
10
5.8359842519685037
20
-2.8227559055118108
11
5.7769291338582676
21
-2.8227559055118108
0
LINE
8
BLACK
6
CONTINUOUS
10
5.7769291338582676
20
-2.8227559055118108
11
5.7769291338582676
21
-2.7873228346456691
0
LINE
8
BLACK
6
CONTINUOUS
10
5.7769291338582676
20
-2.7873228346456691
11
5.8359842519685037
21
-2.7873228346456691
0
LINE
8
BLACK
6
CONTINUOUS
10
5.8359842519685037
20
-2.7873228346456691
11
5.8359842519685037
21
-2.8227559055118108
0
LINE
8
BLACK
6
CONTINUOUS
10
5.2530708661417318
20
-2.8077559055118111
11
5.1940157480314957
21
-2.8077559055118111
0
LINE
8
BLACK
6
CONTINUOUS
10
5.1940157480314957
20
-2.8077559055118111
11
5.1940157480314957
21
-2.7723228346456694
0
LINE
8
BLACK
6
CONTINUOUS
10
5.1940157480314957
20
-2.7723228346456694
11
5.2530708661417318
21
-2.7723228346456694
0
LINE
8
BLACK
6
CONTINUOUS
10
5.2530708661417318
20
-2.7723228346456694
11
5.2530708661417318
21
-2.8077559055118111
0
LINE
8
BLACK
6
CONTINUOUS
10
5.445984251968504
20
-2.8077559055118111
11
5.3869291338582679
21
-2.8077559055118111
0
LINE
8
BLACK
6
CONTINUOUS
10
5.3869291338582679
20
-2.8077559055118111
11
5.3869291338582679
21
-2.7723228346456694
0
LINE
8
BLACK
6
CONTINUOUS
10
5.3869291338582679
20
-2.7723228346456694
11
5.445984251968504
21
-2.7723228346456694
0
LINE
8
BLACK
6
CONTINUOUS
10
5.445984251968504
20
-2.7723228346456694
11
5.445984251968504
21
-2.8077559055118111
0
LINE
8
BLACK
6
CONTINUOUS
10
4.8230708661417321
20
-2.7977559055118109
11
4.764015748031496
21
-2.7977559055118109
0
LINE
8
BLACK
6
CONTINUOUS
10
4.764015748031496
20
-2.7977559055118109
11
4.764015748031496
21
-2.7623228346456692
0
LINE
8
BLACK
6
CONTINUOUS
10
4.764015748031496
20
-2.7623228346456692
11
4.8230708661417321
21
-2.7623228346456692
0
LINE
8
BLACK
6
CONTINUOUS
10
4.8230708661417321
20
-2.7623228346456692
11
4.8230708661417321
21
-2.7977559055118109
0
LINE
8
BLACK
6
CONTINUOUS
10
5.0159842519685034
20
-2.7977559055118109
11
4.9569291338582673
21
-2.7977559055118109
0
LINE
8
BLACK
6
CONTINUOUS
10
4.9569291338582673
20
-2.7977559055118109
11
4.9569291338582673
21
-2.7623228346456692
0
LINE
8
BLACK
6
CONTINUOUS
10
4.9569291338582673
20
-2.7623228346456692
11
5.0159842519685034
21
-2.7623228346456692
0
LINE
8
BLACK
6
CONTINUOUS
10
5.0159842519685034
20
-2.7623228346456692
11
5.0159842519685034
21
-2.7977559055118109
0
LINE
8
BLACK
6
CONTINUOUS
10
4.3880708661417325
20
-2.7827559055118112
11
4.3290157480314964
21
-2.7827559055118112
0
LINE
8
BLACK
6
CONTINUOUS
10
4.3290157480314964
20
-2.7827559055118112
11
4.3290157480314964
21
-2.7473228346456691
0
LINE
8
BLACK
6
CONTINUOUS
10
4.3290157480314964
20
-2.7473228346456691
11
4.3880708661417325
21
-2.7473228346456691
0
LINE
8
BLACK
6
CONTINUOUS
10
4.3880708661417325
20
-2.7473228346456691
11
4.3880708661417325
21
-2.7827559055118112
0
LINE
8
BLACK
6
CONTINUOUS
10
4.5809842519685038
20
-2.7827559055118112
11
4.5219291338582677
21
-2.7827559055118112
0
LINE
8
BLACK
6
CONTINUOUS
10
4.5219291338582677
20
-2.7827559055118112
11
4.5219291338582677
21
-2.7473228346456691
0
LINE
8
BLACK
6
CONTINUOUS
10
4.5219291338582677
20
-2.7473228346456691
11
4.5809842519685038
21
-2.7473228346456691
0
LINE
8
BLACK
6
CONTINUOUS
10
4.5809842519685038
20
-2.7473228346456691
11
4.5809842519685038
21
-2.7827559055118112
0
LINE
8
BLACK
6
CONTINUOUS
10
3.953070866141732
20
-2.7677559055118111
11
3.8940157480314959
21
-2.7677559055118111
0
LINE
8
BLACK
6
CONTINUOUS
10
3.8940157480314959
20
-2.7677559055118111
11
3.8940157480314959
21
-2.7323228346456694
0
LINE
8
BLACK
6
CONTINUOUS
10
3.8940157480314959
20
-2.7323228346456694
11
3.953070866141732
21
-2.7323228346456694
0
LINE
8
BLACK
6
CONTINUOUS
10
3.953070866141732
20
-2.7323228346456694
11
3.953070866141732
21
-2.7677559055118111
0
LINE
8
BLACK
6
CONTINUOUS
10
4.1459842519685042
20
-2.7677559055118111
11
4.0869291338582681
21
-2.7677559055118111
0
LINE
8
BLACK
6
CONTINUOUS
10
4.0869291338582681
20
-2.7677559055118111
11
4.0869291338582681
21
-2.7323228346456694
0
LINE
8
BLACK
6
CONTINUOUS
10
4.0869291338582681
20
-2.7323228346456694
11
4.1459842519685042
21
-2.7323228346456694
0
LINE
8
BLACK
6
CONTINUOUS
10
4.1459842519685042
20
-2.7323228346456694
11
4.1459842519685042
21
-2.7677559055118111
0
LINE
8
BLACK
6
CONTINUOUS
10
5.7230708661417324
20
-2.5776771653543307
11
5.6640157480314963
21
-2.5776771653543307
0
LINE
8
BLACK
6
CONTINUOUS
10
5.6640157480314963
20
-2.5776771653543307
11
5.6640157480314963
21
-2.542244094488189
0
LINE
8
BLACK
6
CONTINUOUS
10
5.6640157480314963
20
-2.542244094488189
11
5.7230708661417324
21
-2.542244094488189
0
LINE
8
BLACK
6
CONTINUOUS
10
5.7230708661417324
20
-2.542244094488189
11
5.7230708661417324
21
-2.5776771653543307
0
LINE
8
BLACK
6
CONTINUOUS
10
5.9159842519685037
20
-2.5776771653543307
11
5.8569291338582676
21
-2.5776771653543307
0
LINE
8
BLACK
6
CONTINUOUS
10
5.8569291338582676
20
-2.5776771653543307
11
5.8569291338582676
21
-2.542244094488189
0
LINE
8
BLACK
6
CONTINUOUS
10
5.8569291338582676
20
-2.542244094488189
11
5.9159842519685037
21
-2.542244094488189
0
LINE
8
BLACK
6
CONTINUOUS
10
5.9159842519685037
20
-2.542244094488189
11
5.9159842519685037
21
-2.5776771653543307
0
LINE
8
BLACK
6
CONTINUOUS
10
6.2080708661417319
20
-2.5726771653543308
11
6.1490157480314958
21
-2.5726771653543308
0
LINE
8
BLACK
6
CONTINUOUS
10
6.1490157480314958
20
-2.5726771653543308
11
6.1490157480314958
21
-2.5372440944881891
0
LINE
8
BLACK
6
CONTINUOUS
10
6.1490157480314958
20
-2.5372440944881891
11
6.2080708661417319
21
-2.5372440944881891
0
LINE
8
BLACK
6
CONTINUOUS
10
6.2080708661417319
20
-2.5372440944881891
11
6.2080708661417319
21
-2.5726771653543308
0
LINE
8
BLACK
6
CONTINUOUS
10
6.4009842519685041
20
-2.5726771653543308
11
6.341929133858268
21
-2.5726771653543308
0
LINE
8
BLACK
6
CONTINUOUS
10
6.341929133858268
20
-2.5726771653543308
11
6.341929133858268
21
-2.5372440944881891
0
LINE
8
BLACK
6
CONTINUOUS
10
6.341929133858268
20
-2.5372440944881891
11
6.4009842519685041
21
-2.5372440944881891
0
LINE
8
BLACK
6
CONTINUOUS
10
6.4009842519685041
20
-2.5372440944881891
11
6.4009842519685041
21
-2.5726771653543308
0
LINE
8
BLACK
6
CONTINUOUS
10
5.2580708661417326
20
-2.5526771653543308
11
5.1990157480314956
21
-2.5526771653543308
0
LINE
8
BLACK
6
CONTINUOUS
10
5.1990157480314956
20
-2.5526771653543308
11
5.1990157480314956
21
-2.5172440944881891
0
LINE
8
BLACK
6
CONTINUOUS
10
5.1990157480314956
20
-2.5172440944881891
11
5.2580708661417326
21
-2.5172440944881891
0
LINE
8
BLACK
6
CONTINUOUS
10
5.2580708661417326
20
-2.5172440944881891
11
5.2580708661417326
21
-2.5526771653543308
0
LINE
8
BLACK
6
CONTINUOUS
10
5.4509842519685039
20
-2.5526771653543308
11
5.3919291338582678
21
-2.5526771653543308
0
LINE
8
BLACK
6
CONTINUOUS
10
5.3919291338582678
20
-2.5526771653543308
11
5.3919291338582678
21
-2.5172440944881891
0
LINE
8
BLACK
6
CONTINUOUS
10
5.3919291338582678
20
-2.5172440944881891
11
5.4509842519685039
21
-2.5172440944881891
0
LINE
8
BLACK
6
CONTINUOUS
10
5.4509842519685039
20
-2.5172440944881891
11
5.4509842519685039
21
-2.5526771653543308
0
LINE
8
BLACK
6
CONTINUOUS
10
4.8480708661417324
20
-2.5376771653543306
11
4.7890157480314963
21
-2.5376771653543306
0
LINE
8
BLACK
6
CONTINUOUS
10
4.7890157480314963
20
-2.5376771653543306
11
4.7890157480314963
21
-2.502244094488189
0
LINE
8
BLACK
6
CONTINUOUS
10
4.7890157480314963
20
-2.502244094488189
11
4.8480708661417324
21
-2.502244094488189
0
LINE
8
BLACK
6
CONTINUOUS
10
4.8480708661417324
20
-2.502244094488189
11
4.8480708661417324
21
-2.5376771653543306
0
LINE
8
BLACK
6
CONTINUOUS
10
5.0409842519685037
20
-2.5376771653543306
11
4.9819291338582676
21
-2.5376771653543306
0
LINE
8
BLACK
6
CONTINUOUS
10
4.9819291338582676
20
-2.5376771653543306
11
4.9819291338582676
21
-2.502244094488189
0
LINE
8
BLACK
6
CONTINUOUS
10
4.9819291338582676
20
-2.502244094488189
11
5.0409842519685037
21
-2.502244094488189
0
LINE
8
BLACK
6
CONTINUOUS
10
5.0409842519685037
20
-2.502244094488189
11
5.0409842519685037
21
-2.5376771653543306
0
LINE
8
BLACK
6
CONTINUOUS
10
4.3930708661417324
20
-2.5126771653543307
11
4.3340157480314963
21
-2.5126771653543307
0
LINE
8
BLACK
6
CONTINUOUS
10
4.3340157480314963
20
-2.5126771653543307
11
4.3340157480314963
21
-2.4772440944881891
0
LINE
8
BLACK
6
CONTINUOUS
10
4.3340157480314963
20
-2.4772440944881891
11
4.3930708661417324
21
-2.4772440944881891
0
LINE
8
BLACK
6
CONTINUOUS
10
4.3930708661417324
20
-2.4772440944881891
11
4.3930708661417324
21
-2.5126771653543307
0
LINE
8
BLACK
6
CONTINUOUS
10
4.5859842519685037
20
-2.5126771653543307
11
4.5269291338582676
21
-2.5126771653543307
0
LINE
8
BLACK
6
CONTINUOUS
10
4.5269291338582676
20
-2.5126771653543307
11
4.5269291338582676
21
-2.4772440944881891
0
LINE
8
BLACK
6
CONTINUOUS
10
4.5269291338582676
20
-2.4772440944881891
11
4.5859842519685037
21
-2.4772440944881891
0
LINE
8
BLACK
6
CONTINUOUS
10
4.5859842519685037
20
-2.4772440944881891
11
4.5859842519685037
21
-2.5126771653543307
0
LINE
8
BLACK
6
CONTINUOUS
10
5.7230708661417324
20
-2.4477559055118108
11
5.6640157480314963
21
-2.4477559055118108
0
LINE
8
BLACK
6
CONTINUOUS
10
5.6640157480314963
20
-2.4477559055118108
11
5.6640157480314963
21
-2.4123228346456691
0
LINE
8
BLACK
6
CONTINUOUS
10
5.6640157480314963
20
-2.4123228346456691
11
5.7230708661417324
21
-2.4123228346456691
0
LINE
8
BLACK
6
CONTINUOUS
10
5.7230708661417324
20
-2.4123228346456691
11
5.7230708661417324
21
-2.4477559055118108
0
LINE
8
BLACK
6
CONTINUOUS
10
5.9159842519685037
20
-2.4477559055118108
11
5.8569291338582676
21
-2.4477559055118108
0
LINE
8
BLACK
6
CONTINUOUS
10
5.8569291338582676
20
-2.4477559055118108
11
5.8569291338582676
21
-2.4123228346456691
0
LINE
8
BLACK
6
CONTINUOUS
10
5.8569291338582676
20
-2.4123228346456691
11
5.9159842519685037
21
-2.4123228346456691
0
LINE
8
BLACK
6
CONTINUOUS
10
5.9159842519685037
20
-2.4123228346456691
11
5.9159842519685037
21
-2.4477559055118108
0
LINE
8
BLACK
6
CONTINUOUS
10
6.2080708661417319
20
-2.4427559055118109
11
6.1490157480314958
21
-2.4427559055118109
0
LINE
8
BLACK
6
CONTINUOUS
10
6.1490157480314958
20
-2.4427559055118109
11
6.1490157480314958
21
-2.4073228346456692
0
LINE
8
BLACK
6
CONTINUOUS
10
6.1490157480314958
20
-2.4073228346456692
11
6.2080708661417319
21
-2.4073228346456692
0
LINE
8
BLACK
6
CONTINUOUS
10
6.2080708661417319
20
-2.4073228346456692
11
6.2080708661417319
21
-2.4427559055118109
0
LINE
8
BLACK
6
CONTINUOUS
10
6.4009842519685041
20
-2.4427559055118109
11
6.341929133858268
21
-2.4427559055118109
0
LINE
8
BLACK
6
CONTINUOUS
10
6.341929133858268
20
-2.4427559055118109
11
6.341929133858268
21
-2.4073228346456692
0
LINE
8
BLACK
6
CONTINUOUS
10
6.341929133858268
20
-2.4073228346456692
11
6.4009842519685041
21
-2.4073228346456692
0
LINE
8
BLACK
6
CONTINUOUS
10
6.4009842519685041
20
-2.4073228346456692
11
6.4009842519685041
21
-2.4427559055118109
0
LINE
8
BLACK
6
CONTINUOUS
10
5.2580708661417326
20
-2.4227559055118109
11
5.1990157480314956
21
-2.4227559055118109
0
LINE
8
BLACK
6
CONTINUOUS
10
5.1990157480314956
20
-2.4227559055118109
11
5.1990157480314956
21
-2.3873228346456692
0
LINE
8
BLACK
6
CONTINUOUS
10
5.1990157480314956
20
-2.3873228346456692
11
5.2580708661417326
21
-2.3873228346456692
0
LINE
8
BLACK
6
CONTINUOUS
10
5.2580708661417326
20
-2.3873228346456692
11
5.2580708661417326
21
-2.4227559055118109
0
LINE
8
BLACK
6
CONTINUOUS
10
5.4509842519685039
20
-2.4227559055118109
11
5.3919291338582678
21
-2.4227559055118109
0
LINE
8
BLACK
6
CONTINUOUS
10
5.3919291338582678
20
-2.4227559055118109
11
5.3919291338582678
21
-2.3873228346456692
0
LINE
8
BLACK
6
CONTINUOUS
10
5.3919291338582678
20
-2.3873228346456692
11
5.4509842519685039
21
-2.3873228346456692
0
LINE
8
BLACK
6
CONTINUOUS
10
5.4509842519685039
20
-2.3873228346456692
11
5.4509842519685039
21
-2.4227559055118109
0
LINE
8
BLACK
6
CONTINUOUS
10
4.8480708661417324
20
-2.4077559055118112
11
4.7890157480314963
21
-2.4077559055118112
0
LINE
8
BLACK
6
CONTINUOUS
10
4.7890157480314963
20
-2.4077559055118112
11
4.7890157480314963
21
-2.3723228346456691
0
LINE
8
BLACK
6
CONTINUOUS
10
4.7890157480314963
20
-2.3723228346456691
11
4.8480708661417324
21
-2.3723228346456691
0
LINE
8
BLACK
6
CONTINUOUS
10
4.8480708661417324
20
-2.3723228346456691
11
4.8480708661417324
21
-2.4077559055118112
0
LINE
8
BLACK
6
CONTINUOUS
10
5.0409842519685037
20
-2.4077559055118112
11
4.9819291338582676
21
-2.4077559055118112
0
LINE
8
BLACK
6
CONTINUOUS
10
4.9819291338582676
20
-2.4077559055118112
11
4.9819291338582676
21
-2.3723228346456691
0
LINE
8
BLACK
6
CONTINUOUS
10
4.9819291338582676
20
-2.3723228346456691
11
5.0409842519685037
21
-2.3723228346456691
0
LINE
8
BLACK
6
CONTINUOUS
10
5.0409842519685037
20
-2.3723228346456691
11
5.0409842519685037
21
-2.4077559055118112
0
LINE
8
BLACK
6
CONTINUOUS
10
4.3930708661417324
20
-2.3827559055118108
11
4.3340157480314963
21
-2.3827559055118108
0
LINE
8
BLACK
6
CONTINUOUS
10
4.3340157480314963
20
-2.3827559055118108
11
4.3340157480314963
21
-2.3473228346456692
0
LINE
8
BLACK
6
CONTINUOUS
10
4.3340157480314963
20
-2.3473228346456692
11
4.3930708661417324
21
-2.3473228346456692
0
LINE
8
BLACK
6
CONTINUOUS
10
4.3930708661417324
20
-2.3473228346456692
11
4.3930708661417324
21
-2.3827559055118108
0
LINE
8
BLACK
6
CONTINUOUS
10
4.5859842519685037
20
-2.3827559055118108
11
4.5269291338582676
21
-2.3827559055118108
0
LINE
8
BLACK
6
CONTINUOUS
10
4.5269291338582676
20
-2.3827559055118108
11
4.5269291338582676
21
-2.3473228346456692
0
LINE
8
BLACK
6
CONTINUOUS
10
4.5269291338582676
20
-2.3473228346456692
11
4.5859842519685037
21
-2.3473228346456692
0
LINE
8
BLACK
6
CONTINUOUS
10
4.5859842519685037
20
-2.3473228346456692
11
4.5859842519685037
21
-2.3827559055118108
0
LINE
8
BLACK
6
CONTINUOUS
10
5.658070866141732
20
-2.2676771653543306
11
5.5990157480314959
21
-2.2676771653543306
0
LINE
8
BLACK
6
CONTINUOUS
10
5.5990157480314959
20
-2.2676771653543306
11
5.5990157480314959
21
-2.2322440944881889
0
LINE
8
BLACK
6
CONTINUOUS
10
5.5990157480314959
20
-2.2322440944881889
11
5.658070866141732
21
-2.2322440944881889
0
LINE
8
BLACK
6
CONTINUOUS
10
5.658070866141732
20
-2.2322440944881889
11
5.658070866141732
21
-2.2676771653543306
0
LINE
8
BLACK
6
CONTINUOUS
10
5.8509842519685042
20
-2.2676771653543306
11
5.7919291338582672
21
-2.2676771653543306
0
LINE
8
BLACK
6
CONTINUOUS
10
5.7919291338582672
20
-2.2676771653543306
11
5.7919291338582672
21
-2.2322440944881889
0
LINE
8
BLACK
6
CONTINUOUS
10
5.7919291338582672
20
-2.2322440944881889
11
5.8509842519685042
21
-2.2322440944881889
0
LINE
8
BLACK
6
CONTINUOUS
10
5.8509842519685042
20
-2.2322440944881889
11
5.8509842519685042
21
-2.2676771653543306
0
LINE
8
BLACK
6
CONTINUOUS
10
4.8530708661417323
20
-2.2526771653543305
11
4.7940157480314962
21
-2.2526771653543305
0
LINE
8
BLACK
6
CONTINUOUS
10
4.7940157480314962
20
-2.2526771653543305
11
4.7940157480314962
21
-2.2172440944881888
0
LINE
8
BLACK
6
CONTINUOUS
10
4.7940157480314962
20
-2.2172440944881888
11
4.8530708661417323
21
-2.2172440944881888
0
LINE
8
BLACK
6
CONTINUOUS
10
4.8530708661417323
20
-2.2172440944881888
11
4.8530708661417323
21
-2.2526771653543305
0
LINE
8
BLACK
6
CONTINUOUS
10
5.0459842519685036
20
-2.2526771653543305
11
4.9869291338582675
21
-2.2526771653543305
0
LINE
8
BLACK
6
CONTINUOUS
10
4.9869291338582675
20
-2.2526771653543305
11
4.9869291338582675
21
-2.2172440944881888
0
LINE
8
BLACK
6
CONTINUOUS
10
4.9869291338582675
20
-2.2172440944881888
11
5.0459842519685036
21
-2.2172440944881888
0
LINE
8
BLACK
6
CONTINUOUS
10
5.0459842519685036
20
-2.2172440944881888
11
5.0459842519685036
21
-2.2526771653543305
0
LINE
8
BLACK
6
CONTINUOUS
10
5.2580708661417326
20
-2.2526771653543305
11
5.1990157480314956
21
-2.2526771653543305
0
LINE
8
BLACK
6
CONTINUOUS
10
5.1990157480314956
20
-2.2526771653543305
11
5.1990157480314956
21
-2.2172440944881888
0
LINE
8
BLACK
6
CONTINUOUS
10
5.1990157480314956
20
-2.2172440944881888
11
5.2580708661417326
21
-2.2172440944881888
0
LINE
8
BLACK
6
CONTINUOUS
10
5.2580708661417326
20
-2.2172440944881888
11
5.2580708661417326
21
-2.2526771653543305
0
LINE
8
BLACK
6
CONTINUOUS
10
5.4509842519685039
20
-2.2526771653543305
11
5.3919291338582678
21
-2.2526771653543305
0
LINE
8
BLACK
6
CONTINUOUS
10
5.3919291338582678
20
-2.2526771653543305
11
5.3919291338582678
21
-2.2172440944881888
0
LINE
8
BLACK
6
CONTINUOUS
10
5.3919291338582678
20
-2.2172440944881888
11
5.4509842519685039
21
-2.2172440944881888
0
LINE
8
BLACK
6
CONTINUOUS
10
5.4509842519685039
20
-2.2172440944881888
11
5.4509842519685039
21
-2.2526771653543305
0
LINE
8
BLACK
6
CONTINUOUS
10
5.658070866141732
20
-2.1377559055118112
11
5.5990157480314959
21
-2.1377559055118112
0
LINE
8
BLACK
6
CONTINUOUS
10
5.5990157480314959
20
-2.1377559055118112
11
5.5990157480314959
21
-2.102322834645669
0
LINE
8
BLACK
6
CONTINUOUS
10
5.5990157480314959
20
-2.102322834645669
11
5.658070866141732
21
-2.102322834645669
0
LINE
8
BLACK
6
CONTINUOUS
10
5.658070866141732
20
-2.102322834645669
11
5.658070866141732
21
-2.1377559055118112
0
LINE
8
BLACK
6
CONTINUOUS
10
5.8509842519685042
20
-2.1377559055118112
11
5.7919291338582672
21
-2.1377559055118112
0
LINE
8
BLACK
6
CONTINUOUS
10
5.7919291338582672
20
-2.1377559055118112
11
5.7919291338582672
21
-2.102322834645669
0
LINE
8
BLACK
6
CONTINUOUS
10
5.7919291338582672
20
-2.102322834645669
11
5.8509842519685042
21
-2.102322834645669
0
LINE
8
BLACK
6
CONTINUOUS
10
5.8509842519685042
20
-2.102322834645669
11
5.8509842519685042
21
-2.1377559055118112
0
LINE
8
BLACK
6
CONTINUOUS
10
4.8530708661417323
20
-2.122755905511811
11
4.7940157480314962
21
-2.122755905511811
0
LINE
8
BLACK
6
CONTINUOUS
10
4.7940157480314962
20
-2.122755905511811
11
4.7940157480314962
21
-2.0873228346456694
0
LINE
8
BLACK
6
CONTINUOUS
10
4.7940157480314962
20
-2.0873228346456694
11
4.8530708661417323
21
-2.0873228346456694
0
LINE
8
BLACK
6
CONTINUOUS
10
4.8530708661417323
20
-2.0873228346456694
11
4.8530708661417323
21
-2.122755905511811
0
LINE
8
BLACK
6
CONTINUOUS
10
5.0459842519685036
20
-2.122755905511811
11
4.9869291338582675
21
-2.122755905511811
0
LINE
8
BLACK
6
CONTINUOUS
10
4.9869291338582675
20
-2.122755905511811
11
4.9869291338582675
21
-2.0873228346456694
0
LINE
8
BLACK
6
CONTINUOUS
10
4.9869291338582675
20
-2.0873228346456694
11
5.0459842519685036
21
-2.0873228346456694
0
LINE
8
BLACK
6
CONTINUOUS
10
5.0459842519685036
20
-2.0873228346456694
11
5.0459842519685036
21
-2.122755905511811
0
LINE
8
BLACK
6
CONTINUOUS
10
5.2580708661417326
20
-2.122755905511811
11
5.1990157480314956
21
-2.122755905511811
0
LINE
8
BLACK
6
CONTINUOUS
10
5.1990157480314956
20
-2.122755905511811
11
5.1990157480314956
21
-2.0873228346456694
0
LINE
8
BLACK
6
CONTINUOUS
10
5.1990157480314956
20
-2.0873228346456694
11
5.2580708661417326
21
-2.0873228346456694
0
LINE
8
BLACK
6
CONTINUOUS
10
5.2580708661417326
20
-2.0873228346456694
11
5.2580708661417326
21
-2.122755905511811
0
LINE
8
BLACK
6
CONTINUOUS
10
5.4509842519685039
20
-2.122755905511811
11
5.3919291338582678
21
-2.122755905511811
0
LINE
8
BLACK
6
CONTINUOUS
10
5.3919291338582678
20
-2.122755905511811
11
5.3919291338582678
21
-2.0873228346456694
0
LINE
8
BLACK
6
CONTINUOUS
10
5.3919291338582678
20
-2.0873228346456694
11
5.4509842519685039
21
-2.0873228346456694
0
LINE
8
BLACK
6
CONTINUOUS
10
5.4509842519685039
20
-2.0873228346456694
11
5.4509842519685039
21
-2.122755905511811
  0
ENDSEC
  0
EOF
