  0
SECTION
  2
HEADER
  9
$ANGBASE
  50
0.0
  9
$ANGDIR
  70
1
  9
$MEASUREMENT
  70
0
  0
ENDSEC
  0
SECTION
  2
TABLES
  0
TABLE
  2
LTYPE
  70
4
  0
LTYPE
  5
40F
  2
CONTINUOUS
  70
0
  3
Solid line
  72
65
  73
0
  40
0.0
  0
LTYPE
  5
410
  2
DASHDOT
 70
0
  3
Dash Dot ____ _ ____ _
 72
65
 73
4
 40
2.0
 49
1.25
 49
-0.25
 49
0.25
 49
-0.25
  0
LTYPE
  5
411
  2
DASHED
 70
0
  3
Dashed __ __ __ __ __
 72
65
 73
2
 40
0.75
 49
0.5
 49
-0.25
  0
LTYPE
  5
43B
  2
DOTTED
 70
0
  3
Dotted .  .  .  .
 72
65
 73
2
 40
0.2
 49
0.0
 49
-0.2
  0
ENDTAB
  0
TABLE
  2
STYLE
  70
4
  0
STYLE
  2
KICAD
  70
0
  40
0
  41
1
  42
1
  50
0
  71
0
  3
isocp.shx
  0
STYLE
  2
KICADB
  70
0
  40
0
  41
1
  42
1
  50
0
  71
0
  3
isocp.shx
  0
STYLE
  2
KICADI
  70
0
  40
0
  41
1
  42
1
  50
15
  71
0
  3
isocp.shx
  0
STYLE
  2
KICADBI
  70
0
  40
0
  41
1
  42
1
  50
15
  71
0
  3
isocp.shx
  0
ENDTAB
  0
TABLE
  2
LAYER
  70
1
  0
LAYER
  2
BLACK
  70
0
  62
7
  6
CONTINUOUS
  0
ENDTAB
  0
ENDSEC
  0
SECTION
  2
ENTITIES
0
LINE
8
BLACK
6
CONTINUOUS
10
5.4235874409448819
20
-1.9702785039370079
11
5.4792380314960631
21
-1.9734320078740157
0
LINE
8
BLACK
6
CONTINUOUS
10
5.4792380314960631
20
-1.9734320078740157
11
5.534777047244094
21
-1.9781590551181103
0
LINE
8
BLACK
6
CONTINUOUS
10
5.534777047244094
20
-1.9781590551181103
11
5.5901600787401575
21
-1.9844559448818897
0
LINE
8
BLACK
6
CONTINUOUS
10
5.5901600787401575
20
-1.9844559448818897
11
5.6453427559055118
21
-1.9923175590551181
0
LINE
8
BLACK
6
CONTINUOUS
10
5.6453427559055118
20
-1.9923175590551181
11
5.7002808267716532
21
-2.0017376377952756
0
LINE
8
BLACK
6
CONTINUOUS
10
5.7002808267716532
20
-2.0017376377952756
11
5.7549303149606299
21
-2.0127086220472439
0
LINE
8
BLACK
6
CONTINUOUS
10
5.7549303149606299
20
-2.0127086220472439
11
5.8092474803149603
21
-2.0252217322834647
0
LINE
8
BLACK
6
CONTINUOUS
10
5.8092474803149603
20
-2.0252217322834647
11
5.863188779527559
21
-2.0392669685039371
0
LINE
8
BLACK
6
CONTINUOUS
10
5.863188779527559
20
-2.0392669685039371
11
5.9167109842519681
21
-2.054833031496063
0
LINE
8
BLACK
6
CONTINUOUS
10
5.9167109842519681
20
-2.054833031496063
11
5.9697712598425197
21
-2.0719074803149606
0
LINE
8
BLACK
6
CONTINUOUS
10
5.9697712598425197
20
-2.0719074803149606
11
6.0223271259842521
21
-2.0904766535433073
0
LINE
8
BLACK
6
CONTINUOUS
10
6.0223271259842521
20
-2.0904766535433073
11
6.0743364173228347
21
-2.1105256299212596
0
LINE
8
BLACK
6
CONTINUOUS
10
6.0743364173228347
20
-2.1105256299212596
11
6.1257575590551179
21
-2.1320384251968503
0
LINE
8
BLACK
6
CONTINUOUS
10
6.1257575590551179
20
-2.1320384251968503
11
6.1765492913385822
21
-2.154997716535433
0
LINE
8
BLACK
6
CONTINUOUS
10
6.1765492913385822
20
-2.154997716535433
11
6.2266709448818895
21
-2.1793851968503937
0
LINE
8
BLACK
6
CONTINUOUS
10
6.2266709448818895
20
-2.1793851968503937
11
6.2760824015748033
21
-2.2051812992125983
0
LINE
8
BLACK
6
CONTINUOUS
10
6.2760824015748033
20
-2.2051812992125983
11
6.3247440944881888
21
-2.2323653149606297
0
LINE
8
BLACK
6
CONTINUOUS
10
6.3247440944881888
20
-2.2323653149606297
11
6.3726170078740152
21
-2.2609155511811023
0
LINE
8
BLACK
6
CONTINUOUS
10
6.3726170078740152
20
-2.2609155511811023
11
6.41966279527559
21
-2.2908090944881891
0
LINE
8
BLACK
6
CONTINUOUS
10
6.41966279527559
20
-2.2908090944881891
11
6.4658438188976373
21
-2.3220220078740157
0
LINE
8
BLACK
6
CONTINUOUS
10
6.4658438188976373
20
-2.3220220078740157
11
6.5111230314960631
21
-2.3545292913385825
0
LINE
8
BLACK
6
CONTINUOUS
10
6.5111230314960631
20
-2.3545292913385825
11
6.5554641732283461
21
-2.3883048818897636
0
LINE
8
BLACK
6
CONTINUOUS
10
6.5554641732283461
20
-2.3883048818897636
11
6.5988317716535434
21
-2.4233217716535433
0
LINE
8
BLACK
6
CONTINUOUS
10
6.5988317716535434
20
-2.4233217716535433
11
6.6411910629921262
21
-2.4595518897637794
0
LINE
8
BLACK
6
CONTINUOUS
10
6.6411910629921262
20
-2.4595518897637794
11
6.6825081102362205
21
-2.4969662204724408
0
LINE
8
BLACK
6
CONTINUOUS
10
6.6825081102362205
20
-2.4969662204724408
11
6.7227498425196845
21
-2.5355347637795274
0
LINE
8
BLACK
6
CONTINUOUS
10
6.7227498425196845
20
-2.5355347637795274
11
6.7618840157480316
21
-2.5752266929133856
0
LINE
8
BLACK
6
CONTINUOUS
10
6.7618840157480316
20
-2.5752266929133856
11
6.7998792519685036
21
-2.6160101574803147
0
LINE
8
BLACK
6
CONTINUOUS
10
6.7998792519685036
20
-2.6160101574803147
11
6.8367051574803144
21
-2.6578525196850391
0
LINE
8
BLACK
6
CONTINUOUS
10
6.8367051574803144
20
-2.6578525196850391
11
6.8723322440944878
21
-2.7007202755905513
0
LINE
8
BLACK
6
CONTINUOUS
10
6.8723322440944878
20
-2.7007202755905513
11
6.9067319291338585
21
-2.7445790157480316
0
LINE
8
BLACK
6
CONTINUOUS
10
6.9067319291338585
20
-2.7445790157480316
11
6.9398766929133853
21
-2.7893937007874015
0
LINE
8
BLACK
6
CONTINUOUS
10
6.9398766929133853
20
-2.7893937007874015
11
6.9717399606299209
21
-2.8351283858267715
0
LINE
8
BLACK
6
CONTINUOUS
10
6.9717399606299209
20
-2.8351283858267715
11
7.0022962598425194
21
-2.8817464566929134
0
LINE
8
BLACK
6
CONTINUOUS
10
7.0022962598425194
20
-2.8817464566929134
11
7.0315210629921259
21
-2.9292105511811024
0
LINE
8
BLACK
6
CONTINUOUS
10
7.0315210629921259
20
-2.9292105511811024
11
7.0593909842519684
21
-2.9774826771653542
0
LINE
8
BLACK
6
CONTINUOUS
10
7.0593909842519684
20
-2.9774826771653542
11
7.0858837007874014
21
-3.0265241732283465
0
LINE
8
BLACK
6
CONTINUOUS
10
7.0858837007874014
20
-3.0265241732283465
11
7.1109779921259841
21
-3.0762957086614171
0
LINE
8
BLACK
6
CONTINUOUS
10
7.1109779921259841
20
-3.0762957086614171
11
7.1346537401574803
21
-3.1267574803149607
0
LINE
8
BLACK
6
CONTINUOUS
10
7.1346537401574803
20
-3.1267574803149607
11
7.1568920078740152
21
-3.1778690157480316
0
LINE
8
BLACK
6
CONTINUOUS
10
7.1568920078740152
20
-3.1778690157480316
11
7.1776749999999998
21
-3.2295894094488187
0
LINE
8
BLACK
6
CONTINUOUS
10
7.1776749999999998
20
-3.2295894094488187
11
7.1969859842519686
21
-3.2818772440944883
0
LINE
8
BLACK
6
CONTINUOUS
10
7.1969859842519686
20
-3.2818772440944883
11
7.2148095669291337
21
-3.334690590551181
0
LINE
8
BLACK
6
CONTINUOUS
10
7.2148095669291337
20
-3.334690590551181
11
7.231131496062992
21
-3.3879871653543305
0
LINE
8
BLACK
6
CONTINUOUS
10
7.231131496062992
20
-3.3879871653543305
11
7.2459386220472437
21
-3.4417242913385828
0
LINE
8
BLACK
6
CONTINUOUS
10
7.2459386220472437
20
-3.4417242913385828
11
7.2592190944881887
21
-3.4958589370078741
0
LINE
8
BLACK
6
CONTINUOUS
10
7.2592190944881887
20
-3.4958589370078741
11
7.2709623228346452
21
-3.5503477165354331
0
LINE
8
BLACK
6
CONTINUOUS
10
7.2709623228346452
20
-3.5503477165354331
11
7.2811588976377948
21
-3.6051470078740158
0
LINE
8
BLACK
6
CONTINUOUS
10
7.2811588976377948
20
-3.6051470078740158
11
7.2898006299212597
21
-3.6602128740157478
0
LINE
8
BLACK
6
CONTINUOUS
10
7.2898006299212597
20
-3.6602128740157478
11
7.2968805511811023
21
-3.7155012598425197
0
LINE
8
BLACK
6
CONTINUOUS
10
7.2968805511811023
20
-3.7155012598425197
11
7.3023930708661418
21
-3.770967874015748
0
LINE
8
BLACK
6
CONTINUOUS
10
7.3023930708661418
20
-3.770967874015748
11
7.3063337401574797
21
-3.8265682283464568
0
LINE
8
BLACK
6
CONTINUOUS
10
7.3063337401574797
20
-3.8265682283464568
11
7.3086994094488187
21
-3.8822578740157478
0
LINE
8
BLACK
6
CONTINUOUS
10
7.3086994094488187
20
-3.8822578740157478
11
7.3094881889763776
21
-3.9379921259842519
0
LINE
8
BLACK
6
CONTINUOUS
10
7.3094881889763776
20
-3.9379921259842519
11
7.3086994094488187
21
-3.9937263779527559
0
LINE
8
BLACK
6
CONTINUOUS
10
7.3086994094488187
20
-3.9937263779527559
11
7.3063337401574797
21
-4.0494160236220473
0
LINE
8
BLACK
6
CONTINUOUS
10
7.3063337401574797
20
-4.0494160236220473
11
7.3023930708661418
21
-4.1050163779527562
0
LINE
8
BLACK
6
CONTINUOUS
10
7.3023930708661418
20
-4.1050163779527562
11
7.2968805511811023
21
-4.160482992125984
0
LINE
8
BLACK
6
CONTINUOUS
10
7.2968805511811023
20
-4.160482992125984
11
7.2898006299212597
21
-4.2157713779527555
0
LINE
8
BLACK
6
CONTINUOUS
10
7.2898006299212597
20
-4.2157713779527555
11
7.2811588976377948
21
-4.270837244094488
0
LINE
8
BLACK
6
CONTINUOUS
10
7.2811588976377948
20
-4.270837244094488
11
7.2709623228346452
21
-4.3256365354330706
0
LINE
8
BLACK
6
CONTINUOUS
10
7.2709623228346452
20
-4.3256365354330706
11
7.2592190944881887
21
-4.3801253149606296
0
LINE
8
BLACK
6
CONTINUOUS
10
7.2592190944881887
20
-4.3801253149606296
11
7.2459386220472437
21
-4.4342599606299213
0
LINE
8
BLACK
6
CONTINUOUS
10
7.2459386220472437
20
-4.4342599606299213
11
7.231131496062992
21
-4.4879970866141727
0
LINE
8
BLACK
6
CONTINUOUS
10
7.231131496062992
20
-4.4879970866141727
11
7.2148095669291337
21
-4.5412936614173232
0
LINE
8
BLACK
6
CONTINUOUS
10
7.2148095669291337
20
-4.5412936614173232
11
7.1969859842519686
21
-4.5941070078740154
0
LINE
8
BLACK
6
CONTINUOUS
10
7.1969859842519686
20
-4.5941070078740154
11
7.1776749999999998
21
-4.646394842519685
0
LINE
8
BLACK
6
CONTINUOUS
10
7.1776749999999998
20
-4.646394842519685
11
7.1568920078740152
21
-4.6981152362204721
0
LINE
8
BLACK
6
CONTINUOUS
10
7.1568920078740152
20
-4.6981152362204721
11
7.1346537401574803
21
-4.749226771653543
0
LINE
8
BLACK
6
CONTINUOUS
10
7.1346537401574803
20
-4.749226771653543
11
7.1109779921259841
21
-4.7996885433070862
0
LINE
8
BLACK
6
CONTINUOUS
10
7.1109779921259841
20
-4.7996885433070862
11
7.0858837007874014
21
-4.8494600787401572
0
LINE
8
BLACK
6
CONTINUOUS
10
7.0858837007874014
20
-4.8494600787401572
11
7.0593909842519684
21
-4.8985015748031495
0
LINE
8
BLACK
6
CONTINUOUS
10
7.0593909842519684
20
-4.8985015748031495
11
7.0315210629921259
21
-4.9467737007874018
0
LINE
8
BLACK
6
CONTINUOUS
10
7.0315210629921259
20
-4.9467737007874018
11
7.0022962598425194
21
-4.9942377952755903
0
LINE
8
BLACK
6
CONTINUOUS
10
7.0022962598425194
20
-4.9942377952755903
11
6.9717399606299209
21
-5.0408558661417322
0
LINE
8
BLACK
6
CONTINUOUS
10
6.9717399606299209
20
-5.0408558661417322
11
6.9398766929133853
21
-5.0865905511811018
0
LINE
8
BLACK
6
CONTINUOUS
10
6.9398766929133853
20
-5.0865905511811018
11
6.9067319291338585
21
-5.1314052362204725
0
LINE
8
BLACK
6
CONTINUOUS
10
6.9067319291338585
20
-5.1314052362204725
11
6.8723322440944878
21
-5.1752639763779529
0
LINE
8
BLACK
6
CONTINUOUS
10
6.8723322440944878
20
-5.1752639763779529
11
6.8367051574803144
21
-5.2181317322834646
0
LINE
8
BLACK
6
CONTINUOUS
10
6.8367051574803144
20
-5.2181317322834646
11
6.7998792519685036
21
-5.2599740944881885
0
LINE
8
BLACK
6
CONTINUOUS
10
6.7998792519685036
20
-5.2599740944881885
11
6.7618840157480316
21
-5.3007575590551177
0
LINE
8
BLACK
6
CONTINUOUS
10
6.7618840157480316
20
-5.3007575590551177
11
6.7227498425196845
21
-5.3404494881889759
0
LINE
8
BLACK
6
CONTINUOUS
10
6.7227498425196845
20
-5.3404494881889759
11
6.6825081102362205
21
-5.3790180314960629
0
LINE
8
BLACK
6
CONTINUOUS
10
6.6825081102362205
20
-5.3790180314960629
11
6.6411910629921262
21
-5.4164323622047243
0
LINE
8
BLACK
6
CONTINUOUS
10
6.6411910629921262
20
-5.4164323622047243
11
6.5988317716535434
21
-5.4526624803149604
0
LINE
8
BLACK
6
CONTINUOUS
10
6.5988317716535434
20
-5.4526624803149604
11
6.5554641732283461
21
-5.4876793700787401
0
LINE
8
BLACK
6
CONTINUOUS
10
6.5554641732283461
20
-5.4876793700787401
11
6.5111230314960631
21
-5.5214549606299208
0
LINE
8
BLACK
6
CONTINUOUS
10
6.5111230314960631
20
-5.5214549606299208
11
6.4658438188976373
21
-5.553962244094488
0
LINE
8
BLACK
6
CONTINUOUS
10
6.4658438188976373
20
-5.553962244094488
11
6.41966279527559
21
-5.5851751574803146
0
LINE
8
BLACK
6
CONTINUOUS
10
6.41966279527559
20
-5.5851751574803146
11
6.3726170078740152
21
-5.6150687007874014
0
LINE
8
BLACK
6
CONTINUOUS
10
6.3726170078740152
20
-5.6150687007874014
11
6.3247440944881888
21
-5.643618937007874
0
LINE
8
BLACK
6
CONTINUOUS
10
6.3247440944881888
20
-5.643618937007874
11
6.2760824015748033
21
-5.6708029527559054
0
LINE
8
BLACK
6
CONTINUOUS
10
6.2760824015748033
20
-5.6708029527559054
11
6.2266709448818895
21
-5.69659905511811
0
LINE
8
BLACK
6
CONTINUOUS
10
6.2266709448818895
20
-5.69659905511811
11
6.1765492913385822
21
-5.7209865354330711
0
LINE
8
BLACK
6
CONTINUOUS
10
6.1765492913385822
20
-5.7209865354330711
11
6.1257575590551179
21
-5.743945826771653
0
LINE
8
BLACK
6
CONTINUOUS
10
6.1257575590551179
20
-5.743945826771653
11
6.0743364173228347
21
-5.7654586220472437
0
LINE
8
BLACK
6
CONTINUOUS
10
6.0743364173228347
20
-5.7654586220472437
11
6.0223271259842521
21
-5.7855075984251965
0
LINE
8
BLACK
6
CONTINUOUS
10
6.0223271259842521
20
-5.7855075984251965
11
5.9697712598425197
21
-5.8040767716535431
0
LINE
8
BLACK
6
CONTINUOUS
10
5.9697712598425197
20
-5.8040767716535431
11
5.9167109842519681
21
-5.8211512204724407
0
LINE
8
BLACK
6
CONTINUOUS
10
5.9167109842519681
20
-5.8211512204724407
11
5.863188779527559
21
-5.8367172834645666
0
LINE
8
BLACK
6
CONTINUOUS
10
5.863188779527559
20
-5.8367172834645666
11
5.8092474803149603
21
-5.8507625196850395
0
LINE
8
BLACK
6
CONTINUOUS
10
5.8092474803149603
20
-5.8507625196850395
11
5.7549303149606299
21
-5.8632756299212598
0
LINE
8
BLACK
6
CONTINUOUS
10
5.7549303149606299
20
-5.8632756299212598
11
5.7002808267716532
21
-5.8742466141732281
0
LINE
8
BLACK
6
CONTINUOUS
10
5.7002808267716532
20
-5.8742466141732281
11
5.6453427559055118
21
-5.8836666929133861
0
LINE
8
BLACK
6
CONTINUOUS
10
5.6453427559055118
20
-5.8836666929133861
11
5.5901600787401575
21
-5.891528307086614
0
LINE
8
BLACK
6
CONTINUOUS
10
5.5901600787401575
20
-5.891528307086614
11
5.534777047244094
21
-5.8978251968503939
0
LINE
8
BLACK
6
CONTINUOUS
10
5.534777047244094
20
-5.8978251968503939
11
5.4792380314960631
21
-5.9025522440944878
0
LINE
8
BLACK
6
CONTINUOUS
10
5.4792380314960631
20
-5.9025522440944878
11
5.4235874409448819
21
-5.9057057480314956
0
LINE
8
BLACK
6
CONTINUOUS
10
5.4235874409448819
20
-5.9057057480314956
11
5.3678699212598424
21
-5.9072831102362207
0
LINE
8
BLACK
6
CONTINUOUS
10
5.3678699212598424
20
-5.9072831102362207
11
5.3121300787401573
21
-5.9072831102362207
0
LINE
8
BLACK
6
CONTINUOUS
10
5.3121300787401573
20
-5.9072831102362207
11
5.2564125590551178
21
-5.9057057480314956
0
LINE
8
BLACK
6
CONTINUOUS
10
5.2564125590551178
20
-5.9057057480314956
11
5.2007619685039366
21
-5.9025522440944878
0
LINE
8
BLACK
6
CONTINUOUS
10
5.2007619685039366
20
-5.9025522440944878
11
5.1452229527559057
21
-5.8978251968503939
0
LINE
8
BLACK
6
CONTINUOUS
10
5.1452229527559057
20
-5.8978251968503939
11
5.0898399212598422
21
-5.891528307086614
0
LINE
8
BLACK
6
CONTINUOUS
10
5.0898399212598422
20
-5.891528307086614
11
5.0346572440944879
21
-5.8836666929133861
0
LINE
8
BLACK
6
CONTINUOUS
10
5.0346572440944879
20
-5.8836666929133861
11
4.9797191732283466
21
-5.8742466141732281
0
LINE
8
BLACK
6
CONTINUOUS
10
4.9797191732283466
20
-5.8742466141732281
11
4.9250696850393698
21
-5.8632756299212598
0
LINE
8
BLACK
6
CONTINUOUS
10
4.9250696850393698
20
-5.8632756299212598
11
4.8707525196850394
21
-5.8507625196850395
0
LINE
8
BLACK
6
CONTINUOUS
10
4.8707525196850394
20
-5.8507625196850395
11
4.8168112204724407
21
-5.8367172834645666
0
LINE
8
BLACK
6
CONTINUOUS
10
4.8168112204724407
20
-5.8367172834645666
11
4.7632890157480317
21
-5.8211512204724407
0
LINE
8
BLACK
6
CONTINUOUS
10
4.7632890157480317
20
-5.8211512204724407
11
4.7102287401574801
21
-5.8040767716535431
0
LINE
8
BLACK
6
CONTINUOUS
10
4.7102287401574801
20
-5.8040767716535431
11
4.6576728740157476
21
-5.7855075984251965
0
LINE
8
BLACK
6
CONTINUOUS
10
4.6576728740157476
20
-5.7855075984251965
11
4.605663582677165
21
-5.7654586220472437
0
LINE
8
BLACK
6
CONTINUOUS
10
4.605663582677165
20
-5.7654586220472437
11
4.5542424409448818
21
-5.743945826771653
0
LINE
8
BLACK
6
CONTINUOUS
10
4.5542424409448818
20
-5.743945826771653
11
4.5034507086614175
21
-5.7209865354330711
0
LINE
8
BLACK
6
CONTINUOUS
10
4.5034507086614175
20
-5.7209865354330711
11
4.4533290551181102
21
-5.69659905511811
0
LINE
8
BLACK
6
CONTINUOUS
10
4.4533290551181102
20
-5.69659905511811
11
4.4039175984251964
21
-5.6708029527559054
0
LINE
8
BLACK
6
CONTINUOUS
10
4.4039175984251964
20
-5.6708029527559054
11
4.355255905511811
21
-5.643618937007874
0
LINE
8
BLACK
6
CONTINUOUS
10
4.355255905511811
20
-5.643618937007874
11
4.3073829921259845
21
-5.6150687007874014
0
LINE
8
BLACK
6
CONTINUOUS
10
4.3073829921259845
20
-5.6150687007874014
11
4.2603372047244097
21
-5.5851751574803146
0
LINE
8
BLACK
6
CONTINUOUS
10
4.2603372047244097
20
-5.5851751574803146
11
4.2141561811023625
21
-5.553962244094488
0
LINE
8
BLACK
6
CONTINUOUS
10
4.2141561811023625
20
-5.553962244094488
11
4.1688769685039366
21
-5.5214549606299208
0
LINE
8
BLACK
6
CONTINUOUS
10
4.1688769685039366
20
-5.5214549606299208
11
4.1245358267716536
21
-5.4876793700787401
0
LINE
8
BLACK
6
CONTINUOUS
10
4.1245358267716536
20
-5.4876793700787401
11
4.0811682283464563
21
-5.4526624803149604
0
LINE
8
BLACK
6
CONTINUOUS
10
4.0811682283464563
20
-5.4526624803149604
11
4.0388089370078744
21
-5.4164323622047243
0
LINE
8
BLACK
6
CONTINUOUS
10
4.0388089370078744
20
-5.4164323622047243
11
3.9974918897637792
21
-5.3790180314960629
0
LINE
8
BLACK
6
CONTINUOUS
10
3.9974918897637792
20
-5.3790180314960629
11
3.9572501574803147
21
-5.3404494881889759
0
LINE
8
BLACK
6
CONTINUOUS
10
3.9572501574803147
20
-5.3404494881889759
11
3.9181159842519686
21
-5.3007575590551177
0
LINE
8
BLACK
6
CONTINUOUS
10
3.9181159842519686
20
-5.3007575590551177
11
3.8801207480314961
21
-5.2599740944881885
0
LINE
8
BLACK
6
CONTINUOUS
10
3.8801207480314961
20
-5.2599740944881885
11
3.8432948425196849
21
-5.2181317322834646
0
LINE
8
BLACK
6
CONTINUOUS
10
3.8432948425196849
20
-5.2181317322834646
11
3.8076677559055119
21
-5.1752639763779529
0
LINE
8
BLACK
6
CONTINUOUS
10
3.8076677559055119
20
-5.1752639763779529
11
3.7732680708661417
21
-5.1314052362204725
0
LINE
8
BLACK
6
CONTINUOUS
10
3.7732680708661417
20
-5.1314052362204725
11
3.740123307086614
21
-5.0865905511811018
0
LINE
8
BLACK
6
CONTINUOUS
10
3.740123307086614
20
-5.0865905511811018
11
3.7082600393700789
21
-5.0408558661417322
0
LINE
8
BLACK
6
CONTINUOUS
10
3.7082600393700789
20
-5.0408558661417322
11
3.6777037401574804
21
-4.9942377952755903
0
LINE
8
BLACK
6
CONTINUOUS
10
3.6777037401574804
20
-4.9942377952755903
11
3.6484789370078738
21
-4.9467737007874018
0
LINE
8
BLACK
6
CONTINUOUS
10
3.6484789370078738
20
-4.9467737007874018
11
3.6206090157480313
21
-4.8985015748031495
0
LINE
8
BLACK
6
CONTINUOUS
10
3.6206090157480313
20
-4.8985015748031495
11
3.5941162992125983
21
-4.8494600787401572
0
LINE
8
BLACK
6
CONTINUOUS
10
3.5941162992125983
20
-4.8494600787401572
11
3.5690220078740156
21
-4.7996885433070862
0
LINE
8
BLACK
6
CONTINUOUS
10
3.5690220078740156
20
-4.7996885433070862
11
3.5453462598425194
21
-4.749226771653543
0
LINE
8
BLACK
6
CONTINUOUS
10
3.5453462598425194
20
-4.749226771653543
11
3.523107992125984
21
-4.6981152362204721
0
LINE
8
BLACK
6
CONTINUOUS
10
3.523107992125984
20
-4.6981152362204721
11
3.5023249999999999
21
-4.646394842519685
0
LINE
8
BLACK
6
CONTINUOUS
10
3.5023249999999999
20
-4.646394842519685
11
3.4830140157480316
21
-4.5941070078740154
0
LINE
8
BLACK
6
CONTINUOUS
10
3.4830140157480316
20
-4.5941070078740154
11
3.465190433070866
21
-4.5412936614173232
0
LINE
8
BLACK
6
CONTINUOUS
10
3.465190433070866
20
-4.5412936614173232
11
3.4488685039370077
21
-4.4879970866141727
0
LINE
8
BLACK
6
CONTINUOUS
10
3.4488685039370077
20
-4.4879970866141727
11
3.434061377952756
21
-4.4342599606299213
0
LINE
8
BLACK
6
CONTINUOUS
10
3.434061377952756
20
-4.4342599606299213
11
3.420780905511811
21
-4.3801253149606296
0
LINE
8
BLACK
6
CONTINUOUS
10
3.420780905511811
20
-4.3801253149606296
11
3.4090376771653541
21
-4.3256365354330706
0
LINE
8
BLACK
6
CONTINUOUS
10
3.4090376771653541
20
-4.3256365354330706
11
3.3988411023622045
21
-4.270837244094488
0
LINE
8
BLACK
6
CONTINUOUS
10
3.3988411023622045
20
-4.270837244094488
11
3.3901993700787401
21
-4.2157713779527555
0
LINE
8
BLACK
6
CONTINUOUS
10
3.3901993700787401
20
-4.2157713779527555
11
3.3831194488188974
21
-4.160482992125984
0
LINE
8
BLACK
6
CONTINUOUS
10
3.3831194488188974
20
-4.160482992125984
11
3.3776069291338584
21
-4.1050163779527562
0
LINE
8
BLACK
6
CONTINUOUS
10
3.3776069291338584
20
-4.1050163779527562
11
3.3736662598425196
21
-4.0494160236220473
0
LINE
8
BLACK
6
CONTINUOUS
10
3.3736662598425196
20
-4.0494160236220473
11
3.371300590551181
21
-3.9937263779527559
0
LINE
8
BLACK
6
CONTINUOUS
10
3.371300590551181
20
-3.9937263779527559
11
3.3705118110236221
21
-3.9379921259842519
0
LINE
8
BLACK
6
CONTINUOUS
10
3.3705118110236221
20
-3.9379921259842519
11
3.371300590551181
21
-3.8822578740157478
0
LINE
8
BLACK
6
CONTINUOUS
10
3.371300590551181
20
-3.8822578740157478
11
3.3736662598425196
21
-3.8265682283464568
0
LINE
8
BLACK
6
CONTINUOUS
10
3.3736662598425196
20
-3.8265682283464568
11
3.3776069291338584
21
-3.770967874015748
0
LINE
8
BLACK
6
CONTINUOUS
10
3.3776069291338584
20
-3.770967874015748
11
3.3831194488188974
21
-3.7155012598425197
0
LINE
8
BLACK
6
CONTINUOUS
10
3.3831194488188974
20
-3.7155012598425197
11
3.3901993700787401
21
-3.6602128740157478
0
LINE
8
BLACK
6
CONTINUOUS
10
3.3901993700787401
20
-3.6602128740157478
11
3.3988411023622045
21
-3.6051470078740158
0
LINE
8
BLACK
6
CONTINUOUS
10
3.3988411023622045
20
-3.6051470078740158
11
3.4090376771653541
21
-3.5503477165354331
0
LINE
8
BLACK
6
CONTINUOUS
10
3.4090376771653541
20
-3.5503477165354331
11
3.420780905511811
21
-3.4958589370078741
0
LINE
8
BLACK
6
CONTINUOUS
10
3.420780905511811
20
-3.4958589370078741
11
3.434061377952756
21
-3.4417242913385828
0
LINE
8
BLACK
6
CONTINUOUS
10
3.434061377952756
20
-3.4417242913385828
11
3.4488685039370077
21
-3.3879871653543305
0
LINE
8
BLACK
6
CONTINUOUS
10
3.4488685039370077
20
-3.3879871653543305
11
3.465190433070866
21
-3.334690590551181
0
LINE
8
BLACK
6
CONTINUOUS
10
3.465190433070866
20
-3.334690590551181
11
3.4830140157480316
21
-3.2818772440944883
0
LINE
8
BLACK
6
CONTINUOUS
10
3.4830140157480316
20
-3.2818772440944883
11
3.5023249999999999
21
-3.2295894094488187
0
LINE
8
BLACK
6
CONTINUOUS
10
3.5023249999999999
20
-3.2295894094488187
11
3.523107992125984
21
-3.1778690157480316
0
LINE
8
BLACK
6
CONTINUOUS
10
3.523107992125984
20
-3.1778690157480316
11
3.5453462598425194
21
-3.1267574803149607
0
LINE
8
BLACK
6
CONTINUOUS
10
3.5453462598425194
20
-3.1267574803149607
11
3.5690220078740156
21
-3.0762957086614171
0
LINE
8
BLACK
6
CONTINUOUS
10
3.5690220078740156
20
-3.0762957086614171
11
3.5941162992125983
21
-3.0265241732283465
0
LINE
8
BLACK
6
CONTINUOUS
10
3.5941162992125983
20
-3.0265241732283465
11
3.6206090157480313
21
-2.9774826771653542
0
LINE
8
BLACK
6
CONTINUOUS
10
3.6206090157480313
20
-2.9774826771653542
11
3.6484789370078738
21
-2.9292105511811024
0
LINE
8
BLACK
6
CONTINUOUS
10
3.6484789370078738
20
-2.9292105511811024
11
3.6777037401574804
21
-2.8817464566929134
0
LINE
8
BLACK
6
CONTINUOUS
10
3.6777037401574804
20
-2.8817464566929134
11
3.7082600393700789
21
-2.8351283858267715
0
LINE
8
BLACK
6
CONTINUOUS
10
3.7082600393700789
20
-2.8351283858267715
11
3.740123307086614
21
-2.7893937007874015
0
LINE
8
BLACK
6
CONTINUOUS
10
3.740123307086614
20
-2.7893937007874015
11
3.7732680708661417
21
-2.7445790157480316
0
LINE
8
BLACK
6
CONTINUOUS
10
3.7732680708661417
20
-2.7445790157480316
11
3.8076677559055119
21
-2.7007202755905513
0
LINE
8
BLACK
6
CONTINUOUS
10
3.8076677559055119
20
-2.7007202755905513
11
3.8432948425196849
21
-2.6578525196850391
0
LINE
8
BLACK
6
CONTINUOUS
10
3.8432948425196849
20
-2.6578525196850391
11
3.8801207480314961
21
-2.6160101574803147
0
LINE
8
BLACK
6
CONTINUOUS
10
3.8801207480314961
20
-2.6160101574803147
11
3.9181159842519686
21
-2.5752266929133856
0
LINE
8
BLACK
6
CONTINUOUS
10
3.9181159842519686
20
-2.5752266929133856
11
3.9572501574803147
21
-2.5355347637795274
0
LINE
8
BLACK
6
CONTINUOUS
10
3.9572501574803147
20
-2.5355347637795274
11
3.9974918897637792
21
-2.4969662204724408
0
LINE
8
BLACK
6
CONTINUOUS
10
3.9974918897637792
20
-2.4969662204724408
11
4.0388089370078744
21
-2.4595518897637794
0
LINE
8
BLACK
6
CONTINUOUS
10
4.0388089370078744
20
-2.4595518897637794
11
4.0811682283464563
21
-2.4233217716535433
0
LINE
8
BLACK
6
CONTINUOUS
10
4.0811682283464563
20
-2.4233217716535433
11
4.1245358267716536
21
-2.3883048818897636
0
LINE
8
BLACK
6
CONTINUOUS
10
4.1245358267716536
20
-2.3883048818897636
11
4.1688769685039366
21
-2.3545292913385825
0
LINE
8
BLACK
6
CONTINUOUS
10
4.1688769685039366
20
-2.3545292913385825
11
4.2141561811023625
21
-2.3220220078740157
0
LINE
8
BLACK
6
CONTINUOUS
10
4.2141561811023625
20
-2.3220220078740157
11
4.2603372047244097
21
-2.2908090944881891
0
LINE
8
BLACK
6
CONTINUOUS
10
4.2603372047244097
20
-2.2908090944881891
11
4.3073829921259845
21
-2.2609155511811023
0
LINE
8
BLACK
6
CONTINUOUS
10
4.3073829921259845
20
-2.2609155511811023
11
4.355255905511811
21
-2.2323653149606297
0
LINE
8
BLACK
6
CONTINUOUS
10
4.355255905511811
20
-2.2323653149606297
11
4.4039175984251964
21
-2.2051812992125983
0
LINE
8
BLACK
6
CONTINUOUS
10
4.4039175984251964
20
-2.2051812992125983
11
4.4533290551181102
21
-2.1793851968503937
0
LINE
8
BLACK
6
CONTINUOUS
10
4.4533290551181102
20
-2.1793851968503937
11
4.5034507086614175
21
-2.154997716535433
0
LINE
8
BLACK
6
CONTINUOUS
10
4.5034507086614175
20
-2.154997716535433
11
4.5542424409448818
21
-2.1320384251968503
0
LINE
8
BLACK
6
CONTINUOUS
10
4.5542424409448818
20
-2.1320384251968503
11
4.605663582677165
21
-2.1105256299212596
0
LINE
8
BLACK
6
CONTINUOUS
10
4.605663582677165
20
-2.1105256299212596
11
4.6576728740157476
21
-2.0904766535433073
0
LINE
8
BLACK
6
CONTINUOUS
10
4.6576728740157476
20
-2.0904766535433073
11
4.7102287401574801
21
-2.0719074803149606
0
LINE
8
BLACK
6
CONTINUOUS
10
4.7102287401574801
20
-2.0719074803149606
11
4.7632890157480317
21
-2.054833031496063
0
LINE
8
BLACK
6
CONTINUOUS
10
4.7632890157480317
20
-2.054833031496063
11
4.8168112204724407
21
-2.0392669685039371
0
LINE
8
BLACK
6
CONTINUOUS
10
4.8168112204724407
20
-2.0392669685039371
11
4.8707525196850394
21
-2.0252217322834647
0
LINE
8
BLACK
6
CONTINUOUS
10
4.8707525196850394
20
-2.0252217322834647
11
4.9250696850393698
21
-2.0127086220472439
0
LINE
8
BLACK
6
CONTINUOUS
10
4.9250696850393698
20
-2.0127086220472439
11
4.9797191732283466
21
-2.0017376377952756
0
LINE
8
BLACK
6
CONTINUOUS
10
4.9797191732283466
20
-2.0017376377952756
11
5.0346572440944879
21
-1.9923175590551181
0
LINE
8
BLACK
6
CONTINUOUS
10
5.0346572440944879
20
-1.9923175590551181
11
5.0898399212598422
21
-1.9844559448818897
0
LINE
8
BLACK
6
CONTINUOUS
10
5.0898399212598422
20
-1.9844559448818897
11
5.1452229527559057
21
-1.9781590551181103
0
LINE
8
BLACK
6
CONTINUOUS
10
5.1452229527559057
20
-1.9781590551181103
11
5.2007619685039366
21
-1.9734320078740157
0
LINE
8
BLACK
6
CONTINUOUS
10
5.2007619685039366
20
-1.9734320078740157
11
5.2564125590551178
21
-1.9702785039370079
0
LINE
8
BLACK
6
CONTINUOUS
10
5.2564125590551178
20
-1.9702785039370079
11
5.3121300787401573
21
-1.9687011417322835
0
LINE
8
BLACK
6
CONTINUOUS
10
5.3121300787401573
20
-1.9687011417322835
11
5.3678699212598424
21
-1.9687011417322835
0
LINE
8
BLACK
6
CONTINUOUS
10
5.3678699212598424
20
-1.9687011417322835
11
5.4235874409448819
21
-1.9702785039370079
0
LINE
8
BLACK
6
CONTINUOUS
10
3.3730713779527557
20
-3.9936762598425197
11
3.3754349212598425
21
-4.0493157874015751
0
LINE
8
BLACK
6
CONTINUOUS
10
3.3754349212598425
20
-4.0493157874015751
11
3.3793720472440945
21
-4.1048661417322831
0
LINE
8
BLACK
6
CONTINUOUS
10
3.3793720472440945
20
-4.1048661417322831
11
3.3848796062992124
21
-4.1602828740157483
0
LINE
8
BLACK
6
CONTINUOUS
10
3.3848796062992124
20
-4.1602828740157483
11
3.3919531889763781
21
-4.2155214960629923
0
LINE
8
BLACK
6
CONTINUOUS
10
3.3919531889763781
20
-4.2155214960629923
11
3.4005871259842517
21
-4.2705378740157478
0
LINE
8
BLACK
6
CONTINUOUS
10
3.4005871259842517
20
-4.2705378740157478
11
3.4107744881889763
21
-4.3252878346456693
0
LINE
8
BLACK
6
CONTINUOUS
10
3.4107744881889763
20
-4.3252878346456693
11
3.4225071653543306
21
-4.3797276377952752
0
LINE
8
BLACK
6
CONTINUOUS
10
3.4225071653543306
20
-4.3797276377952752
11
3.4357757086614171
21
-4.433813582677165
0
LINE
8
BLACK
6
CONTINUOUS
10
3.4357757086614171
20
-4.433813582677165
11
3.4505695275590549
21
-4.4875023622047241
0
LINE
8
BLACK
6
CONTINUOUS
10
3.4505695275590549
20
-4.4875023622047241
11
3.4668767322834646
21
-4.5407510236220467
0
LINE
8
BLACK
6
CONTINUOUS
10
3.4668767322834646
20
-4.5407510236220467
11
3.4846843307086615
21
-4.5935168503937005
0
LINE
8
BLACK
6
CONTINUOUS
10
3.4846843307086615
20
-4.5935168503937005
11
3.5039779527559056
21
-4.6457576377952758
0
LINE
8
BLACK
6
CONTINUOUS
10
3.5039779527559056
20
-4.6457576377952758
11
3.5247422047244092
21
-4.6974315354330711
0
LINE
8
BLACK
6
CONTINUOUS
10
3.5247422047244092
20
-4.6974315354330711
11
3.5469604724409449
21
-4.7484970866141731
0
LINE
8
BLACK
6
CONTINUOUS
10
3.5469604724409449
20
-4.7484970866141731
11
3.5706149606299213
21
-4.7989134645669287
0
LINE
8
BLACK
6
CONTINUOUS
10
3.5706149606299213
20
-4.7989134645669287
11
3.5956866535433072
21
-4.8486402362204721
0
LINE
8
BLACK
6
CONTINUOUS
10
3.5956866535433072
20
-4.8486402362204721
11
3.6221555511811023
21
-4.897637598425197
0
LINE
8
BLACK
6
CONTINUOUS
10
3.6221555511811023
20
-4.897637598425197
11
3.6500003937007874
21
-4.9458662992125983
0
LINE
8
BLACK
6
CONTINUOUS
10
3.6500003937007874
20
-4.9458662992125983
11
3.6791989370078739
21
-4.9932877165354332
0
LINE
8
BLACK
6
CONTINUOUS
10
3.6791989370078739
20
-4.9932877165354332
11
3.7097277165354332
21
-5.039863858267716
0
LINE
8
BLACK
6
CONTINUOUS
10
3.7097277165354332
20
-5.039863858267716
11
3.7415623622047245
21
-5.0855574015748033
0
LINE
8
BLACK
6
CONTINUOUS
10
3.7415623622047245
20
-5.0855574015748033
11
3.7746773228346457
21
-5.1303317716535428
0
LINE
8
BLACK
6
CONTINUOUS
10
3.7746773228346457
20
-5.1303317716535428
11
3.8090460629921261
21
-5.1741511023622042
0
LINE
8
BLACK
6
CONTINUOUS
10
3.8090460629921261
20
-5.1741511023622042
11
3.8446410629921259
21
-5.2169802755905508
0
LINE
8
BLACK
6
CONTINUOUS
10
3.8446410629921259
20
-5.2169802755905508
11
3.8814338582677164
21
-5.2587849999999996
0
LINE
8
BLACK
6
CONTINUOUS
10
3.8814338582677164
20
-5.2587849999999996
11
3.919394960629921
21
-5.2995317716535428
0
LINE
8
BLACK
6
CONTINUOUS
10
3.919394960629921
20
-5.2995317716535428
11
3.958493897637795
21
-5.3391879921259839
0
LINE
8
BLACK
6
CONTINUOUS
10
3.958493897637795
20
-5.3391879921259839
11
3.9986994094488186
21
-5.3777218897637793
0
LINE
8
BLACK
6
CONTINUOUS
10
3.9986994094488186
20
-5.3777218897637793
11
4.0399793307086611
21
-5.4151025590551178
0
LINE
8
BLACK
6
CONTINUOUS
10
4.0399793307086611
20
-5.4151025590551178
11
4.0823005118110238
21
-5.4513000787401573
0
LINE
8
BLACK
6
CONTINUOUS
10
4.0823005118110238
20
-5.4513000787401573
11
4.1256290944881888
21
-5.4862854724409447
0
LINE
8
BLACK
6
CONTINUOUS
10
4.1256290944881888
20
-5.4862854724409447
11
4.1699303543307087
21
-5.5200307086614169
0
LINE
8
BLACK
6
CONTINUOUS
10
4.1699303543307087
20
-5.5200307086614169
11
4.2151688582677167
21
-5.5525087401574797
0
LINE
8
BLACK
6
CONTINUOUS
10
4.2151688582677167
20
-5.5525087401574797
11
4.2613083070866145
21
-5.5836935826771654
0
LINE
8
BLACK
6
CONTINUOUS
10
4.2613083070866145
20
-5.5836935826771654
11
4.3083118110236223
21
-5.6135602362204722
0
LINE
8
BLACK
6
CONTINUOUS
10
4.3083118110236223
20
-5.6135602362204722
11
4.3561416535433066
21
-5.6420847637795273
0
LINE
8
BLACK
6
CONTINUOUS
10
4.3561416535433066
20
-5.6420847637795273
11
4.4047595669291342
21
-5.66924437007874
0
LINE
8
BLACK
6
CONTINUOUS
10
4.4047595669291342
20
-5.66924437007874
11
4.4541265748031496
21
-5.6950172440944877
0
LINE
8
BLACK
6
CONTINUOUS
10
4.4541265748031496
20
-5.6950172440944877
11
4.5042031496062993
21
-5.7193827559055119
0
LINE
8
BLACK
6
CONTINUOUS
10
4.5042031496062993
20
-5.7193827559055119
11
4.5549492125984248
21
-5.7423214173228345
0
LINE
8
BLACK
6
CONTINUOUS
10
4.5549492125984248
20
-5.7423214173228345
11
4.6063240944881887
21
-5.7638148425196851
0
LINE
8
BLACK
6
CONTINUOUS
10
4.6063240944881887
20
-5.7638148425196851
11
4.6582866141732282
21
-5.7838458267716533
0
LINE
8
BLACK
6
CONTINUOUS
10
4.6582866141732282
20
-5.7838458267716533
11
4.7107951968503938
21
-5.8023982677165353
0
LINE
8
BLACK
6
CONTINUOUS
10
4.7107951968503938
20
-5.8023982677165353
11
4.7638077559055114
21
-5.8194573622047239
0
LINE
8
BLACK
6
CONTINUOUS
10
4.7638077559055114
20
-5.8194573622047239
11
4.817281811023622
21
-5.8350094488188979
0
LINE
8
BLACK
6
CONTINUOUS
10
4.817281811023622
20
-5.8350094488188979
11
4.8711746062992125
21
-5.849042007874016
0
LINE
8
BLACK
6
CONTINUOUS
10
4.8711746062992125
20
-5.849042007874016
11
4.9254428740157481
21
-5.8615438976377954
0
LINE
8
BLACK
6
CONTINUOUS
10
4.9254428740157481
20
-5.8615438976377954
11
4.9800432283464566
21
-5.8725050000000003
0
LINE
8
BLACK
6
CONTINUOUS
10
4.9800432283464566
20
-5.8725050000000003
11
5.0349318897637794
21
-5.8819166141732282
0
LINE
8
BLACK
6
CONTINUOUS
10
5.0349318897637794
20
-5.8819166141732282
11
5.0900649212598426
21
-5.8897711811023621
0
LINE
8
BLACK
6
CONTINUOUS
10
5.0900649212598426
20
-5.8897711811023621
11
5.145398149606299
21
-5.8960623622047246
0
LINE
8
BLACK
6
CONTINUOUS
10
5.145398149606299
20
-5.8960623622047246
11
5.2008872047244097
21
-5.9007851968503937
0
LINE
8
BLACK
6
CONTINUOUS
10
5.2008872047244097
20
-5.9007851968503937
11
5.2564877165354327
21
-5.9039358267716535
0
LINE
8
BLACK
6
CONTINUOUS
10
5.2564877165354327
20
-5.9039358267716535
11
5.3121551574803147
21
-5.9055118110236222
0
LINE
8
BLACK
6
CONTINUOUS
10
5.3121551574803147
20
-5.9055118110236222
11
5.367844842519685
21
-5.9055118110236222
0
LINE
8
BLACK
6
CONTINUOUS
10
5.367844842519685
20
-5.9055118110236222
11
5.423512283464567
21
-5.9039358267716535
0
LINE
8
BLACK
6
CONTINUOUS
10
5.423512283464567
20
-5.9039358267716535
11
5.47911279527559
21
-5.9007851968503937
0
LINE
8
BLACK
6
CONTINUOUS
10
5.47911279527559
20
-5.9007851968503937
11
5.5346018503937007
21
-5.8960623622047246
0
LINE
8
BLACK
6
CONTINUOUS
10
5.5346018503937007
20
-5.8960623622047246
11
5.5899350787401572
21
-5.8897711811023621
0
LINE
8
BLACK
6
CONTINUOUS
10
5.5899350787401572
20
-5.8897711811023621
11
5.6450681102362203
21
-5.8819166141732282
0
LINE
8
BLACK
6
CONTINUOUS
10
5.6450681102362203
20
-5.8819166141732282
11
5.6999567716535431
21
-5.8725050000000003
0
LINE
8
BLACK
6
CONTINUOUS
10
5.6999567716535431
20
-5.8725050000000003
11
5.7545571259842516
21
-5.8615438976377954
0
LINE
8
BLACK
6
CONTINUOUS
10
5.7545571259842516
20
-5.8615438976377954
11
5.8088253937007872
21
-5.849042007874016
0
LINE
8
BLACK
6
CONTINUOUS
10
5.8088253937007872
20
-5.849042007874016
11
5.8627181889763778
21
-5.8350094488188979
0
LINE
8
BLACK
6
CONTINUOUS
10
5.8627181889763778
20
-5.8350094488188979
11
5.9161922440944883
21
-5.8194573622047239
0
LINE
8
BLACK
6
CONTINUOUS
10
5.9161922440944883
20
-5.8194573622047239
11
5.9692048031496059
21
-5.8023982677165353
0
LINE
8
BLACK
6
CONTINUOUS
10
5.9692048031496059
20
-5.8023982677165353
11
6.0217133858267715
21
-5.7838458267716533
0
LINE
8
BLACK
6
CONTINUOUS
10
6.0217133858267715
20
-5.7838458267716533
11
6.073675905511811
21
-5.7638148425196851
0
LINE
8
BLACK
6
CONTINUOUS
10
6.073675905511811
20
-5.7638148425196851
11
6.1250507874015749
21
-5.7423214173228345
0
LINE
8
BLACK
6
CONTINUOUS
10
6.1250507874015749
20
-5.7423214173228345
11
6.1757968503937004
21
-5.7193827559055119
0
LINE
8
BLACK
6
CONTINUOUS
10
6.1757968503937004
20
-5.7193827559055119
11
6.2258734251968502
21
-5.6950172440944877
0
LINE
8
BLACK
6
CONTINUOUS
10
6.2258734251968502
20
-5.6950172440944877
11
6.2752404330708664
21
-5.66924437007874
0
LINE
8
BLACK
6
CONTINUOUS
10
6.2752404330708664
20
-5.66924437007874
11
6.3238583464566931
21
-5.6420847637795273
0
LINE
8
BLACK
6
CONTINUOUS
10
6.3238583464566931
20
-5.6420847637795273
11
6.3716881889763775
21
-5.6135602362204722
0
LINE
8
BLACK
6
CONTINUOUS
10
6.3716881889763775
20
-5.6135602362204722
11
6.4186916929133853
21
-5.5836935826771654
0
LINE
8
BLACK
6
CONTINUOUS
10
6.4186916929133853
20
-5.5836935826771654
11
6.464831141732283
21
-5.5525087401574797
0
LINE
8
BLACK
6
CONTINUOUS
10
6.464831141732283
20
-5.5525087401574797
11
6.510069645669291
21
-5.5200307086614169
0
LINE
8
BLACK
6
CONTINUOUS
10
6.510069645669291
20
-5.5200307086614169
11
6.5543709055118109
21
-5.4862854724409447
0
LINE
8
BLACK
6
CONTINUOUS
10
6.5543709055118109
20
-5.4862854724409447
11
6.5976994881889759
21
-5.4513000787401573
0
LINE
8
BLACK
6
CONTINUOUS
10
6.5976994881889759
20
-5.4513000787401573
11
6.6400206692913386
21
-5.4151025590551178
0
LINE
8
BLACK
6
CONTINUOUS
10
6.6400206692913386
20
-5.4151025590551178
11
6.6813005905511806
21
-5.3777218897637793
0
LINE
8
BLACK
6
CONTINUOUS
10
6.6813005905511806
20
-5.3777218897637793
11
6.7215061023622047
21
-5.3391879921259839
0
LINE
8
BLACK
6
CONTINUOUS
10
6.7215061023622047
20
-5.3391879921259839
11
6.7606050393700787
21
-5.2995317716535428
0
LINE
8
BLACK
6
CONTINUOUS
10
6.7606050393700787
20
-5.2995317716535428
11
6.7985661417322829
21
-5.2587849999999996
0
LINE
8
BLACK
6
CONTINUOUS
10
6.7985661417322829
20
-5.2587849999999996
11
6.8353589370078742
21
-5.2169802755905508
0
LINE
8
BLACK
6
CONTINUOUS
10
6.8353589370078742
20
-5.2169802755905508
11
6.870953937007874
21
-5.1741511023622042
0
LINE
8
BLACK
6
CONTINUOUS
10
6.870953937007874
20
-5.1741511023622042
11
6.905322677165354
21
-5.1303317716535428
0
LINE
8
BLACK
6
CONTINUOUS
10
6.905322677165354
20
-5.1303317716535428
11
6.9384376377952757
21
-5.0855574015748033
0
LINE
8
BLACK
6
CONTINUOUS
10
6.9384376377952757
20
-5.0855574015748033
11
6.970272283464567
21
-5.039863858267716
0
LINE
8
BLACK
6
CONTINUOUS
10
6.970272283464567
20
-5.039863858267716
11
7.0008010629921262
21
-4.9932877165354332
0
LINE
8
BLACK
6
CONTINUOUS
10
7.0008010629921262
20
-4.9932877165354332
11
7.0299996062992127
21
-4.9458662992125983
0
LINE
8
BLACK
6
CONTINUOUS
10
7.0299996062992127
20
-4.9458662992125983
11
7.0578444488188978
21
-4.897637598425197
0
LINE
8
BLACK
6
CONTINUOUS
10
7.0578444488188978
20
-4.897637598425197
11
7.0843133464566925
21
-4.8486402362204721
0
LINE
8
BLACK
6
CONTINUOUS
10
7.0843133464566925
20
-4.8486402362204721
11
7.1093850393700784
21
-4.7989134645669287
0
LINE
8
BLACK
6
CONTINUOUS
10
7.1093850393700784
20
-4.7989134645669287
11
7.1330395275590552
21
-4.7484970866141731
0
LINE
8
BLACK
6
CONTINUOUS
10
7.1330395275590552
20
-4.7484970866141731
11
7.15525779527559
21
-4.6974315354330711
0
LINE
8
BLACK
6
CONTINUOUS
10
7.15525779527559
20
-4.6974315354330711
11
7.1760220472440945
21
-4.6457576377952758
0
LINE
8
BLACK
6
CONTINUOUS
10
7.1760220472440945
20
-4.6457576377952758
11
7.1953156692913387
21
-4.5935168503937005
0
LINE
8
BLACK
6
CONTINUOUS
10
7.1953156692913387
20
-4.5935168503937005
11
7.2131232677165356
21
-4.5407510236220467
0
LINE
8
BLACK
6
CONTINUOUS
10
7.2131232677165356
20
-4.5407510236220467
11
7.2294304724409448
21
-4.4875023622047241
0
LINE
8
BLACK
6
CONTINUOUS
10
7.2294304724409448
20
-4.4875023622047241
11
7.2442242913385826
21
-4.433813582677165
0
LINE
8
BLACK
6
CONTINUOUS
10
7.2442242913385826
20
-4.433813582677165
11
7.2574928346456691
21
-4.3797276377952752
0
LINE
8
BLACK
6
CONTINUOUS
10
7.2574928346456691
20
-4.3797276377952752
11
7.2692255118110234
21
-4.3252878346456693
0
LINE
8
BLACK
6
CONTINUOUS
10
7.2692255118110234
20
-4.3252878346456693
11
7.2794128740157475
21
-4.2705378740157478
0
LINE
8
BLACK
6
CONTINUOUS
10
7.2794128740157475
20
-4.2705378740157478
11
7.2880468110236221
21
-4.2155214960629923
0
LINE
8
BLACK
6
CONTINUOUS
10
7.2880468110236221
20
-4.2155214960629923
11
7.2951203937007874
21
-4.1602828740157483
0
LINE
8
BLACK
6
CONTINUOUS
10
7.2951203937007874
20
-4.1602828740157483
11
7.3006279527559057
21
-4.1048661417322831
0
LINE
8
BLACK
6
CONTINUOUS
10
7.3006279527559057
20
-4.1048661417322831
11
7.3045650787401577
21
-4.0493157874015751
0
LINE
8
BLACK
6
CONTINUOUS
10
7.3045650787401577
20
-4.0493157874015751
11
7.306928622047244
21
-3.9936762598425197
0
LINE
8
BLACK
6
CONTINUOUS
10
7.306928622047244
20
-3.9936762598425197
11
7.3077166929133854
21
-3.9379921259842519
0
LINE
8
BLACK
6
CONTINUOUS
10
7.3077166929133854
20
-3.9379921259842519
11
7.306928622047244
21
-3.882307992125984
0
LINE
8
BLACK
6
CONTINUOUS
10
7.306928622047244
20
-3.882307992125984
11
7.3045650787401577
21
-3.8266684645669291
0
LINE
8
BLACK
6
CONTINUOUS
10
7.3045650787401577
20
-3.8266684645669291
11
7.3006279527559057
21
-3.7711181102362206
0
LINE
8
BLACK
6
CONTINUOUS
10
7.3006279527559057
20
-3.7711181102362206
11
7.2951203937007874
21
-3.7157013779527559
0
LINE
8
BLACK
6
CONTINUOUS
10
7.2951203937007874
20
-3.7157013779527559
11
7.2880468110236221
21
-3.6604627559055118
0
LINE
8
BLACK
6
CONTINUOUS
10
7.2880468110236221
20
-3.6604627559055118
11
7.2794128740157475
21
-3.6054463779527559
0
LINE
8
BLACK
6
CONTINUOUS
10
7.2794128740157475
20
-3.6054463779527559
11
7.2692255118110234
21
-3.5506964173228344
0
LINE
8
BLACK
6
CONTINUOUS
10
7.2692255118110234
20
-3.5506964173228344
11
7.2574928346456691
21
-3.4962566141732281
0
LINE
8
BLACK
6
CONTINUOUS
10
7.2574928346456691
20
-3.4962566141732281
11
7.2442242913385826
21
-3.4421706692913383
0
LINE
8
BLACK
6
CONTINUOUS
10
7.2442242913385826
20
-3.4421706692913383
11
7.2294304724409448
21
-3.3884818897637796
0
LINE
8
BLACK
6
CONTINUOUS
10
7.2294304724409448
20
-3.3884818897637796
11
7.2131232677165356
21
-3.3352332283464565
0
LINE
8
BLACK
6
CONTINUOUS
10
7.2131232677165356
20
-3.3352332283464565
11
7.1953156692913387
21
-3.2824674015748032
0
LINE
8
BLACK
6
CONTINUOUS
10
7.1953156692913387
20
-3.2824674015748032
11
7.1760220472440945
21
-3.2302266141732283
0
LINE
8
BLACK
6
CONTINUOUS
10
7.1760220472440945
20
-3.2302266141732283
11
7.15525779527559
21
-3.178552716535433
0
LINE
8
BLACK
6
CONTINUOUS
10
7.15525779527559
20
-3.178552716535433
11
7.1330395275590552
21
-3.1274871653543306
0
LINE
8
BLACK
6
CONTINUOUS
10
7.1330395275590552
20
-3.1274871653543306
11
7.1093850393700784
21
-3.0770707874015746
0
LINE
8
BLACK
6
CONTINUOUS
10
7.1093850393700784
20
-3.0770707874015746
11
7.0843133464566925
21
-3.0273440157480316
0
LINE
8
BLACK
6
CONTINUOUS
10
7.0843133464566925
20
-3.0273440157480316
11
7.0578444488188978
21
-2.9783466535433072
0
LINE
8
BLACK
6
CONTINUOUS
10
7.0578444488188978
20
-2.9783466535433072
11
7.0299996062992127
21
-2.9301179527559054
0
LINE
8
BLACK
6
CONTINUOUS
10
7.0299996062992127
20
-2.9301179527559054
11
7.0008010629921262
21
-2.8826965354330709
0
LINE
8
BLACK
6
CONTINUOUS
10
7.0008010629921262
20
-2.8826965354330709
11
6.970272283464567
21
-2.8361203937007873
0
LINE
8
BLACK
6
CONTINUOUS
10
6.970272283464567
20
-2.8361203937007873
11
6.9384376377952757
21
-2.7904268503937009
0
LINE
8
BLACK
6
CONTINUOUS
10
6.9384376377952757
20
-2.7904268503937009
11
6.905322677165354
21
-2.7456524803149605
0
LINE
8
BLACK
6
CONTINUOUS
10
6.905322677165354
20
-2.7456524803149605
11
6.870953937007874
21
-2.7018331496062991
0
LINE
8
BLACK
6
CONTINUOUS
10
6.870953937007874
20
-2.7018331496062991
11
6.8353589370078742
21
-2.6590039763779525
0
LINE
8
BLACK
6
CONTINUOUS
10
6.8353589370078742
20
-2.6590039763779525
11
6.7985661417322829
21
-2.6171992519685037
0
LINE
8
BLACK
6
CONTINUOUS
10
6.7985661417322829
20
-2.6171992519685037
11
6.7606050393700787
21
-2.5764524803149604
0
LINE
8
BLACK
6
CONTINUOUS
10
6.7606050393700787
20
-2.5764524803149604
11
6.7215061023622047
21
-2.5367962598425198
0
LINE
8
BLACK
6
CONTINUOUS
10
6.7215061023622047
20
-2.5367962598425198
11
6.6813005905511806
21
-2.4982623622047244
0
LINE
8
BLACK
6
CONTINUOUS
10
6.6813005905511806
20
-2.4982623622047244
11
6.6400206692913386
21
-2.4608816929133859
0
LINE
8
BLACK
6
CONTINUOUS
10
6.6400206692913386
20
-2.4608816929133859
11
6.5976994881889759
21
-2.4246841732283464
0
LINE
8
BLACK
6
CONTINUOUS
10
6.5976994881889759
20
-2.4246841732283464
11
6.5543709055118109
21
-2.389698779527559
0
LINE
8
BLACK
6
CONTINUOUS
10
6.5543709055118109
20
-2.389698779527559
11
6.510069645669291
21
-2.3559535433070864
0
LINE
8
BLACK
6
CONTINUOUS
10
6.510069645669291
20
-2.3559535433070864
11
6.464831141732283
21
-2.3234755118110235
0
LINE
8
BLACK
6
CONTINUOUS
10
6.464831141732283
20
-2.3234755118110235
11
6.4186916929133853
21
-2.2922906692913387
0
LINE
8
BLACK
6
CONTINUOUS
10
6.4186916929133853
20
-2.2922906692913387
11
6.3716881889763775
21
-2.2624240157480315
0
LINE
8
BLACK
6
CONTINUOUS
10
6.3716881889763775
20
-2.2624240157480315
11
6.3238583464566931
21
-2.2338994881889764
0
LINE
8
BLACK
6
CONTINUOUS
10
6.3238583464566931
20
-2.2338994881889764
11
6.2752404330708664
21
-2.2067398818897637
0
LINE
8
BLACK
6
CONTINUOUS
10
6.2752404330708664
20
-2.2067398818897637
11
6.2258734251968502
21
-2.1809670078740155
0
LINE
8
BLACK
6
CONTINUOUS
10
6.2258734251968502
20
-2.1809670078740155
11
6.1757968503937004
21
-2.1566014960629922
0
LINE
8
BLACK
6
CONTINUOUS
10
6.1757968503937004
20
-2.1566014960629922
11
6.1250507874015749
21
-2.1336628346456692
0
LINE
8
BLACK
6
CONTINUOUS
10
6.1250507874015749
20
-2.1336628346456692
11
6.073675905511811
21
-2.112169409448819
0
LINE
8
BLACK
6
CONTINUOUS
10
6.073675905511811
20
-2.112169409448819
11
6.0217133858267715
21
-2.0921384251968504
0
LINE
8
BLACK
6
CONTINUOUS
10
6.0217133858267715
20
-2.0921384251968504
11
5.9692048031496059
21
-2.0735859842519684
0
LINE
8
BLACK
6
CONTINUOUS
10
5.9692048031496059
20
-2.0735859842519684
11
5.9161922440944883
21
-2.0565268897637794
0
LINE
8
BLACK
6
CONTINUOUS
10
5.9161922440944883
20
-2.0565268897637794
11
5.8627181889763778
21
-2.0409748031496062
0
LINE
8
BLACK
6
CONTINUOUS
10
5.8627181889763778
20
-2.0409748031496062
11
5.8088253937007872
21
-2.0269422440944882
0
LINE
8
BLACK
6
CONTINUOUS
10
5.8088253937007872
20
-2.0269422440944882
11
5.7545571259842516
21
-2.0144403543307088
0
LINE
8
BLACK
6
CONTINUOUS
10
5.7545571259842516
20
-2.0144403543307088
11
5.6999567716535431
21
-2.0034792519685038
0
LINE
8
BLACK
6
CONTINUOUS
10
5.6999567716535431
20
-2.0034792519685038
11
5.6450681102362203
21
-1.9940676377952755
0
LINE
8
BLACK
6
CONTINUOUS
10
5.6450681102362203
20
-1.9940676377952755
11
5.5899350787401572
21
-1.9862130708661416
0
LINE
8
BLACK
6
CONTINUOUS
10
5.5899350787401572
20
-1.9862130708661416
11
5.5346018503937007
21
-1.9799218897637796
0
LINE
8
BLACK
6
CONTINUOUS
10
5.5346018503937007
20
-1.9799218897637796
11
5.47911279527559
21
-1.9751990551181102
0
LINE
8
BLACK
6
CONTINUOUS
10
5.47911279527559
20
-1.9751990551181102
11
5.423512283464567
21
-1.9720484251968504
0
LINE
8
BLACK
6
CONTINUOUS
10
5.423512283464567
20
-1.9720484251968504
11
5.367844842519685
21
-1.9704724409448819
0
LINE
8
BLACK
6
CONTINUOUS
10
5.367844842519685
20
-1.9704724409448819
11
5.3121551574803147
21
-1.9704724409448819
0
LINE
8
BLACK
6
CONTINUOUS
10
5.3121551574803147
20
-1.9704724409448819
11
5.2564877165354327
21
-1.9720484251968504
0
LINE
8
BLACK
6
CONTINUOUS
10
5.2564877165354327
20
-1.9720484251968504
11
5.2008872047244097
21
-1.9751990551181102
0
LINE
8
BLACK
6
CONTINUOUS
10
5.2008872047244097
20
-1.9751990551181102
11
5.145398149606299
21
-1.9799218897637796
0
LINE
8
BLACK
6
CONTINUOUS
10
5.145398149606299
20
-1.9799218897637796
11
5.0900649212598426
21
-1.9862130708661416
0
LINE
8
BLACK
6
CONTINUOUS
10
5.0900649212598426
20
-1.9862130708661416
11
5.0349318897637794
21
-1.9940676377952755
0
LINE
8
BLACK
6
CONTINUOUS
10
5.0349318897637794
20
-1.9940676377952755
11
4.9800432283464566
21
-2.0034792519685038
0
LINE
8
BLACK
6
CONTINUOUS
10
4.9800432283464566
20
-2.0034792519685038
11
4.9254428740157481
21
-2.0144403543307088
0
LINE
8
BLACK
6
CONTINUOUS
10
4.9254428740157481
20
-2.0144403543307088
11
4.8711746062992125
21
-2.0269422440944882
0
LINE
8
BLACK
6
CONTINUOUS
10
4.8711746062992125
20
-2.0269422440944882
11
4.817281811023622
21
-2.0409748031496062
0
LINE
8
BLACK
6
CONTINUOUS
10
4.817281811023622
20
-2.0409748031496062
11
4.7638077559055114
21
-2.0565268897637794
0
LINE
8
BLACK
6
CONTINUOUS
10
4.7638077559055114
20
-2.0565268897637794
11
4.7107951968503938
21
-2.0735859842519684
0
LINE
8
BLACK
6
CONTINUOUS
10
4.7107951968503938
20
-2.0735859842519684
11
4.6582866141732282
21
-2.0921384251968504
0
LINE
8
BLACK
6
CONTINUOUS
10
4.6582866141732282
20
-2.0921384251968504
11
4.6063240944881887
21
-2.112169409448819
0
LINE
8
BLACK
6
CONTINUOUS
10
4.6063240944881887
20
-2.112169409448819
11
4.5549492125984248
21
-2.1336628346456692
0
LINE
8
BLACK
6
CONTINUOUS
10
4.5549492125984248
20
-2.1336628346456692
11
4.5042031496062993
21
-2.1566014960629922
0
LINE
8
BLACK
6
CONTINUOUS
10
4.5042031496062993
20
-2.1566014960629922
11
4.4541265748031496
21
-2.1809670078740155
0
LINE
8
BLACK
6
CONTINUOUS
10
4.4541265748031496
20
-2.1809670078740155
11
4.4047595669291342
21
-2.2067398818897637
0
LINE
8
BLACK
6
CONTINUOUS
10
4.4047595669291342
20
-2.2067398818897637
11
4.3561416535433066
21
-2.2338994881889764
0
LINE
8
BLACK
6
CONTINUOUS
10
4.3561416535433066
20
-2.2338994881889764
11
4.3083118110236223
21
-2.2624240157480315
0
LINE
8
BLACK
6
CONTINUOUS
10
4.3083118110236223
20
-2.2624240157480315
11
4.2613083070866145
21
-2.2922906692913387
0
LINE
8
BLACK
6
CONTINUOUS
10
4.2613083070866145
20
-2.2922906692913387
11
4.2151688582677167
21
-2.3234755118110235
0
LINE
8
BLACK
6
CONTINUOUS
10
4.2151688582677167
20
-2.3234755118110235
11
4.1699303543307087
21
-2.3559535433070864
0
LINE
8
BLACK
6
CONTINUOUS
10
4.1699303543307087
20
-2.3559535433070864
11
4.1256290944881888
21
-2.389698779527559
0
LINE
8
BLACK
6
CONTINUOUS
10
4.1256290944881888
20
-2.389698779527559
11
4.0823005118110238
21
-2.4246841732283464
0
LINE
8
BLACK
6
CONTINUOUS
10
4.0823005118110238
20
-2.4246841732283464
11
4.0399793307086611
21
-2.4608816929133859
0
LINE
8
BLACK
6
CONTINUOUS
10
4.0399793307086611
20
-2.4608816929133859
11
3.9986994094488186
21
-2.4982623622047244
0
LINE
8
BLACK
6
CONTINUOUS
10
3.9986994094488186
20
-2.4982623622047244
11
3.958493897637795
21
-2.5367962598425198
0
LINE
8
BLACK
6
CONTINUOUS
10
3.958493897637795
20
-2.5367962598425198
11
3.919394960629921
21
-2.5764524803149604
0
LINE
8
BLACK
6
CONTINUOUS
10
3.919394960629921
20
-2.5764524803149604
11
3.8814338582677164
21
-2.6171992519685037
0
LINE
8
BLACK
6
CONTINUOUS
10
3.8814338582677164
20
-2.6171992519685037
11
3.8446410629921259
21
-2.6590039763779525
0
LINE
8
BLACK
6
CONTINUOUS
10
3.8446410629921259
20
-2.6590039763779525
11
3.8090460629921261
21
-2.7018331496062991
0
LINE
8
BLACK
6
CONTINUOUS
10
3.8090460629921261
20
-2.7018331496062991
11
3.7746773228346457
21
-2.7456524803149605
0
LINE
8
BLACK
6
CONTINUOUS
10
3.7746773228346457
20
-2.7456524803149605
11
3.7415623622047245
21
-2.7904268503937009
0
LINE
8
BLACK
6
CONTINUOUS
10
3.7415623622047245
20
-2.7904268503937009
11
3.7097277165354332
21
-2.8361203937007873
0
LINE
8
BLACK
6
CONTINUOUS
10
3.7097277165354332
20
-2.8361203937007873
11
3.6791989370078739
21
-2.8826965354330709
0
LINE
8
BLACK
6
CONTINUOUS
10
3.6791989370078739
20
-2.8826965354330709
11
3.6500003937007874
21
-2.9301179527559054
0
LINE
8
BLACK
6
CONTINUOUS
10
3.6500003937007874
20
-2.9301179527559054
11
3.6221555511811023
21
-2.9783466535433072
0
LINE
8
BLACK
6
CONTINUOUS
10
3.6221555511811023
20
-2.9783466535433072
11
3.5956866535433072
21
-3.0273440157480316
0
LINE
8
BLACK
6
CONTINUOUS
10
3.5956866535433072
20
-3.0273440157480316
11
3.5706149606299213
21
-3.0770707874015746
0
LINE
8
BLACK
6
CONTINUOUS
10
3.5706149606299213
20
-3.0770707874015746
11
3.5469604724409449
21
-3.1274871653543306
0
LINE
8
BLACK
6
CONTINUOUS
10
3.5469604724409449
20
-3.1274871653543306
11
3.5247422047244092
21
-3.178552716535433
0
LINE
8
BLACK
6
CONTINUOUS
10
3.5247422047244092
20
-3.178552716535433
11
3.5039779527559056
21
-3.2302266141732283
0
LINE
8
BLACK
6
CONTINUOUS
10
3.5039779527559056
20
-3.2302266141732283
11
3.4846843307086615
21
-3.2824674015748032
0
LINE
8
BLACK
6
CONTINUOUS
10
3.4846843307086615
20
-3.2824674015748032
11
3.4668767322834646
21
-3.3352332283464565
0
LINE
8
BLACK
6
CONTINUOUS
10
3.4668767322834646
20
-3.3352332283464565
11
3.4505695275590549
21
-3.3884818897637796
0
LINE
8
BLACK
6
CONTINUOUS
10
3.4505695275590549
20
-3.3884818897637796
11
3.4357757086614171
21
-3.4421706692913383
0
LINE
8
BLACK
6
CONTINUOUS
10
3.4357757086614171
20
-3.4421706692913383
11
3.4225071653543306
21
-3.4962566141732281
0
LINE
8
BLACK
6
CONTINUOUS
10
3.4225071653543306
20
-3.4962566141732281
11
3.4107744881889763
21
-3.5506964173228344
0
LINE
8
BLACK
6
CONTINUOUS
10
3.4107744881889763
20
-3.5506964173228344
11
3.4005871259842517
21
-3.6054463779527559
0
LINE
8
BLACK
6
CONTINUOUS
10
3.4005871259842517
20
-3.6054463779527559
11
3.3919531889763781
21
-3.6604627559055118
0
LINE
8
BLACK
6
CONTINUOUS
10
3.3919531889763781
20
-3.6604627559055118
11
3.3848796062992124
21
-3.7157013779527559
0
LINE
8
BLACK
6
CONTINUOUS
10
3.3848796062992124
20
-3.7157013779527559
11
3.3793720472440945
21
-3.7711181102362206
0
LINE
8
BLACK
6
CONTINUOUS
10
3.3793720472440945
20
-3.7711181102362206
11
3.3754349212598425
21
-3.8266684645669291
0
LINE
8
BLACK
6
CONTINUOUS
10
3.3754349212598425
20
-3.8266684645669291
11
3.3730713779527557
21
-3.882307992125984
0
LINE
8
BLACK
6
CONTINUOUS
10
3.3730713779527557
20
-3.882307992125984
11
3.3722833070866143
21
-3.9379921259842519
0
LINE
8
BLACK
6
CONTINUOUS
10
3.3722833070866143
20
-3.9379921259842519
11
3.3730713779527557
21
-3.9936762598425197
  0
ENDSEC
  0
EOF
