%TF.GenerationSoftware,KiCad,Pcbnew,8.0.2*%
%TF.CreationDate,2025-03-09T15:23:07+01:00*%
%TF.ProjectId,WRadioLogo,57526164-696f-44c6-9f67-6f2e6b696361,rev?*%
%TF.SameCoordinates,Original*%
%TF.FileFunction,Copper,L2,Bot*%
%TF.FilePolarity,Positive*%
%FSLAX46Y46*%
G04 Gerber Fmt 4.6, Leading zero omitted, Abs format (unit mm)*
G04 Created by KiCad (PCBNEW 8.0.2) date 2025-03-09 15:23:07*
%MOMM*%
%LPD*%
G01*
G04 APERTURE LIST*
G04 Aperture macros list*
%AMRoundRect*
0 Rectangle with rounded corners*
0 $1 Rounding radius*
0 $2 $3 $4 $5 $6 $7 $8 $9 X,Y pos of 4 corners*
0 Add a 4 corners polygon primitive as box body*
4,1,4,$2,$3,$4,$5,$6,$7,$8,$9,$2,$3,0*
0 Add four circle primitives for the rounded corners*
1,1,$1+$1,$2,$3*
1,1,$1+$1,$4,$5*
1,1,$1+$1,$6,$7*
1,1,$1+$1,$8,$9*
0 Add four rect primitives between the rounded corners*
20,1,$1+$1,$2,$3,$4,$5,0*
20,1,$1+$1,$4,$5,$6,$7,0*
20,1,$1+$1,$6,$7,$8,$9,0*
20,1,$1+$1,$8,$9,$2,$3,0*%
G04 Aperture macros list end*
%TA.AperFunction,ComponentPad*%
%ADD10O,0.900000X2.000000*%
%TD*%
%TA.AperFunction,ComponentPad*%
%ADD11O,0.900000X1.700000*%
%TD*%
%TA.AperFunction,ComponentPad*%
%ADD12R,1.700000X1.700000*%
%TD*%
%TA.AperFunction,ComponentPad*%
%ADD13O,1.700000X1.700000*%
%TD*%
%TA.AperFunction,SMDPad,CuDef*%
%ADD14RoundRect,0.250000X0.475000X-0.337500X0.475000X0.337500X-0.475000X0.337500X-0.475000X-0.337500X0*%
%TD*%
%TA.AperFunction,SMDPad,CuDef*%
%ADD15RoundRect,0.065100X-0.399900X0.589900X-0.399900X-0.589900X0.399900X-0.589900X0.399900X0.589900X0*%
%TD*%
%TA.AperFunction,SMDPad,CuDef*%
%ADD16RoundRect,0.314400X-1.305600X0.340600X-1.305600X-0.340600X1.305600X-0.340600X1.305600X0.340600X0*%
%TD*%
%TA.AperFunction,SMDPad,CuDef*%
%ADD17R,2.100000X1.400000*%
%TD*%
%TA.AperFunction,SMDPad,CuDef*%
%ADD18RoundRect,0.250000X0.337500X0.475000X-0.337500X0.475000X-0.337500X-0.475000X0.337500X-0.475000X0*%
%TD*%
%TA.AperFunction,SMDPad,CuDef*%
%ADD19RoundRect,0.250000X-0.450000X0.350000X-0.450000X-0.350000X0.450000X-0.350000X0.450000X0.350000X0*%
%TD*%
%TA.AperFunction,SMDPad,CuDef*%
%ADD20RoundRect,0.100000X0.637500X0.100000X-0.637500X0.100000X-0.637500X-0.100000X0.637500X-0.100000X0*%
%TD*%
%TA.AperFunction,SMDPad,CuDef*%
%ADD21R,0.730000X1.210000*%
%TD*%
%TA.AperFunction,SMDPad,CuDef*%
%ADD22RoundRect,0.250000X0.450000X-0.350000X0.450000X0.350000X-0.450000X0.350000X-0.450000X-0.350000X0*%
%TD*%
%TA.AperFunction,SMDPad,CuDef*%
%ADD23RoundRect,0.250000X0.350000X0.450000X-0.350000X0.450000X-0.350000X-0.450000X0.350000X-0.450000X0*%
%TD*%
%TA.AperFunction,ViaPad*%
%ADD24C,0.600000*%
%TD*%
%TA.AperFunction,Conductor*%
%ADD25C,0.200000*%
%TD*%
G04 APERTURE END LIST*
D10*
%TO.P,J1,S1,SHIELD*%
%TO.N,GND*%
X131720000Y-143796500D03*
%TO.P,J1,S2,SHIELD*%
X140370000Y-143796500D03*
D11*
%TO.P,J1,S3,SHIELD*%
X131720000Y-147966500D03*
%TO.P,J1,S4,SHIELD*%
X140370000Y-147966500D03*
%TD*%
D12*
%TO.P,J2,1,Pin_1*%
%TO.N,SWCLK*%
X117993000Y-143891000D03*
D13*
%TO.P,J2,2,Pin_2*%
%TO.N,SWDIO*%
X120533000Y-143891000D03*
%TO.P,J2,3,Pin_3*%
%TO.N,+3.3V*%
X123073000Y-143891000D03*
%TO.P,J2,4,Pin_4*%
%TO.N,GND*%
X125613000Y-143891000D03*
%TD*%
D12*
%TO.P,J3,1,Pin_1*%
%TO.N,GND*%
X146177000Y-143891000D03*
D13*
%TO.P,J3,2,Pin_2*%
%TO.N,DIN*%
X148717000Y-143891000D03*
%TO.P,J3,3,Pin_3*%
%TO.N,+5V*%
X151257000Y-143891000D03*
%TD*%
D14*
%TO.P,C1,1*%
%TO.N,+5V*%
X137668000Y-122957500D03*
%TO.P,C1,2*%
%TO.N,GND*%
X137668000Y-120882500D03*
%TD*%
%TO.P,C4,1*%
%TO.N,+3.3V*%
X133350000Y-122957500D03*
%TO.P,C4,2*%
%TO.N,GND*%
X133350000Y-120882500D03*
%TD*%
%TO.P,C5,1*%
%TO.N,RESET*%
X142228500Y-104182500D03*
%TO.P,C5,2*%
%TO.N,GND*%
X142228500Y-102107500D03*
%TD*%
%TO.P,C2,1*%
%TO.N,+5V*%
X139827000Y-122957500D03*
%TO.P,C2,2*%
%TO.N,GND*%
X139827000Y-120882500D03*
%TD*%
D15*
%TO.P,U2,1,GND/ADJ*%
%TO.N,GND*%
X134235000Y-124925000D03*
%TO.P,U2,2,VOUT*%
%TO.N,+3.3V*%
X136525000Y-124925000D03*
%TO.P,U2,3,VIN*%
%TO.N,+5V*%
X138815000Y-124925000D03*
D16*
%TO.P,U2,4*%
%TO.N,N/C*%
X136525000Y-131615000D03*
%TD*%
D17*
%TO.P,SW1,1,1*%
%TO.N,GND*%
X153868500Y-100874000D03*
X144768500Y-100874000D03*
%TO.P,SW1,2,2*%
%TO.N,RESET*%
X153868500Y-105374000D03*
X144768500Y-105374000D03*
%TD*%
D18*
%TO.P,C7,1*%
%TO.N,+5V*%
X139467500Y-135636000D03*
%TO.P,C7,2*%
%TO.N,GND*%
X137392500Y-135636000D03*
%TD*%
D17*
%TO.P,SW2,1,1*%
%TO.N,GND*%
X153880000Y-94052000D03*
X144780000Y-94052000D03*
%TO.P,SW2,2,2*%
%TO.N,BOOT*%
X153880000Y-98552000D03*
X144780000Y-98552000D03*
%TD*%
D19*
%TO.P,R2,1*%
%TO.N,+3.3V*%
X156337000Y-95393000D03*
%TO.P,R2,2*%
%TO.N,BOOT*%
X156337000Y-97393000D03*
%TD*%
D20*
%TO.P,U1,1,BOOT0*%
%TO.N,BOOT*%
X136720500Y-98294000D03*
%TO.P,U1,2,PF0*%
%TO.N,unconnected-(U1-PF0-Pad2)*%
X136720500Y-98944000D03*
%TO.P,U1,3,PF1*%
%TO.N,unconnected-(U1-PF1-Pad3)*%
X136720500Y-99594000D03*
%TO.P,U1,4,NRST*%
%TO.N,RESET*%
X136720500Y-100244000D03*
%TO.P,U1,5,VDDA*%
%TO.N,+3.3V*%
X136720500Y-100894000D03*
%TO.P,U1,6,PA0*%
%TO.N,DIN*%
X136720500Y-101544000D03*
%TO.P,U1,7,PA1*%
%TO.N,unconnected-(U1-PA1-Pad7)*%
X136720500Y-102194000D03*
%TO.P,U1,8,PA2*%
%TO.N,unconnected-(U1-PA2-Pad8)*%
X136720500Y-102844000D03*
%TO.P,U1,9,PA3*%
%TO.N,unconnected-(U1-PA3-Pad9)*%
X136720500Y-103494000D03*
%TO.P,U1,10,PA4*%
%TO.N,unconnected-(U1-PA4-Pad10)*%
X136720500Y-104144000D03*
%TO.P,U1,11,PA5*%
%TO.N,unconnected-(U1-PA5-Pad11)*%
X130995500Y-104144000D03*
%TO.P,U1,12,PA6*%
%TO.N,unconnected-(U1-PA6-Pad12)*%
X130995500Y-103494000D03*
%TO.P,U1,13,PA7*%
%TO.N,unconnected-(U1-PA7-Pad13)*%
X130995500Y-102844000D03*
%TO.P,U1,14,PB1*%
%TO.N,unconnected-(U1-PB1-Pad14)*%
X130995500Y-102194000D03*
%TO.P,U1,15,VSS*%
%TO.N,GND*%
X130995500Y-101544000D03*
%TO.P,U1,16,VDD*%
%TO.N,+3.3V*%
X130995500Y-100894000D03*
%TO.P,U1,17,PA9*%
%TO.N,unconnected-(U1-PA9-Pad17)*%
X130995500Y-100244000D03*
%TO.P,U1,18,PA10*%
%TO.N,unconnected-(U1-PA10-Pad18)*%
X130995500Y-99594000D03*
%TO.P,U1,19,PA13*%
%TO.N,SWDIO*%
X130995500Y-98944000D03*
%TO.P,U1,20,PA14*%
%TO.N,SWCLK*%
X130995500Y-98294000D03*
%TD*%
D14*
%TO.P,C3,1*%
%TO.N,+3.3V*%
X135509000Y-122957500D03*
%TO.P,C3,2*%
%TO.N,GND*%
X135509000Y-120882500D03*
%TD*%
D21*
%TO.P,D77,A*%
%TO.N,Net-(D77-PadA)*%
X139192000Y-140999000D03*
%TO.P,D77,C*%
%TO.N,+5V*%
X139192000Y-137639000D03*
%TD*%
D22*
%TO.P,R4,1*%
%TO.N,Net-(J1-CC2)*%
X136906000Y-140954000D03*
%TO.P,R4,2*%
%TO.N,GND*%
X136906000Y-138954000D03*
%TD*%
D19*
%TO.P,R1,1*%
%TO.N,+3.3V*%
X156452500Y-102145000D03*
%TO.P,R1,2*%
%TO.N,RESET*%
X156452500Y-104145000D03*
%TD*%
D23*
%TO.P,R3,1*%
%TO.N,Net-(J1-CC1)*%
X134731000Y-140843000D03*
%TO.P,R3,2*%
%TO.N,GND*%
X132731000Y-140843000D03*
%TD*%
D24*
%TO.N,+5V*%
X111898400Y-70976000D03*
X112511400Y-72984100D03*
%TO.N,+3.3V*%
X130180700Y-107949200D03*
X131798600Y-121457300D03*
%TO.N,GND*%
X129359900Y-101544000D03*
X140657000Y-93257300D03*
%TO.N,Net-(D26-DOUT)*%
X163497200Y-105456400D03*
X157734000Y-105776200D03*
%TO.N,Net-(D29-DOUT)*%
X169439300Y-118238300D03*
X123444000Y-57989800D03*
%TO.N,Net-(D37-DOUT)*%
X105820300Y-69869800D03*
X119073000Y-69869800D03*
%TO.N,DIN*%
X125608900Y-110360400D03*
X95886000Y-84137400D03*
%TO.N,Net-(J1-CC1)*%
X134795000Y-144292200D03*
%TO.N,Net-(D44-DOUT)*%
X113411100Y-78067700D03*
X162306000Y-75692000D03*
%TO.N,Net-(D47-DOUT)*%
X122556000Y-94563700D03*
X134184500Y-89920600D03*
%TO.N,Net-(D49-DOUT)*%
X146279100Y-118082200D03*
X119759700Y-116954100D03*
%TO.N,Net-(D51-DOUT)*%
X151286200Y-108113100D03*
X173512000Y-89602900D03*
%TO.N,Net-(D53-DOUT)*%
X129232300Y-113832200D03*
X114874300Y-89560900D03*
X128995500Y-95165400D03*
X150678000Y-118233200D03*
%TO.N,Net-(D55-DOUT)*%
X100113950Y-119036950D03*
X173583400Y-104936400D03*
%TO.N,Net-(D57-DOUT)*%
X93193700Y-114217800D03*
X123409000Y-127604200D03*
%TO.N,Net-(D59-DOUT)*%
X91717600Y-113452600D03*
X180364475Y-95450425D03*
%TO.N,Net-(D61-DOUT)*%
X173718900Y-116184500D03*
X110870300Y-127002500D03*
%TO.N,Net-(D63-DOUT)*%
X111100900Y-99025600D03*
X152682900Y-96006800D03*
%TO.N,Net-(D65-DOUT)*%
X137630800Y-89903900D03*
X161297800Y-100642600D03*
%TO.N,Net-(D46-DOUT)*%
X89671300Y-104902000D03*
X122302300Y-109833100D03*
%TO.N,Net-(J1-CC2)*%
X137795000Y-141935800D03*
%TO.N,SWDIO*%
X124786400Y-104716500D03*
%TO.N,SWCLK*%
X122495400Y-104174800D03*
%TO.N,Net-(D50-DOUT)*%
X148222800Y-111413900D03*
X179690950Y-97013950D03*
%TO.N,Net-(D54-DOUT)*%
X107941600Y-89523100D03*
X180984600Y-97093800D03*
%TO.N,Net-(D58-DOUT)*%
X100727100Y-126309500D03*
X119126000Y-129387700D03*
%TO.N,Net-(D60-DOUT)*%
X113824600Y-122010300D03*
X172212000Y-108458000D03*
%TO.N,Net-(D62-DOUT)*%
X172767143Y-101466328D03*
X158349700Y-92202000D03*
%TO.N,Net-(D64-DOUT)*%
X102012800Y-126904800D03*
X173373815Y-106356585D03*
%TO.N,Net-(D69-DIN)*%
X143655700Y-123096600D03*
X116482000Y-133917800D03*
%TO.N,Net-(D71-DOUT)*%
X120394700Y-136779000D03*
X128961300Y-129157500D03*
%TO.N,Net-(D72-DIN)*%
X138266000Y-130441200D03*
X125603000Y-135128000D03*
%TO.N,Net-(D77-PadA)*%
X138106000Y-140970000D03*
%TD*%
D25*
%TO.N,+5V*%
X150749000Y-143383000D02*
X150749000Y-143002000D01*
X138815000Y-124104500D02*
X138815000Y-124925000D01*
X112511400Y-71589000D02*
X111898400Y-70976000D01*
X138747500Y-124037000D02*
X138815000Y-124104500D01*
X145386000Y-137639000D02*
X139467500Y-137639000D01*
X139467500Y-137639000D02*
X139467500Y-135636000D01*
X150749000Y-143002000D02*
X145386000Y-137639000D01*
X139467500Y-125577500D02*
X138815000Y-124925000D01*
X151257000Y-143891000D02*
X150749000Y-143383000D01*
X137668000Y-122957500D02*
X138747500Y-124037000D01*
X112511400Y-72984100D02*
X112511400Y-71589000D01*
X139827000Y-122957500D02*
X138747500Y-124037000D01*
X139467500Y-135636000D02*
X139467500Y-125577500D01*
X139467500Y-137639000D02*
X139192000Y-137639000D01*
%TO.N,+3.3V*%
X157861000Y-102997000D02*
X157009000Y-102145000D01*
X135509000Y-123909000D02*
X136138500Y-124538500D01*
X135472600Y-104660700D02*
X134470900Y-103659000D01*
X137778700Y-101275100D02*
X137397600Y-100894000D01*
X157861000Y-104775000D02*
X157861000Y-102997000D01*
X133587000Y-125921200D02*
X133661600Y-125921200D01*
X131705900Y-100894000D02*
X130995500Y-100894000D01*
X135509000Y-122957500D02*
X135509000Y-123909000D01*
X156538700Y-95393000D02*
X157753500Y-96607800D01*
X134470900Y-103659000D02*
X130180700Y-107949200D01*
X136138500Y-124538500D02*
X136525000Y-124925000D01*
X123073000Y-143891000D02*
X123073000Y-136435200D01*
X123073000Y-136435200D02*
X133587000Y-125921200D01*
X134755800Y-125921200D02*
X133661600Y-125921200D01*
X134470900Y-103659000D02*
X131705900Y-100894000D01*
X137778700Y-104438900D02*
X137778700Y-101275100D01*
X156337000Y-95393000D02*
X156538700Y-95393000D01*
X133298800Y-122957500D02*
X133350000Y-122957500D01*
X133587000Y-125921200D02*
X133350000Y-125684200D01*
X136138500Y-124538500D02*
X134755800Y-125921200D01*
X137778700Y-104438900D02*
X139741000Y-106401200D01*
X157009000Y-102145000D02*
X156452500Y-102145000D01*
X139741000Y-106401200D02*
X156234800Y-106401200D01*
X137778700Y-104438900D02*
X137556900Y-104660700D01*
X157753500Y-100844000D02*
X156452500Y-102145000D01*
X137556900Y-104660700D02*
X135472600Y-104660700D01*
X133350000Y-125684200D02*
X133350000Y-122957500D01*
X131798600Y-121457300D02*
X133298800Y-122957500D01*
X137397600Y-100894000D02*
X136720500Y-100894000D01*
X156234800Y-106401200D02*
X157861000Y-104775000D01*
X157753500Y-96607800D02*
X157753500Y-100844000D01*
%TO.N,GND*%
X136923300Y-123916300D02*
X137035000Y-123916300D01*
X142240000Y-94703700D02*
X142776600Y-94703700D01*
X157345800Y-96793700D02*
X157345800Y-98748400D01*
X134620000Y-138954000D02*
X136906000Y-138954000D01*
X153299300Y-100874000D02*
X153868500Y-100874000D01*
X137392500Y-138954000D02*
X137392500Y-135636000D01*
X142776600Y-94703700D02*
X143428300Y-94052000D01*
X144279900Y-143145600D02*
X145025300Y-143891000D01*
X140370000Y-143145600D02*
X140370000Y-142494800D01*
X127971900Y-145098200D02*
X126764700Y-143891000D01*
X138591100Y-138954000D02*
X140370000Y-140732900D01*
X140370000Y-143796500D02*
X140370000Y-143145600D01*
X137811600Y-125647700D02*
X138867900Y-126704000D01*
X157345800Y-98748400D02*
X155220200Y-100874000D01*
X125613000Y-143891000D02*
X126764700Y-143891000D01*
X131720000Y-145098200D02*
X127971900Y-145098200D01*
X152516800Y-100874000D02*
X144768500Y-100874000D01*
X140370000Y-143145600D02*
X144279900Y-143145600D01*
X153880000Y-94052000D02*
X155231700Y-94052000D01*
X153868500Y-100874000D02*
X155220200Y-100874000D01*
X136588500Y-121962000D02*
X136588500Y-123581500D01*
X132731000Y-140843000D02*
X134620000Y-138954000D01*
X131720000Y-143796500D02*
X131720000Y-145098200D01*
X134429500Y-120882500D02*
X134429500Y-124730500D01*
X155231700Y-94052000D02*
X155231700Y-95892300D01*
X139827000Y-120882500D02*
X137668000Y-120882500D01*
X157042400Y-96490300D02*
X157345800Y-96793700D01*
X140370000Y-140732900D02*
X140370000Y-142494800D01*
X143416800Y-100874000D02*
X143416800Y-100919200D01*
X155231700Y-95892300D02*
X155829700Y-96490300D01*
X134429500Y-120882500D02*
X133350000Y-120882500D01*
X153299300Y-100874000D02*
X152516800Y-100874000D01*
X143416800Y-100919200D02*
X142228500Y-102107500D01*
X136588500Y-123581500D02*
X136923300Y-123916300D01*
X155829700Y-96490300D02*
X157042400Y-96490300D01*
X144780000Y-94052000D02*
X143428300Y-94052000D01*
X134429500Y-124730500D02*
X134235000Y-124925000D01*
X137811600Y-124692900D02*
X137811600Y-125647700D01*
X137392500Y-138954000D02*
X136906000Y-138954000D01*
X137035000Y-123916300D02*
X137811600Y-124692900D01*
X138867900Y-134160600D02*
X137392500Y-135636000D01*
X146177000Y-143891000D02*
X145025300Y-143891000D01*
X135509000Y-120882500D02*
X134429500Y-120882500D01*
X136588500Y-121962000D02*
X137668000Y-120882500D01*
X131720000Y-147966500D02*
X131720000Y-146814800D01*
X140793600Y-93257300D02*
X140657000Y-93257300D01*
X131720000Y-145098200D02*
X131720000Y-146814800D01*
X130995500Y-101544000D02*
X129359900Y-101544000D01*
X142240000Y-94703700D02*
X140793600Y-93257300D01*
X131720000Y-141854000D02*
X132731000Y-140843000D01*
X144768500Y-100874000D02*
X143416800Y-100874000D01*
X153880000Y-94052000D02*
X144780000Y-94052000D01*
X138867900Y-126704000D02*
X138867900Y-134160600D01*
X131720000Y-143796500D02*
X131720000Y-141854000D01*
X137392500Y-138954000D02*
X138591100Y-138954000D01*
X136588500Y-121962000D02*
X135509000Y-120882500D01*
%TO.N,Net-(D26-DOUT)*%
X163177400Y-105776200D02*
X163497200Y-105456400D01*
X157734000Y-105776200D02*
X163177400Y-105776200D01*
%TO.N,Net-(D29-DOUT)*%
X145938700Y-57989800D02*
X181595300Y-93646400D01*
X181595300Y-106082300D02*
X169439300Y-118238300D01*
X181595300Y-93646400D02*
X181595300Y-106082300D01*
X123444000Y-57989800D02*
X145938700Y-57989800D01*
%TO.N,Net-(D37-DOUT)*%
X105820300Y-69869800D02*
X119073000Y-69869800D01*
%TO.N,RESET*%
X143416800Y-105370800D02*
X142228500Y-104182500D01*
X153868500Y-105374000D02*
X155220200Y-105374000D01*
X153868500Y-105374000D02*
X144768500Y-105374000D01*
X136720500Y-100244000D02*
X138290000Y-100244000D01*
X138290000Y-100244000D02*
X142228500Y-104182500D01*
X156452500Y-104145000D02*
X156449200Y-104145000D01*
X156449200Y-104145000D02*
X155220200Y-105374000D01*
X143416800Y-105374000D02*
X143416800Y-105370800D01*
X144768500Y-105374000D02*
X143416800Y-105374000D01*
%TO.N,BOOT*%
X153880000Y-98552000D02*
X155231700Y-98552000D01*
X136720500Y-98294000D02*
X144522000Y-98294000D01*
X144522000Y-98294000D02*
X144780000Y-98552000D01*
X144780000Y-98552000D02*
X153880000Y-98552000D01*
X155231700Y-98498300D02*
X156337000Y-97393000D01*
X155231700Y-98552000D02*
X155231700Y-98498300D01*
%TO.N,DIN*%
X121569900Y-104197200D02*
X127984200Y-97782900D01*
X121569900Y-104197200D02*
X125608900Y-108236200D01*
X125608900Y-108236200D02*
X125608900Y-110360400D01*
X132294800Y-97782900D02*
X136055900Y-101544000D01*
X115421700Y-104197200D02*
X121569900Y-104197200D01*
X127984200Y-97782900D02*
X132294800Y-97782900D01*
X136055900Y-101544000D02*
X136720500Y-101544000D01*
X95886000Y-84137400D02*
X95886000Y-84661500D01*
X95886000Y-84661500D02*
X115421700Y-104197200D01*
%TO.N,Net-(J1-CC1)*%
X134731000Y-140843000D02*
X134795000Y-140907000D01*
X134795000Y-140907000D02*
X134795000Y-144292200D01*
%TO.N,Net-(D44-DOUT)*%
X159930300Y-78067700D02*
X113411100Y-78067700D01*
X162306000Y-75692000D02*
X159930300Y-78067700D01*
%TO.N,Net-(D47-DOUT)*%
X127199000Y-89920700D02*
X134184500Y-89920700D01*
X134184500Y-89920700D02*
X134184500Y-89920600D01*
X122556000Y-94563700D02*
X127199000Y-89920700D01*
%TO.N,Net-(D49-DOUT)*%
X145151000Y-116954100D02*
X119759700Y-116954100D01*
X146279100Y-118082200D02*
X145151000Y-116954100D01*
%TO.N,Net-(D51-DOUT)*%
X166968900Y-108113100D02*
X151286200Y-108113100D01*
X173512000Y-89602900D02*
X173512000Y-101570000D01*
X173512000Y-101570000D02*
X166968900Y-108113100D01*
%TO.N,Net-(D53-DOUT)*%
X129232300Y-113832200D02*
X146277000Y-113832200D01*
X146277000Y-113832200D02*
X150678000Y-118233200D01*
X120478800Y-95165400D02*
X128995500Y-95165400D01*
X114874300Y-89560900D02*
X120478800Y-95165400D01*
%TO.N,Net-(D55-DOUT)*%
X100113950Y-119036950D02*
X106736800Y-112414100D01*
X166105700Y-112414100D02*
X173583400Y-104936400D01*
X106736800Y-112414100D02*
X166105700Y-112414100D01*
%TO.N,Net-(D57-DOUT)*%
X123409000Y-127604200D02*
X122235200Y-128778000D01*
X101376800Y-127157800D02*
X101376800Y-122400900D01*
X101376800Y-122400900D02*
X93193700Y-114217800D01*
X122235200Y-128778000D02*
X102997000Y-128778000D01*
X102997000Y-128778000D02*
X101376800Y-127157800D01*
%TO.N,Net-(D59-DOUT)*%
X165205500Y-110609400D02*
X145846400Y-110609400D01*
X94208100Y-110962100D02*
X91717600Y-113452600D01*
X145846400Y-110609400D02*
X145493700Y-110962100D01*
X145493700Y-110962100D02*
X94208100Y-110962100D01*
X180364475Y-95450425D02*
X165205500Y-110609400D01*
%TO.N,Net-(D61-DOUT)*%
X171034500Y-118868900D02*
X173718900Y-116184500D01*
X110870300Y-127002500D02*
X119003900Y-118868900D01*
X119003900Y-118868900D02*
X171034500Y-118868900D01*
%TO.N,Net-(D63-DOUT)*%
X111100900Y-99025600D02*
X113733500Y-96393000D01*
X152296700Y-96393000D02*
X152682900Y-96006800D01*
X113733500Y-96393000D02*
X152296700Y-96393000D01*
%TO.N,Net-(D65-DOUT)*%
X161297800Y-98748800D02*
X161297800Y-100642600D01*
X152452900Y-89903900D02*
X161297800Y-98748800D01*
X137630800Y-89903900D02*
X152452900Y-89903900D01*
%TO.N,Net-(D46-DOUT)*%
X94959000Y-109833100D02*
X122302300Y-109833100D01*
X90027900Y-104902000D02*
X94959000Y-109833100D01*
X89671300Y-104902000D02*
X90027900Y-104902000D01*
%TO.N,Net-(J1-CC2)*%
X136906000Y-140954000D02*
X137794900Y-141842900D01*
X137794900Y-141935800D02*
X137795000Y-141935800D01*
X137794900Y-141842900D02*
X137794900Y-141935800D01*
%TO.N,SWDIO*%
X130995500Y-98944000D02*
X130298100Y-98944000D01*
X124786400Y-104455700D02*
X124786400Y-104716500D01*
X130298100Y-98944000D02*
X124786400Y-104455700D01*
%TO.N,SWCLK*%
X128376200Y-98294000D02*
X122495400Y-104174800D01*
X130995500Y-98294000D02*
X128376200Y-98294000D01*
%TO.N,Net-(D50-DOUT)*%
X179690950Y-97013950D02*
X165291000Y-111413900D01*
X165291000Y-111413900D02*
X148222800Y-111413900D01*
%TO.N,Net-(D54-DOUT)*%
X175825600Y-88957600D02*
X180984600Y-94116600D01*
X180984600Y-94116600D02*
X180984600Y-97093800D01*
X107941600Y-89523100D02*
X108507100Y-88957600D01*
X108507100Y-88957600D02*
X175825600Y-88957600D01*
%TO.N,Net-(D58-DOUT)*%
X100727100Y-128159100D02*
X100727100Y-126309500D01*
X119126000Y-129387700D02*
X101955700Y-129387700D01*
X101955700Y-129387700D02*
X100727100Y-128159100D01*
%TO.N,Net-(D60-DOUT)*%
X172119700Y-108458000D02*
X167347200Y-113230500D01*
X122604400Y-113230500D02*
X113824600Y-122010300D01*
X172212000Y-108458000D02*
X172119700Y-108458000D01*
X167347200Y-113230500D02*
X122604400Y-113230500D01*
%TO.N,Net-(D62-DOUT)*%
X158349700Y-92202000D02*
X158885500Y-92737800D01*
X172767143Y-101344543D02*
X172767143Y-101466328D01*
X164160400Y-92737800D02*
X172767143Y-101344543D01*
X158885500Y-92737800D02*
X164160400Y-92737800D01*
%TO.N,Net-(D64-DOUT)*%
X173373815Y-106356585D02*
X173368715Y-106356585D01*
X116088800Y-112828800D02*
X102012800Y-126904800D01*
X173368715Y-106356585D02*
X166896500Y-112828800D01*
X166896500Y-112828800D02*
X116088800Y-112828800D01*
%TO.N,Net-(D69-DIN)*%
X143655700Y-123096600D02*
X140528500Y-119969400D01*
X132435700Y-119969400D02*
X131196900Y-121208200D01*
X140528500Y-119969400D02*
X132435700Y-119969400D01*
X131196900Y-121248600D02*
X118527700Y-133917800D01*
X118527700Y-133917800D02*
X116482000Y-133917800D01*
X131196900Y-121208200D02*
X131196900Y-121248600D01*
%TO.N,Net-(D71-DOUT)*%
X128961300Y-129157500D02*
X128016200Y-129157500D01*
X128016200Y-129157500D02*
X120394700Y-136779000D01*
%TO.N,Net-(D72-DIN)*%
X130548900Y-130441200D02*
X138266000Y-130441200D01*
X125862100Y-135128000D02*
X130548900Y-130441200D01*
X125603000Y-135128000D02*
X125862100Y-135128000D01*
%TO.N,Net-(D77-PadA)*%
X138135000Y-140999000D02*
X139192000Y-140999000D01*
X138106000Y-140970000D02*
X138135000Y-140999000D01*
%TD*%
%TA.AperFunction,Conductor*%
%TO.N,GND*%
G36*
X137808390Y-124065184D02*
G01*
X137854145Y-124117988D01*
X137864290Y-124185684D01*
X137849501Y-124298016D01*
X137849500Y-124298032D01*
X137849500Y-125551981D01*
X137864058Y-125662550D01*
X137864059Y-125662554D01*
X137921047Y-125800138D01*
X137921048Y-125800140D01*
X137921049Y-125800141D01*
X138011709Y-125918291D01*
X138129859Y-126008951D01*
X138267449Y-126065942D01*
X138378026Y-126080500D01*
X138743000Y-126080500D01*
X138810039Y-126100185D01*
X138855794Y-126152989D01*
X138867000Y-126204500D01*
X138867000Y-129649063D01*
X138847315Y-129716102D01*
X138794511Y-129761857D01*
X138725353Y-129771801D01*
X138677029Y-129754057D01*
X138615525Y-129715412D01*
X138445254Y-129655831D01*
X138445249Y-129655830D01*
X138266004Y-129635635D01*
X138265996Y-129635635D01*
X138086750Y-129655830D01*
X138086745Y-129655831D01*
X137916476Y-129715411D01*
X137763736Y-129811385D01*
X137760903Y-129813645D01*
X137758724Y-129814534D01*
X137757842Y-129815089D01*
X137757744Y-129814934D01*
X137696217Y-129840055D01*
X137683588Y-129840700D01*
X130816097Y-129840700D01*
X130749058Y-129821015D01*
X130703303Y-129768211D01*
X130693359Y-129699053D01*
X130722384Y-129635497D01*
X130728416Y-129629019D01*
X133799416Y-126558019D01*
X133860739Y-126524534D01*
X133887097Y-126521700D01*
X134669131Y-126521700D01*
X134669147Y-126521701D01*
X134676743Y-126521701D01*
X134834854Y-126521701D01*
X134834857Y-126521701D01*
X134987585Y-126480777D01*
X135037704Y-126451839D01*
X135124516Y-126401720D01*
X135236320Y-126289916D01*
X135236320Y-126289914D01*
X135246528Y-126279707D01*
X135246530Y-126279704D01*
X135580444Y-125945789D01*
X135641765Y-125912306D01*
X135711457Y-125917290D01*
X135743609Y-125935096D01*
X135839858Y-126008950D01*
X135839860Y-126008952D01*
X135926619Y-126044888D01*
X135977449Y-126065942D01*
X136088026Y-126080500D01*
X136088033Y-126080500D01*
X136961967Y-126080500D01*
X136961974Y-126080500D01*
X137072551Y-126065942D01*
X137210141Y-126008951D01*
X137328291Y-125918291D01*
X137418951Y-125800141D01*
X137475942Y-125662551D01*
X137490500Y-125551974D01*
X137490500Y-124298026D01*
X137475942Y-124187449D01*
X137475710Y-124185684D01*
X137486476Y-124116649D01*
X137532855Y-124064393D01*
X137598649Y-124045499D01*
X137741351Y-124045499D01*
X137808390Y-124065184D01*
G37*
%TD.AperFunction*%
%TA.AperFunction,Conductor*%
G36*
X140020039Y-120652185D02*
G01*
X140065794Y-120704989D01*
X140077000Y-120756500D01*
X140077000Y-121008500D01*
X140057315Y-121075539D01*
X140004511Y-121121294D01*
X139953000Y-121132500D01*
X133224000Y-121132500D01*
X133156961Y-121112815D01*
X133111206Y-121060011D01*
X133100000Y-121008500D01*
X133100000Y-120756500D01*
X133119685Y-120689461D01*
X133172489Y-120643706D01*
X133224000Y-120632500D01*
X139953000Y-120632500D01*
X140020039Y-120652185D01*
G37*
%TD.AperFunction*%
%TA.AperFunction,Conductor*%
G36*
X172657613Y-89577785D02*
G01*
X172703368Y-89630589D01*
X172713794Y-89668217D01*
X172726630Y-89782149D01*
X172726631Y-89782154D01*
X172786211Y-89952423D01*
X172832042Y-90025362D01*
X172878849Y-90099855D01*
X172882185Y-90105163D01*
X172884445Y-90107997D01*
X172885334Y-90110175D01*
X172885889Y-90111058D01*
X172885734Y-90111155D01*
X172910855Y-90172683D01*
X172911500Y-90185312D01*
X172911500Y-100340302D01*
X172891815Y-100407341D01*
X172839011Y-100453096D01*
X172769853Y-100463040D01*
X172706297Y-100434015D01*
X172699819Y-100427983D01*
X164647990Y-92376155D01*
X164647988Y-92376152D01*
X164529117Y-92257281D01*
X164529116Y-92257280D01*
X164442304Y-92207160D01*
X164442304Y-92207159D01*
X164442300Y-92207158D01*
X164392185Y-92178223D01*
X164239457Y-92137299D01*
X164081343Y-92137299D01*
X164073747Y-92137299D01*
X164073731Y-92137300D01*
X159258789Y-92137300D01*
X159191750Y-92117615D01*
X159145995Y-92064811D01*
X159135569Y-92027186D01*
X159135243Y-92024299D01*
X159135068Y-92022745D01*
X159075489Y-91852478D01*
X158979516Y-91699738D01*
X158851962Y-91572184D01*
X158840561Y-91565020D01*
X158699223Y-91476211D01*
X158528954Y-91416631D01*
X158528949Y-91416630D01*
X158349704Y-91396435D01*
X158349696Y-91396435D01*
X158170450Y-91416630D01*
X158170445Y-91416631D01*
X158000176Y-91476211D01*
X157847437Y-91572184D01*
X157719884Y-91699737D01*
X157623911Y-91852476D01*
X157564331Y-92022745D01*
X157564330Y-92022750D01*
X157544135Y-92201996D01*
X157544135Y-92202003D01*
X157564330Y-92381249D01*
X157564331Y-92381254D01*
X157623911Y-92551523D01*
X157679706Y-92640319D01*
X157719884Y-92704262D01*
X157847438Y-92831816D01*
X158000178Y-92927789D01*
X158170445Y-92987368D01*
X158257369Y-92997161D01*
X158321780Y-93024226D01*
X158331163Y-93032698D01*
X158516784Y-93218320D01*
X158516786Y-93218321D01*
X158516790Y-93218324D01*
X158562337Y-93244620D01*
X158653716Y-93297377D01*
X158806443Y-93338301D01*
X158806445Y-93338301D01*
X158972154Y-93338301D01*
X158972170Y-93338300D01*
X163860303Y-93338300D01*
X163927342Y-93357985D01*
X163947984Y-93374619D01*
X171927263Y-101353898D01*
X171960748Y-101415221D01*
X171962802Y-101455463D01*
X171961578Y-101466326D01*
X171961578Y-101466331D01*
X171981773Y-101645577D01*
X171981774Y-101645582D01*
X172041354Y-101815851D01*
X172133663Y-101962759D01*
X172152663Y-102029996D01*
X172132295Y-102096831D01*
X172116350Y-102116412D01*
X166756484Y-107476281D01*
X166695161Y-107509766D01*
X166668803Y-107512600D01*
X151868612Y-107512600D01*
X151801573Y-107492915D01*
X151791297Y-107485545D01*
X151788463Y-107483285D01*
X151788462Y-107483284D01*
X151730616Y-107446937D01*
X151635723Y-107387311D01*
X151465454Y-107327731D01*
X151465449Y-107327730D01*
X151286204Y-107307535D01*
X151286196Y-107307535D01*
X151106950Y-107327730D01*
X151106945Y-107327731D01*
X150936676Y-107387311D01*
X150783937Y-107483284D01*
X150656384Y-107610837D01*
X150560411Y-107763576D01*
X150500831Y-107933845D01*
X150500830Y-107933850D01*
X150480635Y-108113096D01*
X150480635Y-108113103D01*
X150500830Y-108292349D01*
X150500831Y-108292354D01*
X150560411Y-108462623D01*
X150633546Y-108579016D01*
X150656384Y-108615362D01*
X150783938Y-108742916D01*
X150936678Y-108838889D01*
X151106945Y-108898468D01*
X151106950Y-108898469D01*
X151286196Y-108918665D01*
X151286200Y-108918665D01*
X151286204Y-108918665D01*
X151465449Y-108898469D01*
X151465452Y-108898468D01*
X151465455Y-108898468D01*
X151635722Y-108838889D01*
X151788462Y-108742916D01*
X151788467Y-108742910D01*
X151791297Y-108740655D01*
X151793475Y-108739765D01*
X151794358Y-108739211D01*
X151794455Y-108739365D01*
X151855983Y-108714245D01*
X151868612Y-108713600D01*
X165952703Y-108713600D01*
X166019742Y-108733285D01*
X166065497Y-108786089D01*
X166075441Y-108855247D01*
X166046416Y-108918803D01*
X166040384Y-108925281D01*
X164993084Y-109972581D01*
X164931761Y-110006066D01*
X164905403Y-110008900D01*
X145767343Y-110008900D01*
X145614613Y-110049823D01*
X145588529Y-110064884D01*
X145588528Y-110064884D01*
X145477687Y-110128877D01*
X145477682Y-110128881D01*
X145281283Y-110325281D01*
X145219960Y-110358766D01*
X145193602Y-110361600D01*
X126525414Y-110361600D01*
X126458375Y-110341915D01*
X126412620Y-110289111D01*
X126402194Y-110251484D01*
X126394269Y-110181149D01*
X126394268Y-110181145D01*
X126334689Y-110010878D01*
X126331665Y-110006066D01*
X126301545Y-109958130D01*
X126238716Y-109858138D01*
X126238714Y-109858136D01*
X126238713Y-109858134D01*
X126236450Y-109855296D01*
X126235559Y-109853115D01*
X126235011Y-109852242D01*
X126235164Y-109852145D01*
X126210044Y-109790609D01*
X126209400Y-109777987D01*
X126209400Y-108325260D01*
X126209401Y-108325247D01*
X126209401Y-108157144D01*
X126201714Y-108128455D01*
X126168477Y-108004416D01*
X126140373Y-107955738D01*
X126089424Y-107867490D01*
X126089418Y-107867482D01*
X124598636Y-106376700D01*
X123099786Y-104877851D01*
X123066302Y-104816529D01*
X123071286Y-104746837D01*
X123099784Y-104702492D01*
X123125216Y-104677062D01*
X123221189Y-104524322D01*
X123280768Y-104354055D01*
X123290561Y-104267129D01*
X123317626Y-104202718D01*
X123326090Y-104193343D01*
X128588616Y-98930819D01*
X128649939Y-98897334D01*
X128676297Y-98894500D01*
X129199003Y-98894500D01*
X129266042Y-98914185D01*
X129311797Y-98966989D01*
X129321741Y-99036147D01*
X129292716Y-99099703D01*
X129286684Y-99106180D01*
X126848864Y-101544000D01*
X124417686Y-103975178D01*
X124417682Y-103975180D01*
X124417683Y-103975181D01*
X124353320Y-104039542D01*
X124331614Y-104056851D01*
X124284142Y-104086680D01*
X124284135Y-104086686D01*
X124156584Y-104214237D01*
X124060611Y-104366976D01*
X124001031Y-104537245D01*
X124001030Y-104537250D01*
X123980835Y-104716496D01*
X123980835Y-104716500D01*
X124001030Y-104895749D01*
X124001031Y-104895754D01*
X124060611Y-105066023D01*
X124109429Y-105143716D01*
X124156584Y-105218762D01*
X124284138Y-105346316D01*
X124374480Y-105403082D01*
X124431105Y-105438662D01*
X124436878Y-105442289D01*
X124607145Y-105501868D01*
X124607150Y-105501869D01*
X124786396Y-105522065D01*
X124786400Y-105522065D01*
X124786404Y-105522065D01*
X124965649Y-105501869D01*
X124965652Y-105501868D01*
X124965655Y-105501868D01*
X125135922Y-105442289D01*
X125288662Y-105346316D01*
X125416216Y-105218762D01*
X125512189Y-105066022D01*
X125571768Y-104895755D01*
X125576467Y-104854056D01*
X125591965Y-104716500D01*
X125591965Y-104716496D01*
X125576664Y-104580694D01*
X125588719Y-104511873D01*
X125612200Y-104479133D01*
X129563001Y-100528332D01*
X129624322Y-100494849D01*
X129694014Y-100499833D01*
X129749947Y-100541705D01*
X129774364Y-100607169D01*
X129773619Y-100632200D01*
X129757500Y-100754638D01*
X129757500Y-101033363D01*
X129772953Y-101150753D01*
X129772955Y-101150758D01*
X129772956Y-101150762D01*
X129777806Y-101162470D01*
X129781837Y-101172203D01*
X129789304Y-101241673D01*
X129781838Y-101267103D01*
X129773443Y-101287370D01*
X129765987Y-101344000D01*
X129808500Y-101344000D01*
X129875539Y-101363685D01*
X129906875Y-101392513D01*
X129921176Y-101411150D01*
X129929718Y-101422282D01*
X129960140Y-101445625D01*
X130001341Y-101502052D01*
X130005496Y-101571798D01*
X129971283Y-101632719D01*
X129960146Y-101642369D01*
X129929718Y-101665718D01*
X129929717Y-101665719D01*
X129929716Y-101665720D01*
X129906875Y-101695487D01*
X129850447Y-101736690D01*
X129808500Y-101744000D01*
X129765990Y-101744000D01*
X129765988Y-101744001D01*
X129773441Y-101800622D01*
X129773445Y-101800634D01*
X129781837Y-101820895D01*
X129789304Y-101890364D01*
X129781838Y-101915794D01*
X129772956Y-101937238D01*
X129772955Y-101937239D01*
X129757500Y-102054638D01*
X129757500Y-102333363D01*
X129772953Y-102450753D01*
X129772957Y-102450765D01*
X129781566Y-102471550D01*
X129789033Y-102541019D01*
X129781566Y-102566450D01*
X129772957Y-102587234D01*
X129772955Y-102587239D01*
X129757500Y-102704638D01*
X129757500Y-102983363D01*
X129772953Y-103100753D01*
X129772957Y-103100765D01*
X129781566Y-103121550D01*
X129789033Y-103191019D01*
X129781566Y-103216450D01*
X129772957Y-103237234D01*
X129772955Y-103237239D01*
X129757500Y-103354638D01*
X129757500Y-103633363D01*
X129772953Y-103750753D01*
X129772957Y-103750765D01*
X129781566Y-103771550D01*
X129789033Y-103841019D01*
X129781566Y-103866450D01*
X129772957Y-103887234D01*
X129772955Y-103887239D01*
X129757500Y-104004638D01*
X129757500Y-104283363D01*
X129772953Y-104400753D01*
X129772956Y-104400762D01*
X129833464Y-104546841D01*
X129929718Y-104672282D01*
X130055159Y-104768536D01*
X130201238Y-104829044D01*
X130318639Y-104844500D01*
X131672360Y-104844499D01*
X131672363Y-104844499D01*
X131789753Y-104829046D01*
X131789757Y-104829044D01*
X131789762Y-104829044D01*
X131935841Y-104768536D01*
X132061282Y-104672282D01*
X132157536Y-104546841D01*
X132218044Y-104400762D01*
X132233500Y-104283361D01*
X132233499Y-104004640D01*
X132218044Y-103887238D01*
X132218042Y-103887234D01*
X132209435Y-103866455D01*
X132201965Y-103796986D01*
X132209435Y-103771545D01*
X132210110Y-103769916D01*
X132218044Y-103750762D01*
X132233500Y-103633361D01*
X132233499Y-103354640D01*
X132218044Y-103237238D01*
X132218042Y-103237234D01*
X132209435Y-103216455D01*
X132201965Y-103146986D01*
X132209435Y-103121545D01*
X132218044Y-103100762D01*
X132233500Y-102983361D01*
X132233499Y-102704640D01*
X132233490Y-102704575D01*
X132223448Y-102628290D01*
X132218044Y-102587238D01*
X132218041Y-102587231D01*
X132216349Y-102580913D01*
X132218012Y-102511063D01*
X132257176Y-102453201D01*
X132321404Y-102425698D01*
X132390306Y-102437285D01*
X132423805Y-102461140D01*
X133533983Y-103571318D01*
X133567468Y-103632641D01*
X133562484Y-103702333D01*
X133533983Y-103746680D01*
X130162165Y-107118498D01*
X130100842Y-107151983D01*
X130088368Y-107154037D01*
X130001450Y-107163830D01*
X129831178Y-107223410D01*
X129678437Y-107319384D01*
X129550884Y-107446937D01*
X129454911Y-107599676D01*
X129395331Y-107769945D01*
X129395330Y-107769950D01*
X129375135Y-107949196D01*
X129375135Y-107949203D01*
X129395330Y-108128449D01*
X129395331Y-108128454D01*
X129454911Y-108298723D01*
X129512551Y-108390456D01*
X129550884Y-108451462D01*
X129678438Y-108579016D01*
X129831178Y-108674989D01*
X129941522Y-108713600D01*
X130001445Y-108734568D01*
X130001450Y-108734569D01*
X130180696Y-108754765D01*
X130180700Y-108754765D01*
X130180704Y-108754765D01*
X130359949Y-108734569D01*
X130359952Y-108734568D01*
X130359955Y-108734568D01*
X130530222Y-108674989D01*
X130682962Y-108579016D01*
X130810516Y-108451462D01*
X130906489Y-108298722D01*
X130966068Y-108128455D01*
X130975861Y-108041529D01*
X131002926Y-107977118D01*
X131011390Y-107967743D01*
X134383218Y-104595916D01*
X134444541Y-104562431D01*
X134514233Y-104567415D01*
X134558580Y-104595916D01*
X135103884Y-105141220D01*
X135103886Y-105141221D01*
X135103890Y-105141224D01*
X135214033Y-105204814D01*
X135240816Y-105220277D01*
X135393543Y-105261201D01*
X135393545Y-105261201D01*
X135559254Y-105261201D01*
X135559270Y-105261200D01*
X137470231Y-105261200D01*
X137470247Y-105261201D01*
X137477843Y-105261201D01*
X137635956Y-105261201D01*
X137635957Y-105261201D01*
X137658139Y-105255257D01*
X137727988Y-105256918D01*
X137777915Y-105287350D01*
X139256139Y-106765574D01*
X139256149Y-106765585D01*
X139260479Y-106769915D01*
X139260480Y-106769916D01*
X139372284Y-106881720D01*
X139431940Y-106916162D01*
X139509215Y-106960777D01*
X139661942Y-107001700D01*
X139661943Y-107001700D01*
X156148131Y-107001700D01*
X156148147Y-107001701D01*
X156155743Y-107001701D01*
X156313854Y-107001701D01*
X156313857Y-107001701D01*
X156466585Y-106960777D01*
X156543860Y-106916162D01*
X156603516Y-106881720D01*
X156715320Y-106769916D01*
X156715320Y-106769914D01*
X156725524Y-106759711D01*
X156725528Y-106759706D01*
X157068530Y-106416703D01*
X157129851Y-106383220D01*
X157199543Y-106388204D01*
X157225480Y-106402885D01*
X157225842Y-106402311D01*
X157231737Y-106406015D01*
X157231738Y-106406016D01*
X157384478Y-106501989D01*
X157481216Y-106535839D01*
X157554745Y-106561568D01*
X157554750Y-106561569D01*
X157733996Y-106581765D01*
X157734000Y-106581765D01*
X157734004Y-106581765D01*
X157913249Y-106561569D01*
X157913252Y-106561568D01*
X157913255Y-106561568D01*
X158083522Y-106501989D01*
X158236262Y-106406016D01*
X158236267Y-106406010D01*
X158239097Y-106403755D01*
X158241275Y-106402865D01*
X158242158Y-106402311D01*
X158242255Y-106402465D01*
X158303783Y-106377345D01*
X158316412Y-106376700D01*
X163090731Y-106376700D01*
X163090747Y-106376701D01*
X163098343Y-106376701D01*
X163256454Y-106376701D01*
X163256457Y-106376701D01*
X163409185Y-106335777D01*
X163459304Y-106306839D01*
X163524287Y-106269322D01*
X163572394Y-106253492D01*
X163676455Y-106241768D01*
X163846722Y-106182189D01*
X163999462Y-106086216D01*
X164127016Y-105958662D01*
X164222989Y-105805922D01*
X164282568Y-105635655D01*
X164282975Y-105632044D01*
X164302765Y-105456403D01*
X164302765Y-105456396D01*
X164282569Y-105277150D01*
X164282568Y-105277145D01*
X164257258Y-105204814D01*
X164222989Y-105106878D01*
X164206888Y-105081254D01*
X164177230Y-105034053D01*
X164127016Y-104954138D01*
X163999462Y-104826584D01*
X163953495Y-104797701D01*
X163846723Y-104730611D01*
X163676454Y-104671031D01*
X163676449Y-104671030D01*
X163497204Y-104650835D01*
X163497196Y-104650835D01*
X163317950Y-104671030D01*
X163317945Y-104671031D01*
X163147676Y-104730611D01*
X162994937Y-104826584D01*
X162867384Y-104954137D01*
X162767706Y-105112774D01*
X162766301Y-105111891D01*
X162725265Y-105157353D01*
X162660354Y-105175700D01*
X158536189Y-105175700D01*
X158469150Y-105156015D01*
X158423395Y-105103211D01*
X158413451Y-105034053D01*
X158418756Y-105014711D01*
X158418473Y-105014636D01*
X158425434Y-104988657D01*
X158461500Y-104854057D01*
X158461500Y-104695943D01*
X158461500Y-103086059D01*
X158461501Y-103086046D01*
X158461501Y-102917945D01*
X158461501Y-102917943D01*
X158420577Y-102765215D01*
X158405779Y-102739586D01*
X158385567Y-102704576D01*
X158385567Y-102704575D01*
X158341524Y-102628290D01*
X158341521Y-102628286D01*
X158341520Y-102628284D01*
X158229716Y-102516480D01*
X158229715Y-102516479D01*
X158225385Y-102512149D01*
X158225374Y-102512139D01*
X157689318Y-101976083D01*
X157655833Y-101914760D01*
X157652999Y-101888402D01*
X157652999Y-101845097D01*
X157672684Y-101778058D01*
X157689318Y-101757416D01*
X157877270Y-101569464D01*
X158112006Y-101334728D01*
X158112011Y-101334724D01*
X158122214Y-101324520D01*
X158122216Y-101324520D01*
X158234020Y-101212716D01*
X158312300Y-101077130D01*
X158313077Y-101075785D01*
X158354001Y-100923057D01*
X158354001Y-100764943D01*
X158354001Y-100757348D01*
X158354000Y-100757330D01*
X158354000Y-96953597D01*
X158373685Y-96886558D01*
X158426489Y-96840803D01*
X158495647Y-96830859D01*
X158559203Y-96859884D01*
X158565681Y-96865916D01*
X160660981Y-98961216D01*
X160694466Y-99022539D01*
X160697300Y-99048897D01*
X160697300Y-100060187D01*
X160677615Y-100127226D01*
X160670250Y-100137496D01*
X160667986Y-100140334D01*
X160572011Y-100293076D01*
X160512431Y-100463345D01*
X160512430Y-100463350D01*
X160492235Y-100642596D01*
X160492235Y-100642603D01*
X160512430Y-100821849D01*
X160512431Y-100821854D01*
X160572011Y-100992123D01*
X160661268Y-101134173D01*
X160667984Y-101144862D01*
X160795538Y-101272416D01*
X160834410Y-101296841D01*
X160940791Y-101363685D01*
X160948278Y-101368389D01*
X161080793Y-101414758D01*
X161118545Y-101427968D01*
X161118550Y-101427969D01*
X161297796Y-101448165D01*
X161297800Y-101448165D01*
X161297804Y-101448165D01*
X161477049Y-101427969D01*
X161477052Y-101427968D01*
X161477055Y-101427968D01*
X161647322Y-101368389D01*
X161800062Y-101272416D01*
X161927616Y-101144862D01*
X162023589Y-100992122D01*
X162083168Y-100821855D01*
X162083169Y-100821849D01*
X162103365Y-100642603D01*
X162103365Y-100642596D01*
X162083169Y-100463350D01*
X162083168Y-100463345D01*
X162023588Y-100293076D01*
X161927613Y-100140334D01*
X161925350Y-100137496D01*
X161924459Y-100135315D01*
X161923911Y-100134442D01*
X161924064Y-100134345D01*
X161898944Y-100072809D01*
X161898300Y-100060187D01*
X161898300Y-98837860D01*
X161898301Y-98837847D01*
X161898301Y-98669744D01*
X161898301Y-98669743D01*
X161857377Y-98517016D01*
X161843799Y-98493498D01*
X161778324Y-98380090D01*
X161778318Y-98380082D01*
X157492672Y-94094436D01*
X153168015Y-89769780D01*
X153134531Y-89708458D01*
X153139515Y-89638766D01*
X153181387Y-89582833D01*
X153246851Y-89558416D01*
X153255697Y-89558100D01*
X172590574Y-89558100D01*
X172657613Y-89577785D01*
G37*
%TD.AperFunction*%
%TA.AperFunction,Conductor*%
G36*
X157119865Y-98499693D02*
G01*
X157151058Y-98562212D01*
X157153000Y-98584070D01*
X157153000Y-100543902D01*
X157133315Y-100610941D01*
X157116681Y-100631583D01*
X156740083Y-101008181D01*
X156678760Y-101041666D01*
X156652402Y-101044500D01*
X155952498Y-101044500D01*
X155952480Y-101044501D01*
X155849703Y-101055000D01*
X155849700Y-101055001D01*
X155683168Y-101110185D01*
X155683159Y-101110190D01*
X155594372Y-101164953D01*
X155526979Y-101183393D01*
X155460316Y-101162470D01*
X155441595Y-101147095D01*
X155418500Y-101124000D01*
X154118500Y-101124000D01*
X154118500Y-102074000D01*
X154966328Y-102074000D01*
X154966344Y-102073999D01*
X155025872Y-102067598D01*
X155025877Y-102067597D01*
X155084664Y-102045670D01*
X155154356Y-102040684D01*
X155215680Y-102074168D01*
X155249166Y-102135491D01*
X155252000Y-102161851D01*
X155252000Y-102545001D01*
X155252001Y-102545019D01*
X155262500Y-102647796D01*
X155262501Y-102647799D01*
X155317685Y-102814331D01*
X155317686Y-102814334D01*
X155381593Y-102917945D01*
X155409789Y-102963657D01*
X155503451Y-103057319D01*
X155536936Y-103118642D01*
X155531952Y-103188334D01*
X155503451Y-103232681D01*
X155409789Y-103326342D01*
X155317687Y-103475663D01*
X155317685Y-103475668D01*
X155301117Y-103525668D01*
X155262501Y-103642203D01*
X155262501Y-103642204D01*
X155262500Y-103642204D01*
X155252000Y-103744983D01*
X155252000Y-104085614D01*
X155232315Y-104152653D01*
X155179511Y-104198408D01*
X155110353Y-104208352D01*
X155084668Y-104201796D01*
X155025985Y-104179909D01*
X155025983Y-104179908D01*
X154966383Y-104173501D01*
X154966381Y-104173500D01*
X154966373Y-104173500D01*
X154966364Y-104173500D01*
X152770629Y-104173500D01*
X152770623Y-104173501D01*
X152711016Y-104179908D01*
X152576171Y-104230202D01*
X152576164Y-104230206D01*
X152460955Y-104316452D01*
X152460952Y-104316455D01*
X152374706Y-104431664D01*
X152374702Y-104431671D01*
X152324408Y-104566517D01*
X152321248Y-104595916D01*
X152318001Y-104626123D01*
X152318000Y-104626135D01*
X152318000Y-104649500D01*
X152298315Y-104716539D01*
X152245511Y-104762294D01*
X152194000Y-104773500D01*
X146442999Y-104773500D01*
X146375960Y-104753815D01*
X146330205Y-104701011D01*
X146318999Y-104649500D01*
X146318999Y-104626129D01*
X146318998Y-104626123D01*
X146318997Y-104626116D01*
X146313799Y-104577757D01*
X146312591Y-104566516D01*
X146262297Y-104431671D01*
X146262293Y-104431664D01*
X146176047Y-104316455D01*
X146176044Y-104316452D01*
X146060835Y-104230206D01*
X146060828Y-104230202D01*
X145925982Y-104179908D01*
X145925983Y-104179908D01*
X145866383Y-104173501D01*
X145866381Y-104173500D01*
X145866373Y-104173500D01*
X145866364Y-104173500D01*
X143670629Y-104173500D01*
X143670623Y-104173501D01*
X143611013Y-104179909D01*
X143606506Y-104180974D01*
X143536737Y-104177229D01*
X143480068Y-104136358D01*
X143454492Y-104071338D01*
X143453999Y-104060295D01*
X143453999Y-103794998D01*
X143453998Y-103794981D01*
X143443499Y-103692203D01*
X143443498Y-103692200D01*
X143388314Y-103525666D01*
X143296212Y-103376344D01*
X143172156Y-103252288D01*
X143168842Y-103250243D01*
X143167046Y-103248248D01*
X143166489Y-103247807D01*
X143166564Y-103247711D01*
X143122118Y-103198297D01*
X143110897Y-103129334D01*
X143138740Y-103065252D01*
X143168848Y-103039165D01*
X143171842Y-103037318D01*
X143295815Y-102913345D01*
X143387856Y-102764124D01*
X143387858Y-102764119D01*
X143443005Y-102597697D01*
X143443006Y-102597690D01*
X143453499Y-102494986D01*
X143453500Y-102494973D01*
X143453500Y-102357500D01*
X142102500Y-102357500D01*
X142035461Y-102337815D01*
X141989706Y-102285011D01*
X141978500Y-102233500D01*
X141978500Y-101857500D01*
X142478500Y-101857500D01*
X143372500Y-101857500D01*
X143439539Y-101877185D01*
X143485294Y-101929989D01*
X143496500Y-101981500D01*
X143496500Y-102024844D01*
X143611128Y-102067598D01*
X143611127Y-102067598D01*
X143670655Y-102073999D01*
X143670672Y-102074000D01*
X144518500Y-102074000D01*
X145018500Y-102074000D01*
X145866328Y-102074000D01*
X145866344Y-102073999D01*
X145925872Y-102067598D01*
X145925879Y-102067596D01*
X146060586Y-102017354D01*
X146060593Y-102017350D01*
X146175687Y-101931190D01*
X146175690Y-101931187D01*
X146261850Y-101816093D01*
X146261854Y-101816086D01*
X146312096Y-101681379D01*
X146312098Y-101681372D01*
X146318499Y-101621844D01*
X152318500Y-101621844D01*
X152324901Y-101681372D01*
X152324903Y-101681379D01*
X152375145Y-101816086D01*
X152375149Y-101816093D01*
X152461309Y-101931187D01*
X152461312Y-101931190D01*
X152576406Y-102017350D01*
X152576413Y-102017354D01*
X152711120Y-102067596D01*
X152711127Y-102067598D01*
X152770655Y-102073999D01*
X152770672Y-102074000D01*
X153618500Y-102074000D01*
X153618500Y-101124000D01*
X152318500Y-101124000D01*
X152318500Y-101621844D01*
X146318499Y-101621844D01*
X146318500Y-101621827D01*
X146318500Y-101124000D01*
X145018500Y-101124000D01*
X145018500Y-102074000D01*
X144518500Y-102074000D01*
X144518500Y-101124000D01*
X143203264Y-101124000D01*
X143175500Y-101139159D01*
X143105808Y-101134173D01*
X143084048Y-101123530D01*
X143022630Y-101085646D01*
X143022619Y-101085641D01*
X142856197Y-101030494D01*
X142856190Y-101030493D01*
X142753486Y-101020000D01*
X142478500Y-101020000D01*
X142478500Y-101857500D01*
X141978500Y-101857500D01*
X141978500Y-101020000D01*
X141703529Y-101020000D01*
X141703512Y-101020001D01*
X141600802Y-101030494D01*
X141434380Y-101085641D01*
X141434375Y-101085643D01*
X141285154Y-101177684D01*
X141161184Y-101301654D01*
X141069143Y-101450875D01*
X141069141Y-101450880D01*
X141013994Y-101617302D01*
X141013993Y-101617309D01*
X141003500Y-101720013D01*
X141003500Y-101808903D01*
X140983815Y-101875942D01*
X140931011Y-101921697D01*
X140861853Y-101931641D01*
X140798297Y-101902616D01*
X140791819Y-101896584D01*
X138777590Y-99882355D01*
X138777588Y-99882352D01*
X138658717Y-99763481D01*
X138658709Y-99763475D01*
X138541484Y-99695796D01*
X138541484Y-99695795D01*
X138541479Y-99695794D01*
X138533611Y-99691251D01*
X138521786Y-99684423D01*
X138483603Y-99674192D01*
X138369057Y-99643499D01*
X138210943Y-99643499D01*
X138203347Y-99643499D01*
X138203331Y-99643500D01*
X138082499Y-99643500D01*
X138015460Y-99623815D01*
X137969705Y-99571011D01*
X137958499Y-99519500D01*
X137958499Y-99454638D01*
X137948031Y-99375122D01*
X137943044Y-99337238D01*
X137943042Y-99337234D01*
X137934435Y-99316455D01*
X137926965Y-99246986D01*
X137934435Y-99221545D01*
X137943044Y-99200762D01*
X137958500Y-99083361D01*
X137958500Y-99018500D01*
X137978185Y-98951461D01*
X138030989Y-98905706D01*
X138082500Y-98894500D01*
X143105501Y-98894500D01*
X143172540Y-98914185D01*
X143218295Y-98966989D01*
X143229501Y-99018500D01*
X143229501Y-99299876D01*
X143235908Y-99359483D01*
X143286202Y-99494328D01*
X143286206Y-99494335D01*
X143372452Y-99609544D01*
X143372455Y-99609547D01*
X143372714Y-99609741D01*
X143372907Y-99609999D01*
X143378725Y-99615817D01*
X143377888Y-99616653D01*
X143414585Y-99665675D01*
X143419569Y-99735366D01*
X143386083Y-99796689D01*
X143372719Y-99808270D01*
X143361311Y-99816810D01*
X143361309Y-99816812D01*
X143275149Y-99931906D01*
X143275145Y-99931913D01*
X143224903Y-100066620D01*
X143224901Y-100066627D01*
X143218500Y-100126155D01*
X143218500Y-100624000D01*
X146318500Y-100624000D01*
X146318500Y-100126172D01*
X146318499Y-100126155D01*
X146312098Y-100066627D01*
X146312096Y-100066620D01*
X146261854Y-99931913D01*
X146261850Y-99931906D01*
X146175690Y-99816812D01*
X146169418Y-99810540D01*
X146170342Y-99809615D01*
X146133912Y-99760943D01*
X146128931Y-99691251D01*
X146162420Y-99629930D01*
X146175780Y-99618353D01*
X146187546Y-99609546D01*
X146273796Y-99494331D01*
X146324091Y-99359483D01*
X146330500Y-99299873D01*
X146330500Y-99276500D01*
X146350185Y-99209461D01*
X146402989Y-99163706D01*
X146454500Y-99152500D01*
X152205501Y-99152500D01*
X152272540Y-99172185D01*
X152318295Y-99224989D01*
X152329501Y-99276500D01*
X152329501Y-99299876D01*
X152335908Y-99359483D01*
X152386202Y-99494328D01*
X152386206Y-99494335D01*
X152472452Y-99609544D01*
X152472455Y-99609547D01*
X152472714Y-99609741D01*
X152472907Y-99609999D01*
X152478725Y-99615817D01*
X152477888Y-99616653D01*
X152514585Y-99665675D01*
X152519569Y-99735366D01*
X152486083Y-99796689D01*
X152472719Y-99808270D01*
X152461311Y-99816810D01*
X152461309Y-99816812D01*
X152375149Y-99931906D01*
X152375145Y-99931913D01*
X152324903Y-100066620D01*
X152324901Y-100066627D01*
X152318500Y-100126155D01*
X152318500Y-100624000D01*
X155418500Y-100624000D01*
X155418500Y-100126172D01*
X155418499Y-100126155D01*
X155412098Y-100066627D01*
X155412096Y-100066620D01*
X155361854Y-99931913D01*
X155361850Y-99931906D01*
X155275690Y-99816812D01*
X155269418Y-99810540D01*
X155270342Y-99809615D01*
X155233912Y-99760943D01*
X155228931Y-99691251D01*
X155262420Y-99629930D01*
X155275780Y-99618353D01*
X155287546Y-99609546D01*
X155373796Y-99494331D01*
X155424091Y-99359483D01*
X155430500Y-99299873D01*
X155430499Y-99202211D01*
X155450183Y-99135174D01*
X155492497Y-99094825D01*
X155600416Y-99032520D01*
X155712220Y-98920716D01*
X155777415Y-98807791D01*
X155797116Y-98782117D01*
X156049416Y-98529818D01*
X156110739Y-98496333D01*
X156137097Y-98493499D01*
X156837002Y-98493499D01*
X156837008Y-98493499D01*
X156939797Y-98482999D01*
X156989995Y-98466364D01*
X157059823Y-98463962D01*
X157119865Y-98499693D01*
G37*
%TD.AperFunction*%
%TA.AperFunction,Conductor*%
G36*
X136795986Y-89577785D02*
G01*
X136841741Y-89630589D01*
X136851685Y-89699747D01*
X136845990Y-89723050D01*
X136845432Y-89724642D01*
X136845430Y-89724653D01*
X136825235Y-89903896D01*
X136825235Y-89903903D01*
X136845430Y-90083149D01*
X136845431Y-90083154D01*
X136905011Y-90253423D01*
X136991834Y-90391600D01*
X137000984Y-90406162D01*
X137128538Y-90533716D01*
X137281278Y-90629689D01*
X137329004Y-90646389D01*
X137451545Y-90689268D01*
X137451550Y-90689269D01*
X137630796Y-90709465D01*
X137630800Y-90709465D01*
X137630804Y-90709465D01*
X137810049Y-90689269D01*
X137810052Y-90689268D01*
X137810055Y-90689268D01*
X137980322Y-90629689D01*
X138133062Y-90533716D01*
X138133067Y-90533710D01*
X138135897Y-90531455D01*
X138138075Y-90530565D01*
X138138958Y-90530011D01*
X138139055Y-90530165D01*
X138200583Y-90505045D01*
X138213212Y-90504400D01*
X152152803Y-90504400D01*
X152219842Y-90524085D01*
X152240484Y-90540719D01*
X154340084Y-92640319D01*
X154373569Y-92701642D01*
X154368585Y-92771334D01*
X154326713Y-92827267D01*
X154261249Y-92851684D01*
X154252403Y-92852000D01*
X154130000Y-92852000D01*
X154130000Y-93802000D01*
X155450403Y-93802000D01*
X155517442Y-93821685D01*
X155538084Y-93838319D01*
X155794201Y-94094436D01*
X155827686Y-94155759D01*
X155822702Y-94225451D01*
X155780830Y-94281384D01*
X155740282Y-94299822D01*
X155740630Y-94300871D01*
X155655695Y-94329016D01*
X155579067Y-94354408D01*
X155509240Y-94356810D01*
X155452383Y-94324383D01*
X155430000Y-94302000D01*
X154130000Y-94302000D01*
X154130000Y-95252000D01*
X154977828Y-95252000D01*
X154977841Y-95251999D01*
X154999243Y-95249698D01*
X155068003Y-95262102D01*
X155119141Y-95309712D01*
X155136500Y-95372987D01*
X155136500Y-95793001D01*
X155136501Y-95793019D01*
X155147000Y-95895796D01*
X155147001Y-95895799D01*
X155183782Y-96006796D01*
X155202186Y-96062334D01*
X155278497Y-96186055D01*
X155294289Y-96211657D01*
X155387951Y-96305319D01*
X155421436Y-96366642D01*
X155416452Y-96436334D01*
X155387951Y-96480681D01*
X155294289Y-96574342D01*
X155202187Y-96723663D01*
X155202186Y-96723666D01*
X155147001Y-96890203D01*
X155147001Y-96890204D01*
X155147000Y-96890204D01*
X155136500Y-96992983D01*
X155136500Y-97230508D01*
X155116815Y-97297547D01*
X155064011Y-97343302D01*
X154999248Y-97353798D01*
X154994726Y-97353311D01*
X154977873Y-97351500D01*
X154977868Y-97351500D01*
X152782129Y-97351500D01*
X152782123Y-97351501D01*
X152722516Y-97357908D01*
X152587671Y-97408202D01*
X152587664Y-97408206D01*
X152472455Y-97494452D01*
X152472452Y-97494455D01*
X152386206Y-97609664D01*
X152386202Y-97609671D01*
X152335908Y-97744517D01*
X152330017Y-97799317D01*
X152329501Y-97804123D01*
X152329500Y-97804135D01*
X152329500Y-97827500D01*
X152309815Y-97894539D01*
X152257011Y-97940294D01*
X152205500Y-97951500D01*
X146454499Y-97951500D01*
X146387460Y-97931815D01*
X146341705Y-97879011D01*
X146330499Y-97827500D01*
X146330499Y-97804129D01*
X146330498Y-97804123D01*
X146330497Y-97804116D01*
X146324091Y-97744517D01*
X146316295Y-97723616D01*
X146273797Y-97609671D01*
X146273793Y-97609664D01*
X146187547Y-97494455D01*
X146187544Y-97494452D01*
X146072335Y-97408206D01*
X146072328Y-97408202D01*
X145937482Y-97357908D01*
X145937483Y-97357908D01*
X145877883Y-97351501D01*
X145877881Y-97351500D01*
X145877873Y-97351500D01*
X145877864Y-97351500D01*
X143682129Y-97351500D01*
X143682123Y-97351501D01*
X143622516Y-97357908D01*
X143487671Y-97408202D01*
X143487664Y-97408206D01*
X143372455Y-97494452D01*
X143372452Y-97494455D01*
X143286206Y-97609664D01*
X143286204Y-97609668D01*
X143285026Y-97612828D01*
X143283003Y-97615529D01*
X143281953Y-97617454D01*
X143281676Y-97617302D01*
X143243157Y-97668764D01*
X143177694Y-97693184D01*
X143168842Y-97693500D01*
X137734257Y-97693500D01*
X137667218Y-97673815D01*
X137661900Y-97670075D01*
X137660836Y-97669461D01*
X137514765Y-97608957D01*
X137514760Y-97608955D01*
X137397370Y-97593501D01*
X137397367Y-97593500D01*
X137397361Y-97593500D01*
X137397354Y-97593500D01*
X136043636Y-97593500D01*
X135926246Y-97608953D01*
X135926237Y-97608956D01*
X135780160Y-97669463D01*
X135654718Y-97765718D01*
X135558463Y-97891160D01*
X135497956Y-98037237D01*
X135497955Y-98037239D01*
X135482500Y-98154638D01*
X135482500Y-98433363D01*
X135497953Y-98550753D01*
X135497957Y-98550765D01*
X135506566Y-98571550D01*
X135514033Y-98641019D01*
X135506566Y-98666450D01*
X135497957Y-98687234D01*
X135497955Y-98687239D01*
X135482500Y-98804638D01*
X135482500Y-99083363D01*
X135497953Y-99200753D01*
X135497957Y-99200765D01*
X135506566Y-99221550D01*
X135514033Y-99291019D01*
X135506566Y-99316450D01*
X135497957Y-99337234D01*
X135497955Y-99337239D01*
X135482500Y-99454638D01*
X135482500Y-99733355D01*
X135493646Y-99818025D01*
X135482878Y-99887061D01*
X135436497Y-99939315D01*
X135369228Y-99958199D01*
X135302428Y-99937717D01*
X135283025Y-99921889D01*
X132782390Y-97421255D01*
X132782388Y-97421252D01*
X132663517Y-97302381D01*
X132663516Y-97302380D01*
X132573861Y-97250618D01*
X132573860Y-97250617D01*
X132529294Y-97224886D01*
X132481079Y-97174319D01*
X132467857Y-97105711D01*
X132493825Y-97040847D01*
X132550740Y-97000319D01*
X132591295Y-96993500D01*
X152210031Y-96993500D01*
X152210047Y-96993501D01*
X152217643Y-96993501D01*
X152375754Y-96993501D01*
X152375757Y-96993501D01*
X152528485Y-96952577D01*
X152597933Y-96912481D01*
X152665416Y-96873520D01*
X152698133Y-96840803D01*
X152701435Y-96837501D01*
X152762757Y-96804015D01*
X152775216Y-96801962D01*
X152862155Y-96792168D01*
X153032422Y-96732589D01*
X153185162Y-96636616D01*
X153312716Y-96509062D01*
X153408689Y-96356322D01*
X153468268Y-96186055D01*
X153482208Y-96062334D01*
X153488465Y-96006803D01*
X153488465Y-96006796D01*
X153468269Y-95827550D01*
X153468268Y-95827545D01*
X153456183Y-95793008D01*
X153408689Y-95657278D01*
X153399178Y-95642142D01*
X153319242Y-95514924D01*
X153312716Y-95504538D01*
X153271859Y-95463681D01*
X153238374Y-95402358D01*
X153243358Y-95332666D01*
X153285230Y-95276733D01*
X153350694Y-95252316D01*
X153359540Y-95252000D01*
X153630000Y-95252000D01*
X153630000Y-94302000D01*
X152330000Y-94302000D01*
X152330000Y-94799844D01*
X152336401Y-94859372D01*
X152336403Y-94859379D01*
X152386645Y-94994086D01*
X152386646Y-94994088D01*
X152444386Y-95071218D01*
X152468803Y-95136682D01*
X152453952Y-95204955D01*
X152404547Y-95254361D01*
X152386075Y-95262570D01*
X152333379Y-95281009D01*
X152180637Y-95376984D01*
X152053084Y-95504537D01*
X151957111Y-95657276D01*
X151938854Y-95709454D01*
X151898132Y-95766230D01*
X151833179Y-95791978D01*
X151821812Y-95792500D01*
X129771236Y-95792500D01*
X129704197Y-95772815D01*
X129658442Y-95720011D01*
X129648498Y-95650853D01*
X129666243Y-95602527D01*
X129721288Y-95514924D01*
X129721289Y-95514922D01*
X129780868Y-95344655D01*
X129790117Y-95262570D01*
X129801065Y-95165403D01*
X129801065Y-95165396D01*
X129780869Y-94986150D01*
X129780868Y-94986145D01*
X129721289Y-94815878D01*
X129711214Y-94799844D01*
X143230000Y-94799844D01*
X143236401Y-94859372D01*
X143236403Y-94859379D01*
X143286645Y-94994086D01*
X143286649Y-94994093D01*
X143372809Y-95109187D01*
X143372812Y-95109190D01*
X143487906Y-95195350D01*
X143487913Y-95195354D01*
X143622620Y-95245596D01*
X143622627Y-95245598D01*
X143682155Y-95251999D01*
X143682172Y-95252000D01*
X144530000Y-95252000D01*
X145030000Y-95252000D01*
X145877828Y-95252000D01*
X145877844Y-95251999D01*
X145937372Y-95245598D01*
X145937379Y-95245596D01*
X146072086Y-95195354D01*
X146072093Y-95195350D01*
X146187187Y-95109190D01*
X146187190Y-95109187D01*
X146273350Y-94994093D01*
X146273354Y-94994086D01*
X146323596Y-94859379D01*
X146323598Y-94859372D01*
X146329999Y-94799844D01*
X146330000Y-94799827D01*
X146330000Y-94302000D01*
X145030000Y-94302000D01*
X145030000Y-95252000D01*
X144530000Y-95252000D01*
X144530000Y-94302000D01*
X143230000Y-94302000D01*
X143230000Y-94799844D01*
X129711214Y-94799844D01*
X129711203Y-94799827D01*
X129663348Y-94723666D01*
X129625316Y-94663138D01*
X129497762Y-94535584D01*
X129429053Y-94492411D01*
X129345023Y-94439611D01*
X129174754Y-94380031D01*
X129174749Y-94380030D01*
X128995504Y-94359835D01*
X128995496Y-94359835D01*
X128816250Y-94380030D01*
X128816245Y-94380031D01*
X128645976Y-94439611D01*
X128493236Y-94535585D01*
X128490403Y-94537845D01*
X128488224Y-94538734D01*
X128487342Y-94539289D01*
X128487244Y-94539134D01*
X128425717Y-94564255D01*
X128413088Y-94564900D01*
X123703397Y-94564900D01*
X123636358Y-94545215D01*
X123590603Y-94492411D01*
X123580659Y-94423253D01*
X123609684Y-94359697D01*
X123615716Y-94353219D01*
X124664780Y-93304155D01*
X143230000Y-93304155D01*
X143230000Y-93802000D01*
X144530000Y-93802000D01*
X145030000Y-93802000D01*
X146330000Y-93802000D01*
X146330000Y-93304172D01*
X146329999Y-93304155D01*
X152330000Y-93304155D01*
X152330000Y-93802000D01*
X153630000Y-93802000D01*
X153630000Y-92852000D01*
X152782155Y-92852000D01*
X152722627Y-92858401D01*
X152722620Y-92858403D01*
X152587913Y-92908645D01*
X152587906Y-92908649D01*
X152472812Y-92994809D01*
X152472809Y-92994812D01*
X152386649Y-93109906D01*
X152386645Y-93109913D01*
X152336403Y-93244620D01*
X152336401Y-93244627D01*
X152330000Y-93304155D01*
X146329999Y-93304155D01*
X146323598Y-93244627D01*
X146323596Y-93244620D01*
X146273354Y-93109913D01*
X146273350Y-93109906D01*
X146187190Y-92994812D01*
X146187187Y-92994809D01*
X146072093Y-92908649D01*
X146072086Y-92908645D01*
X145937379Y-92858403D01*
X145937372Y-92858401D01*
X145877844Y-92852000D01*
X145030000Y-92852000D01*
X145030000Y-93802000D01*
X144530000Y-93802000D01*
X144530000Y-92852000D01*
X143682155Y-92852000D01*
X143622627Y-92858401D01*
X143622620Y-92858403D01*
X143487913Y-92908645D01*
X143487906Y-92908649D01*
X143372812Y-92994809D01*
X143372809Y-92994812D01*
X143286649Y-93109906D01*
X143286645Y-93109913D01*
X143236403Y-93244620D01*
X143236401Y-93244627D01*
X143230000Y-93304155D01*
X124664780Y-93304155D01*
X127411417Y-90557519D01*
X127472740Y-90524034D01*
X127499098Y-90521200D01*
X133602213Y-90521200D01*
X133669252Y-90540885D01*
X133679526Y-90548253D01*
X133682237Y-90550415D01*
X133682238Y-90550416D01*
X133772580Y-90607182D01*
X133808398Y-90629688D01*
X133834978Y-90646389D01*
X133957519Y-90689268D01*
X134005245Y-90705968D01*
X134005250Y-90705969D01*
X134184496Y-90726165D01*
X134184500Y-90726165D01*
X134184504Y-90726165D01*
X134363749Y-90705969D01*
X134363752Y-90705968D01*
X134363755Y-90705968D01*
X134534022Y-90646389D01*
X134686762Y-90550416D01*
X134814316Y-90422862D01*
X134910289Y-90270122D01*
X134969868Y-90099855D01*
X134971750Y-90083154D01*
X134990065Y-89920603D01*
X134990065Y-89920596D01*
X134969869Y-89741350D01*
X134969866Y-89741337D01*
X134963469Y-89723055D01*
X134959907Y-89653276D01*
X134994635Y-89592649D01*
X135056629Y-89560421D01*
X135080510Y-89558100D01*
X136728947Y-89558100D01*
X136795986Y-89577785D01*
G37*
%TD.AperFunction*%
%TA.AperFunction,Conductor*%
G36*
X136338226Y-50530506D02*
G01*
X137735094Y-50570052D01*
X137738544Y-50570198D01*
X139133767Y-50649260D01*
X139137207Y-50649503D01*
X140435262Y-50759984D01*
X140529616Y-50768015D01*
X140533111Y-50768362D01*
X141921626Y-50926231D01*
X141925021Y-50926666D01*
X143236668Y-51113531D01*
X143308493Y-51123764D01*
X143311963Y-51124308D01*
X144689323Y-51360480D01*
X144692677Y-51361105D01*
X146062816Y-51636162D01*
X146066181Y-51636887D01*
X147427992Y-51950610D01*
X147431353Y-51951434D01*
X148783730Y-52303565D01*
X148787022Y-52304472D01*
X149943811Y-52640905D01*
X150128913Y-52694740D01*
X150132268Y-52695768D01*
X151462479Y-53123821D01*
X151465805Y-53124943D01*
X152783424Y-53590487D01*
X152786670Y-53591686D01*
X154090594Y-54094334D01*
X154093819Y-54095630D01*
X155357324Y-54624236D01*
X155382962Y-54634962D01*
X155386180Y-54636362D01*
X156659526Y-55211951D01*
X156662700Y-55213439D01*
X157919292Y-55824853D01*
X157922412Y-55826426D01*
X159161181Y-56473147D01*
X159164268Y-56474815D01*
X160384245Y-57156335D01*
X160387252Y-57158071D01*
X161587466Y-57873849D01*
X161590384Y-57875645D01*
X162761227Y-58619615D01*
X162769883Y-58625115D01*
X162772812Y-58627035D01*
X163930615Y-59409574D01*
X163933433Y-59411537D01*
X165068616Y-60226518D01*
X165071438Y-60228605D01*
X166183093Y-61075377D01*
X166185843Y-61077535D01*
X167273094Y-61955427D01*
X167275759Y-61957641D01*
X168337712Y-62865936D01*
X168340339Y-62868247D01*
X169018184Y-63482064D01*
X169376205Y-63806267D01*
X169378772Y-63808659D01*
X170387656Y-64775596D01*
X170390113Y-64778018D01*
X171220362Y-65620100D01*
X171371227Y-65773115D01*
X171373645Y-65775637D01*
X171437533Y-65844214D01*
X172326216Y-66798112D01*
X172328571Y-66800713D01*
X173251801Y-67849706D01*
X173254082Y-67852373D01*
X174147261Y-68927076D01*
X174149456Y-68929795D01*
X174886725Y-69869796D01*
X175011853Y-70029331D01*
X175013973Y-70032114D01*
X175152432Y-70219322D01*
X175844958Y-71155678D01*
X175847004Y-71158529D01*
X176645817Y-72305099D01*
X176647782Y-72308007D01*
X176861837Y-72634578D01*
X177320033Y-73333623D01*
X177413813Y-73476697D01*
X177415687Y-73479645D01*
X177498361Y-73613916D01*
X178148389Y-74669630D01*
X178150186Y-74672644D01*
X178448730Y-75189737D01*
X178682450Y-75594552D01*
X178848879Y-75882814D01*
X178850581Y-75885860D01*
X179176520Y-76489215D01*
X179514776Y-77115372D01*
X179516400Y-77118483D01*
X180145519Y-78366266D01*
X180147054Y-78369421D01*
X180740603Y-79634493D01*
X180742049Y-79637691D01*
X181299581Y-80919100D01*
X181300935Y-80922338D01*
X181821949Y-82218931D01*
X181823212Y-82222205D01*
X182307355Y-83533105D01*
X182308524Y-83536414D01*
X182755366Y-84860454D01*
X182756436Y-84863782D01*
X183101240Y-85989683D01*
X183165634Y-86199952D01*
X183166614Y-86203322D01*
X183537833Y-87550528D01*
X183538717Y-87553924D01*
X183871658Y-88911079D01*
X183872446Y-88914499D01*
X184166851Y-90280541D01*
X184167542Y-90283982D01*
X184423173Y-91657816D01*
X184423766Y-91661274D01*
X184640417Y-93041793D01*
X184640912Y-93045268D01*
X184818409Y-94431372D01*
X184818805Y-94434859D01*
X184957001Y-95825387D01*
X184957299Y-95828883D01*
X185056096Y-97222832D01*
X185056294Y-97226336D01*
X185115600Y-98622443D01*
X185115700Y-98625951D01*
X185135475Y-100023245D01*
X185135475Y-100026755D01*
X185115700Y-101424048D01*
X185115600Y-101427556D01*
X185056294Y-102823663D01*
X185056096Y-102827167D01*
X184957299Y-104221116D01*
X184957001Y-104224612D01*
X184818805Y-105615140D01*
X184818409Y-105618627D01*
X184640912Y-107004731D01*
X184640417Y-107008206D01*
X184423766Y-108388725D01*
X184423173Y-108392183D01*
X184167542Y-109766017D01*
X184166851Y-109769458D01*
X183872446Y-111135500D01*
X183871658Y-111138920D01*
X183538717Y-112496075D01*
X183537833Y-112499471D01*
X183166614Y-113846677D01*
X183165634Y-113850047D01*
X182756441Y-115186204D01*
X182755366Y-115189545D01*
X182308524Y-116513585D01*
X182307355Y-116516894D01*
X181823212Y-117827794D01*
X181821949Y-117831068D01*
X181300935Y-119127661D01*
X181299581Y-119130899D01*
X180742049Y-120412308D01*
X180740603Y-120415506D01*
X180147054Y-121680578D01*
X180145519Y-121683733D01*
X179516400Y-122931516D01*
X179514776Y-122934627D01*
X178850591Y-124164121D01*
X178848879Y-124167185D01*
X178150186Y-125377355D01*
X178148389Y-125380369D01*
X177415696Y-126570340D01*
X177413813Y-126573302D01*
X176647782Y-127741992D01*
X176645817Y-127744900D01*
X175847004Y-128891470D01*
X175844958Y-128894321D01*
X175013980Y-130017877D01*
X175011853Y-130020668D01*
X174149466Y-131120192D01*
X174147261Y-131122923D01*
X173254082Y-132197626D01*
X173251801Y-132200293D01*
X172328571Y-133249286D01*
X172326216Y-133251887D01*
X171373656Y-134274350D01*
X171371227Y-134276884D01*
X170390134Y-135271960D01*
X170387635Y-135274424D01*
X169378772Y-136241340D01*
X169376205Y-136243732D01*
X168340347Y-137181745D01*
X168337712Y-137184063D01*
X167275776Y-138092343D01*
X167273077Y-138094586D01*
X166185854Y-138972456D01*
X166183093Y-138974622D01*
X165071438Y-139821394D01*
X165068616Y-139823481D01*
X163933464Y-140638440D01*
X163930585Y-140640446D01*
X162772818Y-141422960D01*
X162769883Y-141424884D01*
X161590419Y-142174332D01*
X161587430Y-142176172D01*
X160387268Y-142891918D01*
X160384229Y-142893673D01*
X159164268Y-143575184D01*
X159161181Y-143576852D01*
X157922412Y-144223573D01*
X157919278Y-144225153D01*
X156662703Y-144836558D01*
X156659526Y-144838048D01*
X155386180Y-145413637D01*
X155382962Y-145415037D01*
X154093835Y-145954362D01*
X154090578Y-145955671D01*
X152786693Y-146458304D01*
X152783401Y-146459520D01*
X151465804Y-146925056D01*
X151462479Y-146926178D01*
X150132268Y-147354231D01*
X150128913Y-147355259D01*
X148787067Y-147745514D01*
X148783683Y-147746446D01*
X147431376Y-148098559D01*
X147427968Y-148099395D01*
X146066214Y-148413105D01*
X146062783Y-148413844D01*
X144692725Y-148688885D01*
X144689275Y-148689527D01*
X143311960Y-148925691D01*
X143308493Y-148926235D01*
X141925064Y-149123327D01*
X141921583Y-149123773D01*
X141185067Y-149207512D01*
X141116233Y-149195527D01*
X141064806Y-149148230D01*
X141047113Y-149080637D01*
X141068773Y-149014210D01*
X141083379Y-148996623D01*
X141107914Y-148972088D01*
X141211875Y-148816500D01*
X141211880Y-148816491D01*
X141283491Y-148643605D01*
X141283493Y-148643597D01*
X141319999Y-148460071D01*
X141320000Y-148460069D01*
X141320000Y-148216500D01*
X140670000Y-148216500D01*
X140670000Y-147716500D01*
X141320000Y-147716500D01*
X141320000Y-147472930D01*
X141319999Y-147472928D01*
X141283493Y-147289402D01*
X141283491Y-147289394D01*
X141211880Y-147116508D01*
X141211875Y-147116499D01*
X141107913Y-146960910D01*
X141107910Y-146960906D01*
X140975593Y-146828589D01*
X140975589Y-146828586D01*
X140820000Y-146724624D01*
X140819991Y-146724619D01*
X140647103Y-146653007D01*
X140647100Y-146653006D01*
X140620000Y-146647615D01*
X140620000Y-147399511D01*
X140610060Y-147382295D01*
X140554205Y-147326440D01*
X140485796Y-147286944D01*
X140409496Y-147266500D01*
X140330504Y-147266500D01*
X140254204Y-147286944D01*
X140185795Y-147326440D01*
X140129940Y-147382295D01*
X140120000Y-147399511D01*
X140120000Y-146647616D01*
X140119999Y-146647615D01*
X140092899Y-146653006D01*
X140092896Y-146653007D01*
X139920008Y-146724619D01*
X139919999Y-146724624D01*
X139764410Y-146828586D01*
X139764406Y-146828589D01*
X139632089Y-146960906D01*
X139632086Y-146960910D01*
X139528124Y-147116499D01*
X139528119Y-147116508D01*
X139456508Y-147289394D01*
X139456506Y-147289402D01*
X139420000Y-147472928D01*
X139420000Y-147716500D01*
X140070000Y-147716500D01*
X140070000Y-148216500D01*
X139420000Y-148216500D01*
X139420000Y-148460071D01*
X139456506Y-148643597D01*
X139456508Y-148643605D01*
X139528119Y-148816491D01*
X139528124Y-148816500D01*
X139632086Y-148972089D01*
X139632089Y-148972093D01*
X139764406Y-149104410D01*
X139764414Y-149104416D01*
X139792304Y-149123052D01*
X139837110Y-149176664D01*
X139845817Y-149245989D01*
X139815663Y-149309016D01*
X139756220Y-149345736D01*
X139733930Y-149349707D01*
X139137238Y-149400493D01*
X139133737Y-149400741D01*
X137738572Y-149479799D01*
X137735066Y-149479948D01*
X136338226Y-149519494D01*
X136334717Y-149519544D01*
X134937283Y-149519544D01*
X134933774Y-149519494D01*
X133536933Y-149479948D01*
X133533427Y-149479799D01*
X132272205Y-149408331D01*
X132206386Y-149384886D01*
X132163692Y-149329578D01*
X132157677Y-149259967D01*
X132190251Y-149198156D01*
X132210329Y-149181428D01*
X132325590Y-149104413D01*
X132457910Y-148972093D01*
X132457913Y-148972089D01*
X132561875Y-148816500D01*
X132561880Y-148816491D01*
X132633491Y-148643605D01*
X132633493Y-148643597D01*
X132669999Y-148460071D01*
X132670000Y-148460069D01*
X132670000Y-148216500D01*
X132020000Y-148216500D01*
X132020000Y-147716500D01*
X132670000Y-147716500D01*
X132670000Y-147472930D01*
X132669999Y-147472928D01*
X132633493Y-147289402D01*
X132633491Y-147289394D01*
X132561880Y-147116508D01*
X132561875Y-147116499D01*
X132457913Y-146960910D01*
X132457910Y-146960906D01*
X132325593Y-146828589D01*
X132325589Y-146828586D01*
X132170000Y-146724624D01*
X132169991Y-146724619D01*
X131997103Y-146653007D01*
X131997100Y-146653006D01*
X131970000Y-146647615D01*
X131970000Y-147399511D01*
X131960060Y-147382295D01*
X131904205Y-147326440D01*
X131835796Y-147286944D01*
X131759496Y-147266500D01*
X131680504Y-147266500D01*
X131604204Y-147286944D01*
X131535795Y-147326440D01*
X131479940Y-147382295D01*
X131470000Y-147399511D01*
X131470000Y-146647616D01*
X131469999Y-146647615D01*
X131442899Y-146653006D01*
X131442896Y-146653007D01*
X131270008Y-146724619D01*
X131269999Y-146724624D01*
X131114410Y-146828586D01*
X131114406Y-146828589D01*
X130982089Y-146960906D01*
X130982086Y-146960910D01*
X130878124Y-147116499D01*
X130878119Y-147116508D01*
X130806508Y-147289394D01*
X130806506Y-147289402D01*
X130770000Y-147472928D01*
X130770000Y-147716500D01*
X131420000Y-147716500D01*
X131420000Y-148216500D01*
X130770000Y-148216500D01*
X130770000Y-148460071D01*
X130806506Y-148643597D01*
X130806508Y-148643605D01*
X130878119Y-148816491D01*
X130878124Y-148816500D01*
X130982086Y-148972089D01*
X130982089Y-148972093D01*
X131103089Y-149093093D01*
X131136574Y-149154416D01*
X131131590Y-149224108D01*
X131089718Y-149280041D01*
X131024254Y-149304458D01*
X131004892Y-149304327D01*
X130742383Y-149281984D01*
X130738891Y-149281637D01*
X129350416Y-149123773D01*
X129346935Y-149123327D01*
X127963506Y-148926235D01*
X127960039Y-148925691D01*
X126582724Y-148689527D01*
X126579274Y-148688885D01*
X125209216Y-148413844D01*
X125205785Y-148413105D01*
X123844031Y-148099395D01*
X123840623Y-148098559D01*
X122488316Y-147746446D01*
X122484932Y-147745514D01*
X121143086Y-147355259D01*
X121139731Y-147354231D01*
X119809520Y-146926178D01*
X119806195Y-146925056D01*
X118488598Y-146459520D01*
X118485306Y-146458304D01*
X117181421Y-145955671D01*
X117178164Y-145954362D01*
X115889037Y-145415037D01*
X115885819Y-145413637D01*
X114612473Y-144838048D01*
X114609296Y-144836558D01*
X113352721Y-144225153D01*
X113349587Y-144223573D01*
X112110818Y-143576852D01*
X112107731Y-143575184D01*
X110887770Y-142893673D01*
X110884731Y-142891918D01*
X110463834Y-142640906D01*
X109684553Y-142176162D01*
X109681596Y-142174342D01*
X108502116Y-141424884D01*
X108499181Y-141422960D01*
X107341414Y-140640446D01*
X107338535Y-140638440D01*
X106927036Y-140343013D01*
X106551864Y-140073666D01*
X106203383Y-139823481D01*
X106200561Y-139821394D01*
X105088906Y-138974622D01*
X105086145Y-138972456D01*
X103998912Y-138094578D01*
X103996223Y-138092343D01*
X103043361Y-137277355D01*
X102934284Y-137184060D01*
X102931652Y-137181745D01*
X102684848Y-136958254D01*
X101895794Y-136243732D01*
X101893227Y-136241340D01*
X101696937Y-136053211D01*
X100884343Y-135274404D01*
X100881886Y-135271980D01*
X99900759Y-134276871D01*
X99898343Y-134274350D01*
X99891796Y-134267323D01*
X99240541Y-133568276D01*
X98945783Y-133251887D01*
X98943428Y-133249286D01*
X98508485Y-132755095D01*
X98020186Y-132200279D01*
X98017917Y-132197626D01*
X97124721Y-131122902D01*
X97122533Y-131120192D01*
X97100358Y-131091920D01*
X96260131Y-130020649D01*
X96258019Y-130017877D01*
X96257751Y-130017515D01*
X95594026Y-129120100D01*
X95427041Y-128894321D01*
X95424995Y-128891470D01*
X94626182Y-127744900D01*
X94624217Y-127741992D01*
X94404683Y-127407062D01*
X93858165Y-126573269D01*
X93856323Y-126570372D01*
X93123610Y-125380369D01*
X93121813Y-125377355D01*
X93024492Y-125208790D01*
X92423096Y-124167143D01*
X92421431Y-124164162D01*
X91757211Y-122934605D01*
X91755599Y-122931516D01*
X91748454Y-122917345D01*
X91126478Y-121683730D01*
X91124945Y-121680578D01*
X90531396Y-120415506D01*
X90529950Y-120412308D01*
X90128173Y-119488880D01*
X89972409Y-119130877D01*
X89971064Y-119127661D01*
X89945832Y-119064868D01*
X89450039Y-117831040D01*
X89448787Y-117827794D01*
X89416166Y-117739468D01*
X88964642Y-116516890D01*
X88963475Y-116513585D01*
X88949972Y-116473575D01*
X88516614Y-115189488D01*
X88515576Y-115186261D01*
X88106352Y-113850004D01*
X88105397Y-113846721D01*
X87734153Y-112499422D01*
X87733295Y-112496125D01*
X87400340Y-111138919D01*
X87399553Y-111135500D01*
X87282718Y-110593384D01*
X87105146Y-109769449D01*
X87104457Y-109766017D01*
X87017723Y-109299884D01*
X86848821Y-108392159D01*
X86848233Y-108388725D01*
X86631575Y-107008160D01*
X86631093Y-107004777D01*
X86453583Y-105618574D01*
X86453200Y-105615195D01*
X86382319Y-104901996D01*
X88865735Y-104901996D01*
X88865735Y-104902003D01*
X88885930Y-105081249D01*
X88885931Y-105081254D01*
X88945511Y-105251523D01*
X89005073Y-105346315D01*
X89041484Y-105404262D01*
X89169038Y-105531816D01*
X89223784Y-105566215D01*
X89307196Y-105618627D01*
X89321778Y-105627789D01*
X89344258Y-105635655D01*
X89492045Y-105687368D01*
X89492050Y-105687369D01*
X89671296Y-105707565D01*
X89671300Y-105707565D01*
X89671304Y-105707565D01*
X89850546Y-105687369D01*
X89850548Y-105687369D01*
X89850548Y-105687368D01*
X89850555Y-105687368D01*
X89861075Y-105683686D01*
X89930849Y-105680122D01*
X89989711Y-105713046D01*
X94426584Y-110149919D01*
X94460069Y-110211242D01*
X94455085Y-110280934D01*
X94413213Y-110336867D01*
X94347749Y-110361284D01*
X94338903Y-110361600D01*
X94294769Y-110361600D01*
X94294753Y-110361599D01*
X94287157Y-110361599D01*
X94129043Y-110361599D01*
X94021687Y-110390365D01*
X93976310Y-110402524D01*
X93976309Y-110402525D01*
X93926196Y-110431459D01*
X93926195Y-110431460D01*
X93882789Y-110456520D01*
X93839385Y-110481579D01*
X93839382Y-110481581D01*
X93727578Y-110593386D01*
X91699065Y-112621898D01*
X91637742Y-112655383D01*
X91625268Y-112657437D01*
X91538350Y-112667230D01*
X91368078Y-112726810D01*
X91215337Y-112822784D01*
X91087784Y-112950337D01*
X90991811Y-113103076D01*
X90932231Y-113273345D01*
X90932230Y-113273350D01*
X90912035Y-113452596D01*
X90912035Y-113452603D01*
X90932230Y-113631849D01*
X90932231Y-113631854D01*
X90991811Y-113802123D01*
X91055504Y-113903489D01*
X91087784Y-113954862D01*
X91215338Y-114082416D01*
X91235851Y-114095305D01*
X91368074Y-114178387D01*
X91368078Y-114178389D01*
X91470357Y-114214178D01*
X91538345Y-114237968D01*
X91538350Y-114237969D01*
X91717596Y-114258165D01*
X91717600Y-114258165D01*
X91717604Y-114258165D01*
X91896849Y-114237969D01*
X91896852Y-114237968D01*
X91896855Y-114237968D01*
X92067122Y-114178389D01*
X92067124Y-114178387D01*
X92067126Y-114178387D01*
X92199350Y-114095305D01*
X92266586Y-114076304D01*
X92333421Y-114096671D01*
X92378636Y-114149939D01*
X92388028Y-114210836D01*
X92388135Y-114210836D01*
X92388135Y-114211532D01*
X92388543Y-114214178D01*
X92388135Y-114217800D01*
X92388135Y-114217803D01*
X92408330Y-114397049D01*
X92408331Y-114397054D01*
X92467911Y-114567323D01*
X92499483Y-114617569D01*
X92563884Y-114720062D01*
X92691438Y-114847616D01*
X92844178Y-114943589D01*
X93014445Y-115003168D01*
X93101369Y-115012961D01*
X93165780Y-115040026D01*
X93175165Y-115048500D01*
X100739981Y-122613316D01*
X100773466Y-122674639D01*
X100776300Y-122700997D01*
X100776300Y-125387578D01*
X100756615Y-125454617D01*
X100703811Y-125500372D01*
X100666183Y-125510798D01*
X100547850Y-125524130D01*
X100547845Y-125524131D01*
X100377576Y-125583711D01*
X100224837Y-125679684D01*
X100097284Y-125807237D01*
X100001311Y-125959976D01*
X99941731Y-126130245D01*
X99941730Y-126130250D01*
X99921535Y-126309496D01*
X99921535Y-126309503D01*
X99941730Y-126488749D01*
X99941731Y-126488754D01*
X100001311Y-126659023D01*
X100097285Y-126811763D01*
X100099545Y-126814597D01*
X100100434Y-126816775D01*
X100100989Y-126817658D01*
X100100834Y-126817755D01*
X100125955Y-126879283D01*
X100126600Y-126891912D01*
X100126600Y-128072430D01*
X100126599Y-128072448D01*
X100126599Y-128238154D01*
X100126598Y-128238154D01*
X100167524Y-128390889D01*
X100167525Y-128390890D01*
X100191093Y-128431710D01*
X100191094Y-128431711D01*
X100246577Y-128527812D01*
X100246581Y-128527817D01*
X100365449Y-128646685D01*
X100365454Y-128646689D01*
X101586984Y-129868220D01*
X101586986Y-129868221D01*
X101586990Y-129868224D01*
X101723909Y-129947273D01*
X101723916Y-129947277D01*
X101876643Y-129988201D01*
X101876645Y-129988201D01*
X102042354Y-129988201D01*
X102042370Y-129988200D01*
X118543588Y-129988200D01*
X118610627Y-130007885D01*
X118620903Y-130015255D01*
X118623736Y-130017514D01*
X118623738Y-130017516D01*
X118776478Y-130113489D01*
X118946745Y-130173068D01*
X118946750Y-130173069D01*
X119125996Y-130193265D01*
X119126000Y-130193265D01*
X119126004Y-130193265D01*
X119305249Y-130173069D01*
X119305252Y-130173068D01*
X119305255Y-130173068D01*
X119475522Y-130113489D01*
X119628262Y-130017516D01*
X119755816Y-129889962D01*
X119851789Y-129737222D01*
X119911368Y-129566955D01*
X119916642Y-129520147D01*
X119920195Y-129488617D01*
X119947261Y-129424203D01*
X120004856Y-129384648D01*
X120043415Y-129378500D01*
X121918403Y-129378500D01*
X121985442Y-129398185D01*
X122031197Y-129450989D01*
X122041141Y-129520147D01*
X122012116Y-129583703D01*
X122006084Y-129590181D01*
X118315284Y-133280981D01*
X118253961Y-133314466D01*
X118227603Y-133317300D01*
X117064412Y-133317300D01*
X116997373Y-133297615D01*
X116987097Y-133290245D01*
X116984263Y-133287985D01*
X116984262Y-133287984D01*
X116922675Y-133249286D01*
X116831523Y-133192011D01*
X116661254Y-133132431D01*
X116661249Y-133132430D01*
X116482004Y-133112235D01*
X116481996Y-133112235D01*
X116302750Y-133132430D01*
X116302745Y-133132431D01*
X116132476Y-133192011D01*
X115979737Y-133287984D01*
X115852184Y-133415537D01*
X115756211Y-133568276D01*
X115696631Y-133738545D01*
X115696630Y-133738550D01*
X115676435Y-133917796D01*
X115676435Y-133917803D01*
X115696630Y-134097049D01*
X115696631Y-134097054D01*
X115756211Y-134267323D01*
X115846490Y-134411000D01*
X115852184Y-134420062D01*
X115979738Y-134547616D01*
X116132478Y-134643589D01*
X116287790Y-134697935D01*
X116302745Y-134703168D01*
X116302750Y-134703169D01*
X116481996Y-134723365D01*
X116482000Y-134723365D01*
X116482004Y-134723365D01*
X116661249Y-134703169D01*
X116661252Y-134703168D01*
X116661255Y-134703168D01*
X116831522Y-134643589D01*
X116984262Y-134547616D01*
X116984267Y-134547610D01*
X116987097Y-134545355D01*
X116989275Y-134544465D01*
X116990158Y-134543911D01*
X116990255Y-134544065D01*
X117051783Y-134518945D01*
X117064412Y-134518300D01*
X118441031Y-134518300D01*
X118441047Y-134518301D01*
X118448643Y-134518301D01*
X118606754Y-134518301D01*
X118606757Y-134518301D01*
X118759485Y-134477377D01*
X118809604Y-134448439D01*
X118896416Y-134398320D01*
X119008220Y-134286516D01*
X119008220Y-134286514D01*
X119018428Y-134276307D01*
X119018430Y-134276304D01*
X131171931Y-122122802D01*
X131233252Y-122089319D01*
X131302944Y-122094303D01*
X131325580Y-122105490D01*
X131449078Y-122183089D01*
X131619345Y-122242668D01*
X131706269Y-122252461D01*
X131770680Y-122279526D01*
X131780065Y-122288000D01*
X132088181Y-122596116D01*
X132121666Y-122657439D01*
X132124500Y-122683797D01*
X132124500Y-123345001D01*
X132124501Y-123345019D01*
X132135000Y-123447796D01*
X132135001Y-123447799D01*
X132185059Y-123598862D01*
X132190186Y-123614334D01*
X132282288Y-123763656D01*
X132406344Y-123887712D01*
X132555666Y-123979814D01*
X132664505Y-124015879D01*
X132721949Y-124055652D01*
X132748772Y-124120167D01*
X132749500Y-124133585D01*
X132749500Y-125597530D01*
X132749499Y-125597548D01*
X132749499Y-125763258D01*
X132761867Y-125809417D01*
X132760204Y-125879267D01*
X132729773Y-125929190D01*
X129860282Y-128798681D01*
X129798959Y-128832166D01*
X129729267Y-128827182D01*
X129673334Y-128785310D01*
X129667607Y-128776972D01*
X129591115Y-128655237D01*
X129463562Y-128527684D01*
X129310823Y-128431711D01*
X129140554Y-128372131D01*
X129140549Y-128372130D01*
X128961304Y-128351935D01*
X128961296Y-128351935D01*
X128782050Y-128372130D01*
X128782045Y-128372131D01*
X128611776Y-128431711D01*
X128459036Y-128527685D01*
X128456203Y-128529945D01*
X128454024Y-128530834D01*
X128453142Y-128531389D01*
X128453044Y-128531234D01*
X128391517Y-128556355D01*
X128378888Y-128557000D01*
X128102870Y-128557000D01*
X128102854Y-128556999D01*
X128095258Y-128556999D01*
X127937143Y-128556999D01*
X127860779Y-128577461D01*
X127784414Y-128597923D01*
X127784409Y-128597926D01*
X127647490Y-128676975D01*
X127647482Y-128676981D01*
X120376165Y-135948298D01*
X120314842Y-135981783D01*
X120302368Y-135983837D01*
X120215450Y-135993630D01*
X120045178Y-136053210D01*
X119892437Y-136149184D01*
X119764884Y-136276737D01*
X119668911Y-136429476D01*
X119609331Y-136599745D01*
X119609330Y-136599750D01*
X119589135Y-136778996D01*
X119589135Y-136779003D01*
X119609330Y-136958249D01*
X119609331Y-136958254D01*
X119668911Y-137128523D01*
X119757986Y-137270284D01*
X119764884Y-137281262D01*
X119892438Y-137408816D01*
X120045178Y-137504789D01*
X120215445Y-137564368D01*
X120215450Y-137564369D01*
X120394696Y-137584565D01*
X120394700Y-137584565D01*
X120394704Y-137584565D01*
X120573949Y-137564369D01*
X120573952Y-137564368D01*
X120573955Y-137564368D01*
X120744222Y-137504789D01*
X120896962Y-137408816D01*
X121024516Y-137281262D01*
X121120489Y-137128522D01*
X121180068Y-136958255D01*
X121189861Y-136871329D01*
X121216926Y-136806918D01*
X121225390Y-136797543D01*
X128228617Y-129794319D01*
X128289940Y-129760834D01*
X128316298Y-129758000D01*
X128378888Y-129758000D01*
X128445927Y-129777685D01*
X128456203Y-129785055D01*
X128459036Y-129787314D01*
X128459038Y-129787316D01*
X128512670Y-129821015D01*
X128580772Y-129863807D01*
X128627063Y-129916142D01*
X128637711Y-129985196D01*
X128609336Y-130049044D01*
X128602481Y-130056482D01*
X122704286Y-135954678D01*
X122592481Y-136066482D01*
X122592479Y-136066485D01*
X122544735Y-136149182D01*
X122544734Y-136149183D01*
X122513423Y-136203414D01*
X122513423Y-136203415D01*
X122472499Y-136356143D01*
X122472499Y-136356145D01*
X122472499Y-136524246D01*
X122472500Y-136524259D01*
X122472500Y-142601908D01*
X122452815Y-142668947D01*
X122400914Y-142714286D01*
X122395173Y-142716963D01*
X122395169Y-142716965D01*
X122201597Y-142852505D01*
X122034505Y-143019597D01*
X121904575Y-143205158D01*
X121849998Y-143248783D01*
X121780500Y-143255977D01*
X121718145Y-143224454D01*
X121701425Y-143205158D01*
X121571494Y-143019597D01*
X121404402Y-142852506D01*
X121404395Y-142852501D01*
X121210834Y-142716967D01*
X121210830Y-142716965D01*
X121139727Y-142683809D01*
X120996663Y-142617097D01*
X120996659Y-142617096D01*
X120996655Y-142617094D01*
X120768413Y-142555938D01*
X120768403Y-142555936D01*
X120533001Y-142535341D01*
X120532999Y-142535341D01*
X120297596Y-142555936D01*
X120297586Y-142555938D01*
X120069344Y-142617094D01*
X120069335Y-142617098D01*
X119855171Y-142716964D01*
X119855169Y-142716965D01*
X119661600Y-142852503D01*
X119539673Y-142974430D01*
X119478350Y-143007914D01*
X119408658Y-143002930D01*
X119352725Y-142961058D01*
X119335810Y-142930081D01*
X119286797Y-142798671D01*
X119286793Y-142798664D01*
X119200547Y-142683455D01*
X119200544Y-142683452D01*
X119085335Y-142597206D01*
X119085328Y-142597202D01*
X118950482Y-142546908D01*
X118950483Y-142546908D01*
X118890883Y-142540501D01*
X118890881Y-142540500D01*
X118890873Y-142540500D01*
X118890864Y-142540500D01*
X117095129Y-142540500D01*
X117095123Y-142540501D01*
X117035516Y-142546908D01*
X116900671Y-142597202D01*
X116900664Y-142597206D01*
X116785455Y-142683452D01*
X116785452Y-142683455D01*
X116699206Y-142798664D01*
X116699202Y-142798671D01*
X116648908Y-142933517D01*
X116642501Y-142993116D01*
X116642500Y-142993135D01*
X116642500Y-144788870D01*
X116642501Y-144788876D01*
X116648908Y-144848483D01*
X116699202Y-144983328D01*
X116699206Y-144983335D01*
X116785452Y-145098544D01*
X116785455Y-145098547D01*
X116900664Y-145184793D01*
X116900671Y-145184797D01*
X117035517Y-145235091D01*
X117035516Y-145235091D01*
X117042444Y-145235835D01*
X117095127Y-145241500D01*
X118890872Y-145241499D01*
X118950483Y-145235091D01*
X119085331Y-145184796D01*
X119200546Y-145098546D01*
X119286796Y-144983331D01*
X119335810Y-144851916D01*
X119377681Y-144795984D01*
X119443145Y-144771566D01*
X119511418Y-144786417D01*
X119539673Y-144807569D01*
X119661599Y-144929495D01*
X119758384Y-144997265D01*
X119855165Y-145065032D01*
X119855167Y-145065033D01*
X119855170Y-145065035D01*
X120069337Y-145164903D01*
X120297592Y-145226063D01*
X120474034Y-145241500D01*
X120532999Y-145246659D01*
X120533000Y-145246659D01*
X120533001Y-145246659D01*
X120591966Y-145241500D01*
X120768408Y-145226063D01*
X120996663Y-145164903D01*
X121210830Y-145065035D01*
X121404401Y-144929495D01*
X121571495Y-144762401D01*
X121701425Y-144576842D01*
X121756002Y-144533217D01*
X121825500Y-144526023D01*
X121887855Y-144557546D01*
X121904575Y-144576842D01*
X122034500Y-144762395D01*
X122034505Y-144762401D01*
X122201599Y-144929495D01*
X122298384Y-144997265D01*
X122395165Y-145065032D01*
X122395167Y-145065033D01*
X122395170Y-145065035D01*
X122609337Y-145164903D01*
X122837592Y-145226063D01*
X123014034Y-145241500D01*
X123072999Y-145246659D01*
X123073000Y-145246659D01*
X123073001Y-145246659D01*
X123131966Y-145241500D01*
X123308408Y-145226063D01*
X123536663Y-145164903D01*
X123750830Y-145065035D01*
X123944401Y-144929495D01*
X124111495Y-144762401D01*
X124241730Y-144576405D01*
X124296307Y-144532781D01*
X124365805Y-144525587D01*
X124428160Y-144557110D01*
X124444879Y-144576405D01*
X124574890Y-144762078D01*
X124741917Y-144929105D01*
X124935421Y-145064600D01*
X125149507Y-145164429D01*
X125149516Y-145164433D01*
X125363000Y-145221634D01*
X125363000Y-144324012D01*
X125420007Y-144356925D01*
X125547174Y-144391000D01*
X125678826Y-144391000D01*
X125805993Y-144356925D01*
X125863000Y-144324012D01*
X125863000Y-145221633D01*
X126076483Y-145164433D01*
X126076492Y-145164429D01*
X126290578Y-145064600D01*
X126484082Y-144929105D01*
X126651105Y-144762082D01*
X126786600Y-144568578D01*
X126886429Y-144354492D01*
X126886432Y-144354486D01*
X126943636Y-144141000D01*
X126046012Y-144141000D01*
X126078925Y-144083993D01*
X126113000Y-143956826D01*
X126113000Y-143825174D01*
X126078925Y-143698007D01*
X126046012Y-143641000D01*
X126943636Y-143641000D01*
X126943635Y-143640999D01*
X126886432Y-143427513D01*
X126886429Y-143427507D01*
X126786600Y-143213422D01*
X126786599Y-143213420D01*
X126744242Y-143152928D01*
X130770000Y-143152928D01*
X130770000Y-143546500D01*
X131420000Y-143546500D01*
X131420000Y-144046500D01*
X130770000Y-144046500D01*
X130770000Y-144440071D01*
X130806506Y-144623597D01*
X130806508Y-144623605D01*
X130878119Y-144796491D01*
X130878124Y-144796500D01*
X130982086Y-144952089D01*
X130982089Y-144952093D01*
X131114406Y-145084410D01*
X131114410Y-145084413D01*
X131269999Y-145188375D01*
X131270012Y-145188382D01*
X131442889Y-145259989D01*
X131442896Y-145259991D01*
X131470000Y-145265382D01*
X131470000Y-144513488D01*
X131479940Y-144530705D01*
X131535795Y-144586560D01*
X131604204Y-144626056D01*
X131680504Y-144646500D01*
X131759496Y-144646500D01*
X131835796Y-144626056D01*
X131904205Y-144586560D01*
X131960060Y-144530705D01*
X131970000Y-144513488D01*
X131970000Y-145265381D01*
X131997103Y-145259991D01*
X131997110Y-145259989D01*
X132169987Y-145188382D01*
X132170000Y-145188375D01*
X132325589Y-145084413D01*
X132325593Y-145084410D01*
X132457910Y-144952093D01*
X132457913Y-144952089D01*
X132561875Y-144796500D01*
X132561879Y-144796493D01*
X132585930Y-144738427D01*
X132629770Y-144684023D01*
X132696064Y-144661957D01*
X132763764Y-144679235D01*
X132788173Y-144698197D01*
X132816985Y-144727009D01*
X132816986Y-144727010D01*
X132816988Y-144727011D01*
X132942511Y-144799482D01*
X132942512Y-144799482D01*
X132942515Y-144799484D01*
X133082525Y-144837000D01*
X133082528Y-144837000D01*
X133227472Y-144837000D01*
X133227475Y-144837000D01*
X133367485Y-144799484D01*
X133493015Y-144727009D01*
X133595509Y-144624515D01*
X133667984Y-144498985D01*
X133705500Y-144358975D01*
X133705500Y-144214025D01*
X133667984Y-144074015D01*
X133644139Y-144032715D01*
X133595511Y-143948488D01*
X133595506Y-143948482D01*
X133493017Y-143845993D01*
X133493011Y-143845988D01*
X133367488Y-143773517D01*
X133367489Y-143773517D01*
X133319364Y-143760622D01*
X133227475Y-143736000D01*
X133082525Y-143736000D01*
X132990636Y-143760622D01*
X132942511Y-143773517D01*
X132816988Y-143845988D01*
X132816982Y-143845993D01*
X132714493Y-143948482D01*
X132714489Y-143948488D01*
X132693698Y-143984500D01*
X132643132Y-144032715D01*
X132586311Y-144046500D01*
X132020000Y-144046500D01*
X132020000Y-143546500D01*
X132670000Y-143546500D01*
X132670000Y-143152930D01*
X132669999Y-143152928D01*
X132633493Y-142969402D01*
X132633491Y-142969394D01*
X132561880Y-142796508D01*
X132561875Y-142796499D01*
X132457913Y-142640910D01*
X132457910Y-142640906D01*
X132325593Y-142508589D01*
X132325589Y-142508586D01*
X132170000Y-142404624D01*
X132169991Y-142404619D01*
X131997103Y-142333007D01*
X131997100Y-142333006D01*
X131970000Y-142327615D01*
X131970000Y-143079511D01*
X131960060Y-143062295D01*
X131904205Y-143006440D01*
X131835796Y-142966944D01*
X131759496Y-142946500D01*
X131680504Y-142946500D01*
X131604204Y-142966944D01*
X131535795Y-143006440D01*
X131479940Y-143062295D01*
X131470000Y-143079511D01*
X131470000Y-142327616D01*
X131469999Y-142327615D01*
X131442899Y-142333006D01*
X131442896Y-142333007D01*
X131270008Y-142404619D01*
X131269999Y-142404624D01*
X131114410Y-142508586D01*
X131114406Y-142508589D01*
X130982089Y-142640906D01*
X130982086Y-142640910D01*
X130878124Y-142796499D01*
X130878119Y-142796508D01*
X130806508Y-142969394D01*
X130806506Y-142969402D01*
X130770000Y-143152928D01*
X126744242Y-143152928D01*
X126651113Y-143019926D01*
X126651108Y-143019920D01*
X126484082Y-142852894D01*
X126290578Y-142717399D01*
X126076492Y-142617570D01*
X126076486Y-142617567D01*
X125863000Y-142560364D01*
X125863000Y-143457988D01*
X125805993Y-143425075D01*
X125678826Y-143391000D01*
X125547174Y-143391000D01*
X125420007Y-143425075D01*
X125363000Y-143457988D01*
X125363000Y-142560364D01*
X125362999Y-142560364D01*
X125149513Y-142617567D01*
X125149507Y-142617570D01*
X124935422Y-142717399D01*
X124935420Y-142717400D01*
X124741926Y-142852886D01*
X124741920Y-142852891D01*
X124574891Y-143019920D01*
X124574890Y-143019922D01*
X124444880Y-143205595D01*
X124390303Y-143249219D01*
X124320804Y-143256412D01*
X124258450Y-143224890D01*
X124241730Y-143205594D01*
X124111494Y-143019597D01*
X123944402Y-142852506D01*
X123944395Y-142852501D01*
X123750831Y-142716965D01*
X123750826Y-142716962D01*
X123745091Y-142714288D01*
X123692653Y-142668113D01*
X123673500Y-142601908D01*
X123673500Y-141342986D01*
X131631001Y-141342986D01*
X131641494Y-141445697D01*
X131696641Y-141612119D01*
X131696643Y-141612124D01*
X131788684Y-141761345D01*
X131912654Y-141885315D01*
X132061875Y-141977356D01*
X132061880Y-141977358D01*
X132228302Y-142032505D01*
X132228309Y-142032506D01*
X132331019Y-142042999D01*
X132480999Y-142042999D01*
X132481000Y-142042998D01*
X132481000Y-141093000D01*
X131631001Y-141093000D01*
X131631001Y-141342986D01*
X123673500Y-141342986D01*
X123673500Y-140343013D01*
X131631000Y-140343013D01*
X131631000Y-140593000D01*
X132481000Y-140593000D01*
X132481000Y-139643000D01*
X132981000Y-139643000D01*
X132981000Y-142042999D01*
X133130972Y-142042999D01*
X133130986Y-142042998D01*
X133233697Y-142032505D01*
X133400119Y-141977358D01*
X133400124Y-141977356D01*
X133549342Y-141885317D01*
X133642964Y-141791695D01*
X133704287Y-141758210D01*
X133773979Y-141763194D01*
X133818327Y-141791695D01*
X133912344Y-141885712D01*
X134060927Y-141977358D01*
X134061668Y-141977815D01*
X134077208Y-141982964D01*
X134109502Y-141993665D01*
X134166947Y-142033435D01*
X134193772Y-142097950D01*
X134194500Y-142111371D01*
X134194500Y-143709787D01*
X134174815Y-143776826D01*
X134167450Y-143787096D01*
X134165186Y-143789934D01*
X134069211Y-143942676D01*
X134009631Y-144112945D01*
X134009630Y-144112950D01*
X133989435Y-144292196D01*
X133989435Y-144292203D01*
X134009630Y-144471449D01*
X134009631Y-144471454D01*
X134069211Y-144641723D01*
X134145039Y-144762401D01*
X134165184Y-144794462D01*
X134292738Y-144922016D01*
X134383080Y-144978782D01*
X134390326Y-144983335D01*
X134445478Y-145017989D01*
X134578685Y-145064600D01*
X134615745Y-145077568D01*
X134615750Y-145077569D01*
X134794996Y-145097765D01*
X134795000Y-145097765D01*
X134795004Y-145097765D01*
X134974249Y-145077569D01*
X134974252Y-145077568D01*
X134974255Y-145077568D01*
X135144522Y-145017989D01*
X135297262Y-144922016D01*
X135424816Y-144794462D01*
X135520789Y-144641722D01*
X135580368Y-144471455D01*
X135583904Y-144440071D01*
X135600565Y-144292203D01*
X135600565Y-144292196D01*
X135591757Y-144214025D01*
X138384500Y-144214025D01*
X138384500Y-144358975D01*
X138422016Y-144498985D01*
X138422017Y-144498988D01*
X138494488Y-144624511D01*
X138494490Y-144624513D01*
X138494491Y-144624515D01*
X138596985Y-144727009D01*
X138596986Y-144727010D01*
X138596988Y-144727011D01*
X138722511Y-144799482D01*
X138722512Y-144799482D01*
X138722515Y-144799484D01*
X138862525Y-144837000D01*
X138862528Y-144837000D01*
X139007472Y-144837000D01*
X139007475Y-144837000D01*
X139147485Y-144799484D01*
X139273015Y-144727009D01*
X139301828Y-144698195D01*
X139363147Y-144664712D01*
X139432839Y-144669696D01*
X139488773Y-144711566D01*
X139504068Y-144738426D01*
X139528117Y-144796487D01*
X139528124Y-144796500D01*
X139632086Y-144952089D01*
X139632089Y-144952093D01*
X139764406Y-145084410D01*
X139764410Y-145084413D01*
X139919999Y-145188375D01*
X139920012Y-145188382D01*
X140092889Y-145259989D01*
X140092896Y-145259991D01*
X140120000Y-145265382D01*
X140120000Y-144513488D01*
X140129940Y-144530705D01*
X140185795Y-144586560D01*
X140254204Y-144626056D01*
X140330504Y-144646500D01*
X140409496Y-144646500D01*
X140485796Y-144626056D01*
X140554205Y-144586560D01*
X140610060Y-144530705D01*
X140620000Y-144513488D01*
X140620000Y-145265381D01*
X140647103Y-145259991D01*
X140647110Y-145259989D01*
X140819987Y-145188382D01*
X140820000Y-145188375D01*
X140975589Y-145084413D01*
X140975593Y-145084410D01*
X141107910Y-144952093D01*
X141107913Y-144952089D01*
X141211875Y-144796500D01*
X141211880Y-144796491D01*
X141283491Y-144623605D01*
X141283493Y-144623597D01*
X141319999Y-144440071D01*
X141320000Y-144440069D01*
X141320000Y-144046500D01*
X140670000Y-144046500D01*
X140670000Y-143546500D01*
X141320000Y-143546500D01*
X141320000Y-143152930D01*
X141319999Y-143152928D01*
X141283493Y-142969402D01*
X141283491Y-142969394D01*
X141211880Y-142796508D01*
X141211875Y-142796499D01*
X141107913Y-142640910D01*
X141107910Y-142640906D01*
X140975593Y-142508589D01*
X140975589Y-142508586D01*
X140820000Y-142404624D01*
X140819991Y-142404619D01*
X140647103Y-142333007D01*
X140647100Y-142333006D01*
X140620000Y-142327615D01*
X140620000Y-143079511D01*
X140610060Y-143062295D01*
X140554205Y-143006440D01*
X140485796Y-142966944D01*
X140409496Y-142946500D01*
X140330504Y-142946500D01*
X140254204Y-142966944D01*
X140185795Y-143006440D01*
X140129940Y-143062295D01*
X140120000Y-143079511D01*
X140120000Y-142327616D01*
X140119999Y-142327615D01*
X140092899Y-142333006D01*
X140092896Y-142333007D01*
X139920008Y-142404619D01*
X139919999Y-142404624D01*
X139764410Y-142508586D01*
X139764406Y-142508589D01*
X139632089Y-142640906D01*
X139632086Y-142640910D01*
X139528124Y-142796499D01*
X139528119Y-142796508D01*
X139456508Y-142969394D01*
X139456506Y-142969402D01*
X139420000Y-143152928D01*
X139420000Y-143546500D01*
X140070000Y-143546500D01*
X140070000Y-144046500D01*
X139503689Y-144046500D01*
X139436650Y-144026815D01*
X139396302Y-143984500D01*
X139375509Y-143948485D01*
X139273015Y-143845991D01*
X139273013Y-143845990D01*
X139273011Y-143845988D01*
X139147488Y-143773517D01*
X139147489Y-143773517D01*
X139099364Y-143760622D01*
X139007475Y-143736000D01*
X138862525Y-143736000D01*
X138770636Y-143760622D01*
X138722511Y-143773517D01*
X138596988Y-143845988D01*
X138596982Y-143845993D01*
X138494493Y-143948482D01*
X138494488Y-143948488D01*
X138422017Y-144074011D01*
X138422016Y-144074015D01*
X138384500Y-144214025D01*
X135591757Y-144214025D01*
X135580369Y-144112950D01*
X135580368Y-144112945D01*
X135535423Y-143984500D01*
X135520789Y-143942678D01*
X135424816Y-143789938D01*
X135424814Y-143789936D01*
X135424813Y-143789934D01*
X135422550Y-143787096D01*
X135421659Y-143784915D01*
X135421111Y-143784042D01*
X135421264Y-143783945D01*
X135396144Y-143722409D01*
X135395500Y-143709787D01*
X135395500Y-142050003D01*
X135415185Y-141982964D01*
X135454403Y-141944464D01*
X135549656Y-141885712D01*
X135673712Y-141761656D01*
X135673715Y-141761650D01*
X135676194Y-141759172D01*
X135737517Y-141725687D01*
X135807209Y-141730671D01*
X135858044Y-141767685D01*
X135858181Y-141767549D01*
X135859049Y-141768417D01*
X135861142Y-141769941D01*
X135863285Y-141772651D01*
X135863288Y-141772656D01*
X135987344Y-141896712D01*
X136136666Y-141988814D01*
X136303203Y-142043999D01*
X136405991Y-142054500D01*
X136900460Y-142054499D01*
X136967499Y-142074183D01*
X137013254Y-142126987D01*
X137017498Y-142137537D01*
X137030374Y-142174332D01*
X137069210Y-142285321D01*
X137144170Y-142404619D01*
X137165184Y-142438062D01*
X137292738Y-142565616D01*
X137375422Y-142617570D01*
X137412567Y-142640910D01*
X137445478Y-142661589D01*
X137508988Y-142683812D01*
X137615745Y-142721168D01*
X137615750Y-142721169D01*
X137794996Y-142741365D01*
X137795000Y-142741365D01*
X137795004Y-142741365D01*
X137974249Y-142721169D01*
X137974252Y-142721168D01*
X137974255Y-142721168D01*
X138144522Y-142661589D01*
X138297262Y-142565616D01*
X138424816Y-142438062D01*
X138520789Y-142285322D01*
X138559884Y-142173594D01*
X138600604Y-142116819D01*
X138665557Y-142091071D01*
X138711746Y-142097233D01*
X138711965Y-142096307D01*
X138719516Y-142098091D01*
X138726444Y-142098835D01*
X138779127Y-142104500D01*
X139604872Y-142104499D01*
X139664483Y-142098091D01*
X139799331Y-142047796D01*
X139914546Y-141961546D01*
X140000796Y-141846331D01*
X140051091Y-141711483D01*
X140057500Y-141651873D01*
X140057499Y-140346128D01*
X140051091Y-140286517D01*
X140025010Y-140216591D01*
X140000797Y-140151671D01*
X140000793Y-140151664D01*
X139914547Y-140036455D01*
X139914544Y-140036452D01*
X139799335Y-139950206D01*
X139799328Y-139950202D01*
X139664482Y-139899908D01*
X139664483Y-139899908D01*
X139604883Y-139893501D01*
X139604881Y-139893500D01*
X139604873Y-139893500D01*
X139604864Y-139893500D01*
X138779129Y-139893500D01*
X138779123Y-139893501D01*
X138719516Y-139899908D01*
X138584671Y-139950202D01*
X138584664Y-139950206D01*
X138469455Y-140036452D01*
X138395394Y-140135384D01*
X138339460Y-140177254D01*
X138282245Y-140184292D01*
X138106004Y-140164435D01*
X138105996Y-140164435D01*
X138050123Y-140170730D01*
X137981301Y-140158675D01*
X137948559Y-140135191D01*
X137854695Y-140041327D01*
X137821210Y-139980004D01*
X137826194Y-139910312D01*
X137854695Y-139865964D01*
X137948317Y-139772342D01*
X138040356Y-139623124D01*
X138040358Y-139623119D01*
X138095505Y-139456697D01*
X138095506Y-139456690D01*
X138105999Y-139353986D01*
X138106000Y-139353973D01*
X138106000Y-139204000D01*
X135706001Y-139204000D01*
X135706001Y-139353986D01*
X135716494Y-139456697D01*
X135771641Y-139623119D01*
X135771643Y-139623124D01*
X135857202Y-139761836D01*
X135875642Y-139829229D01*
X135854719Y-139895892D01*
X135801077Y-139940662D01*
X135731747Y-139949323D01*
X135668739Y-139919127D01*
X135663982Y-139914614D01*
X135549657Y-139800289D01*
X135549656Y-139800288D01*
X135400334Y-139708186D01*
X135233797Y-139653001D01*
X135233795Y-139653000D01*
X135131010Y-139642500D01*
X134330998Y-139642500D01*
X134330980Y-139642501D01*
X134228203Y-139653000D01*
X134228200Y-139653001D01*
X134061668Y-139708185D01*
X134061663Y-139708187D01*
X133912345Y-139800287D01*
X133818327Y-139894305D01*
X133757003Y-139927789D01*
X133687312Y-139922805D01*
X133642965Y-139894304D01*
X133549345Y-139800684D01*
X133400124Y-139708643D01*
X133400119Y-139708641D01*
X133233697Y-139653494D01*
X133233690Y-139653493D01*
X133130986Y-139643000D01*
X132981000Y-139643000D01*
X132481000Y-139643000D01*
X132331027Y-139643000D01*
X132331012Y-139643001D01*
X132228302Y-139653494D01*
X132061880Y-139708641D01*
X132061875Y-139708643D01*
X131912654Y-139800684D01*
X131788684Y-139924654D01*
X131696643Y-140073875D01*
X131696641Y-140073880D01*
X131641494Y-140240302D01*
X131641493Y-140240309D01*
X131631000Y-140343013D01*
X123673500Y-140343013D01*
X123673500Y-138554013D01*
X135706000Y-138554013D01*
X135706000Y-138704000D01*
X136656000Y-138704000D01*
X137156000Y-138704000D01*
X138105999Y-138704000D01*
X138105999Y-138554028D01*
X138105998Y-138554013D01*
X138095505Y-138451302D01*
X138040358Y-138284880D01*
X138040356Y-138284875D01*
X137948315Y-138135654D01*
X137824345Y-138011684D01*
X137675124Y-137919643D01*
X137675119Y-137919641D01*
X137508697Y-137864494D01*
X137508690Y-137864493D01*
X137405986Y-137854000D01*
X137156000Y-137854000D01*
X137156000Y-138704000D01*
X136656000Y-138704000D01*
X136656000Y-137854000D01*
X136406029Y-137854000D01*
X136406012Y-137854001D01*
X136303302Y-137864494D01*
X136136880Y-137919641D01*
X136136875Y-137919643D01*
X135987654Y-138011684D01*
X135863684Y-138135654D01*
X135771643Y-138284875D01*
X135771641Y-138284880D01*
X135716494Y-138451302D01*
X135716493Y-138451309D01*
X135706000Y-138554013D01*
X123673500Y-138554013D01*
X123673500Y-136735296D01*
X123693185Y-136668257D01*
X123709814Y-136647619D01*
X124196447Y-136160986D01*
X136305001Y-136160986D01*
X136315494Y-136263697D01*
X136370641Y-136430119D01*
X136370643Y-136430124D01*
X136462684Y-136579345D01*
X136586654Y-136703315D01*
X136735875Y-136795356D01*
X136735880Y-136795358D01*
X136902302Y-136850505D01*
X136902309Y-136850506D01*
X137005019Y-136860999D01*
X137142499Y-136860999D01*
X137142500Y-136860998D01*
X137142500Y-135886000D01*
X136305001Y-135886000D01*
X136305001Y-136160986D01*
X124196447Y-136160986D01*
X124768306Y-135589127D01*
X124829627Y-135555644D01*
X124899319Y-135560628D01*
X124955252Y-135602500D01*
X124960978Y-135610837D01*
X124973184Y-135630262D01*
X125100738Y-135757816D01*
X125253478Y-135853789D01*
X125345532Y-135886000D01*
X125423745Y-135913368D01*
X125423750Y-135913369D01*
X125602996Y-135933565D01*
X125603000Y-135933565D01*
X125603004Y-135933565D01*
X125782249Y-135913369D01*
X125782252Y-135913368D01*
X125782255Y-135913368D01*
X125952522Y-135853789D01*
X126105262Y-135757816D01*
X126232816Y-135630262D01*
X126265524Y-135578206D01*
X126282833Y-135556502D01*
X126352822Y-135486514D01*
X126352829Y-135486504D01*
X126728320Y-135111013D01*
X136305000Y-135111013D01*
X136305000Y-135386000D01*
X137142500Y-135386000D01*
X137142500Y-134411000D01*
X137005027Y-134411000D01*
X137005012Y-134411001D01*
X136902302Y-134421494D01*
X136735880Y-134476641D01*
X136735875Y-134476643D01*
X136586654Y-134568684D01*
X136462684Y-134692654D01*
X136370643Y-134841875D01*
X136370641Y-134841880D01*
X136315494Y-135008302D01*
X136315493Y-135008309D01*
X136305000Y-135111013D01*
X126728320Y-135111013D01*
X130761316Y-131078019D01*
X130822639Y-131044534D01*
X130848997Y-131041700D01*
X134286807Y-131041700D01*
X134353846Y-131061385D01*
X134399601Y-131114189D01*
X134410027Y-131179584D01*
X134404500Y-131228635D01*
X134404500Y-132001364D01*
X134419903Y-132138077D01*
X134441674Y-132200293D01*
X134480555Y-132311409D01*
X134578254Y-132466897D01*
X134708103Y-132596746D01*
X134863591Y-132694445D01*
X134982168Y-132735936D01*
X135036922Y-132755096D01*
X135124354Y-132764946D01*
X135173635Y-132770499D01*
X135173636Y-132770500D01*
X135173640Y-132770500D01*
X137876364Y-132770500D01*
X137876364Y-132770499D01*
X137938361Y-132763513D01*
X138013077Y-132755096D01*
X138013080Y-132755095D01*
X138186409Y-132694445D01*
X138341897Y-132596746D01*
X138471746Y-132466897D01*
X138569445Y-132311409D01*
X138625958Y-132149903D01*
X138666680Y-132093127D01*
X138731633Y-132067379D01*
X138800194Y-132080835D01*
X138850597Y-132129222D01*
X138867000Y-132190857D01*
X138867000Y-134372232D01*
X138847315Y-134439271D01*
X138808098Y-134477769D01*
X138741342Y-134518945D01*
X138661342Y-134568289D01*
X138537288Y-134692343D01*
X138537283Y-134692349D01*
X138535241Y-134695661D01*
X138533247Y-134697453D01*
X138532807Y-134698011D01*
X138532711Y-134697935D01*
X138483291Y-134742383D01*
X138414328Y-134753602D01*
X138350247Y-134725755D01*
X138324168Y-134695656D01*
X138322319Y-134692659D01*
X138322316Y-134692655D01*
X138198345Y-134568684D01*
X138049124Y-134476643D01*
X138049119Y-134476641D01*
X137882697Y-134421494D01*
X137882690Y-134421493D01*
X137779986Y-134411000D01*
X137642500Y-134411000D01*
X137642500Y-136860999D01*
X137779972Y-136860999D01*
X137779986Y-136860998D01*
X137882697Y-136850505D01*
X138049119Y-136795358D01*
X138049126Y-136795355D01*
X138173676Y-136718531D01*
X138241069Y-136700090D01*
X138307732Y-136721012D01*
X138352502Y-136774654D01*
X138361164Y-136843984D01*
X138354957Y-136867400D01*
X138332908Y-136926517D01*
X138326501Y-136986116D01*
X138326500Y-136986135D01*
X138326500Y-138291870D01*
X138326501Y-138291876D01*
X138332908Y-138351483D01*
X138383202Y-138486328D01*
X138383206Y-138486335D01*
X138469452Y-138601544D01*
X138469455Y-138601547D01*
X138584664Y-138687793D01*
X138584671Y-138687797D01*
X138719517Y-138738091D01*
X138719516Y-138738091D01*
X138726444Y-138738835D01*
X138779127Y-138744500D01*
X139604872Y-138744499D01*
X139664483Y-138738091D01*
X139799331Y-138687796D01*
X139914546Y-138601546D01*
X140000796Y-138486331D01*
X140051091Y-138351483D01*
X140051223Y-138350248D01*
X140051594Y-138349352D01*
X140052874Y-138343938D01*
X140053751Y-138344145D01*
X140077959Y-138285697D01*
X140135350Y-138245847D01*
X140174513Y-138239500D01*
X145085903Y-138239500D01*
X145152942Y-138259185D01*
X145173584Y-138275819D01*
X149310604Y-142412839D01*
X149344089Y-142474162D01*
X149339105Y-142543854D01*
X149297233Y-142599787D01*
X149231769Y-142624204D01*
X149186075Y-142617818D01*
X149185893Y-142618498D01*
X148952413Y-142555938D01*
X148952403Y-142555936D01*
X148717001Y-142535341D01*
X148716999Y-142535341D01*
X148481596Y-142555936D01*
X148481586Y-142555938D01*
X148253344Y-142617094D01*
X148253335Y-142617098D01*
X148039171Y-142716964D01*
X148039169Y-142716965D01*
X147845600Y-142852503D01*
X147723284Y-142974819D01*
X147661961Y-143008303D01*
X147592269Y-143003319D01*
X147536336Y-142961447D01*
X147519421Y-142930470D01*
X147470354Y-142798913D01*
X147470350Y-142798906D01*
X147384190Y-142683812D01*
X147384187Y-142683809D01*
X147269093Y-142597649D01*
X147269086Y-142597645D01*
X147134379Y-142547403D01*
X147134372Y-142547401D01*
X147074844Y-142541000D01*
X146427000Y-142541000D01*
X146427000Y-143457988D01*
X146369993Y-143425075D01*
X146242826Y-143391000D01*
X146111174Y-143391000D01*
X145984007Y-143425075D01*
X145927000Y-143457988D01*
X145927000Y-142541000D01*
X145279155Y-142541000D01*
X145219627Y-142547401D01*
X145219620Y-142547403D01*
X145084913Y-142597645D01*
X145084906Y-142597649D01*
X144969812Y-142683809D01*
X144969809Y-142683812D01*
X144883649Y-142798906D01*
X144883645Y-142798913D01*
X144833403Y-142933620D01*
X144833401Y-142933627D01*
X144827000Y-142993155D01*
X144827000Y-143641000D01*
X145743988Y-143641000D01*
X145711075Y-143698007D01*
X145677000Y-143825174D01*
X145677000Y-143956826D01*
X145711075Y-144083993D01*
X145743988Y-144141000D01*
X144827000Y-144141000D01*
X144827000Y-144788844D01*
X144833401Y-144848372D01*
X144833403Y-144848379D01*
X144883645Y-144983086D01*
X144883649Y-144983093D01*
X144969809Y-145098187D01*
X144969812Y-145098190D01*
X145084906Y-145184350D01*
X145084913Y-145184354D01*
X145219620Y-145234596D01*
X145219627Y-145234598D01*
X145279155Y-145240999D01*
X145279172Y-145241000D01*
X145927000Y-145241000D01*
X145927000Y-144324012D01*
X145984007Y-144356925D01*
X146111174Y-144391000D01*
X146242826Y-144391000D01*
X146369993Y-144356925D01*
X146427000Y-144324012D01*
X146427000Y-145241000D01*
X147074828Y-145241000D01*
X147074844Y-145240999D01*
X147134372Y-145234598D01*
X147134379Y-145234596D01*
X147269086Y-145184354D01*
X147269093Y-145184350D01*
X147384187Y-145098190D01*
X147384190Y-145098187D01*
X147470350Y-144983093D01*
X147470354Y-144983086D01*
X147519422Y-144851529D01*
X147561293Y-144795595D01*
X147626757Y-144771178D01*
X147695030Y-144786030D01*
X147723285Y-144807181D01*
X147845599Y-144929495D01*
X147942384Y-144997265D01*
X148039165Y-145065032D01*
X148039167Y-145065033D01*
X148039170Y-145065035D01*
X148253337Y-145164903D01*
X148481592Y-145226063D01*
X148658034Y-145241500D01*
X148716999Y-145246659D01*
X148717000Y-145246659D01*
X148717001Y-145246659D01*
X148775966Y-145241500D01*
X148952408Y-145226063D01*
X149180663Y-145164903D01*
X149394830Y-145065035D01*
X149588401Y-144929495D01*
X149755495Y-144762401D01*
X149885425Y-144576842D01*
X149940002Y-144533217D01*
X150009500Y-144526023D01*
X150071855Y-144557546D01*
X150088575Y-144576842D01*
X150218500Y-144762395D01*
X150218505Y-144762401D01*
X150385599Y-144929495D01*
X150482384Y-144997265D01*
X150579165Y-145065032D01*
X150579167Y-145065033D01*
X150579170Y-145065035D01*
X150793337Y-145164903D01*
X151021592Y-145226063D01*
X151198034Y-145241500D01*
X151256999Y-145246659D01*
X151257000Y-145246659D01*
X151257001Y-145246659D01*
X151315966Y-145241500D01*
X151492408Y-145226063D01*
X151720663Y-145164903D01*
X151934830Y-145065035D01*
X152128401Y-144929495D01*
X152295495Y-144762401D01*
X152431035Y-144568830D01*
X152530903Y-144354663D01*
X152592063Y-144126408D01*
X152612659Y-143891000D01*
X152592063Y-143655592D01*
X152530903Y-143427337D01*
X152431035Y-143213171D01*
X152425731Y-143205595D01*
X152295494Y-143019597D01*
X152128402Y-142852506D01*
X152128395Y-142852501D01*
X151934834Y-142716967D01*
X151934830Y-142716965D01*
X151863727Y-142683809D01*
X151720663Y-142617097D01*
X151720659Y-142617096D01*
X151720655Y-142617094D01*
X151492413Y-142555938D01*
X151492403Y-142555936D01*
X151257001Y-142535341D01*
X151256996Y-142535341D01*
X151199266Y-142540391D01*
X151130766Y-142526624D01*
X151100779Y-142504544D01*
X145873590Y-137277355D01*
X145873588Y-137277352D01*
X145754717Y-137158481D01*
X145754716Y-137158480D01*
X145667904Y-137108360D01*
X145667904Y-137108359D01*
X145667900Y-137108358D01*
X145617785Y-137079423D01*
X145465057Y-137038499D01*
X145306943Y-137038499D01*
X145299347Y-137038499D01*
X145299331Y-137038500D01*
X140192000Y-137038500D01*
X140124961Y-137018815D01*
X140079206Y-136966011D01*
X140068000Y-136914500D01*
X140068000Y-136899767D01*
X140087685Y-136832728D01*
X140126901Y-136794230D01*
X140273656Y-136703712D01*
X140397712Y-136579656D01*
X140489814Y-136430334D01*
X140544999Y-136263797D01*
X140555500Y-136161009D01*
X140555499Y-135110992D01*
X140544999Y-135008203D01*
X140489814Y-134841666D01*
X140397712Y-134692344D01*
X140273656Y-134568288D01*
X140126902Y-134477770D01*
X140080179Y-134425823D01*
X140068000Y-134372232D01*
X140068000Y-128402711D01*
X169218500Y-128402711D01*
X169218500Y-128645288D01*
X169243102Y-128832166D01*
X169250162Y-128885789D01*
X169252448Y-128894321D01*
X169312947Y-129120104D01*
X169367193Y-129251064D01*
X169405776Y-129344212D01*
X169527064Y-129554289D01*
X169527066Y-129554292D01*
X169527067Y-129554293D01*
X169674733Y-129746736D01*
X169674739Y-129746743D01*
X169846256Y-129918260D01*
X169846263Y-129918266D01*
X169884066Y-129947273D01*
X170038711Y-130065936D01*
X170248788Y-130187224D01*
X170472900Y-130280054D01*
X170707211Y-130342838D01*
X170887586Y-130366584D01*
X170947711Y-130374500D01*
X170947712Y-130374500D01*
X171190289Y-130374500D01*
X171238388Y-130368167D01*
X171430789Y-130342838D01*
X171665100Y-130280054D01*
X171889212Y-130187224D01*
X172099289Y-130065936D01*
X172291738Y-129918265D01*
X172463265Y-129746738D01*
X172610936Y-129554289D01*
X172732224Y-129344212D01*
X172825054Y-129120100D01*
X172887838Y-128885789D01*
X172919500Y-128645288D01*
X172919500Y-128402712D01*
X172917943Y-128390889D01*
X172897836Y-128238154D01*
X172887838Y-128162211D01*
X172825054Y-127927900D01*
X172732224Y-127703788D01*
X172610936Y-127493711D01*
X172502215Y-127352023D01*
X172463266Y-127301263D01*
X172463260Y-127301256D01*
X172291743Y-127129739D01*
X172291736Y-127129733D01*
X172099293Y-126982067D01*
X172099292Y-126982066D01*
X172099289Y-126982064D01*
X171889212Y-126860776D01*
X171841657Y-126841078D01*
X171665104Y-126767947D01*
X171430785Y-126705161D01*
X171190289Y-126673500D01*
X171190288Y-126673500D01*
X170947712Y-126673500D01*
X170947711Y-126673500D01*
X170707214Y-126705161D01*
X170472895Y-126767947D01*
X170248794Y-126860773D01*
X170248785Y-126860777D01*
X170038706Y-126982067D01*
X169846263Y-127129733D01*
X169846256Y-127129739D01*
X169674739Y-127301256D01*
X169674733Y-127301263D01*
X169527067Y-127493706D01*
X169405777Y-127703785D01*
X169405773Y-127703794D01*
X169312947Y-127927895D01*
X169250161Y-128162214D01*
X169218500Y-128402711D01*
X140068000Y-128402711D01*
X140068000Y-125498445D01*
X140068000Y-125498443D01*
X140027077Y-125345716D01*
X140012634Y-125320700D01*
X139948024Y-125208790D01*
X139948021Y-125208786D01*
X139948020Y-125208784D01*
X139836216Y-125096980D01*
X139836215Y-125096979D01*
X139831885Y-125092649D01*
X139831874Y-125092639D01*
X139816819Y-125077584D01*
X139783334Y-125016261D01*
X139780500Y-124989903D01*
X139780500Y-124298032D01*
X139780500Y-124298026D01*
X139765942Y-124187449D01*
X139765710Y-124185684D01*
X139776476Y-124116649D01*
X139822855Y-124064393D01*
X139888649Y-124045499D01*
X140352002Y-124045499D01*
X140352008Y-124045499D01*
X140454797Y-124034999D01*
X140621334Y-123979814D01*
X140770656Y-123887712D01*
X140894712Y-123763656D01*
X140986814Y-123614334D01*
X141041999Y-123447797D01*
X141052500Y-123345009D01*
X141052499Y-122569992D01*
X141046632Y-122512562D01*
X141041999Y-122467203D01*
X141041998Y-122467200D01*
X141041860Y-122466784D01*
X140986814Y-122300666D01*
X140894712Y-122151344D01*
X140770656Y-122027288D01*
X140767342Y-122025243D01*
X140765546Y-122023248D01*
X140764989Y-122022807D01*
X140765064Y-122022711D01*
X140720618Y-121973297D01*
X140709397Y-121904334D01*
X140737240Y-121840252D01*
X140767348Y-121814165D01*
X140770342Y-121812318D01*
X140894315Y-121688345D01*
X140986356Y-121539124D01*
X140986358Y-121539119D01*
X140988488Y-121532692D01*
X141028258Y-121475246D01*
X141092773Y-121448421D01*
X141161549Y-121460733D01*
X141193874Y-121484010D01*
X142010527Y-122300663D01*
X142824998Y-123115134D01*
X142858483Y-123176457D01*
X142860537Y-123188931D01*
X142870330Y-123275849D01*
X142929910Y-123446121D01*
X143025884Y-123598862D01*
X143153438Y-123726416D01*
X143306178Y-123822389D01*
X143476445Y-123881968D01*
X143476450Y-123881969D01*
X143655696Y-123902165D01*
X143655700Y-123902165D01*
X143655704Y-123902165D01*
X143834949Y-123881969D01*
X143834952Y-123881968D01*
X143834955Y-123881968D01*
X144005222Y-123822389D01*
X144157962Y-123726416D01*
X144285516Y-123598862D01*
X144381489Y-123446122D01*
X144441068Y-123275855D01*
X144441069Y-123275849D01*
X144461265Y-123096603D01*
X144461265Y-123096596D01*
X144441069Y-122917350D01*
X144441068Y-122917345D01*
X144406638Y-122818950D01*
X144381489Y-122747078D01*
X144285516Y-122594338D01*
X144157962Y-122466784D01*
X144005221Y-122370810D01*
X143834949Y-122311230D01*
X143748031Y-122301437D01*
X143683617Y-122274370D01*
X143674234Y-122265898D01*
X142416836Y-121008500D01*
X141089415Y-119681080D01*
X141055931Y-119619758D01*
X141060915Y-119550066D01*
X141102787Y-119494133D01*
X141168251Y-119469716D01*
X141177097Y-119469400D01*
X170947831Y-119469400D01*
X170947847Y-119469401D01*
X170955443Y-119469401D01*
X171113554Y-119469401D01*
X171113557Y-119469401D01*
X171266285Y-119428477D01*
X171339039Y-119386472D01*
X171403216Y-119349420D01*
X171515020Y-119237616D01*
X171515020Y-119237614D01*
X171525224Y-119227411D01*
X171525228Y-119227406D01*
X173737435Y-117015198D01*
X173798756Y-116981715D01*
X173811211Y-116979663D01*
X173898155Y-116969868D01*
X174068422Y-116910289D01*
X174221162Y-116814316D01*
X174348716Y-116686762D01*
X174444689Y-116534022D01*
X174504268Y-116363755D01*
X174504269Y-116363749D01*
X174524465Y-116184503D01*
X174524465Y-116184496D01*
X174504269Y-116005250D01*
X174504268Y-116005245D01*
X174444688Y-115834976D01*
X174348715Y-115682237D01*
X174221162Y-115554684D01*
X174068423Y-115458711D01*
X173898154Y-115399131D01*
X173898149Y-115399130D01*
X173718904Y-115378935D01*
X173718896Y-115378935D01*
X173539650Y-115399130D01*
X173539642Y-115399132D01*
X173418762Y-115441430D01*
X173348983Y-115444991D01*
X173288356Y-115410262D01*
X173256129Y-115348269D01*
X173262534Y-115278693D01*
X173290125Y-115236709D01*
X181953806Y-106573027D01*
X181953811Y-106573024D01*
X181964014Y-106562820D01*
X181964016Y-106562820D01*
X182075820Y-106451016D01*
X182142353Y-106335777D01*
X182154877Y-106314085D01*
X182195800Y-106161357D01*
X182195800Y-106003243D01*
X182195800Y-93567343D01*
X182154877Y-93414616D01*
X182154877Y-93414615D01*
X182131785Y-93374619D01*
X182110816Y-93338299D01*
X182110816Y-93338298D01*
X182075824Y-93277690D01*
X182075821Y-93277686D01*
X182075820Y-93277684D01*
X181964016Y-93165880D01*
X181964015Y-93165879D01*
X181959685Y-93161549D01*
X181959674Y-93161539D01*
X146426290Y-57628155D01*
X146426288Y-57628152D01*
X146307417Y-57509281D01*
X146307409Y-57509275D01*
X146205636Y-57450517D01*
X146205634Y-57450516D01*
X146170490Y-57430225D01*
X146170489Y-57430224D01*
X146157963Y-57426867D01*
X146017757Y-57389299D01*
X145859643Y-57389299D01*
X145852047Y-57389299D01*
X145852031Y-57389300D01*
X124026412Y-57389300D01*
X123959373Y-57369615D01*
X123949097Y-57362245D01*
X123946263Y-57359985D01*
X123946262Y-57359984D01*
X123889496Y-57324315D01*
X123793523Y-57264011D01*
X123623254Y-57204431D01*
X123623249Y-57204430D01*
X123444004Y-57184235D01*
X123443996Y-57184235D01*
X123264750Y-57204430D01*
X123264745Y-57204431D01*
X123094476Y-57264011D01*
X122941737Y-57359984D01*
X122814184Y-57487537D01*
X122718211Y-57640276D01*
X122658631Y-57810545D01*
X122658630Y-57810550D01*
X122638435Y-57989796D01*
X122638435Y-57989803D01*
X122658630Y-58169049D01*
X122658631Y-58169054D01*
X122718211Y-58339323D01*
X122814184Y-58492062D01*
X122941738Y-58619616D01*
X123094478Y-58715589D01*
X123264745Y-58775168D01*
X123264750Y-58775169D01*
X123443996Y-58795365D01*
X123444000Y-58795365D01*
X123444004Y-58795365D01*
X123623249Y-58775169D01*
X123623252Y-58775168D01*
X123623255Y-58775168D01*
X123793522Y-58715589D01*
X123946262Y-58619616D01*
X123946267Y-58619610D01*
X123949097Y-58617355D01*
X123951275Y-58616465D01*
X123952158Y-58615911D01*
X123952255Y-58616065D01*
X124013783Y-58590945D01*
X124026412Y-58590300D01*
X145638603Y-58590300D01*
X145705642Y-58609985D01*
X145726284Y-58626619D01*
X161913712Y-74814047D01*
X161947197Y-74875370D01*
X161942213Y-74945062D01*
X161900341Y-75000995D01*
X161892004Y-75006721D01*
X161803740Y-75062182D01*
X161803737Y-75062184D01*
X161676184Y-75189737D01*
X161580210Y-75342478D01*
X161520630Y-75512750D01*
X161510837Y-75599668D01*
X161483770Y-75664082D01*
X161475298Y-75673465D01*
X159717884Y-77430881D01*
X159656561Y-77464366D01*
X159630203Y-77467200D01*
X113993512Y-77467200D01*
X113926473Y-77447515D01*
X113916197Y-77440145D01*
X113913363Y-77437885D01*
X113913362Y-77437884D01*
X113856596Y-77402215D01*
X113760623Y-77341911D01*
X113590354Y-77282331D01*
X113590349Y-77282330D01*
X113411104Y-77262135D01*
X113411096Y-77262135D01*
X113231850Y-77282330D01*
X113231845Y-77282331D01*
X113061576Y-77341911D01*
X112908837Y-77437884D01*
X112781284Y-77565437D01*
X112685311Y-77718176D01*
X112625731Y-77888445D01*
X112625730Y-77888450D01*
X112605535Y-78067696D01*
X112605535Y-78067703D01*
X112625730Y-78246949D01*
X112625731Y-78246954D01*
X112685311Y-78417223D01*
X112781284Y-78569962D01*
X112908838Y-78697516D01*
X113061578Y-78793489D01*
X113231845Y-78853068D01*
X113231850Y-78853069D01*
X113411096Y-78873265D01*
X113411100Y-78873265D01*
X113411104Y-78873265D01*
X113590349Y-78853069D01*
X113590352Y-78853068D01*
X113590355Y-78853068D01*
X113760622Y-78793489D01*
X113913362Y-78697516D01*
X113913367Y-78697510D01*
X113916197Y-78695255D01*
X113918375Y-78694365D01*
X113919258Y-78693811D01*
X113919355Y-78693965D01*
X113980883Y-78668845D01*
X113993512Y-78668200D01*
X159843631Y-78668200D01*
X159843647Y-78668201D01*
X159851243Y-78668201D01*
X160009354Y-78668201D01*
X160009357Y-78668201D01*
X160162085Y-78627277D01*
X160212204Y-78598339D01*
X160299016Y-78548220D01*
X160410820Y-78436416D01*
X160410820Y-78436414D01*
X160421028Y-78426207D01*
X160421030Y-78426204D01*
X162324535Y-76522698D01*
X162385856Y-76489215D01*
X162398311Y-76487163D01*
X162485255Y-76477368D01*
X162655522Y-76417789D01*
X162808262Y-76321816D01*
X162935816Y-76194262D01*
X162991277Y-76105995D01*
X163043612Y-76059705D01*
X163112665Y-76049057D01*
X163176514Y-76077432D01*
X163183952Y-76084287D01*
X175245084Y-88145419D01*
X175278569Y-88206742D01*
X175273585Y-88276434D01*
X175231713Y-88332367D01*
X175166249Y-88356784D01*
X175157403Y-88357100D01*
X108593770Y-88357100D01*
X108593754Y-88357099D01*
X108586158Y-88357099D01*
X108428043Y-88357099D01*
X108351679Y-88377561D01*
X108275314Y-88398023D01*
X108275309Y-88398026D01*
X108138390Y-88477075D01*
X108138382Y-88477081D01*
X107923065Y-88692398D01*
X107861742Y-88725883D01*
X107849268Y-88727937D01*
X107762350Y-88737730D01*
X107592078Y-88797310D01*
X107439337Y-88893284D01*
X107311784Y-89020837D01*
X107215811Y-89173576D01*
X107156231Y-89343845D01*
X107156230Y-89343850D01*
X107136035Y-89523096D01*
X107136035Y-89523103D01*
X107156230Y-89702349D01*
X107156231Y-89702354D01*
X107215811Y-89872623D01*
X107265953Y-89952423D01*
X107311784Y-90025362D01*
X107439338Y-90152916D01*
X107592078Y-90248889D01*
X107762345Y-90308468D01*
X107762350Y-90308469D01*
X107941596Y-90328665D01*
X107941600Y-90328665D01*
X107941604Y-90328665D01*
X108120849Y-90308469D01*
X108120852Y-90308468D01*
X108120855Y-90308468D01*
X108291122Y-90248889D01*
X108443862Y-90152916D01*
X108571416Y-90025362D01*
X108667389Y-89872622D01*
X108726968Y-89702355D01*
X108728080Y-89692481D01*
X108730815Y-89668217D01*
X108757881Y-89603803D01*
X108815476Y-89564248D01*
X108854035Y-89558100D01*
X113957606Y-89558100D01*
X114024645Y-89577785D01*
X114070400Y-89630589D01*
X114080826Y-89668217D01*
X114088930Y-89740149D01*
X114088931Y-89740154D01*
X114148511Y-89910423D01*
X114154906Y-89920600D01*
X114244484Y-90063162D01*
X114372038Y-90190716D01*
X114524778Y-90286689D01*
X114695045Y-90346268D01*
X114781969Y-90356061D01*
X114846380Y-90383126D01*
X114855765Y-90391600D01*
X119993939Y-95529774D01*
X119993960Y-95529797D01*
X120044982Y-95580819D01*
X120078467Y-95642142D01*
X120073483Y-95711834D01*
X120031611Y-95767767D01*
X119966147Y-95792184D01*
X119957301Y-95792500D01*
X113820170Y-95792500D01*
X113820154Y-95792499D01*
X113812558Y-95792499D01*
X113654443Y-95792499D01*
X113578079Y-95812961D01*
X113501714Y-95833423D01*
X113501709Y-95833426D01*
X113364790Y-95912475D01*
X113364782Y-95912481D01*
X111082365Y-98194898D01*
X111021042Y-98228383D01*
X111008568Y-98230437D01*
X110921650Y-98240230D01*
X110751377Y-98299810D01*
X110603072Y-98392997D01*
X110535835Y-98411997D01*
X110469000Y-98391629D01*
X110449419Y-98375684D01*
X96653628Y-84579893D01*
X96620143Y-84518570D01*
X96624267Y-84451259D01*
X96671368Y-84316655D01*
X96691565Y-84137400D01*
X96671368Y-83958145D01*
X96611789Y-83787878D01*
X96515816Y-83635138D01*
X96388262Y-83507584D01*
X96235523Y-83411611D01*
X96065254Y-83352031D01*
X96065249Y-83352030D01*
X95886004Y-83331835D01*
X95885996Y-83331835D01*
X95706750Y-83352030D01*
X95706745Y-83352031D01*
X95536476Y-83411611D01*
X95383737Y-83507584D01*
X95256184Y-83635137D01*
X95160211Y-83787876D01*
X95100631Y-83958145D01*
X95100630Y-83958150D01*
X95080435Y-84137396D01*
X95080435Y-84137403D01*
X95100630Y-84316649D01*
X95100631Y-84316654D01*
X95160211Y-84486923D01*
X95256182Y-84639659D01*
X95258441Y-84642491D01*
X95259330Y-84644668D01*
X95259889Y-84645558D01*
X95259733Y-84645655D01*
X95284854Y-84707176D01*
X95285499Y-84719810D01*
X95285499Y-84740554D01*
X95285498Y-84740554D01*
X95326424Y-84893289D01*
X95326425Y-84893290D01*
X95343444Y-84922767D01*
X95343445Y-84922768D01*
X95405477Y-85030212D01*
X95405481Y-85030217D01*
X95524349Y-85149085D01*
X95524355Y-85149090D01*
X114936839Y-104561574D01*
X114936849Y-104561585D01*
X114941179Y-104565915D01*
X114941180Y-104565916D01*
X115052984Y-104677720D01*
X115120147Y-104716496D01*
X115120151Y-104716498D01*
X115120153Y-104716500D01*
X115120154Y-104716500D01*
X115189915Y-104756777D01*
X115342643Y-104797701D01*
X115342646Y-104797701D01*
X115508353Y-104797701D01*
X115508369Y-104797700D01*
X121269803Y-104797700D01*
X121336842Y-104817385D01*
X121357484Y-104834019D01*
X124972081Y-108448616D01*
X125005566Y-108509939D01*
X125008400Y-108536297D01*
X125008400Y-109777987D01*
X124988715Y-109845026D01*
X124981350Y-109855296D01*
X124979086Y-109858134D01*
X124883111Y-110010876D01*
X124823531Y-110181145D01*
X124823530Y-110181149D01*
X124815606Y-110251484D01*
X124788539Y-110315898D01*
X124730944Y-110355453D01*
X124692386Y-110361600D01*
X123139243Y-110361600D01*
X123072204Y-110341915D01*
X123026449Y-110289111D01*
X123016505Y-110219953D01*
X123025869Y-110189223D01*
X123025789Y-110189195D01*
X123026481Y-110187216D01*
X123027524Y-110183795D01*
X123028089Y-110182621D01*
X123028606Y-110181145D01*
X123087668Y-110012355D01*
X123087669Y-110012349D01*
X123107865Y-109833103D01*
X123107865Y-109833096D01*
X123087669Y-109653850D01*
X123087668Y-109653845D01*
X123028088Y-109483576D01*
X122932115Y-109330837D01*
X122804562Y-109203284D01*
X122651823Y-109107311D01*
X122481554Y-109047731D01*
X122481549Y-109047730D01*
X122302304Y-109027535D01*
X122302296Y-109027535D01*
X122123050Y-109047730D01*
X122123045Y-109047731D01*
X121952776Y-109107311D01*
X121800036Y-109203285D01*
X121797203Y-109205545D01*
X121795024Y-109206434D01*
X121794142Y-109206989D01*
X121794044Y-109206834D01*
X121732517Y-109231955D01*
X121719888Y-109232600D01*
X95259097Y-109232600D01*
X95192058Y-109212915D01*
X95171416Y-109196281D01*
X90515490Y-104540355D01*
X90515488Y-104540352D01*
X90396617Y-104421481D01*
X90396616Y-104421480D01*
X90289855Y-104359842D01*
X90289853Y-104359840D01*
X90259687Y-104342424D01*
X90255349Y-104340627D01*
X90215127Y-104313749D01*
X90173562Y-104272184D01*
X90020823Y-104176211D01*
X89850554Y-104116631D01*
X89850549Y-104116630D01*
X89671304Y-104096435D01*
X89671296Y-104096435D01*
X89492050Y-104116630D01*
X89492045Y-104116631D01*
X89321776Y-104176211D01*
X89169037Y-104272184D01*
X89041484Y-104399737D01*
X88945511Y-104552476D01*
X88885931Y-104722745D01*
X88885930Y-104722750D01*
X88865735Y-104901996D01*
X86382319Y-104901996D01*
X86314997Y-104224610D01*
X86314700Y-104221116D01*
X86311779Y-104179908D01*
X86215900Y-102827124D01*
X86215707Y-102823708D01*
X86156398Y-101427521D01*
X86156299Y-101424083D01*
X86136524Y-100026695D01*
X86136524Y-100023304D01*
X86156300Y-98625914D01*
X86156397Y-98622480D01*
X86215707Y-97226287D01*
X86215900Y-97222879D01*
X86314700Y-95828875D01*
X86314998Y-95825387D01*
X86318217Y-95793001D01*
X86453201Y-94434796D01*
X86453582Y-94431433D01*
X86631094Y-93045212D01*
X86631574Y-93041848D01*
X86848238Y-91661239D01*
X86848819Y-91657852D01*
X87104461Y-90283959D01*
X87105148Y-90280541D01*
X87107394Y-90270123D01*
X87399556Y-88914482D01*
X87400341Y-88911079D01*
X87442867Y-88737732D01*
X87733299Y-87553856D01*
X87734148Y-87550595D01*
X88105403Y-86203259D01*
X88106346Y-86200014D01*
X88515582Y-84863717D01*
X88516607Y-84860531D01*
X88963484Y-83536387D01*
X88964644Y-83533105D01*
X89448805Y-82222155D01*
X89450029Y-82218983D01*
X89971083Y-80922290D01*
X89972398Y-80919147D01*
X90529954Y-79637681D01*
X90531396Y-79634493D01*
X90643137Y-79396332D01*
X91124959Y-78369390D01*
X91126464Y-78366297D01*
X91755625Y-77118431D01*
X91757196Y-77115422D01*
X92421447Y-75885806D01*
X92423079Y-75882886D01*
X93121828Y-74672617D01*
X93123594Y-74669655D01*
X93856343Y-73479595D01*
X93858144Y-73476762D01*
X94624236Y-72307978D01*
X94626163Y-72305126D01*
X95425012Y-71158504D01*
X95427024Y-71155701D01*
X96258058Y-70032069D01*
X96260105Y-70029384D01*
X96385274Y-69869796D01*
X105014735Y-69869796D01*
X105014735Y-69869803D01*
X105034930Y-70049049D01*
X105034931Y-70049054D01*
X105094511Y-70219323D01*
X105190484Y-70372062D01*
X105318038Y-70499616D01*
X105470778Y-70595589D01*
X105559054Y-70626478D01*
X105641045Y-70655168D01*
X105641050Y-70655169D01*
X105820296Y-70675365D01*
X105820300Y-70675365D01*
X105820304Y-70675365D01*
X105999549Y-70655169D01*
X105999552Y-70655168D01*
X105999555Y-70655168D01*
X106169822Y-70595589D01*
X106322562Y-70499616D01*
X106322567Y-70499610D01*
X106325397Y-70497355D01*
X106327575Y-70496465D01*
X106328458Y-70495911D01*
X106328555Y-70496065D01*
X106390083Y-70470945D01*
X106402712Y-70470300D01*
X111052498Y-70470300D01*
X111119537Y-70489985D01*
X111165292Y-70542789D01*
X111175236Y-70611947D01*
X111169539Y-70635255D01*
X111113033Y-70796737D01*
X111113030Y-70796750D01*
X111092835Y-70975996D01*
X111092835Y-70976003D01*
X111113030Y-71155249D01*
X111113031Y-71155254D01*
X111172611Y-71325523D01*
X111192524Y-71357214D01*
X111268584Y-71478262D01*
X111396138Y-71605816D01*
X111495194Y-71668057D01*
X111548878Y-71701789D01*
X111719147Y-71761369D01*
X111800782Y-71770566D01*
X111865196Y-71797632D01*
X111904752Y-71855226D01*
X111910900Y-71893786D01*
X111910900Y-72401687D01*
X111891215Y-72468726D01*
X111883850Y-72478996D01*
X111881586Y-72481834D01*
X111785611Y-72634576D01*
X111726031Y-72804845D01*
X111726030Y-72804850D01*
X111705835Y-72984096D01*
X111705835Y-72984103D01*
X111726030Y-73163349D01*
X111726031Y-73163354D01*
X111785611Y-73333623D01*
X111875511Y-73476697D01*
X111881584Y-73486362D01*
X112009138Y-73613916D01*
X112161878Y-73709889D01*
X112332145Y-73769468D01*
X112332150Y-73769469D01*
X112511396Y-73789665D01*
X112511400Y-73789665D01*
X112511404Y-73789665D01*
X112690649Y-73769469D01*
X112690652Y-73769468D01*
X112690655Y-73769468D01*
X112860922Y-73709889D01*
X113013662Y-73613916D01*
X113141216Y-73486362D01*
X113237189Y-73333622D01*
X113296768Y-73163355D01*
X113316965Y-72984100D01*
X113296768Y-72804845D01*
X113237189Y-72634578D01*
X113141216Y-72481838D01*
X113141214Y-72481836D01*
X113141213Y-72481834D01*
X113138950Y-72478996D01*
X113138059Y-72476815D01*
X113137511Y-72475942D01*
X113137664Y-72475845D01*
X113112544Y-72414309D01*
X113111900Y-72401687D01*
X113111900Y-71678059D01*
X113111901Y-71678046D01*
X113111901Y-71509945D01*
X113111901Y-71509943D01*
X113070977Y-71357215D01*
X113042039Y-71307095D01*
X112991920Y-71220284D01*
X112880116Y-71108480D01*
X112880115Y-71108479D01*
X112875785Y-71104149D01*
X112875774Y-71104139D01*
X112729100Y-70957465D01*
X112695615Y-70896142D01*
X112693563Y-70883686D01*
X112683768Y-70796745D01*
X112627259Y-70635254D01*
X112623699Y-70565476D01*
X112658428Y-70504848D01*
X112720421Y-70472621D01*
X112744302Y-70470300D01*
X118490588Y-70470300D01*
X118557627Y-70489985D01*
X118567903Y-70497355D01*
X118570736Y-70499614D01*
X118570738Y-70499616D01*
X118723478Y-70595589D01*
X118811754Y-70626478D01*
X118893745Y-70655168D01*
X118893750Y-70655169D01*
X119072996Y-70675365D01*
X119073000Y-70675365D01*
X119073004Y-70675365D01*
X119252249Y-70655169D01*
X119252252Y-70655168D01*
X119252255Y-70655168D01*
X119422522Y-70595589D01*
X119575262Y-70499616D01*
X119702816Y-70372062D01*
X119798789Y-70219322D01*
X119858368Y-70049055D01*
X119860432Y-70030735D01*
X119878565Y-69869803D01*
X119878565Y-69869796D01*
X119858369Y-69690550D01*
X119858368Y-69690545D01*
X119798788Y-69520276D01*
X119702815Y-69367537D01*
X119575262Y-69239984D01*
X119422523Y-69144011D01*
X119252254Y-69084431D01*
X119252249Y-69084430D01*
X119073004Y-69064235D01*
X119072996Y-69064235D01*
X118893750Y-69084430D01*
X118893745Y-69084431D01*
X118723476Y-69144011D01*
X118570736Y-69239985D01*
X118567903Y-69242245D01*
X118565724Y-69243134D01*
X118564842Y-69243689D01*
X118564744Y-69243534D01*
X118503217Y-69268655D01*
X118490588Y-69269300D01*
X106402712Y-69269300D01*
X106335673Y-69249615D01*
X106325397Y-69242245D01*
X106322563Y-69239985D01*
X106322562Y-69239984D01*
X106265796Y-69204315D01*
X106169823Y-69144011D01*
X105999554Y-69084431D01*
X105999549Y-69084430D01*
X105820304Y-69064235D01*
X105820296Y-69064235D01*
X105641050Y-69084430D01*
X105641045Y-69084431D01*
X105470776Y-69144011D01*
X105318037Y-69239984D01*
X105190484Y-69367537D01*
X105094511Y-69520276D01*
X105034931Y-69690545D01*
X105034930Y-69690550D01*
X105014735Y-69869796D01*
X96385274Y-69869796D01*
X97122577Y-68929751D01*
X97124693Y-68927131D01*
X98017959Y-67852323D01*
X98020155Y-67849755D01*
X98943449Y-66800688D01*
X98945761Y-66798135D01*
X99898389Y-65775600D01*
X99900725Y-65773163D01*
X100758946Y-64902711D01*
X104067500Y-64902711D01*
X104067500Y-65145288D01*
X104099161Y-65385785D01*
X104161947Y-65620104D01*
X104225847Y-65774372D01*
X104254776Y-65844212D01*
X104376064Y-66054289D01*
X104376066Y-66054292D01*
X104376067Y-66054293D01*
X104523733Y-66246736D01*
X104523739Y-66246743D01*
X104695256Y-66418260D01*
X104695262Y-66418265D01*
X104887711Y-66565936D01*
X105097788Y-66687224D01*
X105321900Y-66780054D01*
X105556211Y-66842838D01*
X105736586Y-66866584D01*
X105796711Y-66874500D01*
X105796712Y-66874500D01*
X106039289Y-66874500D01*
X106087388Y-66868167D01*
X106279789Y-66842838D01*
X106514100Y-66780054D01*
X106738212Y-66687224D01*
X106948289Y-66565936D01*
X107140738Y-66418265D01*
X107312265Y-66246738D01*
X107459936Y-66054289D01*
X107581224Y-65844212D01*
X107674054Y-65620100D01*
X107736838Y-65385789D01*
X107768500Y-65145288D01*
X107768500Y-64902712D01*
X107736838Y-64662211D01*
X107674054Y-64427900D01*
X107581224Y-64203788D01*
X107459936Y-63993711D01*
X107317003Y-63807437D01*
X107312266Y-63801263D01*
X107312260Y-63801256D01*
X107140743Y-63629739D01*
X107140736Y-63629733D01*
X106948293Y-63482067D01*
X106948292Y-63482066D01*
X106948289Y-63482064D01*
X106738212Y-63360776D01*
X106738205Y-63360773D01*
X106514104Y-63267947D01*
X106279785Y-63205161D01*
X106039289Y-63173500D01*
X106039288Y-63173500D01*
X105796712Y-63173500D01*
X105796711Y-63173500D01*
X105556214Y-63205161D01*
X105321895Y-63267947D01*
X105097794Y-63360773D01*
X105097785Y-63360777D01*
X104887706Y-63482067D01*
X104695263Y-63629733D01*
X104695256Y-63629739D01*
X104523739Y-63801256D01*
X104523733Y-63801263D01*
X104376067Y-63993706D01*
X104254777Y-64203785D01*
X104254773Y-64203794D01*
X104161947Y-64427895D01*
X104099161Y-64662214D01*
X104067500Y-64902711D01*
X100758946Y-64902711D01*
X100881921Y-64777983D01*
X100884307Y-64775630D01*
X101893262Y-63808625D01*
X101895758Y-63806300D01*
X102931694Y-62868216D01*
X102934243Y-62865974D01*
X103996275Y-61957612D01*
X103998870Y-61955456D01*
X105086190Y-61077507D01*
X105088861Y-61075411D01*
X106200598Y-60228576D01*
X106203346Y-60226545D01*
X107338599Y-59411514D01*
X107341350Y-59409597D01*
X108499219Y-58627013D01*
X108502077Y-58625139D01*
X109681647Y-57875625D01*
X109684501Y-57873868D01*
X110884778Y-57158053D01*
X110887723Y-57156352D01*
X112107753Y-56474802D01*
X112110795Y-56473159D01*
X113349629Y-55826404D01*
X113352678Y-55824867D01*
X114609326Y-55213426D01*
X114612442Y-55211965D01*
X115885844Y-54636350D01*
X115889012Y-54634972D01*
X117178205Y-54095620D01*
X117181381Y-54094343D01*
X118485352Y-53591677D01*
X118488552Y-53590495D01*
X119806216Y-53124935D01*
X119809499Y-53123827D01*
X121139743Y-52695764D01*
X121143074Y-52694743D01*
X122484995Y-52304467D01*
X122488251Y-52303570D01*
X123840663Y-51951430D01*
X123843990Y-51950613D01*
X125205832Y-51636883D01*
X125209168Y-51636165D01*
X126579334Y-51361102D01*
X126582664Y-51360483D01*
X127960047Y-51124306D01*
X127963498Y-51123765D01*
X129346986Y-50926665D01*
X129350364Y-50926232D01*
X130738895Y-50768361D01*
X130742379Y-50768015D01*
X132134797Y-50649503D01*
X132138227Y-50649260D01*
X133533458Y-50570198D01*
X133536902Y-50570052D01*
X134933774Y-50530506D01*
X134937283Y-50530456D01*
X136334717Y-50530456D01*
X136338226Y-50530506D01*
G37*
%TD.AperFunction*%
%TD*%
M02*
