%TF.GenerationSoftware,KiCad,Pcbnew,8.0.2*%
%TF.CreationDate,2025-04-19T12:26:07+02:00*%
%TF.ProjectId,WRadioLogo,57526164-696f-44c6-9f67-6f2e6b696361,rev?*%
%TF.SameCoordinates,Original*%
%TF.FileFunction,Legend,Bot*%
%TF.FilePolarity,Positive*%
%FSLAX46Y46*%
G04 Gerber Fmt 4.6, Leading zero omitted, Abs format (unit mm)*
G04 Created by KiCad (PCBNEW 8.0.2) date 2025-04-19 12:26:07*
%MOMM*%
%LPD*%
G01*
G04 APERTURE LIST*
%ADD10C,0.200000*%
%ADD11C,0.300000*%
%ADD12C,0.120000*%
%ADD13C,0.127000*%
G04 APERTURE END LIST*
D10*
G36*
X151677125Y-105844503D02*
G01*
X151545297Y-105845136D01*
X151540399Y-105844051D01*
X151533940Y-105845190D01*
X151421686Y-105845729D01*
X151361537Y-105816792D01*
X151335764Y-105792134D01*
X151304645Y-105732199D01*
X151303511Y-105636353D01*
X151332132Y-105576860D01*
X151356794Y-105551083D01*
X151416433Y-105520117D01*
X151676511Y-105518870D01*
X151677125Y-105844503D01*
G37*
G36*
X151987437Y-106631330D02*
G01*
X147376660Y-106631330D01*
X147376660Y-105400710D01*
X147487771Y-105400710D01*
X147487771Y-105439728D01*
X147502703Y-105475776D01*
X147530293Y-105503366D01*
X147566341Y-105518298D01*
X147585850Y-105520219D01*
X147771751Y-105519614D01*
X147773485Y-106439728D01*
X147788417Y-106475776D01*
X147816007Y-106503366D01*
X147852055Y-106518298D01*
X147891073Y-106518298D01*
X147927121Y-106503366D01*
X147954711Y-106475776D01*
X147969643Y-106439728D01*
X147971564Y-106420219D01*
X147969865Y-105518970D01*
X148176787Y-105518298D01*
X148212835Y-105503366D01*
X148240425Y-105475776D01*
X148255357Y-105439728D01*
X148255357Y-105400710D01*
X148344914Y-105400710D01*
X148344914Y-105439728D01*
X148359846Y-105475776D01*
X148387436Y-105503366D01*
X148423484Y-105518298D01*
X148442993Y-105520219D01*
X148819368Y-105518760D01*
X148819892Y-105796949D01*
X148566341Y-105798330D01*
X148530293Y-105813262D01*
X148502703Y-105840852D01*
X148487771Y-105876900D01*
X148487771Y-105915918D01*
X148502703Y-105951966D01*
X148530293Y-105979556D01*
X148566341Y-105994488D01*
X148585850Y-105996409D01*
X148820266Y-105995132D01*
X148820879Y-106320599D01*
X148423484Y-106322140D01*
X148387436Y-106337072D01*
X148359846Y-106364662D01*
X148344914Y-106400710D01*
X148344914Y-106439728D01*
X148359846Y-106475776D01*
X148387436Y-106503366D01*
X148423484Y-106518298D01*
X148442993Y-106520219D01*
X148938692Y-106518298D01*
X148974740Y-106503366D01*
X149002330Y-106475776D01*
X149017262Y-106439728D01*
X149019183Y-106420219D01*
X149018645Y-106134504D01*
X149247755Y-106134504D01*
X149249111Y-106215521D01*
X149248540Y-106217235D01*
X149249324Y-106228279D01*
X149249676Y-106249251D01*
X149251051Y-106252571D01*
X149251306Y-106256155D01*
X149258312Y-106274463D01*
X149307649Y-106369487D01*
X149312226Y-106380537D01*
X149315384Y-106384385D01*
X149316374Y-106386291D01*
X149318368Y-106388020D01*
X149324663Y-106395690D01*
X149374763Y-106443623D01*
X149381681Y-106451600D01*
X149385830Y-106454211D01*
X149387435Y-106455747D01*
X149389875Y-106456757D01*
X149398272Y-106462043D01*
X149481289Y-106501981D01*
X149482674Y-106503366D01*
X149493423Y-106507818D01*
X149511818Y-106516668D01*
X149515401Y-106516922D01*
X149518722Y-106518298D01*
X149538231Y-106520219D01*
X149775031Y-106518453D01*
X149788833Y-106519434D01*
X149793760Y-106518313D01*
X149795835Y-106518298D01*
X149798277Y-106517286D01*
X149807949Y-106515087D01*
X149968706Y-106459477D01*
X149998182Y-106433912D01*
X150015631Y-106399013D01*
X150018398Y-106360093D01*
X150006059Y-106323077D01*
X149980494Y-106293601D01*
X149945595Y-106276151D01*
X149906675Y-106273385D01*
X149887560Y-106277732D01*
X149764483Y-106320307D01*
X149564294Y-106321800D01*
X149504394Y-106292983D01*
X149478620Y-106268324D01*
X149447394Y-106208181D01*
X149446582Y-106159717D01*
X149474989Y-106100669D01*
X149499651Y-106074892D01*
X149567206Y-106039816D01*
X149745564Y-105993537D01*
X149755120Y-105992858D01*
X149769732Y-105987266D01*
X149771421Y-105986828D01*
X149772001Y-105986397D01*
X149773428Y-105985852D01*
X149868457Y-105936511D01*
X149879502Y-105931937D01*
X149883348Y-105928780D01*
X149885256Y-105927790D01*
X149886985Y-105925795D01*
X149894656Y-105919501D01*
X149942589Y-105869398D01*
X149950564Y-105862483D01*
X149953175Y-105858333D01*
X149954711Y-105856729D01*
X149955721Y-105854288D01*
X149961007Y-105845892D01*
X150000945Y-105762874D01*
X150002330Y-105761490D01*
X150006782Y-105750740D01*
X150015632Y-105732346D01*
X150015886Y-105728762D01*
X150017262Y-105725442D01*
X150019183Y-105705933D01*
X150017826Y-105624915D01*
X150018398Y-105623202D01*
X150017613Y-105612157D01*
X150017262Y-105591186D01*
X150015886Y-105587865D01*
X150015632Y-105584282D01*
X150008626Y-105565973D01*
X149959283Y-105470939D01*
X149954711Y-105459899D01*
X149951555Y-105456053D01*
X149950564Y-105454145D01*
X149948566Y-105452412D01*
X149942274Y-105444746D01*
X149896245Y-105400710D01*
X150202057Y-105400710D01*
X150202057Y-105439728D01*
X150216989Y-105475776D01*
X150244579Y-105503366D01*
X150280627Y-105518298D01*
X150300136Y-105520219D01*
X150676511Y-105518760D01*
X150677035Y-105796949D01*
X150423484Y-105798330D01*
X150387436Y-105813262D01*
X150359846Y-105840852D01*
X150344914Y-105876900D01*
X150344914Y-105915918D01*
X150359846Y-105951966D01*
X150387436Y-105979556D01*
X150423484Y-105994488D01*
X150442993Y-105996409D01*
X150677409Y-105995132D01*
X150678022Y-106320599D01*
X150280627Y-106322140D01*
X150244579Y-106337072D01*
X150216989Y-106364662D01*
X150202057Y-106400710D01*
X150202057Y-106439728D01*
X150216989Y-106475776D01*
X150244579Y-106503366D01*
X150280627Y-106518298D01*
X150300136Y-106520219D01*
X150795835Y-106518298D01*
X150831883Y-106503366D01*
X150859473Y-106475776D01*
X150874405Y-106439728D01*
X150876326Y-106420219D01*
X150874801Y-105610695D01*
X151104898Y-105610695D01*
X151106414Y-105738851D01*
X151105683Y-105741045D01*
X151106591Y-105753827D01*
X151106819Y-105773061D01*
X151108194Y-105776381D01*
X151108449Y-105779965D01*
X151115455Y-105798273D01*
X151164795Y-105893302D01*
X151169370Y-105904347D01*
X151172526Y-105908193D01*
X151173517Y-105910101D01*
X151175511Y-105911830D01*
X151181806Y-105919501D01*
X151231908Y-105967434D01*
X151238824Y-105975409D01*
X151242973Y-105978020D01*
X151244578Y-105979556D01*
X151247018Y-105980566D01*
X151255415Y-105985852D01*
X151338432Y-106025790D01*
X151339817Y-106027175D01*
X151350566Y-106031627D01*
X151354289Y-106033418D01*
X151113361Y-106379957D01*
X151104921Y-106418051D01*
X151111702Y-106456476D01*
X151132671Y-106489381D01*
X151164636Y-106511756D01*
X151202730Y-106520196D01*
X151241155Y-106513415D01*
X151274060Y-106492446D01*
X151286821Y-106477565D01*
X151588880Y-106043099D01*
X151677498Y-106042674D01*
X151678247Y-106439728D01*
X151693179Y-106475776D01*
X151720769Y-106503366D01*
X151756817Y-106518298D01*
X151795835Y-106518298D01*
X151831883Y-106503366D01*
X151859473Y-106475776D01*
X151874405Y-106439728D01*
X151876326Y-106420219D01*
X151874405Y-105400710D01*
X151859473Y-105364662D01*
X151831883Y-105337072D01*
X151795835Y-105322140D01*
X151776326Y-105320219D01*
X151410786Y-105321972D01*
X151407881Y-105321004D01*
X151393056Y-105322057D01*
X151375865Y-105322140D01*
X151372544Y-105323515D01*
X151368961Y-105323770D01*
X151350652Y-105330776D01*
X151255618Y-105380118D01*
X151244578Y-105384691D01*
X151240732Y-105387846D01*
X151238824Y-105388838D01*
X151237091Y-105390835D01*
X151229425Y-105397128D01*
X151181493Y-105447228D01*
X151173517Y-105454146D01*
X151170904Y-105458295D01*
X151169370Y-105459900D01*
X151168359Y-105462339D01*
X151163074Y-105470736D01*
X151123135Y-105553753D01*
X151121751Y-105555138D01*
X151117298Y-105565887D01*
X151108449Y-105584282D01*
X151108194Y-105587865D01*
X151106819Y-105591186D01*
X151104898Y-105610695D01*
X150874801Y-105610695D01*
X150874405Y-105400710D01*
X150859473Y-105364662D01*
X150831883Y-105337072D01*
X150795835Y-105322140D01*
X150776326Y-105320219D01*
X150280627Y-105322140D01*
X150244579Y-105337072D01*
X150216989Y-105364662D01*
X150202057Y-105400710D01*
X149896245Y-105400710D01*
X149892173Y-105396814D01*
X149885256Y-105388838D01*
X149881106Y-105386225D01*
X149879502Y-105384691D01*
X149877062Y-105383680D01*
X149868666Y-105378395D01*
X149785648Y-105338456D01*
X149784264Y-105337072D01*
X149773514Y-105332619D01*
X149755120Y-105323770D01*
X149751536Y-105323515D01*
X149748216Y-105322140D01*
X149728707Y-105320219D01*
X149491905Y-105321984D01*
X149478104Y-105321004D01*
X149473176Y-105322124D01*
X149471103Y-105322140D01*
X149468661Y-105323151D01*
X149458989Y-105325351D01*
X149298232Y-105380961D01*
X149268756Y-105406526D01*
X149251306Y-105441425D01*
X149248540Y-105480345D01*
X149260878Y-105517361D01*
X149286443Y-105546837D01*
X149321342Y-105564287D01*
X149360262Y-105567053D01*
X149379378Y-105562706D01*
X149502454Y-105520130D01*
X149702643Y-105518637D01*
X149762541Y-105547453D01*
X149788318Y-105572115D01*
X149819543Y-105632254D01*
X149820355Y-105680719D01*
X149791947Y-105739769D01*
X149767289Y-105765542D01*
X149699729Y-105800620D01*
X149521373Y-105846899D01*
X149511818Y-105847579D01*
X149497202Y-105853171D01*
X149495517Y-105853609D01*
X149494937Y-105854038D01*
X149493509Y-105854585D01*
X149398475Y-105903927D01*
X149387435Y-105908500D01*
X149383589Y-105911655D01*
X149381681Y-105912647D01*
X149379948Y-105914644D01*
X149372282Y-105920937D01*
X149324350Y-105971037D01*
X149316374Y-105977955D01*
X149313761Y-105982104D01*
X149312227Y-105983709D01*
X149311216Y-105986148D01*
X149305931Y-105994545D01*
X149265992Y-106077562D01*
X149264608Y-106078947D01*
X149260155Y-106089696D01*
X149251306Y-106108091D01*
X149251051Y-106111674D01*
X149249676Y-106114995D01*
X149247755Y-106134504D01*
X149018645Y-106134504D01*
X149017262Y-105400710D01*
X149002330Y-105364662D01*
X148974740Y-105337072D01*
X148938692Y-105322140D01*
X148919183Y-105320219D01*
X148423484Y-105322140D01*
X148387436Y-105337072D01*
X148359846Y-105364662D01*
X148344914Y-105400710D01*
X148255357Y-105400710D01*
X148240425Y-105364662D01*
X148212835Y-105337072D01*
X148176787Y-105322140D01*
X148157278Y-105320219D01*
X147566341Y-105322140D01*
X147530293Y-105337072D01*
X147502703Y-105364662D01*
X147487771Y-105400710D01*
X147376660Y-105400710D01*
X147376660Y-105209108D01*
X151987437Y-105209108D01*
X151987437Y-106631330D01*
G37*
D11*
G36*
X146331448Y-53059329D02*
G01*
X146756920Y-53311769D01*
X147011107Y-53730718D01*
X147098060Y-54153175D01*
X147016272Y-54574359D01*
X146763833Y-54999831D01*
X146344883Y-55254018D01*
X145922426Y-55340971D01*
X145501243Y-55259184D01*
X145075771Y-55006744D01*
X144821584Y-54587794D01*
X144734630Y-54165338D01*
X144816418Y-53744154D01*
X144920300Y-53569066D01*
X145386571Y-53569066D01*
X145390719Y-53627446D01*
X145416894Y-53679795D01*
X145461109Y-53718142D01*
X145516631Y-53736650D01*
X145575011Y-53732502D01*
X145602475Y-53721992D01*
X145757092Y-53642370D01*
X146067431Y-53640190D01*
X146204076Y-53706492D01*
X146361707Y-53861110D01*
X146433231Y-54000002D01*
X146435411Y-54310342D01*
X146369108Y-54446987D01*
X146214491Y-54604618D01*
X146075599Y-54676142D01*
X145765260Y-54678322D01*
X145575011Y-54586011D01*
X145516631Y-54581863D01*
X145461109Y-54600371D01*
X145416894Y-54638718D01*
X145390719Y-54691067D01*
X145386571Y-54749447D01*
X145405079Y-54804969D01*
X145443426Y-54849184D01*
X145468311Y-54864849D01*
X145640089Y-54948198D01*
X145642534Y-54950643D01*
X145660263Y-54957986D01*
X145686252Y-54970597D01*
X145691627Y-54970978D01*
X145696606Y-54973041D01*
X145725870Y-54975923D01*
X146084044Y-54973406D01*
X146088060Y-54974745D01*
X146109404Y-54973228D01*
X146136086Y-54973041D01*
X146141063Y-54970979D01*
X146146441Y-54970597D01*
X146173904Y-54960087D01*
X146363002Y-54862708D01*
X146380633Y-54855406D01*
X146386443Y-54850637D01*
X146389266Y-54849184D01*
X146391862Y-54846189D01*
X146403364Y-54836751D01*
X146591231Y-54645221D01*
X146606273Y-54632177D01*
X146610296Y-54625785D01*
X146612495Y-54623544D01*
X146614010Y-54619884D01*
X146621938Y-54607291D01*
X146705286Y-54435514D01*
X146707732Y-54433069D01*
X146715076Y-54415338D01*
X146727686Y-54389351D01*
X146728067Y-54383975D01*
X146730130Y-54378997D01*
X146733012Y-54349733D01*
X146730495Y-53991557D01*
X146731834Y-53987542D01*
X146730317Y-53966197D01*
X146730130Y-53939516D01*
X146728067Y-53934537D01*
X146727686Y-53929162D01*
X146717176Y-53901698D01*
X146619797Y-53712599D01*
X146612495Y-53694969D01*
X146607726Y-53689158D01*
X146606273Y-53686336D01*
X146603279Y-53683739D01*
X146593840Y-53672238D01*
X146402313Y-53484372D01*
X146389266Y-53469329D01*
X146382874Y-53465305D01*
X146380633Y-53463107D01*
X146376973Y-53461591D01*
X146364380Y-53453664D01*
X146192602Y-53370314D01*
X146190158Y-53367870D01*
X146172433Y-53360528D01*
X146146441Y-53347916D01*
X146141063Y-53347533D01*
X146136086Y-53345472D01*
X146106822Y-53342590D01*
X145748647Y-53345106D01*
X145744632Y-53343768D01*
X145723287Y-53345284D01*
X145696606Y-53345472D01*
X145691627Y-53347534D01*
X145686252Y-53347916D01*
X145658789Y-53358426D01*
X145443426Y-53469329D01*
X145405079Y-53513544D01*
X145386571Y-53569066D01*
X144920300Y-53569066D01*
X145068857Y-53318682D01*
X145487807Y-53064494D01*
X145910264Y-52977541D01*
X146331448Y-53059329D01*
G37*
G36*
X135728298Y-53992406D02*
G01*
X135790954Y-54052897D01*
X135861733Y-54190342D01*
X135864135Y-54690982D01*
X135797480Y-54828352D01*
X135736989Y-54891009D01*
X135599278Y-54961924D01*
X135384012Y-54963894D01*
X135247249Y-54897534D01*
X135184594Y-54837043D01*
X135113815Y-54699599D01*
X135111413Y-54198959D01*
X135178068Y-54061588D01*
X135238558Y-53998933D01*
X135376270Y-53928017D01*
X135591536Y-53926047D01*
X135728298Y-53992406D01*
G37*
G36*
X141613479Y-53982905D02*
G01*
X141671220Y-54095034D01*
X141671831Y-54262680D01*
X141017142Y-54133702D01*
X141016734Y-54102570D01*
X141073328Y-53985932D01*
X141185663Y-53928084D01*
X141496003Y-53925904D01*
X141613479Y-53982905D01*
G37*
G36*
X143578498Y-54962478D02*
G01*
X143281167Y-54964173D01*
X143047971Y-54888696D01*
X142899554Y-54743115D01*
X142822171Y-54592844D01*
X142732935Y-54245984D01*
X142730651Y-53996435D01*
X142814705Y-53650190D01*
X142892153Y-53490573D01*
X143040707Y-53339124D01*
X143266866Y-53261540D01*
X143576080Y-53259776D01*
X143578498Y-54962478D01*
G37*
G36*
X147621901Y-55864812D02*
G01*
X124116729Y-55864812D01*
X124116729Y-53854780D01*
X124338951Y-53854780D01*
X124343099Y-53913161D01*
X124369274Y-53965510D01*
X124413489Y-54003856D01*
X124469011Y-54022364D01*
X124527392Y-54018216D01*
X124554855Y-54007706D01*
X124709471Y-53928084D01*
X125019811Y-53925904D01*
X125156868Y-53992406D01*
X125219524Y-54052897D01*
X125290303Y-54190342D01*
X125292705Y-54690982D01*
X125226050Y-54828352D01*
X125165559Y-54891009D01*
X125027979Y-54961857D01*
X124717639Y-54964037D01*
X124527392Y-54871726D01*
X124469011Y-54867578D01*
X124413489Y-54886086D01*
X124369274Y-54924432D01*
X124343099Y-54976781D01*
X124338951Y-55035162D01*
X124357459Y-55090684D01*
X124395805Y-55134899D01*
X124420691Y-55150564D01*
X124592467Y-55233912D01*
X124594913Y-55236358D01*
X124612643Y-55243702D01*
X124638631Y-55256312D01*
X124644006Y-55256693D01*
X124648985Y-55258756D01*
X124678249Y-55261638D01*
X125036424Y-55259121D01*
X125040440Y-55260460D01*
X125061784Y-55258943D01*
X125088466Y-55258756D01*
X125093443Y-55256694D01*
X125098821Y-55256312D01*
X125126284Y-55245802D01*
X125315385Y-55148422D01*
X125333014Y-55141120D01*
X125338822Y-55136352D01*
X125341646Y-55134899D01*
X125344243Y-55131904D01*
X125355745Y-55122465D01*
X125450431Y-55024389D01*
X125463415Y-55013129D01*
X125467373Y-55006840D01*
X125469638Y-55004495D01*
X125471154Y-55000833D01*
X125479080Y-54988243D01*
X125562428Y-54816466D01*
X125564874Y-54814021D01*
X125572218Y-54796290D01*
X125584828Y-54770303D01*
X125585209Y-54764927D01*
X125587272Y-54759949D01*
X125590154Y-54730685D01*
X125587523Y-54182377D01*
X125588976Y-54178019D01*
X125587395Y-54155777D01*
X125587272Y-54129993D01*
X125585209Y-54125014D01*
X125584828Y-54119639D01*
X125574318Y-54092176D01*
X125476942Y-53903081D01*
X125469637Y-53885445D01*
X125464867Y-53879633D01*
X125463415Y-53876813D01*
X125460423Y-53874218D01*
X125450982Y-53862714D01*
X125442764Y-53854780D01*
X126053237Y-53854780D01*
X126057385Y-53913161D01*
X126083560Y-53965510D01*
X126127775Y-54003856D01*
X126183297Y-54022364D01*
X126241678Y-54018216D01*
X126269141Y-54007706D01*
X126423757Y-53928084D01*
X126734097Y-53925904D01*
X126871154Y-53992406D01*
X126933810Y-54052897D01*
X127004589Y-54190342D01*
X127006991Y-54690982D01*
X126940336Y-54828352D01*
X126879845Y-54891009D01*
X126742265Y-54961857D01*
X126431925Y-54964037D01*
X126241678Y-54871726D01*
X126183297Y-54867578D01*
X126127775Y-54886086D01*
X126083560Y-54924432D01*
X126057385Y-54976781D01*
X126053237Y-55035162D01*
X126071745Y-55090684D01*
X126110091Y-55134899D01*
X126134977Y-55150564D01*
X126306753Y-55233912D01*
X126309199Y-55236358D01*
X126326929Y-55243702D01*
X126352917Y-55256312D01*
X126358292Y-55256693D01*
X126363271Y-55258756D01*
X126392535Y-55261638D01*
X126750710Y-55259121D01*
X126754726Y-55260460D01*
X126776070Y-55258943D01*
X126802752Y-55258756D01*
X126807729Y-55256694D01*
X126813107Y-55256312D01*
X126840570Y-55245802D01*
X127029671Y-55148422D01*
X127047300Y-55141120D01*
X127053108Y-55136352D01*
X127055932Y-55134899D01*
X127058529Y-55131904D01*
X127070031Y-55122465D01*
X127164717Y-55024389D01*
X127177701Y-55013129D01*
X127181659Y-55006840D01*
X127183924Y-55004495D01*
X127185440Y-55000833D01*
X127193366Y-54988243D01*
X127193902Y-54987138D01*
X127769227Y-54987138D01*
X127769227Y-55045664D01*
X127773517Y-55056020D01*
X127791624Y-55099735D01*
X127810279Y-55122466D01*
X127928247Y-55236358D01*
X127928248Y-55236359D01*
X127951046Y-55245802D01*
X127982319Y-55258756D01*
X127982320Y-55258756D01*
X128040846Y-55258756D01*
X128040847Y-55258756D01*
X128072120Y-55245802D01*
X128094918Y-55236359D01*
X128117649Y-55217704D01*
X128231514Y-55099763D01*
X128231542Y-55099736D01*
X128253939Y-55045664D01*
X128253939Y-54987138D01*
X128249936Y-54977474D01*
X128244571Y-54964520D01*
X128231543Y-54933066D01*
X128212888Y-54910335D01*
X128094947Y-54796468D01*
X128094918Y-54796439D01*
X128059400Y-54781728D01*
X128040847Y-54774043D01*
X127982319Y-54774043D01*
X127966482Y-54780603D01*
X127928247Y-54796440D01*
X127905517Y-54815095D01*
X127791624Y-54933065D01*
X127773230Y-54977474D01*
X127769227Y-54987138D01*
X127193902Y-54987138D01*
X127276714Y-54816466D01*
X127279160Y-54814021D01*
X127286504Y-54796290D01*
X127299114Y-54770303D01*
X127299495Y-54764927D01*
X127301558Y-54759949D01*
X127304440Y-54730685D01*
X128718726Y-54730685D01*
X128720457Y-54805499D01*
X128719904Y-54807161D01*
X128720782Y-54819525D01*
X128721608Y-54855187D01*
X128723670Y-54860165D01*
X128724052Y-54865541D01*
X128734562Y-54893005D01*
X128828678Y-55075770D01*
X128833650Y-55090684D01*
X128840317Y-55098371D01*
X128845465Y-55108368D01*
X128859677Y-55120694D01*
X128871997Y-55134899D01*
X128886800Y-55144217D01*
X128889680Y-55146715D01*
X128891991Y-55147485D01*
X128896882Y-55150564D01*
X129068660Y-55233913D01*
X129071105Y-55236358D01*
X129088834Y-55243701D01*
X129114823Y-55256312D01*
X129120198Y-55256693D01*
X129125177Y-55258756D01*
X129154441Y-55261638D01*
X129512615Y-55259121D01*
X129516631Y-55260460D01*
X129537975Y-55258943D01*
X129564657Y-55258756D01*
X129569634Y-55256694D01*
X129575012Y-55256312D01*
X129602475Y-55245802D01*
X129817837Y-55134899D01*
X129856184Y-55090684D01*
X129874691Y-55035161D01*
X129870543Y-54976781D01*
X129844368Y-54924432D01*
X129800153Y-54886085D01*
X129744631Y-54867578D01*
X129686251Y-54871726D01*
X129658787Y-54882236D01*
X129504170Y-54961857D01*
X129193831Y-54964037D01*
X129076354Y-54907035D01*
X129017979Y-54793678D01*
X129017382Y-54767898D01*
X129073327Y-54652599D01*
X129185794Y-54594684D01*
X129417700Y-54592562D01*
X129421393Y-54593793D01*
X129441822Y-54592341D01*
X129469419Y-54592089D01*
X129474396Y-54590027D01*
X129479774Y-54589645D01*
X129507237Y-54579135D01*
X129690001Y-54485018D01*
X129704915Y-54480047D01*
X129712602Y-54473379D01*
X129722599Y-54468232D01*
X129734922Y-54454022D01*
X129749130Y-54441701D01*
X129758449Y-54426895D01*
X129760946Y-54424017D01*
X129761716Y-54421705D01*
X129764795Y-54416815D01*
X129848143Y-54245038D01*
X129850589Y-54242593D01*
X129857933Y-54224862D01*
X129870543Y-54198875D01*
X129870924Y-54193499D01*
X129872987Y-54188521D01*
X129875869Y-54159257D01*
X129874137Y-54084442D01*
X129874691Y-54082781D01*
X129873812Y-54070416D01*
X129872987Y-54034755D01*
X129870924Y-54029776D01*
X129870543Y-54024401D01*
X129860033Y-53996938D01*
X129786828Y-53854780D01*
X130338952Y-53854780D01*
X130343100Y-53913161D01*
X130369275Y-53965510D01*
X130413490Y-54003856D01*
X130469012Y-54022364D01*
X130527393Y-54018216D01*
X130554856Y-54007706D01*
X130709472Y-53928084D01*
X131019812Y-53925904D01*
X131156869Y-53992406D01*
X131219525Y-54052897D01*
X131290304Y-54190342D01*
X131292706Y-54690982D01*
X131226051Y-54828352D01*
X131165560Y-54891009D01*
X131027980Y-54961857D01*
X130717640Y-54964037D01*
X130527393Y-54871726D01*
X130469012Y-54867578D01*
X130413490Y-54886086D01*
X130369275Y-54924432D01*
X130343100Y-54976781D01*
X130338952Y-55035162D01*
X130357460Y-55090684D01*
X130395806Y-55134899D01*
X130420692Y-55150564D01*
X130592468Y-55233912D01*
X130594914Y-55236358D01*
X130612644Y-55243702D01*
X130638632Y-55256312D01*
X130644007Y-55256693D01*
X130648986Y-55258756D01*
X130678250Y-55261638D01*
X131036425Y-55259121D01*
X131040441Y-55260460D01*
X131061785Y-55258943D01*
X131088467Y-55258756D01*
X131093444Y-55256694D01*
X131098822Y-55256312D01*
X131126285Y-55245802D01*
X131315386Y-55148422D01*
X131333015Y-55141120D01*
X131338823Y-55136352D01*
X131341647Y-55134899D01*
X131344244Y-55131904D01*
X131355746Y-55122465D01*
X131450432Y-55024389D01*
X131463416Y-55013129D01*
X131467374Y-55006840D01*
X131469639Y-55004495D01*
X131471155Y-55000833D01*
X131479081Y-54988243D01*
X131562429Y-54816466D01*
X131564875Y-54814021D01*
X131572219Y-54796290D01*
X131584829Y-54770303D01*
X131585210Y-54764927D01*
X131587273Y-54759949D01*
X131590155Y-54730685D01*
X131587524Y-54182377D01*
X131588977Y-54178019D01*
X131587396Y-54155777D01*
X131587273Y-54129993D01*
X131585210Y-54125014D01*
X131584829Y-54119639D01*
X131574319Y-54092176D01*
X131476943Y-53903081D01*
X131469638Y-53885445D01*
X131464868Y-53879633D01*
X131463416Y-53876813D01*
X131460424Y-53874218D01*
X131450983Y-53862714D01*
X131363553Y-53778304D01*
X132147298Y-53778304D01*
X132150180Y-55140902D01*
X132172578Y-55194974D01*
X132213962Y-55236358D01*
X132268034Y-55258756D01*
X132326562Y-55258756D01*
X132380634Y-55236358D01*
X132422018Y-55194974D01*
X132444416Y-55140902D01*
X132447298Y-55111638D01*
X132445082Y-54064019D01*
X133099679Y-54064019D01*
X133102561Y-55140902D01*
X133124959Y-55194974D01*
X133166343Y-55236358D01*
X133220415Y-55258756D01*
X133278943Y-55258756D01*
X133333015Y-55236358D01*
X133374399Y-55194974D01*
X133396797Y-55140902D01*
X133399679Y-55111638D01*
X133396982Y-54104021D01*
X133454280Y-53985932D01*
X133566746Y-53928017D01*
X133782012Y-53926047D01*
X133918774Y-53992406D01*
X133957353Y-54029652D01*
X133959704Y-55140902D01*
X133982102Y-55194974D01*
X134023486Y-55236358D01*
X134077558Y-55258756D01*
X134136086Y-55258756D01*
X134190158Y-55236358D01*
X134231542Y-55194974D01*
X134253940Y-55140902D01*
X134256822Y-55111638D01*
X134254808Y-54159257D01*
X134813965Y-54159257D01*
X134816595Y-54707565D01*
X134815143Y-54711923D01*
X134816723Y-54734164D01*
X134816847Y-54759949D01*
X134818908Y-54764926D01*
X134819291Y-54770304D01*
X134829801Y-54797767D01*
X134927180Y-54986866D01*
X134934482Y-55004496D01*
X134939250Y-55010306D01*
X134940704Y-55013129D01*
X134943697Y-55015725D01*
X134953136Y-55027226D01*
X135051214Y-55121917D01*
X135062473Y-55134899D01*
X135068758Y-55138855D01*
X135071105Y-55141121D01*
X135074767Y-55142637D01*
X135087359Y-55150564D01*
X135259135Y-55233912D01*
X135261581Y-55236358D01*
X135279311Y-55243702D01*
X135305299Y-55256312D01*
X135310674Y-55256693D01*
X135315653Y-55258756D01*
X135344917Y-55261638D01*
X135608177Y-55259229D01*
X135611870Y-55260460D01*
X135632299Y-55259008D01*
X135659896Y-55258756D01*
X135664873Y-55256694D01*
X135670251Y-55256312D01*
X135697714Y-55245802D01*
X135886815Y-55148422D01*
X135904444Y-55141120D01*
X135910252Y-55136352D01*
X135913076Y-55134899D01*
X135915673Y-55131904D01*
X135927175Y-55122465D01*
X136021861Y-55024389D01*
X136034845Y-55013129D01*
X136038803Y-55006840D01*
X136041068Y-55004495D01*
X136042584Y-55000833D01*
X136050510Y-54988243D01*
X136133858Y-54816466D01*
X136136304Y-54814021D01*
X136143648Y-54796290D01*
X136156258Y-54770303D01*
X136156639Y-54764927D01*
X136158702Y-54759949D01*
X136161584Y-54730685D01*
X136158953Y-54182377D01*
X136160406Y-54178019D01*
X136158825Y-54155777D01*
X136158702Y-54129993D01*
X136156639Y-54125014D01*
X136156258Y-54119639D01*
X136145748Y-54092176D01*
X136048372Y-53903081D01*
X136041067Y-53885445D01*
X136036297Y-53879633D01*
X136034845Y-53876813D01*
X136031853Y-53874218D01*
X136022412Y-53862714D01*
X135924339Y-53768029D01*
X135913076Y-53755043D01*
X135906787Y-53751084D01*
X135904670Y-53749040D01*
X136435894Y-53749040D01*
X136435894Y-53807568D01*
X136458292Y-53861640D01*
X136499676Y-53903024D01*
X136553748Y-53925422D01*
X136583012Y-53928304D01*
X136734937Y-53926311D01*
X136871155Y-53992406D01*
X136933811Y-54052897D01*
X137005315Y-54191751D01*
X137007323Y-55140902D01*
X137029721Y-55194974D01*
X137071105Y-55236358D01*
X137125177Y-55258756D01*
X137183705Y-55258756D01*
X137237777Y-55236358D01*
X137279161Y-55194974D01*
X137301559Y-55140902D01*
X137304441Y-55111638D01*
X137302471Y-54180394D01*
X137303263Y-54178019D01*
X137302441Y-54166462D01*
X137301559Y-53749040D01*
X137673990Y-53749040D01*
X137673990Y-53807568D01*
X137696388Y-53861640D01*
X137737772Y-53903024D01*
X137791844Y-53925422D01*
X137821108Y-53928304D01*
X138148645Y-53927110D01*
X138150065Y-54785774D01*
X138092696Y-54904009D01*
X137979982Y-54962052D01*
X137791844Y-54964520D01*
X137737772Y-54986918D01*
X137696388Y-55028302D01*
X137673990Y-55082374D01*
X137673990Y-55140902D01*
X137696388Y-55194974D01*
X137737772Y-55236358D01*
X137791844Y-55258756D01*
X137821108Y-55261638D01*
X137989721Y-55259426D01*
X137992822Y-55260460D01*
X138011361Y-55259142D01*
X138040848Y-55258756D01*
X138045825Y-55256694D01*
X138051203Y-55256312D01*
X138078666Y-55245802D01*
X138261430Y-55151685D01*
X138276344Y-55146714D01*
X138284031Y-55140046D01*
X138294028Y-55134899D01*
X138306354Y-55120686D01*
X138320559Y-55108367D01*
X138329877Y-55093563D01*
X138332375Y-55090684D01*
X138333145Y-55088372D01*
X138336224Y-55083482D01*
X138419573Y-54911703D01*
X138422018Y-54909259D01*
X138429361Y-54891529D01*
X138441972Y-54865541D01*
X138442353Y-54860165D01*
X138444416Y-54855187D01*
X138447298Y-54825923D01*
X138445810Y-53926028D01*
X138612276Y-53925422D01*
X138666348Y-53903024D01*
X138707732Y-53861640D01*
X138710574Y-53854780D01*
X139005619Y-53854780D01*
X139009767Y-53913161D01*
X139035942Y-53965510D01*
X139080157Y-54003856D01*
X139135679Y-54022364D01*
X139194060Y-54018216D01*
X139221523Y-54007706D01*
X139376139Y-53928084D01*
X139686479Y-53925904D01*
X139823536Y-53992406D01*
X139886192Y-54052897D01*
X139956971Y-54190342D01*
X139959373Y-54690982D01*
X139892718Y-54828352D01*
X139832227Y-54891009D01*
X139694647Y-54961857D01*
X139384307Y-54964037D01*
X139194060Y-54871726D01*
X139135679Y-54867578D01*
X139080157Y-54886086D01*
X139035942Y-54924432D01*
X139009767Y-54976781D01*
X139005619Y-55035162D01*
X139024127Y-55090684D01*
X139062473Y-55134899D01*
X139087359Y-55150564D01*
X139259135Y-55233912D01*
X139261581Y-55236358D01*
X139279311Y-55243702D01*
X139305299Y-55256312D01*
X139310674Y-55256693D01*
X139315653Y-55258756D01*
X139344917Y-55261638D01*
X139703092Y-55259121D01*
X139707108Y-55260460D01*
X139728452Y-55258943D01*
X139755134Y-55258756D01*
X139760111Y-55256694D01*
X139765489Y-55256312D01*
X139792952Y-55245802D01*
X139982053Y-55148422D01*
X139999682Y-55141120D01*
X140005490Y-55136352D01*
X140008314Y-55134899D01*
X140010911Y-55131904D01*
X140022413Y-55122465D01*
X140117099Y-55024389D01*
X140130083Y-55013129D01*
X140134041Y-55006840D01*
X140136306Y-55004495D01*
X140137822Y-55000833D01*
X140145748Y-54988243D01*
X140229096Y-54816466D01*
X140231542Y-54814021D01*
X140238886Y-54796290D01*
X140251496Y-54770303D01*
X140251877Y-54764927D01*
X140253940Y-54759949D01*
X140256822Y-54730685D01*
X140254191Y-54182377D01*
X140255644Y-54178019D01*
X140254063Y-54155777D01*
X140253940Y-54129993D01*
X140251877Y-54125014D01*
X140251496Y-54119639D01*
X140240986Y-54092176D01*
X140226486Y-54064019D01*
X140718727Y-54064019D01*
X140721069Y-54242625D01*
X140718727Y-54254339D01*
X140721400Y-54267852D01*
X140721609Y-54283759D01*
X140727232Y-54297335D01*
X140730085Y-54311753D01*
X140738323Y-54324111D01*
X140744007Y-54337831D01*
X140754397Y-54348221D01*
X140762550Y-54360450D01*
X140774890Y-54368714D01*
X140785391Y-54379215D01*
X140798966Y-54384838D01*
X140811179Y-54393017D01*
X140839310Y-54401582D01*
X140839459Y-54401611D01*
X140839463Y-54401613D01*
X140839467Y-54401613D01*
X141672935Y-54565810D01*
X141673738Y-54786057D01*
X141616506Y-54904009D01*
X141504171Y-54961857D01*
X141193831Y-54964037D01*
X141003584Y-54871726D01*
X140945203Y-54867578D01*
X140889681Y-54886086D01*
X140845466Y-54924432D01*
X140819291Y-54976781D01*
X140815143Y-55035162D01*
X140833651Y-55090684D01*
X140871997Y-55134899D01*
X140896883Y-55150564D01*
X141068659Y-55233912D01*
X141071105Y-55236358D01*
X141088835Y-55243702D01*
X141114823Y-55256312D01*
X141120198Y-55256693D01*
X141125177Y-55258756D01*
X141154441Y-55261638D01*
X141512616Y-55259121D01*
X141516632Y-55260460D01*
X141537976Y-55258943D01*
X141564658Y-55258756D01*
X141569635Y-55256694D01*
X141575013Y-55256312D01*
X141602476Y-55245802D01*
X141785240Y-55151685D01*
X141800154Y-55146714D01*
X141807841Y-55140046D01*
X141817838Y-55134899D01*
X141830164Y-55120686D01*
X141844369Y-55108367D01*
X141853687Y-55093563D01*
X141856185Y-55090684D01*
X141856955Y-55088372D01*
X141860034Y-55083482D01*
X141943383Y-54911703D01*
X141945828Y-54909259D01*
X141953171Y-54891529D01*
X141965782Y-54865541D01*
X141966163Y-54860165D01*
X141968226Y-54855187D01*
X141971108Y-54825923D01*
X141969745Y-54451939D01*
X141971108Y-54445128D01*
X141969694Y-54437984D01*
X141968417Y-54087318D01*
X141969930Y-54082781D01*
X141968318Y-54060097D01*
X141968226Y-54034755D01*
X141966163Y-54029776D01*
X141965782Y-54024401D01*
X141955272Y-53996938D01*
X141940772Y-53968780D01*
X142433013Y-53968780D01*
X142435548Y-54245934D01*
X142433190Y-54261786D01*
X142435859Y-54279833D01*
X142435895Y-54283759D01*
X142436742Y-54285803D01*
X142437492Y-54290875D01*
X142532525Y-54660270D01*
X142533577Y-54675066D01*
X142541983Y-54697032D01*
X142542623Y-54699518D01*
X142543267Y-54700388D01*
X142544087Y-54702529D01*
X142641465Y-54891627D01*
X142648768Y-54909258D01*
X142653536Y-54915068D01*
X142654990Y-54917891D01*
X142657984Y-54920487D01*
X142667423Y-54931989D01*
X142843760Y-55104956D01*
X142845466Y-55108367D01*
X142860767Y-55121637D01*
X142880629Y-55141120D01*
X142885608Y-55143182D01*
X142889680Y-55146714D01*
X142916531Y-55158703D01*
X143201700Y-55251003D01*
X143220416Y-55258756D01*
X143227942Y-55259497D01*
X143230920Y-55260461D01*
X143234874Y-55260179D01*
X143249680Y-55261638D01*
X143755134Y-55258756D01*
X143809206Y-55236358D01*
X143850590Y-55194974D01*
X143872988Y-55140902D01*
X143872988Y-55140901D01*
X143875870Y-55111638D01*
X143874517Y-54159100D01*
X144433012Y-54159100D01*
X144433043Y-54159257D01*
X144433012Y-54159414D01*
X144435925Y-54188675D01*
X144533764Y-54664016D01*
X144537042Y-54686045D01*
X144539264Y-54690737D01*
X144539729Y-54692996D01*
X144541793Y-54696078D01*
X144549627Y-54712621D01*
X144826756Y-55169385D01*
X144828337Y-55175708D01*
X144840787Y-55192511D01*
X144852868Y-55212423D01*
X144858792Y-55216812D01*
X144863180Y-55222734D01*
X144886791Y-55240262D01*
X145363800Y-55523279D01*
X145382607Y-55535874D01*
X145387580Y-55537388D01*
X145389557Y-55538561D01*
X145393224Y-55539106D01*
X145410738Y-55544439D01*
X145916189Y-55642590D01*
X145916345Y-55642558D01*
X145916503Y-55642590D01*
X145945763Y-55639677D01*
X146421100Y-55541839D01*
X146443134Y-55538561D01*
X146447827Y-55536338D01*
X146450084Y-55535874D01*
X146453163Y-55533811D01*
X146469710Y-55525976D01*
X146926474Y-55248846D01*
X146932798Y-55247266D01*
X146949606Y-55234812D01*
X146969512Y-55222735D01*
X146973900Y-55216811D01*
X146979824Y-55212423D01*
X146997351Y-55188812D01*
X147280371Y-54711795D01*
X147292963Y-54692995D01*
X147294477Y-54688021D01*
X147295650Y-54686045D01*
X147296195Y-54682377D01*
X147301528Y-54664864D01*
X147399679Y-54159414D01*
X147399647Y-54159257D01*
X147399679Y-54159100D01*
X147396766Y-54129839D01*
X147298927Y-53654494D01*
X147295650Y-53632468D01*
X147293427Y-53627774D01*
X147292963Y-53625518D01*
X147290900Y-53622438D01*
X147283065Y-53605891D01*
X147005936Y-53149130D01*
X147004355Y-53142806D01*
X146991897Y-53125992D01*
X146979823Y-53106091D01*
X146973902Y-53101704D01*
X146969513Y-53095780D01*
X146945902Y-53078252D01*
X146468889Y-52795233D01*
X146450084Y-52782639D01*
X146445110Y-52781124D01*
X146443134Y-52779952D01*
X146439466Y-52779406D01*
X146421953Y-52774074D01*
X145916503Y-52675923D01*
X145916345Y-52675954D01*
X145916189Y-52675923D01*
X145886928Y-52678836D01*
X145411590Y-52776673D01*
X145389557Y-52779952D01*
X145384863Y-52782174D01*
X145382607Y-52782639D01*
X145379527Y-52784701D01*
X145362981Y-52792537D01*
X144906219Y-53069666D01*
X144899894Y-53071248D01*
X144883079Y-53083706D01*
X144863180Y-53095780D01*
X144858792Y-53101701D01*
X144852868Y-53106091D01*
X144835341Y-53129702D01*
X144552325Y-53606708D01*
X144539729Y-53625517D01*
X144538214Y-53630492D01*
X144537042Y-53632468D01*
X144536496Y-53636133D01*
X144531164Y-53653648D01*
X144433012Y-54159100D01*
X143874517Y-54159100D01*
X143872988Y-53082374D01*
X143850590Y-53028302D01*
X143809206Y-52986918D01*
X143755134Y-52964520D01*
X143725870Y-52961638D01*
X143252344Y-52964337D01*
X143230920Y-52962815D01*
X143223498Y-52964502D01*
X143220416Y-52964520D01*
X143216758Y-52966035D01*
X143202246Y-52969335D01*
X142938664Y-53059758D01*
X142934702Y-53059758D01*
X142915601Y-53067669D01*
X142889680Y-53076562D01*
X142885609Y-53080092D01*
X142880630Y-53082155D01*
X142857899Y-53100810D01*
X142670033Y-53292336D01*
X142654990Y-53305384D01*
X142650966Y-53311775D01*
X142648768Y-53314017D01*
X142647252Y-53317676D01*
X142639325Y-53330270D01*
X142550789Y-53512735D01*
X142542623Y-53523757D01*
X142534753Y-53545784D01*
X142533577Y-53548209D01*
X142533500Y-53549292D01*
X142532730Y-53551448D01*
X142442246Y-53924183D01*
X142435895Y-53939516D01*
X142434100Y-53957738D01*
X142433190Y-53961489D01*
X142433515Y-53963676D01*
X142433013Y-53968780D01*
X141940772Y-53968780D01*
X141861158Y-53814177D01*
X141856185Y-53799258D01*
X141849514Y-53791566D01*
X141844369Y-53781575D01*
X141830164Y-53769255D01*
X141817838Y-53755043D01*
X141803027Y-53745720D01*
X141800154Y-53743228D01*
X141797846Y-53742458D01*
X141792952Y-53739378D01*
X141621174Y-53656028D01*
X141618730Y-53653584D01*
X141601005Y-53646242D01*
X141575013Y-53633630D01*
X141569635Y-53633247D01*
X141564658Y-53631186D01*
X141535394Y-53628304D01*
X141177218Y-53630820D01*
X141173203Y-53629482D01*
X141151858Y-53630998D01*
X141125177Y-53631186D01*
X141120198Y-53633248D01*
X141114823Y-53633630D01*
X141087359Y-53644140D01*
X140904598Y-53738254D01*
X140889681Y-53743227D01*
X140881990Y-53749896D01*
X140871997Y-53755043D01*
X140859675Y-53769250D01*
X140845466Y-53781574D01*
X140836143Y-53796383D01*
X140833651Y-53799258D01*
X140832881Y-53801565D01*
X140829801Y-53806460D01*
X140746451Y-53978238D01*
X140744007Y-53980683D01*
X140736663Y-53998412D01*
X140724053Y-54024401D01*
X140723671Y-54029776D01*
X140721609Y-54034755D01*
X140718727Y-54064019D01*
X140226486Y-54064019D01*
X140143610Y-53903081D01*
X140136305Y-53885445D01*
X140131535Y-53879633D01*
X140130083Y-53876813D01*
X140127091Y-53874218D01*
X140117650Y-53862714D01*
X140019577Y-53768029D01*
X140008314Y-53755043D01*
X140002025Y-53751084D01*
X139999681Y-53748821D01*
X139996021Y-53747305D01*
X139983428Y-53739378D01*
X139811650Y-53656028D01*
X139809206Y-53653584D01*
X139791481Y-53646242D01*
X139765489Y-53633630D01*
X139760111Y-53633247D01*
X139755134Y-53631186D01*
X139725870Y-53628304D01*
X139367694Y-53630820D01*
X139363679Y-53629482D01*
X139342334Y-53630998D01*
X139315653Y-53631186D01*
X139310674Y-53633248D01*
X139305299Y-53633630D01*
X139277835Y-53644140D01*
X139062473Y-53755043D01*
X139024127Y-53799258D01*
X139005619Y-53854780D01*
X138710574Y-53854780D01*
X138730130Y-53807568D01*
X138730130Y-53749040D01*
X138707732Y-53694968D01*
X138666348Y-53653584D01*
X138612276Y-53631186D01*
X138583012Y-53628304D01*
X138445319Y-53628805D01*
X138444416Y-53082374D01*
X138422018Y-53028302D01*
X138380634Y-52986918D01*
X138326562Y-52964520D01*
X138268034Y-52964520D01*
X138213962Y-52986918D01*
X138172578Y-53028302D01*
X138150180Y-53082374D01*
X138147298Y-53111638D01*
X138148154Y-53629888D01*
X137791844Y-53631186D01*
X137737772Y-53653584D01*
X137696388Y-53694968D01*
X137673990Y-53749040D01*
X137301559Y-53749040D01*
X137279161Y-53694968D01*
X137237777Y-53653584D01*
X137183705Y-53631186D01*
X137125177Y-53631186D01*
X137071105Y-53653584D01*
X137029721Y-53694968D01*
X137014625Y-53731410D01*
X136859269Y-53656028D01*
X136856825Y-53653584D01*
X136839100Y-53646242D01*
X136813108Y-53633630D01*
X136807730Y-53633247D01*
X136802753Y-53631186D01*
X136773489Y-53628304D01*
X136553748Y-53631186D01*
X136499676Y-53653584D01*
X136458292Y-53694968D01*
X136435894Y-53749040D01*
X135904670Y-53749040D01*
X135904443Y-53748821D01*
X135900783Y-53747305D01*
X135888190Y-53739378D01*
X135716412Y-53656028D01*
X135713968Y-53653584D01*
X135696243Y-53646242D01*
X135670251Y-53633630D01*
X135664873Y-53633247D01*
X135659896Y-53631186D01*
X135630632Y-53628304D01*
X135367371Y-53630712D01*
X135363679Y-53629482D01*
X135343250Y-53630933D01*
X135315653Y-53631186D01*
X135310674Y-53633248D01*
X135305299Y-53633630D01*
X135277835Y-53644140D01*
X135088736Y-53741518D01*
X135071106Y-53748821D01*
X135065295Y-53753589D01*
X135062473Y-53755043D01*
X135059876Y-53758036D01*
X135048375Y-53767476D01*
X134953690Y-53865548D01*
X134940704Y-53876812D01*
X134936745Y-53883100D01*
X134934482Y-53885445D01*
X134932966Y-53889104D01*
X134925039Y-53901698D01*
X134841689Y-54073476D01*
X134839245Y-54075921D01*
X134831901Y-54093650D01*
X134819291Y-54119639D01*
X134818909Y-54125014D01*
X134816847Y-54129993D01*
X134813965Y-54159257D01*
X134254808Y-54159257D01*
X134253940Y-53749040D01*
X134231542Y-53694968D01*
X134190158Y-53653584D01*
X134136086Y-53631186D01*
X134077558Y-53631186D01*
X134023486Y-53653584D01*
X133983747Y-53693322D01*
X133906888Y-53656028D01*
X133904444Y-53653584D01*
X133886719Y-53646242D01*
X133860727Y-53633630D01*
X133855349Y-53633247D01*
X133850372Y-53631186D01*
X133821108Y-53628304D01*
X133557847Y-53630712D01*
X133554155Y-53629482D01*
X133533726Y-53630933D01*
X133506129Y-53631186D01*
X133501150Y-53633248D01*
X133495775Y-53633630D01*
X133468311Y-53644140D01*
X133285550Y-53738254D01*
X133270633Y-53743227D01*
X133262942Y-53749896D01*
X133252949Y-53755043D01*
X133240627Y-53769250D01*
X133226418Y-53781574D01*
X133217095Y-53796383D01*
X133214603Y-53799258D01*
X133213833Y-53801565D01*
X133210753Y-53806460D01*
X133127403Y-53978238D01*
X133124959Y-53980683D01*
X133117615Y-53998412D01*
X133105005Y-54024401D01*
X133104623Y-54029776D01*
X133102561Y-54034755D01*
X133099679Y-54064019D01*
X132445082Y-54064019D01*
X132444416Y-53749040D01*
X132422018Y-53694968D01*
X132380634Y-53653584D01*
X132326562Y-53631186D01*
X132268034Y-53631186D01*
X132213962Y-53653584D01*
X132172578Y-53694968D01*
X132150180Y-53749040D01*
X132147298Y-53778304D01*
X131363553Y-53778304D01*
X131352910Y-53768029D01*
X131341647Y-53755043D01*
X131335358Y-53751084D01*
X131333014Y-53748821D01*
X131329354Y-53747305D01*
X131316761Y-53739378D01*
X131144983Y-53656028D01*
X131142539Y-53653584D01*
X131124814Y-53646242D01*
X131098822Y-53633630D01*
X131093444Y-53633247D01*
X131088467Y-53631186D01*
X131059203Y-53628304D01*
X130701027Y-53630820D01*
X130697012Y-53629482D01*
X130675667Y-53630998D01*
X130648986Y-53631186D01*
X130644007Y-53633248D01*
X130638632Y-53633630D01*
X130611168Y-53644140D01*
X130395806Y-53755043D01*
X130357460Y-53799258D01*
X130338952Y-53854780D01*
X129786828Y-53854780D01*
X129765919Y-53814177D01*
X129760946Y-53799258D01*
X129754275Y-53791566D01*
X129749130Y-53781575D01*
X129734925Y-53769255D01*
X129722599Y-53755043D01*
X129707788Y-53745720D01*
X129704915Y-53743228D01*
X129702607Y-53742458D01*
X129697713Y-53739378D01*
X129525935Y-53656028D01*
X129523491Y-53653584D01*
X129505766Y-53646242D01*
X129479774Y-53633630D01*
X129474396Y-53633247D01*
X129469419Y-53631186D01*
X129440155Y-53628304D01*
X129176895Y-53630712D01*
X129173203Y-53629482D01*
X129152774Y-53630933D01*
X129125177Y-53631186D01*
X129120198Y-53633248D01*
X129114823Y-53633630D01*
X129087360Y-53644140D01*
X128871997Y-53755043D01*
X128833650Y-53799258D01*
X128815142Y-53854780D01*
X128819290Y-53913160D01*
X128845465Y-53965509D01*
X128889680Y-54003856D01*
X128945202Y-54022364D01*
X129003582Y-54018216D01*
X129031046Y-54007706D01*
X129185794Y-53928017D01*
X129401059Y-53926047D01*
X129518240Y-53982905D01*
X129576615Y-54096264D01*
X129577212Y-54122043D01*
X129521267Y-54237342D01*
X129408801Y-54295257D01*
X129176895Y-54297379D01*
X129173203Y-54296149D01*
X129152774Y-54297600D01*
X129125177Y-54297853D01*
X129120198Y-54299915D01*
X129114823Y-54300297D01*
X129087360Y-54310807D01*
X128904599Y-54404920D01*
X128889680Y-54409894D01*
X128881988Y-54416564D01*
X128871997Y-54421710D01*
X128859677Y-54435914D01*
X128845465Y-54448241D01*
X128836142Y-54463051D01*
X128833650Y-54465925D01*
X128832880Y-54468232D01*
X128829800Y-54473127D01*
X128746450Y-54644904D01*
X128744006Y-54647349D01*
X128736664Y-54665073D01*
X128724052Y-54691066D01*
X128723669Y-54696443D01*
X128721608Y-54701421D01*
X128718726Y-54730685D01*
X127304440Y-54730685D01*
X127301809Y-54182377D01*
X127303262Y-54178019D01*
X127301681Y-54155777D01*
X127301558Y-54129993D01*
X127299495Y-54125014D01*
X127299114Y-54119639D01*
X127288604Y-54092176D01*
X127191228Y-53903081D01*
X127183923Y-53885445D01*
X127179153Y-53879633D01*
X127177701Y-53876813D01*
X127174709Y-53874218D01*
X127165268Y-53862714D01*
X127067195Y-53768029D01*
X127055932Y-53755043D01*
X127049643Y-53751084D01*
X127047299Y-53748821D01*
X127043639Y-53747305D01*
X127031046Y-53739378D01*
X126859268Y-53656028D01*
X126856824Y-53653584D01*
X126839099Y-53646242D01*
X126813107Y-53633630D01*
X126807729Y-53633247D01*
X126802752Y-53631186D01*
X126773488Y-53628304D01*
X126415312Y-53630820D01*
X126411297Y-53629482D01*
X126389952Y-53630998D01*
X126363271Y-53631186D01*
X126358292Y-53633248D01*
X126352917Y-53633630D01*
X126325453Y-53644140D01*
X126110091Y-53755043D01*
X126071745Y-53799258D01*
X126053237Y-53854780D01*
X125442764Y-53854780D01*
X125352909Y-53768029D01*
X125341646Y-53755043D01*
X125335357Y-53751084D01*
X125333013Y-53748821D01*
X125329353Y-53747305D01*
X125316760Y-53739378D01*
X125144982Y-53656028D01*
X125142538Y-53653584D01*
X125124813Y-53646242D01*
X125098821Y-53633630D01*
X125093443Y-53633247D01*
X125088466Y-53631186D01*
X125059202Y-53628304D01*
X124701026Y-53630820D01*
X124697011Y-53629482D01*
X124675666Y-53630998D01*
X124648985Y-53631186D01*
X124644006Y-53633248D01*
X124638631Y-53633630D01*
X124611167Y-53644140D01*
X124395805Y-53755043D01*
X124357459Y-53799258D01*
X124338951Y-53854780D01*
X124116729Y-53854780D01*
X124116729Y-53177613D01*
X132054942Y-53177613D01*
X132054942Y-53236139D01*
X132077339Y-53290211D01*
X132095994Y-53312942D01*
X132213963Y-53426835D01*
X132240930Y-53438005D01*
X132268034Y-53449232D01*
X132268035Y-53449232D01*
X132326561Y-53449232D01*
X132326562Y-53449232D01*
X132353666Y-53438005D01*
X132380633Y-53426835D01*
X132380634Y-53426834D01*
X132403364Y-53408180D01*
X132517257Y-53290211D01*
X132539654Y-53236139D01*
X132539654Y-53177613D01*
X132517257Y-53123541D01*
X132517256Y-53123540D01*
X132498602Y-53100810D01*
X132380633Y-52986917D01*
X132338186Y-52969335D01*
X132326562Y-52964520D01*
X132268034Y-52964520D01*
X132256410Y-52969335D01*
X132213963Y-52986917D01*
X132191232Y-53005572D01*
X132077340Y-53123540D01*
X132077339Y-53123541D01*
X132054942Y-53177613D01*
X124116729Y-53177613D01*
X124116729Y-52453701D01*
X147621901Y-52453701D01*
X147621901Y-55864812D01*
G37*
D10*
G36*
X149063714Y-93228284D02*
G01*
X149130104Y-93293040D01*
X149168358Y-93440465D01*
X149170037Y-93748929D01*
X149132302Y-93905790D01*
X149069858Y-93969810D01*
X149008990Y-94001413D01*
X148865661Y-94002724D01*
X148806270Y-93974152D01*
X148739881Y-93909396D01*
X148701627Y-93761971D01*
X148699948Y-93453508D01*
X148737683Y-93296646D01*
X148800126Y-93232627D01*
X148860994Y-93201024D01*
X149004324Y-93199713D01*
X149063714Y-93228284D01*
G37*
G36*
X150111333Y-93228284D02*
G01*
X150177723Y-93293040D01*
X150215977Y-93440465D01*
X150217656Y-93748929D01*
X150179921Y-93905790D01*
X150117477Y-93969810D01*
X150056609Y-94001413D01*
X149913280Y-94002724D01*
X149853889Y-93974152D01*
X149787500Y-93909396D01*
X149749246Y-93761971D01*
X149747567Y-93453508D01*
X149785302Y-93296646D01*
X149847745Y-93232627D01*
X149908613Y-93201024D01*
X150051943Y-93199713D01*
X150111333Y-93228284D01*
G37*
G36*
X151170022Y-94001690D02*
G01*
X150913686Y-94002920D01*
X150853537Y-93973983D01*
X150827763Y-93949324D01*
X150796645Y-93889389D01*
X150795511Y-93793543D01*
X150824132Y-93734050D01*
X150844557Y-93712701D01*
X150946765Y-93677344D01*
X151169409Y-93676132D01*
X151170022Y-94001690D01*
G37*
G36*
X151169035Y-93477949D02*
G01*
X150961244Y-93479080D01*
X150901156Y-93450173D01*
X150875383Y-93425515D01*
X150844156Y-93365372D01*
X150843344Y-93316908D01*
X150871751Y-93257860D01*
X150896413Y-93232083D01*
X150956078Y-93201104D01*
X151168512Y-93199947D01*
X151169035Y-93477949D01*
G37*
G36*
X151479437Y-94312330D02*
G01*
X147535327Y-94312330D01*
X147535327Y-93081710D01*
X147646438Y-93081710D01*
X147646438Y-93120728D01*
X147661370Y-93156776D01*
X147688960Y-93184366D01*
X147725008Y-93199298D01*
X147744517Y-93201219D01*
X147930418Y-93200614D01*
X147932152Y-94120728D01*
X147947084Y-94156776D01*
X147974674Y-94184366D01*
X148010722Y-94199298D01*
X148049740Y-94199298D01*
X148085788Y-94184366D01*
X148113378Y-94156776D01*
X148128310Y-94120728D01*
X148130231Y-94101219D01*
X148128974Y-93434552D01*
X148501660Y-93434552D01*
X148503440Y-93761574D01*
X148501778Y-93772746D01*
X148503567Y-93784843D01*
X148503581Y-93787394D01*
X148504145Y-93788757D01*
X148504646Y-93792139D01*
X148551200Y-93971554D01*
X148551200Y-93977870D01*
X148555587Y-93988462D01*
X148558860Y-94001075D01*
X148563285Y-94007047D01*
X148566131Y-94013918D01*
X148578568Y-94029071D01*
X148674956Y-94123088D01*
X148683205Y-94132600D01*
X148687440Y-94135266D01*
X148688959Y-94136747D01*
X148691399Y-94137757D01*
X148699796Y-94143043D01*
X148782813Y-94182981D01*
X148784198Y-94184366D01*
X148794947Y-94188818D01*
X148813342Y-94197668D01*
X148816925Y-94197922D01*
X148820246Y-94199298D01*
X148839755Y-94201219D01*
X149015262Y-94199613D01*
X149017724Y-94200434D01*
X149031339Y-94199466D01*
X149049740Y-94199298D01*
X149053060Y-94197922D01*
X149056644Y-94197668D01*
X149074952Y-94190662D01*
X149169980Y-94141322D01*
X149181027Y-94136747D01*
X149184873Y-94133589D01*
X149186780Y-94132600D01*
X149188510Y-94130605D01*
X149196180Y-94124310D01*
X149282849Y-94035453D01*
X149287897Y-94032425D01*
X149294513Y-94023494D01*
X149303855Y-94013918D01*
X149306700Y-94007047D01*
X149311126Y-94001075D01*
X149317721Y-93982615D01*
X149362300Y-93797302D01*
X149366405Y-93787394D01*
X149367597Y-93775284D01*
X149368208Y-93772746D01*
X149367990Y-93771287D01*
X149368326Y-93767885D01*
X149366545Y-93440862D01*
X149367484Y-93434552D01*
X149549279Y-93434552D01*
X149551059Y-93761574D01*
X149549397Y-93772746D01*
X149551186Y-93784843D01*
X149551200Y-93787394D01*
X149551764Y-93788757D01*
X149552265Y-93792139D01*
X149598819Y-93971554D01*
X149598819Y-93977870D01*
X149603206Y-93988462D01*
X149606479Y-94001075D01*
X149610904Y-94007047D01*
X149613750Y-94013918D01*
X149626187Y-94029071D01*
X149722575Y-94123088D01*
X149730824Y-94132600D01*
X149735059Y-94135266D01*
X149736578Y-94136747D01*
X149739018Y-94137757D01*
X149747415Y-94143043D01*
X149830432Y-94182981D01*
X149831817Y-94184366D01*
X149842566Y-94188818D01*
X149860961Y-94197668D01*
X149864544Y-94197922D01*
X149867865Y-94199298D01*
X149887374Y-94201219D01*
X150062881Y-94199613D01*
X150065343Y-94200434D01*
X150078958Y-94199466D01*
X150097359Y-94199298D01*
X150100679Y-94197922D01*
X150104263Y-94197668D01*
X150122571Y-94190662D01*
X150217599Y-94141322D01*
X150228646Y-94136747D01*
X150232492Y-94133589D01*
X150234399Y-94132600D01*
X150236129Y-94130605D01*
X150243799Y-94124310D01*
X150330468Y-94035453D01*
X150335516Y-94032425D01*
X150342132Y-94023494D01*
X150351474Y-94013918D01*
X150354319Y-94007047D01*
X150358745Y-94001075D01*
X150365340Y-93982615D01*
X150409919Y-93797302D01*
X150414024Y-93787394D01*
X150415216Y-93775284D01*
X150415827Y-93772746D01*
X150415609Y-93771287D01*
X150415945Y-93767885D01*
X150596898Y-93767885D01*
X150598414Y-93896041D01*
X150597683Y-93898235D01*
X150598591Y-93911017D01*
X150598819Y-93930251D01*
X150600194Y-93933571D01*
X150600449Y-93937155D01*
X150607455Y-93955463D01*
X150656792Y-94050487D01*
X150661369Y-94061537D01*
X150664527Y-94065385D01*
X150665517Y-94067291D01*
X150667511Y-94069020D01*
X150673806Y-94076690D01*
X150723906Y-94124623D01*
X150730824Y-94132600D01*
X150734973Y-94135211D01*
X150736578Y-94136747D01*
X150739018Y-94137757D01*
X150747415Y-94143043D01*
X150830432Y-94182981D01*
X150831817Y-94184366D01*
X150842566Y-94188818D01*
X150860961Y-94197668D01*
X150864544Y-94197922D01*
X150867865Y-94199298D01*
X150887374Y-94201219D01*
X151287835Y-94199298D01*
X151323883Y-94184366D01*
X151351473Y-94156776D01*
X151366405Y-94120728D01*
X151368326Y-94101219D01*
X151366405Y-93081710D01*
X151351473Y-93045662D01*
X151323883Y-93018072D01*
X151287835Y-93003140D01*
X151268326Y-93001219D01*
X150950338Y-93002950D01*
X150947500Y-93002004D01*
X150932845Y-93003045D01*
X150915484Y-93003140D01*
X150912163Y-93004515D01*
X150908580Y-93004770D01*
X150890271Y-93011776D01*
X150795237Y-93061118D01*
X150784197Y-93065691D01*
X150780351Y-93068846D01*
X150778443Y-93069838D01*
X150776710Y-93071835D01*
X150769044Y-93078128D01*
X150721112Y-93128228D01*
X150713136Y-93135146D01*
X150710523Y-93139295D01*
X150708989Y-93140900D01*
X150707978Y-93143339D01*
X150702693Y-93151736D01*
X150662754Y-93234753D01*
X150661370Y-93236138D01*
X150656917Y-93246887D01*
X150648068Y-93265282D01*
X150647813Y-93268865D01*
X150646438Y-93272186D01*
X150644517Y-93291695D01*
X150645873Y-93372712D01*
X150645302Y-93374426D01*
X150646086Y-93385470D01*
X150646438Y-93406442D01*
X150647813Y-93409762D01*
X150648068Y-93413346D01*
X150655074Y-93431654D01*
X150704414Y-93526683D01*
X150708989Y-93537728D01*
X150712145Y-93541574D01*
X150713136Y-93543482D01*
X150715130Y-93545211D01*
X150721425Y-93552882D01*
X150722232Y-93553654D01*
X150721425Y-93554318D01*
X150673493Y-93604418D01*
X150665517Y-93611336D01*
X150662904Y-93615485D01*
X150661370Y-93617090D01*
X150660359Y-93619529D01*
X150655074Y-93627926D01*
X150615135Y-93710943D01*
X150613751Y-93712328D01*
X150609298Y-93723077D01*
X150600449Y-93741472D01*
X150600194Y-93745055D01*
X150598819Y-93748376D01*
X150596898Y-93767885D01*
X150415945Y-93767885D01*
X150414164Y-93440862D01*
X150415827Y-93429691D01*
X150414037Y-93417593D01*
X150414024Y-93415043D01*
X150413459Y-93413679D01*
X150412959Y-93410298D01*
X150366405Y-93230882D01*
X150366405Y-93224567D01*
X150362018Y-93213976D01*
X150358745Y-93201362D01*
X150354318Y-93195387D01*
X150351473Y-93188519D01*
X150339037Y-93173365D01*
X150242647Y-93079348D01*
X150234399Y-93069838D01*
X150230162Y-93067171D01*
X150228645Y-93065691D01*
X150226205Y-93064680D01*
X150217809Y-93059395D01*
X150134791Y-93019456D01*
X150133407Y-93018072D01*
X150122657Y-93013619D01*
X150104263Y-93004770D01*
X150100679Y-93004515D01*
X150097359Y-93003140D01*
X150077850Y-93001219D01*
X149902342Y-93002824D01*
X149899881Y-93002004D01*
X149886265Y-93002971D01*
X149867865Y-93003140D01*
X149864544Y-93004515D01*
X149860961Y-93004770D01*
X149842652Y-93011776D01*
X149747618Y-93061118D01*
X149736579Y-93065691D01*
X149732734Y-93068846D01*
X149730824Y-93069838D01*
X149729091Y-93071835D01*
X149721425Y-93078127D01*
X149634757Y-93166982D01*
X149629708Y-93170012D01*
X149623088Y-93178946D01*
X149613751Y-93188519D01*
X149610905Y-93195387D01*
X149606479Y-93201362D01*
X149599884Y-93219823D01*
X149555304Y-93405133D01*
X149551200Y-93415043D01*
X149550007Y-93427152D01*
X149549397Y-93429691D01*
X149549614Y-93431149D01*
X149549279Y-93434552D01*
X149367484Y-93434552D01*
X149368208Y-93429691D01*
X149366418Y-93417593D01*
X149366405Y-93415043D01*
X149365840Y-93413679D01*
X149365340Y-93410298D01*
X149318786Y-93230882D01*
X149318786Y-93224567D01*
X149314399Y-93213976D01*
X149311126Y-93201362D01*
X149306699Y-93195387D01*
X149303854Y-93188519D01*
X149291418Y-93173365D01*
X149195028Y-93079348D01*
X149186780Y-93069838D01*
X149182543Y-93067171D01*
X149181026Y-93065691D01*
X149178586Y-93064680D01*
X149170190Y-93059395D01*
X149087172Y-93019456D01*
X149085788Y-93018072D01*
X149075038Y-93013619D01*
X149056644Y-93004770D01*
X149053060Y-93004515D01*
X149049740Y-93003140D01*
X149030231Y-93001219D01*
X148854723Y-93002824D01*
X148852262Y-93002004D01*
X148838646Y-93002971D01*
X148820246Y-93003140D01*
X148816925Y-93004515D01*
X148813342Y-93004770D01*
X148795033Y-93011776D01*
X148699999Y-93061118D01*
X148688960Y-93065691D01*
X148685115Y-93068846D01*
X148683205Y-93069838D01*
X148681472Y-93071835D01*
X148673806Y-93078127D01*
X148587138Y-93166982D01*
X148582089Y-93170012D01*
X148575469Y-93178946D01*
X148566132Y-93188519D01*
X148563286Y-93195387D01*
X148558860Y-93201362D01*
X148552265Y-93219823D01*
X148507685Y-93405133D01*
X148503581Y-93415043D01*
X148502388Y-93427152D01*
X148501778Y-93429691D01*
X148501995Y-93431149D01*
X148501660Y-93434552D01*
X148128974Y-93434552D01*
X148128532Y-93199970D01*
X148335454Y-93199298D01*
X148371502Y-93184366D01*
X148399092Y-93156776D01*
X148414024Y-93120728D01*
X148414024Y-93081710D01*
X148399092Y-93045662D01*
X148371502Y-93018072D01*
X148335454Y-93003140D01*
X148315945Y-93001219D01*
X147725008Y-93003140D01*
X147688960Y-93018072D01*
X147661370Y-93045662D01*
X147646438Y-93081710D01*
X147535327Y-93081710D01*
X147535327Y-92890108D01*
X151479437Y-92890108D01*
X151479437Y-94312330D01*
G37*
D11*
G36*
X124775916Y-57389740D02*
G01*
X124838572Y-57450231D01*
X124915282Y-57599193D01*
X125004487Y-57945935D01*
X125006992Y-58385287D01*
X124922747Y-58732322D01*
X124845098Y-58892352D01*
X124784607Y-58955009D01*
X124646648Y-59026052D01*
X124526324Y-59027630D01*
X124390105Y-58961534D01*
X124327450Y-58901043D01*
X124250741Y-58752082D01*
X124161535Y-58405338D01*
X124159030Y-57965987D01*
X124243275Y-57618952D01*
X124320923Y-57458923D01*
X124381414Y-57396267D01*
X124519374Y-57325223D01*
X124639698Y-57323645D01*
X124775916Y-57389740D01*
G37*
G36*
X128871154Y-57389740D02*
G01*
X128933810Y-57450231D01*
X129004617Y-57587731D01*
X129006929Y-57993204D01*
X128940336Y-58130448D01*
X128879846Y-58193103D01*
X128742265Y-58263952D01*
X128431925Y-58266132D01*
X128294867Y-58199629D01*
X128232211Y-58139138D01*
X128160421Y-57999730D01*
X128158952Y-57596455D01*
X128225685Y-57458923D01*
X128286176Y-57396267D01*
X128423757Y-57325418D01*
X128734097Y-57323238D01*
X128871154Y-57389740D01*
G37*
G36*
X138109250Y-58056406D02*
G01*
X138171906Y-58116897D01*
X138242685Y-58254342D01*
X138245087Y-58754982D01*
X138178432Y-58892352D01*
X138117941Y-58955009D01*
X137980230Y-59025924D01*
X137764964Y-59027894D01*
X137628201Y-58961534D01*
X137565546Y-58901043D01*
X137494767Y-58763599D01*
X137492365Y-58262959D01*
X137559020Y-58125588D01*
X137619510Y-58062933D01*
X137757222Y-57992017D01*
X137972488Y-57990047D01*
X138109250Y-58056406D01*
G37*
G36*
X140871155Y-58056406D02*
G01*
X140933811Y-58116897D01*
X141004590Y-58254342D01*
X141006992Y-58754982D01*
X140940337Y-58892352D01*
X140879846Y-58955009D01*
X140742266Y-59025857D01*
X140431926Y-59028037D01*
X140351795Y-58989156D01*
X140350432Y-58029844D01*
X140423758Y-57992084D01*
X140734098Y-57989904D01*
X140871155Y-58056406D01*
G37*
G36*
X142162442Y-58558407D02*
G01*
X142167817Y-58558788D01*
X142172796Y-58560851D01*
X142202060Y-58563733D01*
X142638675Y-58561243D01*
X142756336Y-58618334D01*
X142814379Y-58731048D01*
X142815957Y-58851371D01*
X142759363Y-58968009D01*
X142647109Y-59025815D01*
X142241635Y-59028127D01*
X142161084Y-58989042D01*
X142159928Y-58557187D01*
X142162442Y-58558407D01*
G37*
G36*
X144720002Y-58073798D02*
G01*
X144403278Y-58074952D01*
X144395788Y-58073293D01*
X144386028Y-58075015D01*
X144146687Y-58075887D01*
X144009154Y-58009153D01*
X143946499Y-57948662D01*
X143875583Y-57810950D01*
X143873613Y-57595685D01*
X143939972Y-57458923D01*
X144000463Y-57396267D01*
X144137837Y-57325525D01*
X144718936Y-57323408D01*
X144720002Y-58073798D01*
G37*
G36*
X147717034Y-60024050D02*
G01*
X115829837Y-60024050D01*
X115829837Y-58318495D01*
X116052059Y-58318495D01*
X116054643Y-58771704D01*
X116053237Y-58775923D01*
X116054791Y-58797808D01*
X116054941Y-58823949D01*
X116057002Y-58828926D01*
X116057385Y-58834304D01*
X116067895Y-58861767D01*
X116165274Y-59050866D01*
X116172576Y-59068496D01*
X116177344Y-59074306D01*
X116178798Y-59077129D01*
X116181791Y-59079725D01*
X116191230Y-59091226D01*
X116289308Y-59185917D01*
X116300567Y-59198899D01*
X116306852Y-59202855D01*
X116309199Y-59205121D01*
X116312861Y-59206637D01*
X116325453Y-59214564D01*
X116497229Y-59297912D01*
X116499675Y-59300358D01*
X116517405Y-59307702D01*
X116543393Y-59320312D01*
X116548768Y-59320693D01*
X116553747Y-59322756D01*
X116583011Y-59325638D01*
X117036221Y-59323053D01*
X117040440Y-59324460D01*
X117062325Y-59322905D01*
X117088466Y-59322756D01*
X117093443Y-59320694D01*
X117098821Y-59320312D01*
X117126284Y-59309802D01*
X117315385Y-59212422D01*
X117333014Y-59205120D01*
X117338822Y-59200352D01*
X117341646Y-59198899D01*
X117344243Y-59195904D01*
X117355745Y-59186465D01*
X117469638Y-59068495D01*
X117492034Y-59014423D01*
X117492034Y-58955897D01*
X117469637Y-58901825D01*
X117428251Y-58860439D01*
X117374178Y-58838043D01*
X117315653Y-58838043D01*
X117261580Y-58860440D01*
X117238850Y-58879095D01*
X117165559Y-58955009D01*
X117028060Y-59025815D01*
X116622586Y-59028127D01*
X116485343Y-58961534D01*
X116422688Y-58901043D01*
X116351881Y-58763543D01*
X116349569Y-58358070D01*
X116416161Y-58220828D01*
X116476653Y-58158170D01*
X116614152Y-58087364D01*
X117019626Y-58085052D01*
X117156868Y-58151644D01*
X117226923Y-58219280D01*
X117229107Y-58223351D01*
X117242431Y-58234252D01*
X117261580Y-58252740D01*
X117268561Y-58255631D01*
X117274404Y-58260412D01*
X117295391Y-58266744D01*
X117315653Y-58275137D01*
X117323205Y-58275137D01*
X117330436Y-58277319D01*
X117352255Y-58275137D01*
X117374178Y-58275137D01*
X117381156Y-58272246D01*
X117388674Y-58271495D01*
X117407993Y-58261131D01*
X117428251Y-58252741D01*
X117433593Y-58247398D01*
X117440249Y-58243828D01*
X117454129Y-58226862D01*
X117469637Y-58211355D01*
X117472528Y-58204373D01*
X117477309Y-58198531D01*
X117483641Y-58177545D01*
X117492034Y-58157283D01*
X117492034Y-58149730D01*
X117494216Y-58142499D01*
X117494172Y-58113093D01*
X117436879Y-57556590D01*
X117956821Y-57556590D01*
X117959321Y-57747221D01*
X117957999Y-57765827D01*
X117959661Y-57773136D01*
X117959703Y-57776330D01*
X117961220Y-57779992D01*
X117964519Y-57794500D01*
X118054941Y-58058081D01*
X118054941Y-58062043D01*
X118062852Y-58081143D01*
X118071745Y-58107065D01*
X118075275Y-58111135D01*
X118077338Y-58116115D01*
X118095993Y-58138846D01*
X118986713Y-59026452D01*
X118077557Y-59028520D01*
X118023485Y-59050918D01*
X117982101Y-59092302D01*
X117959703Y-59146374D01*
X117959703Y-59204902D01*
X117982101Y-59258974D01*
X118023485Y-59300358D01*
X118077557Y-59322756D01*
X118106821Y-59325638D01*
X119374180Y-59322756D01*
X119397868Y-59312944D01*
X119428252Y-59300359D01*
X119469637Y-59258974D01*
X119488146Y-59214287D01*
X119492034Y-59204902D01*
X119492034Y-59146374D01*
X119472478Y-59099162D01*
X119469637Y-59092303D01*
X119450982Y-59069572D01*
X118334704Y-57957197D01*
X118256590Y-57729494D01*
X118254828Y-57595141D01*
X118320923Y-57458923D01*
X118381414Y-57396267D01*
X118518914Y-57325460D01*
X118924388Y-57323148D01*
X119061630Y-57389740D01*
X119166343Y-57490835D01*
X119220415Y-57513232D01*
X119278941Y-57513232D01*
X119333013Y-57490835D01*
X119374399Y-57449449D01*
X119396796Y-57395377D01*
X119396796Y-57336851D01*
X119374399Y-57282779D01*
X119355744Y-57260048D01*
X119257671Y-57165363D01*
X119246408Y-57152377D01*
X119240119Y-57148418D01*
X119237775Y-57146155D01*
X119234115Y-57144639D01*
X119221522Y-57136712D01*
X119105142Y-57080242D01*
X119671107Y-57080242D01*
X119682465Y-57137657D01*
X119696299Y-57163605D01*
X121429215Y-59757784D01*
X121477845Y-59790350D01*
X121535235Y-59801828D01*
X121592649Y-59790471D01*
X121641348Y-59758005D01*
X121673914Y-59709375D01*
X121685392Y-59651986D01*
X121674035Y-59594571D01*
X121660200Y-59568623D01*
X120932802Y-58479707D01*
X121864465Y-58479707D01*
X121864465Y-58538235D01*
X121886863Y-58592307D01*
X121928247Y-58633691D01*
X121982319Y-58656089D01*
X122011583Y-58658971D01*
X122149023Y-58658658D01*
X122150179Y-59204902D01*
X122172577Y-59258974D01*
X122213961Y-59300358D01*
X122268033Y-59322756D01*
X122326561Y-59322756D01*
X122380633Y-59300358D01*
X122422017Y-59258974D01*
X122444415Y-59204902D01*
X122447297Y-59175638D01*
X122446202Y-58657982D01*
X123245522Y-58656164D01*
X123268439Y-58657794D01*
X123273516Y-58656101D01*
X123278942Y-58656089D01*
X123301151Y-58646889D01*
X123323963Y-58639285D01*
X123328034Y-58635753D01*
X123333014Y-58633691D01*
X123350015Y-58616689D01*
X123368177Y-58600938D01*
X123370587Y-58596117D01*
X123374398Y-58592307D01*
X123383598Y-58570095D01*
X123394351Y-58548591D01*
X123394733Y-58543215D01*
X123396796Y-58538235D01*
X123396796Y-58514187D01*
X123398500Y-58490211D01*
X123396796Y-58482715D01*
X123396796Y-58479707D01*
X123395279Y-58476046D01*
X123391981Y-58461537D01*
X123216222Y-57937542D01*
X123861583Y-57937542D01*
X123864244Y-58404328D01*
X123861760Y-58421024D01*
X123864443Y-58439166D01*
X123864465Y-58442997D01*
X123865312Y-58445041D01*
X123866062Y-58450113D01*
X123961095Y-58819508D01*
X123962147Y-58834304D01*
X123970553Y-58856270D01*
X123971193Y-58858756D01*
X123971837Y-58859626D01*
X123972657Y-58861767D01*
X124070036Y-59050866D01*
X124077338Y-59068496D01*
X124082106Y-59074306D01*
X124083560Y-59077129D01*
X124086553Y-59079725D01*
X124095992Y-59091226D01*
X124194070Y-59185917D01*
X124205329Y-59198899D01*
X124211614Y-59202855D01*
X124213961Y-59205121D01*
X124217623Y-59206637D01*
X124230215Y-59214564D01*
X124401991Y-59297912D01*
X124404437Y-59300358D01*
X124422167Y-59307702D01*
X124448155Y-59320312D01*
X124453530Y-59320693D01*
X124458509Y-59322756D01*
X124487773Y-59325638D01*
X124656387Y-59323426D01*
X124659488Y-59324460D01*
X124678028Y-59323142D01*
X124707514Y-59322756D01*
X124712491Y-59320694D01*
X124717869Y-59320312D01*
X124745332Y-59309802D01*
X124934433Y-59212422D01*
X124952062Y-59205120D01*
X124957870Y-59200352D01*
X124960694Y-59198899D01*
X124963291Y-59195904D01*
X124974793Y-59186465D01*
X125069479Y-59088389D01*
X125082463Y-59077129D01*
X125086421Y-59070840D01*
X125088686Y-59068495D01*
X125090202Y-59064833D01*
X125098128Y-59052243D01*
X125186661Y-58869781D01*
X125194830Y-58858757D01*
X125202701Y-58836723D01*
X125203876Y-58834303D01*
X125203952Y-58833220D01*
X125204723Y-58831065D01*
X125295206Y-58458329D01*
X125301558Y-58442997D01*
X125303352Y-58424774D01*
X125304263Y-58421024D01*
X125303937Y-58418836D01*
X125304440Y-58413733D01*
X125301778Y-57946945D01*
X125304263Y-57930251D01*
X125301579Y-57912107D01*
X125301558Y-57908278D01*
X125300711Y-57906233D01*
X125299961Y-57901161D01*
X125204927Y-57531765D01*
X125203876Y-57516972D01*
X125195470Y-57495006D01*
X125194830Y-57492518D01*
X125194184Y-57491646D01*
X125193366Y-57489508D01*
X125095987Y-57300409D01*
X125088685Y-57282779D01*
X125083916Y-57276968D01*
X125082463Y-57274146D01*
X125079469Y-57271549D01*
X125070030Y-57260048D01*
X124971957Y-57165363D01*
X124960694Y-57152377D01*
X124954405Y-57148418D01*
X124952061Y-57146155D01*
X124948401Y-57144639D01*
X124935808Y-57136712D01*
X124819428Y-57080242D01*
X125575869Y-57080242D01*
X125587227Y-57137657D01*
X125601061Y-57163605D01*
X127333977Y-59757784D01*
X127382607Y-59790350D01*
X127439997Y-59801828D01*
X127497411Y-59790471D01*
X127546110Y-59758005D01*
X127578676Y-59709375D01*
X127590154Y-59651986D01*
X127578797Y-59594571D01*
X127564962Y-59568623D01*
X126220920Y-57556590D01*
X127861583Y-57556590D01*
X127863243Y-58012569D01*
X127862761Y-58014018D01*
X127863275Y-58021261D01*
X127864322Y-58308568D01*
X127861760Y-58325786D01*
X127864451Y-58343983D01*
X127864465Y-58347759D01*
X127865312Y-58349803D01*
X127866062Y-58354875D01*
X127963982Y-58735491D01*
X127968179Y-58756704D01*
X127970615Y-58761274D01*
X127971193Y-58763518D01*
X127973399Y-58766495D01*
X127982013Y-58782652D01*
X128167534Y-59056323D01*
X128172576Y-59068496D01*
X128191026Y-59090977D01*
X128191120Y-59091116D01*
X128191163Y-59091145D01*
X128191230Y-59091226D01*
X128289313Y-59185921D01*
X128300568Y-59198899D01*
X128306851Y-59202854D01*
X128309199Y-59205121D01*
X128312862Y-59206638D01*
X128325453Y-59214564D01*
X128497231Y-59297913D01*
X128499676Y-59300358D01*
X128517405Y-59307701D01*
X128543394Y-59320312D01*
X128548769Y-59320693D01*
X128553748Y-59322756D01*
X128583012Y-59325638D01*
X128993228Y-59322756D01*
X129047300Y-59300358D01*
X129088684Y-59258974D01*
X129111082Y-59204902D01*
X129111082Y-59146374D01*
X129769227Y-59146374D01*
X129769227Y-59204902D01*
X129791625Y-59258974D01*
X129833009Y-59300358D01*
X129887081Y-59322756D01*
X129916345Y-59325638D01*
X131088466Y-59322756D01*
X131142538Y-59300358D01*
X131183922Y-59258974D01*
X131206320Y-59204902D01*
X131206320Y-59146374D01*
X131183922Y-59092302D01*
X131142538Y-59050918D01*
X131088466Y-59028520D01*
X131059202Y-59025638D01*
X130637562Y-59026674D01*
X130636650Y-58384469D01*
X133293037Y-58384469D01*
X133293037Y-58442997D01*
X133315435Y-58497069D01*
X133356819Y-58538453D01*
X133410891Y-58560851D01*
X133440155Y-58563733D01*
X134993228Y-58560851D01*
X135047300Y-58538453D01*
X135088684Y-58497069D01*
X135111082Y-58442997D01*
X135111082Y-58384469D01*
X135088684Y-58330397D01*
X135047300Y-58289013D01*
X134993228Y-58266615D01*
X134963964Y-58263733D01*
X133410891Y-58266615D01*
X133356819Y-58289013D01*
X133315435Y-58330397D01*
X133293037Y-58384469D01*
X130636650Y-58384469D01*
X130636421Y-58223257D01*
X137194917Y-58223257D01*
X137197547Y-58771565D01*
X137196095Y-58775923D01*
X137197675Y-58798164D01*
X137197799Y-58823949D01*
X137199860Y-58828926D01*
X137200243Y-58834304D01*
X137210753Y-58861767D01*
X137308132Y-59050866D01*
X137315434Y-59068496D01*
X137320202Y-59074306D01*
X137321656Y-59077129D01*
X137324649Y-59079725D01*
X137334088Y-59091226D01*
X137432166Y-59185917D01*
X137443425Y-59198899D01*
X137449710Y-59202855D01*
X137452057Y-59205121D01*
X137455719Y-59206637D01*
X137468311Y-59214564D01*
X137640087Y-59297912D01*
X137642533Y-59300358D01*
X137660263Y-59307702D01*
X137686251Y-59320312D01*
X137691626Y-59320693D01*
X137696605Y-59322756D01*
X137725869Y-59325638D01*
X137989129Y-59323229D01*
X137992822Y-59324460D01*
X138013251Y-59323008D01*
X138040848Y-59322756D01*
X138045825Y-59320694D01*
X138051203Y-59320312D01*
X138078666Y-59309802D01*
X138267767Y-59212422D01*
X138285396Y-59205120D01*
X138291204Y-59200352D01*
X138294028Y-59198899D01*
X138296625Y-59195904D01*
X138308127Y-59186465D01*
X138402813Y-59088389D01*
X138415797Y-59077129D01*
X138419755Y-59070840D01*
X138422020Y-59068495D01*
X138423536Y-59064833D01*
X138431462Y-59052243D01*
X138514810Y-58880466D01*
X138517256Y-58878021D01*
X138524600Y-58860290D01*
X138537210Y-58834303D01*
X138537591Y-58828927D01*
X138539654Y-58823949D01*
X138542536Y-58794685D01*
X138539905Y-58246377D01*
X138541358Y-58242019D01*
X138539777Y-58219777D01*
X138539654Y-58193993D01*
X138537591Y-58189014D01*
X138537210Y-58183639D01*
X138526700Y-58156176D01*
X138429324Y-57967081D01*
X138422019Y-57949445D01*
X138417249Y-57943633D01*
X138415797Y-57940813D01*
X138412805Y-57938218D01*
X138403364Y-57926714D01*
X138315934Y-57842304D01*
X139099679Y-57842304D01*
X139102561Y-59204902D01*
X139124959Y-59258974D01*
X139166343Y-59300358D01*
X139220415Y-59322756D01*
X139278943Y-59322756D01*
X139333015Y-59300358D01*
X139374399Y-59258974D01*
X139396797Y-59204902D01*
X139399679Y-59175638D01*
X139396797Y-57813040D01*
X139374399Y-57758968D01*
X139333015Y-57717584D01*
X139278943Y-57695186D01*
X139220415Y-57695186D01*
X139166343Y-57717584D01*
X139124959Y-57758968D01*
X139102561Y-57813040D01*
X139099679Y-57842304D01*
X138315934Y-57842304D01*
X138305291Y-57832029D01*
X138294028Y-57819043D01*
X138287739Y-57815084D01*
X138285395Y-57812821D01*
X138281735Y-57811305D01*
X138269142Y-57803378D01*
X138097364Y-57720028D01*
X138094920Y-57717584D01*
X138077195Y-57710242D01*
X138051203Y-57697630D01*
X138045825Y-57697247D01*
X138040848Y-57695186D01*
X138011584Y-57692304D01*
X137748323Y-57694712D01*
X137744631Y-57693482D01*
X137724202Y-57694933D01*
X137696605Y-57695186D01*
X137691626Y-57697248D01*
X137686251Y-57697630D01*
X137658787Y-57708140D01*
X137469688Y-57805518D01*
X137452058Y-57812821D01*
X137446247Y-57817589D01*
X137443425Y-57819043D01*
X137440828Y-57822036D01*
X137429327Y-57831476D01*
X137334642Y-57929548D01*
X137321656Y-57940812D01*
X137317697Y-57947100D01*
X137315434Y-57949445D01*
X137313918Y-57953104D01*
X137305991Y-57965698D01*
X137222641Y-58137476D01*
X137220197Y-58139921D01*
X137212853Y-58157650D01*
X137200243Y-58183639D01*
X137199861Y-58189014D01*
X137197799Y-58193993D01*
X137194917Y-58223257D01*
X130636421Y-58223257D01*
X130635578Y-57629600D01*
X130763713Y-57755285D01*
X130776758Y-57770327D01*
X130783149Y-57774350D01*
X130785391Y-57776549D01*
X130789050Y-57778064D01*
X130801644Y-57785992D01*
X131019584Y-57891740D01*
X131077964Y-57895888D01*
X131133486Y-57877381D01*
X131177701Y-57839034D01*
X131203876Y-57786685D01*
X131208024Y-57728305D01*
X131189517Y-57672782D01*
X131151170Y-57628567D01*
X131126284Y-57612902D01*
X130961947Y-57533162D01*
X130801363Y-57375649D01*
X130710501Y-57241613D01*
X139007323Y-57241613D01*
X139007323Y-57300139D01*
X139029720Y-57354211D01*
X139048375Y-57376942D01*
X139166344Y-57490835D01*
X139195728Y-57503006D01*
X139220415Y-57513232D01*
X139220416Y-57513232D01*
X139278942Y-57513232D01*
X139278943Y-57513232D01*
X139303630Y-57503006D01*
X139333014Y-57490835D01*
X139333015Y-57490834D01*
X139355745Y-57472180D01*
X139469638Y-57354211D01*
X139492035Y-57300139D01*
X139492035Y-57241613D01*
X139469638Y-57187541D01*
X139459869Y-57175638D01*
X140052060Y-57175638D01*
X140054761Y-59077721D01*
X140053238Y-59099162D01*
X140054798Y-59103843D01*
X140054942Y-59204902D01*
X140077340Y-59258974D01*
X140118724Y-59300358D01*
X140172796Y-59322756D01*
X140231324Y-59322756D01*
X140285396Y-59300358D01*
X140294020Y-59291733D01*
X140306754Y-59297912D01*
X140309200Y-59300358D01*
X140326930Y-59307702D01*
X140352918Y-59320312D01*
X140358293Y-59320693D01*
X140363272Y-59322756D01*
X140392536Y-59325638D01*
X140750711Y-59323121D01*
X140754727Y-59324460D01*
X140776071Y-59322943D01*
X140802753Y-59322756D01*
X140807730Y-59320694D01*
X140813108Y-59320312D01*
X140840571Y-59309802D01*
X141029672Y-59212422D01*
X141047301Y-59205120D01*
X141053109Y-59200352D01*
X141055933Y-59198899D01*
X141058530Y-59195904D01*
X141070032Y-59186465D01*
X141164718Y-59088389D01*
X141177702Y-59077129D01*
X141181660Y-59070840D01*
X141183925Y-59068495D01*
X141185441Y-59064833D01*
X141193367Y-59052243D01*
X141276715Y-58880466D01*
X141279161Y-58878021D01*
X141286505Y-58860290D01*
X141299115Y-58834303D01*
X141299496Y-58828927D01*
X141301559Y-58823949D01*
X141304441Y-58794685D01*
X141301810Y-58246377D01*
X141303263Y-58242019D01*
X141301682Y-58219777D01*
X141301559Y-58193993D01*
X141299496Y-58189014D01*
X141299115Y-58183639D01*
X141288605Y-58156176D01*
X141274105Y-58128019D01*
X141861584Y-58128019D01*
X141864131Y-59079887D01*
X141862762Y-59099162D01*
X141864194Y-59103459D01*
X141864466Y-59204902D01*
X141886864Y-59258974D01*
X141928248Y-59300358D01*
X141982320Y-59322756D01*
X142040848Y-59322756D01*
X142094920Y-59300358D01*
X142103544Y-59291733D01*
X142116278Y-59297912D01*
X142118724Y-59300358D01*
X142136454Y-59307702D01*
X142162442Y-59320312D01*
X142167817Y-59320693D01*
X142172796Y-59322756D01*
X142202060Y-59325638D01*
X142655270Y-59323053D01*
X142659489Y-59324460D01*
X142681374Y-59322905D01*
X142707515Y-59322756D01*
X142712492Y-59320694D01*
X142717870Y-59320312D01*
X142745333Y-59309802D01*
X142928097Y-59215685D01*
X142943011Y-59210714D01*
X142950698Y-59204046D01*
X142960695Y-59198899D01*
X142973021Y-59184686D01*
X142987226Y-59172367D01*
X142996544Y-59157563D01*
X142999042Y-59154684D01*
X142999812Y-59152372D01*
X143002891Y-59147482D01*
X143086240Y-58975703D01*
X143088685Y-58973259D01*
X143096028Y-58955529D01*
X143108639Y-58929541D01*
X143109020Y-58924165D01*
X143111083Y-58919187D01*
X143113965Y-58889923D01*
X143111753Y-58721309D01*
X143112787Y-58718209D01*
X143111469Y-58699669D01*
X143111083Y-58670183D01*
X143109020Y-58665204D01*
X143108639Y-58659829D01*
X143098129Y-58632365D01*
X143004013Y-58449603D01*
X142999042Y-58434687D01*
X142992372Y-58426996D01*
X142987226Y-58417003D01*
X142973018Y-58404681D01*
X142960695Y-58390472D01*
X142945885Y-58381149D01*
X142943011Y-58378657D01*
X142940703Y-58377887D01*
X142935809Y-58374807D01*
X142764031Y-58291457D01*
X142761587Y-58289013D01*
X142743862Y-58281671D01*
X142717870Y-58269059D01*
X142712492Y-58268676D01*
X142707515Y-58266615D01*
X142678251Y-58263733D01*
X142241635Y-58266222D01*
X142159042Y-58226146D01*
X142158887Y-58168021D01*
X142216185Y-58049932D01*
X142328520Y-57992084D01*
X142638860Y-57989904D01*
X142829109Y-58082216D01*
X142887489Y-58086364D01*
X142943011Y-58067857D01*
X142987226Y-58029510D01*
X143013401Y-57977161D01*
X143017549Y-57918781D01*
X142999042Y-57863258D01*
X142960695Y-57819043D01*
X142935809Y-57803378D01*
X142764031Y-57720028D01*
X142761587Y-57717584D01*
X142743862Y-57710242D01*
X142717870Y-57697630D01*
X142712492Y-57697247D01*
X142707515Y-57695186D01*
X142678251Y-57692304D01*
X142320075Y-57694820D01*
X142316060Y-57693482D01*
X142294715Y-57694998D01*
X142268034Y-57695186D01*
X142263055Y-57697248D01*
X142257680Y-57697630D01*
X142230216Y-57708140D01*
X142047455Y-57802254D01*
X142032538Y-57807227D01*
X142024847Y-57813896D01*
X142014854Y-57819043D01*
X142002532Y-57833250D01*
X141988323Y-57845574D01*
X141979000Y-57860383D01*
X141976508Y-57863258D01*
X141975738Y-57865565D01*
X141972658Y-57870460D01*
X141889308Y-58042238D01*
X141886864Y-58044683D01*
X141879520Y-58062412D01*
X141866910Y-58088401D01*
X141866528Y-58093776D01*
X141864466Y-58098755D01*
X141861584Y-58128019D01*
X141274105Y-58128019D01*
X141191229Y-57967081D01*
X141183924Y-57949445D01*
X141179154Y-57943633D01*
X141177702Y-57940813D01*
X141174710Y-57938218D01*
X141165269Y-57926714D01*
X141067196Y-57832029D01*
X141055933Y-57819043D01*
X141049644Y-57815084D01*
X141047300Y-57812821D01*
X141043640Y-57811305D01*
X141031047Y-57803378D01*
X140859269Y-57720028D01*
X140856825Y-57717584D01*
X140839100Y-57710242D01*
X140813108Y-57697630D01*
X140807730Y-57697247D01*
X140802753Y-57695186D01*
X140773489Y-57692304D01*
X140415313Y-57694820D01*
X140411298Y-57693482D01*
X140389953Y-57694998D01*
X140363272Y-57695186D01*
X140358293Y-57697248D01*
X140352918Y-57697630D01*
X140349962Y-57698761D01*
X140349760Y-57556590D01*
X143575870Y-57556590D01*
X143578278Y-57819849D01*
X143577048Y-57823542D01*
X143578499Y-57843971D01*
X143578752Y-57871568D01*
X143580813Y-57876545D01*
X143581196Y-57881923D01*
X143591706Y-57909386D01*
X143689085Y-58098485D01*
X143696387Y-58116115D01*
X143701155Y-58121925D01*
X143702609Y-58124748D01*
X143705602Y-58127344D01*
X143715041Y-58138845D01*
X143813119Y-58233536D01*
X143824378Y-58246518D01*
X143830663Y-58250474D01*
X143833010Y-58252740D01*
X143836672Y-58254256D01*
X143849264Y-58262183D01*
X144021040Y-58345531D01*
X144023486Y-58347977D01*
X144041216Y-58355321D01*
X144067204Y-58367931D01*
X144072579Y-58368312D01*
X144077558Y-58370375D01*
X144105385Y-58373115D01*
X143588564Y-59115245D01*
X143575905Y-59172387D01*
X143586076Y-59230023D01*
X143617529Y-59279380D01*
X143665477Y-59312944D01*
X143722619Y-59325603D01*
X143780255Y-59315432D01*
X143829612Y-59283979D01*
X143848755Y-59261657D01*
X144468356Y-58371940D01*
X144720424Y-58371021D01*
X144721609Y-59204902D01*
X144744007Y-59258974D01*
X144785391Y-59300358D01*
X144839463Y-59322756D01*
X144897991Y-59322756D01*
X144952063Y-59300358D01*
X144993447Y-59258974D01*
X145015845Y-59204902D01*
X145018727Y-59175638D01*
X145015895Y-57181245D01*
X145480737Y-57181245D01*
X145484711Y-57210381D01*
X145962037Y-59202925D01*
X145964841Y-59224025D01*
X145968680Y-59230656D01*
X145970483Y-59238182D01*
X145983253Y-59255827D01*
X145994164Y-59274674D01*
X146000279Y-59279355D01*
X146004796Y-59285596D01*
X146023346Y-59297011D01*
X146040639Y-59310248D01*
X146048080Y-59312232D01*
X146054640Y-59316269D01*
X146076147Y-59319717D01*
X146097191Y-59325329D01*
X146104823Y-59324314D01*
X146112429Y-59325534D01*
X146133623Y-59320487D01*
X146155209Y-59317619D01*
X146161872Y-59313761D01*
X146169366Y-59311977D01*
X146187011Y-59299206D01*
X146205858Y-59288296D01*
X146210539Y-59282180D01*
X146216780Y-59277664D01*
X146228195Y-59259113D01*
X146241432Y-59241821D01*
X146245479Y-59231026D01*
X146247453Y-59227820D01*
X146248028Y-59224229D01*
X146251757Y-59214287D01*
X146487414Y-58323738D01*
X146724755Y-59206984D01*
X146728096Y-59227820D01*
X146732105Y-59234335D01*
X146734117Y-59241821D01*
X146747356Y-59259117D01*
X146758770Y-59277664D01*
X146765008Y-59282179D01*
X146769691Y-59288296D01*
X146788540Y-59299208D01*
X146806183Y-59311977D01*
X146813675Y-59313760D01*
X146820341Y-59317620D01*
X146841936Y-59320489D01*
X146863120Y-59325533D01*
X146870721Y-59324314D01*
X146878358Y-59325329D01*
X146899408Y-59319715D01*
X146920909Y-59316269D01*
X146927465Y-59312234D01*
X146934910Y-59310249D01*
X146952213Y-59297004D01*
X146970753Y-59285595D01*
X146975266Y-59279358D01*
X146981385Y-59274675D01*
X146992300Y-59255820D01*
X147005066Y-59238182D01*
X147008822Y-59227284D01*
X147010709Y-59224025D01*
X147011188Y-59220419D01*
X147014648Y-59210381D01*
X147494812Y-57181245D01*
X147485548Y-57123456D01*
X147454875Y-57073612D01*
X147407461Y-57039299D01*
X147350524Y-57025742D01*
X147292735Y-57035007D01*
X147242891Y-57065680D01*
X147208578Y-57113094D01*
X147198996Y-57140895D01*
X146861046Y-58569043D01*
X146632287Y-57717739D01*
X146629755Y-57698680D01*
X146624923Y-57690335D01*
X146622384Y-57680883D01*
X146610349Y-57665161D01*
X146600432Y-57648030D01*
X146592716Y-57642123D01*
X146586810Y-57634408D01*
X146569678Y-57624490D01*
X146553957Y-57612456D01*
X146544566Y-57609951D01*
X146536160Y-57605085D01*
X146516538Y-57602477D01*
X146497405Y-57597375D01*
X146487773Y-57598654D01*
X146478143Y-57597375D01*
X146459009Y-57602477D01*
X146439387Y-57605085D01*
X146430980Y-57609952D01*
X146421591Y-57612456D01*
X146405870Y-57624489D01*
X146388738Y-57634408D01*
X146382832Y-57642123D01*
X146375116Y-57648030D01*
X146365196Y-57665163D01*
X146353164Y-57680884D01*
X146347772Y-57695260D01*
X146345793Y-57698680D01*
X146345410Y-57701560D01*
X146342839Y-57708417D01*
X146115442Y-58567748D01*
X145766971Y-57113094D01*
X145732658Y-57065681D01*
X145682814Y-57035007D01*
X145625025Y-57025743D01*
X145568088Y-57039299D01*
X145520675Y-57073612D01*
X145490001Y-57123456D01*
X145480737Y-57181245D01*
X145015895Y-57181245D01*
X145015845Y-57146374D01*
X144993447Y-57092302D01*
X144952063Y-57050918D01*
X144897991Y-57028520D01*
X144868727Y-57025638D01*
X144130121Y-57028328D01*
X144125584Y-57026816D01*
X144102900Y-57028427D01*
X144077558Y-57028520D01*
X144072579Y-57030582D01*
X144067204Y-57030964D01*
X144039740Y-57041474D01*
X143850641Y-57138852D01*
X143833011Y-57146155D01*
X143827200Y-57150923D01*
X143824378Y-57152377D01*
X143821781Y-57155370D01*
X143810280Y-57164810D01*
X143715595Y-57262882D01*
X143702609Y-57274146D01*
X143698650Y-57280434D01*
X143696387Y-57282779D01*
X143694871Y-57286438D01*
X143686944Y-57299032D01*
X143603594Y-57470809D01*
X143601150Y-57473254D01*
X143593808Y-57490978D01*
X143581196Y-57516971D01*
X143580813Y-57522348D01*
X143578752Y-57527326D01*
X143575870Y-57556590D01*
X140349760Y-57556590D01*
X140349178Y-57146374D01*
X140326780Y-57092302D01*
X140285396Y-57050918D01*
X140231324Y-57028520D01*
X140172796Y-57028520D01*
X140118724Y-57050918D01*
X140077340Y-57092302D01*
X140054942Y-57146374D01*
X140052060Y-57175638D01*
X139459869Y-57175638D01*
X139450983Y-57164810D01*
X139333014Y-57050917D01*
X139299405Y-57036996D01*
X139278943Y-57028520D01*
X139220415Y-57028520D01*
X139199953Y-57036996D01*
X139166344Y-57050917D01*
X139143613Y-57069572D01*
X139029720Y-57187541D01*
X139007323Y-57241613D01*
X130710501Y-57241613D01*
X130617535Y-57104472D01*
X130612494Y-57092302D01*
X130602531Y-57082339D01*
X130593951Y-57069682D01*
X130581608Y-57061416D01*
X130571110Y-57050918D01*
X130557533Y-57045294D01*
X130545321Y-57037116D01*
X130530758Y-57034203D01*
X130517038Y-57028520D01*
X130502342Y-57028520D01*
X130487932Y-57025638D01*
X130473363Y-57028520D01*
X130458510Y-57028520D01*
X130444931Y-57034144D01*
X130430517Y-57036996D01*
X130418159Y-57045234D01*
X130404438Y-57050918D01*
X130394048Y-57061307D01*
X130381818Y-57069461D01*
X130373552Y-57081803D01*
X130363054Y-57092302D01*
X130357430Y-57105878D01*
X130349252Y-57118091D01*
X130346339Y-57132653D01*
X130340656Y-57146374D01*
X130337804Y-57175326D01*
X130337774Y-57175480D01*
X130337784Y-57175532D01*
X130337774Y-57175638D01*
X130340403Y-59027405D01*
X129887081Y-59028520D01*
X129833009Y-59050918D01*
X129791625Y-59092302D01*
X129769227Y-59146374D01*
X129111082Y-59146374D01*
X129088684Y-59092302D01*
X129047300Y-59050918D01*
X128993228Y-59028520D01*
X128963964Y-59025638D01*
X128622402Y-59028037D01*
X128485344Y-58961535D01*
X128419207Y-58897682D01*
X128247558Y-58644473D01*
X128207230Y-58487717D01*
X128306753Y-58536007D01*
X128309199Y-58538453D01*
X128326929Y-58545797D01*
X128352917Y-58558407D01*
X128358292Y-58558788D01*
X128363271Y-58560851D01*
X128392535Y-58563733D01*
X128750710Y-58561216D01*
X128754726Y-58562555D01*
X128776070Y-58561038D01*
X128802752Y-58560851D01*
X128807729Y-58558789D01*
X128813107Y-58558407D01*
X128840570Y-58547897D01*
X129029668Y-58450518D01*
X129047299Y-58443216D01*
X129053109Y-58438447D01*
X129055932Y-58436994D01*
X129058528Y-58433999D01*
X129070030Y-58424561D01*
X129164720Y-58326482D01*
X129177701Y-58315224D01*
X129181657Y-58308938D01*
X129183923Y-58306592D01*
X129185439Y-58302930D01*
X129193366Y-58290339D01*
X129276715Y-58118560D01*
X129279160Y-58116116D01*
X129286503Y-58098386D01*
X129299114Y-58072398D01*
X129299495Y-58067022D01*
X129301558Y-58062044D01*
X129304440Y-58032780D01*
X129301855Y-57579570D01*
X129303262Y-57575352D01*
X129301707Y-57553467D01*
X129301558Y-57527326D01*
X129299495Y-57522347D01*
X129299114Y-57516972D01*
X129288604Y-57489508D01*
X129191225Y-57300409D01*
X129183923Y-57282779D01*
X129179154Y-57276968D01*
X129177701Y-57274146D01*
X129174707Y-57271549D01*
X129165268Y-57260048D01*
X129067195Y-57165363D01*
X129055932Y-57152377D01*
X129049643Y-57148418D01*
X129047299Y-57146155D01*
X129043639Y-57144639D01*
X129031046Y-57136712D01*
X128859268Y-57053362D01*
X128856824Y-57050918D01*
X128839099Y-57043576D01*
X128813107Y-57030964D01*
X128807729Y-57030581D01*
X128802752Y-57028520D01*
X128773488Y-57025638D01*
X128415312Y-57028154D01*
X128411297Y-57026816D01*
X128389952Y-57028332D01*
X128363271Y-57028520D01*
X128358292Y-57030582D01*
X128352917Y-57030964D01*
X128325453Y-57041474D01*
X128136354Y-57138852D01*
X128118724Y-57146155D01*
X128112913Y-57150923D01*
X128110091Y-57152377D01*
X128107494Y-57155370D01*
X128095993Y-57164810D01*
X128001308Y-57262882D01*
X127988322Y-57274146D01*
X127984363Y-57280434D01*
X127982100Y-57282779D01*
X127980584Y-57286438D01*
X127972657Y-57299032D01*
X127889307Y-57470809D01*
X127886863Y-57473254D01*
X127879521Y-57490978D01*
X127866909Y-57516971D01*
X127866526Y-57522348D01*
X127864465Y-57527326D01*
X127861583Y-57556590D01*
X126220920Y-57556590D01*
X125832046Y-56974445D01*
X125783416Y-56941878D01*
X125726027Y-56930400D01*
X125668612Y-56941758D01*
X125619914Y-56974223D01*
X125587347Y-57022853D01*
X125575869Y-57080242D01*
X124819428Y-57080242D01*
X124764030Y-57053362D01*
X124761586Y-57050918D01*
X124743861Y-57043576D01*
X124717869Y-57030964D01*
X124712491Y-57030581D01*
X124707514Y-57028520D01*
X124678250Y-57025638D01*
X124509635Y-57027849D01*
X124506535Y-57026816D01*
X124487995Y-57028133D01*
X124458509Y-57028520D01*
X124453530Y-57030582D01*
X124448155Y-57030964D01*
X124420691Y-57041474D01*
X124231592Y-57138852D01*
X124213962Y-57146155D01*
X124208151Y-57150923D01*
X124205329Y-57152377D01*
X124202732Y-57155370D01*
X124191231Y-57164810D01*
X124096546Y-57262882D01*
X124083560Y-57274146D01*
X124079601Y-57280434D01*
X124077338Y-57282779D01*
X124075822Y-57286438D01*
X124067895Y-57299032D01*
X123979359Y-57481497D01*
X123971193Y-57492519D01*
X123963323Y-57514546D01*
X123962147Y-57516971D01*
X123962070Y-57518054D01*
X123961300Y-57520210D01*
X123870816Y-57892945D01*
X123864465Y-57908278D01*
X123862670Y-57926500D01*
X123861760Y-57930251D01*
X123862085Y-57932438D01*
X123861583Y-57937542D01*
X123216222Y-57937542D01*
X122903802Y-57006115D01*
X122865455Y-56961901D01*
X122813108Y-56935727D01*
X122754728Y-56931578D01*
X122699203Y-56950086D01*
X122654989Y-56988433D01*
X122628815Y-57040780D01*
X122624666Y-57099160D01*
X122631185Y-57127834D01*
X123044290Y-58359438D01*
X122445573Y-58360799D01*
X122444415Y-57813040D01*
X122422017Y-57758968D01*
X122380633Y-57717584D01*
X122326561Y-57695186D01*
X122268033Y-57695186D01*
X122213961Y-57717584D01*
X122172577Y-57758968D01*
X122150179Y-57813040D01*
X122147297Y-57842304D01*
X122148395Y-58361475D01*
X121982319Y-58361853D01*
X121928247Y-58384251D01*
X121886863Y-58425635D01*
X121864465Y-58479707D01*
X120932802Y-58479707D01*
X119927284Y-56974445D01*
X119878654Y-56941878D01*
X119821265Y-56930400D01*
X119763850Y-56941758D01*
X119715152Y-56974223D01*
X119682585Y-57022853D01*
X119671107Y-57080242D01*
X119105142Y-57080242D01*
X119049744Y-57053362D01*
X119047300Y-57050918D01*
X119029575Y-57043576D01*
X119003583Y-57030964D01*
X118998205Y-57030581D01*
X118993228Y-57028520D01*
X118963964Y-57025638D01*
X118510753Y-57028222D01*
X118506535Y-57026816D01*
X118484650Y-57028370D01*
X118458509Y-57028520D01*
X118453530Y-57030582D01*
X118448155Y-57030964D01*
X118420691Y-57041474D01*
X118231592Y-57138852D01*
X118213962Y-57146155D01*
X118208151Y-57150923D01*
X118205329Y-57152377D01*
X118202732Y-57155370D01*
X118191231Y-57164810D01*
X118096546Y-57262882D01*
X118083560Y-57274146D01*
X118079601Y-57280434D01*
X118077338Y-57282779D01*
X118075822Y-57286438D01*
X118067895Y-57299032D01*
X117984545Y-57470809D01*
X117982101Y-57473254D01*
X117974759Y-57490978D01*
X117962147Y-57516971D01*
X117961764Y-57522348D01*
X117959703Y-57527326D01*
X117956821Y-57556590D01*
X117436879Y-57556590D01*
X117396796Y-57167255D01*
X117396796Y-57146374D01*
X117393935Y-57139467D01*
X117393154Y-57131880D01*
X117382787Y-57112555D01*
X117374398Y-57092302D01*
X117369058Y-57086962D01*
X117365487Y-57080305D01*
X117348516Y-57066420D01*
X117333014Y-57050918D01*
X117326035Y-57048027D01*
X117320190Y-57043245D01*
X117299201Y-57036911D01*
X117278942Y-57028520D01*
X117267730Y-57027415D01*
X117264158Y-57026338D01*
X117260500Y-57026703D01*
X117249678Y-57025638D01*
X116268033Y-57028520D01*
X116213961Y-57050918D01*
X116172577Y-57092302D01*
X116150179Y-57146374D01*
X116150179Y-57204902D01*
X116172577Y-57258974D01*
X116213961Y-57300358D01*
X116268033Y-57322756D01*
X116297297Y-57325638D01*
X117114081Y-57323240D01*
X117165775Y-57825355D01*
X117144982Y-57815266D01*
X117142538Y-57812822D01*
X117124813Y-57805480D01*
X117098821Y-57792868D01*
X117093443Y-57792485D01*
X117088466Y-57790424D01*
X117059202Y-57787542D01*
X116605991Y-57790126D01*
X116601773Y-57788720D01*
X116579888Y-57790274D01*
X116553747Y-57790424D01*
X116548768Y-57792486D01*
X116543393Y-57792868D01*
X116515929Y-57803378D01*
X116326833Y-57900754D01*
X116309199Y-57908059D01*
X116303387Y-57912828D01*
X116300567Y-57914281D01*
X116297971Y-57917273D01*
X116286469Y-57926714D01*
X116191783Y-58024788D01*
X116178798Y-58036051D01*
X116174839Y-58042339D01*
X116172576Y-58044684D01*
X116171060Y-58048343D01*
X116163133Y-58060937D01*
X116079783Y-58232714D01*
X116077339Y-58235159D01*
X116069997Y-58252883D01*
X116057385Y-58278876D01*
X116057002Y-58284253D01*
X116054941Y-58289231D01*
X116052059Y-58318495D01*
X115829837Y-58318495D01*
X115829837Y-56708178D01*
X147717034Y-56708178D01*
X147717034Y-60024050D01*
G37*
D12*
%TO.C,C1*%
X136933000Y-121658748D02*
X136933000Y-122181252D01*
X138403000Y-121658748D02*
X138403000Y-122181252D01*
%TO.C,C4*%
X132615000Y-121658748D02*
X132615000Y-122181252D01*
X134085000Y-121658748D02*
X134085000Y-122181252D01*
%TO.C,C5*%
X141493500Y-102883748D02*
X141493500Y-103406252D01*
X142963500Y-102883748D02*
X142963500Y-103406252D01*
%TO.C,C2*%
X139092000Y-121658748D02*
X139092000Y-122181252D01*
X140562000Y-121658748D02*
X140562000Y-122181252D01*
D13*
%TO.C,U2*%
X133272500Y-126517500D02*
X139777500Y-126517500D01*
X133272500Y-130022500D02*
X133272500Y-126517500D01*
X139777500Y-126517500D02*
X139777500Y-130022500D01*
X139777500Y-130022500D02*
X133272500Y-130022500D01*
D10*
X134335000Y-123270000D02*
G75*
G02*
X134135000Y-123270000I-100000J0D01*
G01*
X134135000Y-123270000D02*
G75*
G02*
X134335000Y-123270000I100000J0D01*
G01*
D12*
%TO.C,SW1*%
X146258500Y-101314000D02*
X152378500Y-101314000D01*
X146258500Y-104934000D02*
X146258500Y-101314000D01*
X152378500Y-101314000D02*
X152378500Y-104934000D01*
X152378500Y-104934000D02*
X146258500Y-104934000D01*
%TO.C,C7*%
X138168748Y-134901000D02*
X138691252Y-134901000D01*
X138168748Y-136371000D02*
X138691252Y-136371000D01*
%TO.C,SW2*%
X146292000Y-94583000D02*
X152412000Y-94583000D01*
X146292000Y-98203000D02*
X146292000Y-94583000D01*
X152412000Y-94583000D02*
X152412000Y-98203000D01*
X152412000Y-98203000D02*
X146292000Y-98203000D01*
%TO.C,R2*%
X155602000Y-96620064D02*
X155602000Y-96165936D01*
X157072000Y-96620064D02*
X157072000Y-96165936D01*
%TO.C,U1*%
X131658000Y-97834000D02*
X133858000Y-97834000D01*
X131658000Y-104604000D02*
X133858000Y-104604000D01*
X136058000Y-97834000D02*
X133858000Y-97834000D01*
X136058000Y-104604000D02*
X133858000Y-104604000D01*
X138048000Y-98534000D02*
X137718000Y-98294000D01*
X138048000Y-98054000D01*
X138048000Y-98534000D01*
G36*
X138048000Y-98534000D02*
G01*
X137718000Y-98294000D01*
X138048000Y-98054000D01*
X138048000Y-98534000D01*
G37*
%TO.C,C3*%
X134774000Y-121658748D02*
X134774000Y-122181252D01*
X136244000Y-121658748D02*
X136244000Y-122181252D01*
D13*
%TO.C,D77*%
X138342000Y-140744000D02*
X138342000Y-137894000D01*
X140042000Y-137894000D02*
X140042000Y-140744000D01*
D10*
X139292000Y-136319000D02*
G75*
G02*
X139092000Y-136319000I-100000J0D01*
G01*
X139092000Y-136319000D02*
G75*
G02*
X139292000Y-136319000I100000J0D01*
G01*
D12*
%TO.C,R4*%
X136171000Y-139726936D02*
X136171000Y-140181064D01*
X137641000Y-139726936D02*
X137641000Y-140181064D01*
%TO.C,R1*%
X155717500Y-103372064D02*
X155717500Y-102917936D01*
X157187500Y-103372064D02*
X157187500Y-102917936D01*
%TO.C,R3*%
X133503936Y-140108000D02*
X133958064Y-140108000D01*
X133503936Y-141578000D02*
X133958064Y-141578000D01*
%TD*%
M02*
