%TF.GenerationSoftware,KiCad,Pcbnew,8.0.2*%
%TF.CreationDate,2025-04-19T12:26:07+02:00*%
%TF.ProjectId,WRadioLogo,57526164-696f-44c6-9f67-6f2e6b696361,rev?*%
%TF.SameCoordinates,Original*%
%TF.FileFunction,Paste,Bot*%
%TF.FilePolarity,Positive*%
%FSLAX46Y46*%
G04 Gerber Fmt 4.6, Leading zero omitted, Abs format (unit mm)*
G04 Created by KiCad (PCBNEW 8.0.2) date 2025-04-19 12:26:07*
%MOMM*%
%LPD*%
G01*
G04 APERTURE LIST*
G04 Aperture macros list*
%AMRoundRect*
0 Rectangle with rounded corners*
0 $1 Rounding radius*
0 $2 $3 $4 $5 $6 $7 $8 $9 X,Y pos of 4 corners*
0 Add a 4 corners polygon primitive as box body*
4,1,4,$2,$3,$4,$5,$6,$7,$8,$9,$2,$3,0*
0 Add four circle primitives for the rounded corners*
1,1,$1+$1,$2,$3*
1,1,$1+$1,$4,$5*
1,1,$1+$1,$6,$7*
1,1,$1+$1,$8,$9*
0 Add four rect primitives between the rounded corners*
20,1,$1+$1,$2,$3,$4,$5,0*
20,1,$1+$1,$4,$5,$6,$7,0*
20,1,$1+$1,$6,$7,$8,$9,0*
20,1,$1+$1,$8,$9,$2,$3,0*%
G04 Aperture macros list end*
%ADD10RoundRect,0.250000X0.475000X-0.337500X0.475000X0.337500X-0.475000X0.337500X-0.475000X-0.337500X0*%
%ADD11RoundRect,0.065100X-0.399900X0.589900X-0.399900X-0.589900X0.399900X-0.589900X0.399900X0.589900X0*%
%ADD12RoundRect,0.314400X-1.305600X0.340600X-1.305600X-0.340600X1.305600X-0.340600X1.305600X0.340600X0*%
%ADD13R,2.180000X1.600000*%
%ADD14RoundRect,0.250000X0.337500X0.475000X-0.337500X0.475000X-0.337500X-0.475000X0.337500X-0.475000X0*%
%ADD15RoundRect,0.250000X-0.450000X0.350000X-0.450000X-0.350000X0.450000X-0.350000X0.450000X0.350000X0*%
%ADD16RoundRect,0.100000X0.637500X0.100000X-0.637500X0.100000X-0.637500X-0.100000X0.637500X-0.100000X0*%
%ADD17R,0.730000X1.210000*%
%ADD18RoundRect,0.250000X0.450000X-0.350000X0.450000X0.350000X-0.450000X0.350000X-0.450000X-0.350000X0*%
%ADD19RoundRect,0.250000X0.350000X0.450000X-0.350000X0.450000X-0.350000X-0.450000X0.350000X-0.450000X0*%
G04 APERTURE END LIST*
D10*
%TO.C,C1*%
X137668000Y-122957500D03*
X137668000Y-120882500D03*
%TD*%
%TO.C,C4*%
X133350000Y-122957500D03*
X133350000Y-120882500D03*
%TD*%
%TO.C,C5*%
X142228500Y-104182500D03*
X142228500Y-102107500D03*
%TD*%
%TO.C,C2*%
X139827000Y-122957500D03*
X139827000Y-120882500D03*
%TD*%
D11*
%TO.C,U2*%
X134235000Y-124925000D03*
X136525000Y-124925000D03*
X138815000Y-124925000D03*
D12*
X136525000Y-131615000D03*
%TD*%
D13*
%TO.C,SW1*%
X153908500Y-103124000D03*
X144728500Y-103124000D03*
%TD*%
D14*
%TO.C,C7*%
X139467500Y-135636000D03*
X137392500Y-135636000D03*
%TD*%
D13*
%TO.C,SW2*%
X144762000Y-96393000D03*
X153942000Y-96393000D03*
%TD*%
D15*
%TO.C,R2*%
X156337000Y-95393000D03*
X156337000Y-97393000D03*
%TD*%
D16*
%TO.C,U1*%
X136720500Y-98294000D03*
X136720500Y-98944000D03*
X136720500Y-99594000D03*
X136720500Y-100244000D03*
X136720500Y-100894000D03*
X136720500Y-101544000D03*
X136720500Y-102194000D03*
X136720500Y-102844000D03*
X136720500Y-103494000D03*
X136720500Y-104144000D03*
X130995500Y-104144000D03*
X130995500Y-103494000D03*
X130995500Y-102844000D03*
X130995500Y-102194000D03*
X130995500Y-101544000D03*
X130995500Y-100894000D03*
X130995500Y-100244000D03*
X130995500Y-99594000D03*
X130995500Y-98944000D03*
X130995500Y-98294000D03*
%TD*%
D10*
%TO.C,C3*%
X135509000Y-122957500D03*
X135509000Y-120882500D03*
%TD*%
D17*
%TO.C,D77*%
X139192000Y-140999000D03*
X139192000Y-137639000D03*
%TD*%
D18*
%TO.C,R4*%
X136906000Y-140954000D03*
X136906000Y-138954000D03*
%TD*%
D15*
%TO.C,R1*%
X156452500Y-102145000D03*
X156452500Y-104145000D03*
%TD*%
D19*
%TO.C,R3*%
X134731000Y-140843000D03*
X132731000Y-140843000D03*
%TD*%
M02*
