M48
; DRILL file {KiCad 8.0.2} date 2025-04-19T12:26:08+0200
; FORMAT={-:-/ absolute / inch / decimal}
; #@! TF.CreationDate,2025-04-19T12:26:08+02:00
; #@! TF.GenerationSoftware,Kicad,Pcbnew,8.0.2
; #@! TF.FileFunction,Plated,1,2,PTH
FMAT,2
INCH
; #@! TA.AperFunction,Plated,PTH,ViaDrill
T1C0.0118
; #@! TA.AperFunction,Plated,PTH,ComponentDrill
T2C0.0236
; #@! TA.AperFunction,Plated,PTH,ComponentDrill
T3C0.0394
%
G90
G05
T1
X3.5304Y-4.13
X3.6109Y-4.4666
X3.669Y-4.4968
X3.775Y-3.3125
X3.8228Y-2.9488
X3.9331Y-2.937
X3.9415Y-4.6865
X3.9656Y-4.9728
X4.0163Y-4.9963
X4.1662Y-2.7508
X4.2497Y-3.5245
X4.34Y-5.395
X4.365Y-5.0001
X4.3741Y-3.8986
X4.4054Y-2.7943
X4.4094Y-4.9449
X4.42Y-5.49
X4.4296Y-2.8734
X4.43Y-5.36
X4.465Y-3.0735
X4.4813Y-4.8036
X4.4843Y-3.6732
X4.5226Y-3.526
X4.5591Y-4.9331
X4.5984Y-3.6654
X4.6879Y-2.7508
X4.69Y-5.094
X4.7149Y-4.6045
X4.7323Y-4.9528
X4.7421Y-5.45
X4.815Y-5.47
X4.8151Y-4.3241
X4.8227Y-4.1014
X4.825Y-3.723
X4.8586Y-5.0238
X4.86Y-2.2831
X4.875Y-5.51
X4.9129Y-4.1227
X4.9173Y-4.9528
X4.945Y-5.32
X4.9452Y-4.3449
X4.9921Y-4.9843
X5.0709Y-5.0354
X5.0786Y-3.7467
X5.0879Y-4.4816
X5.0929Y-3.9978
X5.1252Y-4.25
X5.166Y-5.4153
X5.1889Y-4.7818
X5.2175Y-5.3525
X5.225Y-4.065
X5.235Y-5.445
X5.2441Y-3.4331
X5.27Y-4.0
X5.2829Y-3.5402
X5.3069Y-5.6808
X5.311Y-3.9685
X5.33Y-5.37
X5.385Y-5.255
X5.4134Y-3.6614
X5.4185Y-3.5395
X5.425Y-5.588
X5.4372Y-5.55
X5.4435Y-5.1355
X5.4606Y-3.5984
X5.5034Y-5.265
X5.5377Y-3.6715
X5.5699Y-4.9449
X5.61Y-3.775
X5.6102Y-4.8858
X5.6557Y-4.8463
X5.6575Y-3.2953
X5.6822Y-5.2023
X5.759Y-4.6489
X5.7677Y-5.0591
X5.7756Y-4.7008
X5.78Y-5.36
X5.7913Y-3.0236
X5.8355Y-4.3864
X5.8819Y-2.3465
X5.9322Y-4.6549
X5.9561Y-4.2564
X5.97Y-3.745
X5.9882Y-4.0984
X5.9921Y-4.0079
X6.0039Y-3.9409
X6.03Y-5.015
X6.0865Y-4.085
X6.1102Y-2.4646
X6.1417Y-4.5039
X6.1535Y-3.9055
X6.1929Y-3.4646
X6.21Y-4.1644
X6.2108Y-3.8035
X6.2342Y-3.63
X6.2717Y-2.878
X6.2756Y-4.9252
X6.3315Y-3.4365
X6.3503Y-3.9623
X6.374Y-2.8346
X6.39Y-2.98
X6.4055Y-4.7953
X6.4369Y-4.1518
X6.4409Y-3.6142
X6.4528Y-2.7598
X6.5039Y-3.6181
X6.5118Y-3.5315
X6.6299Y-4.6339
X6.6654Y-3.1024
X6.6708Y-4.6551
X6.6772Y-3.5472
X6.7323Y-3.3307
X6.7323Y-3.437
X6.7756Y-3.2165
X6.78Y-4.27
X6.8019Y-3.9947
X6.811Y-3.1181
X6.8228Y-2.7007
X6.8257Y-4.1873
X6.8312Y-3.5277
X6.834Y-4.1314
X6.8393Y-4.5742
X6.9331Y-4.3346
X6.9882Y-4.2638
X7.0744Y-3.8194
X7.101Y-3.7579
X7.1254Y-3.8226
T3
X4.6454Y-5.665
X4.7454Y-5.665
X4.8454Y-5.665
X4.9454Y-5.665
X5.755Y-5.665
X5.855Y-5.665
X5.955Y-5.665
T2
G00X5.1858Y-5.6396
M15
G01X5.1858Y-5.6829
M16
G05
G00X5.1858Y-5.8097
M15
G01X5.1858Y-5.8412
M16
G05
G00X5.5264Y-5.6396
M15
G01X5.5264Y-5.6829
M16
G05
G00X5.5264Y-5.8097
M15
G01X5.5264Y-5.8412
M16
G05
M30
