%TF.GenerationSoftware,KiCad,Pcbnew,8.0.2*%
%TF.CreationDate,2025-04-19T12:26:07+02:00*%
%TF.ProjectId,WRadioLogo,57526164-696f-44c6-9f67-6f2e6b696361,rev?*%
%TF.SameCoordinates,Original*%
%TF.FileFunction,Soldermask,Bot*%
%TF.FilePolarity,Negative*%
%FSLAX46Y46*%
G04 Gerber Fmt 4.6, Leading zero omitted, Abs format (unit mm)*
G04 Created by KiCad (PCBNEW 8.0.2) date 2025-04-19 12:26:07*
%MOMM*%
%LPD*%
G01*
G04 APERTURE LIST*
G04 Aperture macros list*
%AMRoundRect*
0 Rectangle with rounded corners*
0 $1 Rounding radius*
0 $2 $3 $4 $5 $6 $7 $8 $9 X,Y pos of 4 corners*
0 Add a 4 corners polygon primitive as box body*
4,1,4,$2,$3,$4,$5,$6,$7,$8,$9,$2,$3,0*
0 Add four circle primitives for the rounded corners*
1,1,$1+$1,$2,$3*
1,1,$1+$1,$4,$5*
1,1,$1+$1,$6,$7*
1,1,$1+$1,$8,$9*
0 Add four rect primitives between the rounded corners*
20,1,$1+$1,$2,$3,$4,$5,0*
20,1,$1+$1,$4,$5,$6,$7,0*
20,1,$1+$1,$6,$7,$8,$9,0*
20,1,$1+$1,$8,$9,$2,$3,0*%
G04 Aperture macros list end*
%ADD10C,3.200000*%
%ADD11C,0.600000*%
%ADD12O,1.104000X2.204000*%
%ADD13O,1.104000X1.904000*%
%ADD14R,1.700000X1.700000*%
%ADD15O,1.700000X1.700000*%
%ADD16C,0.900000*%
%ADD17RoundRect,0.250000X0.475000X-0.337500X0.475000X0.337500X-0.475000X0.337500X-0.475000X-0.337500X0*%
%ADD18RoundRect,0.079380X-0.487620X0.677620X-0.487620X-0.677620X0.487620X-0.677620X0.487620X0.677620X0*%
%ADD19RoundRect,0.363360X-1.358640X0.393640X-1.358640X-0.393640X1.358640X-0.393640X1.358640X0.393640X0*%
%ADD20R,2.180000X1.600000*%
%ADD21RoundRect,0.250000X0.337500X0.475000X-0.337500X0.475000X-0.337500X-0.475000X0.337500X-0.475000X0*%
%ADD22RoundRect,0.250000X-0.450000X0.350000X-0.450000X-0.350000X0.450000X-0.350000X0.450000X0.350000X0*%
%ADD23RoundRect,0.100000X0.637500X0.100000X-0.637500X0.100000X-0.637500X-0.100000X0.637500X-0.100000X0*%
%ADD24RoundRect,0.102000X-0.365000X0.605000X-0.365000X-0.605000X0.365000X-0.605000X0.365000X0.605000X0*%
%ADD25RoundRect,0.250000X0.450000X-0.350000X0.450000X0.350000X-0.450000X0.350000X-0.450000X-0.350000X0*%
%ADD26RoundRect,0.250000X0.350000X0.450000X-0.350000X0.450000X-0.350000X-0.450000X0.350000X-0.450000X0*%
G04 APERTURE END LIST*
D10*
%TO.C,H1*%
X171069000Y-128524000D03*
%TD*%
D11*
%TO.C,J1*%
X133155000Y-144286500D03*
X138935000Y-144286500D03*
D12*
X131720000Y-143796500D03*
X140370000Y-143796500D03*
D13*
X131720000Y-147966500D03*
X140370000Y-147966500D03*
%TD*%
D14*
%TO.C,J2*%
X117993000Y-143891000D03*
D15*
X120533000Y-143891000D03*
X123073000Y-143891000D03*
X125613000Y-143891000D03*
%TD*%
D16*
%TO.C,S1*%
X176516958Y-75458005D03*
X174883042Y-72941995D03*
%TD*%
D10*
%TO.C,H2*%
X105918000Y-65024000D03*
%TD*%
D14*
%TO.C,J3*%
X146177000Y-143891000D03*
D15*
X148717000Y-143891000D03*
X151257000Y-143891000D03*
%TD*%
D17*
%TO.C,C1*%
X137668000Y-122957500D03*
X137668000Y-120882500D03*
%TD*%
%TO.C,C4*%
X133350000Y-122957500D03*
X133350000Y-120882500D03*
%TD*%
%TO.C,C5*%
X142228500Y-104182500D03*
X142228500Y-102107500D03*
%TD*%
%TO.C,C2*%
X139827000Y-122957500D03*
X139827000Y-120882500D03*
%TD*%
D18*
%TO.C,U2*%
X134235000Y-124925000D03*
X136525000Y-124925000D03*
X138815000Y-124925000D03*
D19*
X136525000Y-131615000D03*
%TD*%
D20*
%TO.C,SW1*%
X153908500Y-103124000D03*
X144728500Y-103124000D03*
%TD*%
D21*
%TO.C,C7*%
X139467500Y-135636000D03*
X137392500Y-135636000D03*
%TD*%
D20*
%TO.C,SW2*%
X144762000Y-96393000D03*
X153942000Y-96393000D03*
%TD*%
D22*
%TO.C,R2*%
X156337000Y-95393000D03*
X156337000Y-97393000D03*
%TD*%
D23*
%TO.C,U1*%
X136720500Y-98294000D03*
X136720500Y-98944000D03*
X136720500Y-99594000D03*
X136720500Y-100244000D03*
X136720500Y-100894000D03*
X136720500Y-101544000D03*
X136720500Y-102194000D03*
X136720500Y-102844000D03*
X136720500Y-103494000D03*
X136720500Y-104144000D03*
X130995500Y-104144000D03*
X130995500Y-103494000D03*
X130995500Y-102844000D03*
X130995500Y-102194000D03*
X130995500Y-101544000D03*
X130995500Y-100894000D03*
X130995500Y-100244000D03*
X130995500Y-99594000D03*
X130995500Y-98944000D03*
X130995500Y-98294000D03*
%TD*%
D17*
%TO.C,C3*%
X135509000Y-122957500D03*
X135509000Y-120882500D03*
%TD*%
D24*
%TO.C,D77*%
X139192000Y-140999000D03*
X139192000Y-137639000D03*
%TD*%
D25*
%TO.C,R4*%
X136906000Y-140954000D03*
X136906000Y-138954000D03*
%TD*%
D22*
%TO.C,R1*%
X156452500Y-102145000D03*
X156452500Y-104145000D03*
%TD*%
D26*
%TO.C,R3*%
X134731000Y-140843000D03*
X132731000Y-140843000D03*
%TD*%
M02*
